<?xml version="1.0" standalone="no"?>
<!DOCTYPE svg PUBLIC "-//W3C//DTD SVG 1.1//EN" "http://www.w3.org/Graphics/SVG/1.1/DTD/svg11.dtd" >
<svg>
<metadata>
Created by FontForge 20120731 at Sat Jun 29 14:19:36 2019
 By www
Published by Die Gestalten Verlag GmbH &#38; Co. KG, 2008
Copyright (c) by Binnenland and re-p.org, 2008. All rights reserved. This software may not be reproduced, used, displayed, modified, disclosed or transferred without the express written approval of (Binnenland). 
</metadata>
<defs>
<font id="BlenderPro-Heavy" horiz-adv-x="516" >
  <font-face 
    font-family="Blender Pro Heavy"
    font-weight="900"
    font-stretch="normal"
    units-per-em="1000"
    panose-1="2 0 9 6 3 0 0 1 0 4"
    ascent="800"
    descent="-200"
    x-height="600"
    cap-height="600"
    bbox="-83 -208 1125 835"
    underline-thickness="20"
    underline-position="-113"
    stemh="117"
    stemv="122"
    unicode-range="U+000D-FB02"
  />
<missing-glyph horiz-adv-x="980" 
 />
    <glyph glyph-name=".notdef" horiz-adv-x="980" 
 />
    <glyph glyph-name="NUL" horiz-adv-x="461" 
 />
    <glyph glyph-name="CR" unicode="&#xd;" 
 />
    <glyph glyph-name="space" unicode=" " horiz-adv-x="240" 
 />
    <glyph glyph-name="lslash" unicode="&#x142;" horiz-adv-x="469" 
d="M268 318l-109 -58v-143h266v-118h-388v196l-32 -17l-53 99l85 45v277h122v-212l56 30z" />
    <glyph glyph-name="Scaron" unicode="&#x160;" horiz-adv-x="565" 
d="M193 487c-16 -8 -37 -34 -37 -35v-53c0 -4 3 -6 3 -6l254 -69c55 -15 83 -67 83 -116v-59c0 -16 -5 -42 -18 -62c-13 -19 -52 -60 -73 -73c-16 -9 -42 -19 -66 -19h-153c-61 0 -108 51 -132 85c-13 18 -25 39 -34 64l113 35c14 -25 31 -53 52 -67h152c15 8 36 33 36 34
v59c0 5 -3 6 -3 6c-83 22 -169 46 -253 68c-56 15 -83 67 -83 116v55c0 18 3 43 16 63c12 17 52 58 75 72c16 9 41 19 65 19h142c61 0 107 -51 131 -84c16 -22 26 -43 34 -64l-113 -32c-13 27 -25 44 -53 63h-138zM284 660h-59l-145 136h140l35 -39l34 39h140z" />
    <glyph glyph-name="scaron" unicode="&#x161;" horiz-adv-x="539" 
d="M473 148c0 -17 -3 -43 -16 -63c-9 -14 -53 -59 -67 -69c-21 -15 -49 -22 -75 -22h-144c-59 0 -106 50 -131 84c-8 9 -18 32 -25 46l119 32c10 -24 27 -39 37 -45h148c14 8 32 33 32 34v60c0 4 -3 6 -3 6c-79 22 -160 46 -240 68c-55 15 -83 67 -83 116v55
c0 18 3 43 16 63c9 12 50 56 66 68c20 14 49 24 75 24h128c59 0 109 -49 131 -83c9 -15 15 -25 24 -45l-117 -32c-12 24 -30 36 -42 43h-118c-20 -10 -41 -35 -41 -36v-53c0 -4 3 -6 3 -6c79 -23 161 -46 241 -69c54 -16 82 -68 82 -116v-60zM275 660h-59l-145 136h140
l35 -39l34 39h140z" />
    <glyph glyph-name="Yacute" unicode="&#xdd;" horiz-adv-x="511" 
d="M500 600l-204 -340v-260h-123v260l-201 340h138l125 -211l127 211h138zM277 660h-118l93 136h130z" />
    <glyph glyph-name="yacute" unicode="&#xfd;" horiz-adv-x="511" 
d="M500 600l-204 -340v-260h-123v260l-201 340h138l125 -211l127 211h138zM277 660h-118l93 136h130z" />
    <glyph glyph-name="HT" horiz-adv-x="461" 
 />
    <glyph glyph-name="LF" horiz-adv-x="461" 
 />
    <glyph glyph-name="eth" unicode="&#xf0;" horiz-adv-x="589" 
d="M507 151c0 -18 -4 -42 -16 -61c-14 -20 -52 -58 -74 -71c-17 -9 -41 -19 -64 -19h-286v245h-78v112h78v243h286c21 0 47 -6 66 -18c22 -14 59 -57 71 -73c14 -20 17 -41 17 -62v-296zM287 245h-98v-128h159c14 8 27 19 37 38v287c-9 22 -22 32 -37 41h-159v-126h98v-112z
" />
    <glyph glyph-name="Zcaron" unicode="&#x17d;" horiz-adv-x="504" 
d="M449 0h-416v89l257 394h-253v117h412v-90l-254 -393h254v-117zM271 660h-59l-145 136h140l35 -39l34 39h140z" />
    <glyph glyph-name="zcaron" unicode="&#x17e;" horiz-adv-x="504" 
d="M449 0h-416v89l257 394h-253v117h412v-90l-254 -393h254v-117zM271 660h-59l-145 136h140l35 -39l34 39h140z" />
    <glyph glyph-name="DLE" 
 />
    <glyph glyph-name="DC1" 
 />
    <glyph glyph-name="DC2" 
 />
    <glyph glyph-name="DC3" 
 />
    <glyph glyph-name="DC4" horiz-adv-x="306" 
 />
    <glyph glyph-name="onehalf" unicode="&#xbd;" horiz-adv-x="723" 
 />
    <glyph glyph-name="onequarter" unicode="&#xbc;" horiz-adv-x="670" 
 />
    <glyph glyph-name="onesuperior" unicode="&#xb9;" horiz-adv-x="319" 
 />
    <glyph glyph-name="threequarters" unicode="&#xbe;" horiz-adv-x="675" 
 />
    <glyph glyph-name="brokenbar" unicode="&#xa6;" horiz-adv-x="207" 
d="M162 -89h-117v330h117v-330zM162 343h-117v330h117v-330z" />
    <glyph glyph-name="minus" unicode="&#x2212;" horiz-adv-x="479" 
d="M396 193h-368v112h368v-112z" />
    <glyph glyph-name="multiply" unicode="&#xd7;" horiz-adv-x="526" 
d="M355 56l-114 112l-116 -112l-83 82l116 113l-120 117l80 81l121 -118l120 112l82 -83l-119 -111l113 -112z" />
    <glyph glyph-name="RS" horiz-adv-x="461" 
 />
    <glyph glyph-name="US" horiz-adv-x="461" 
 />
    <glyph glyph-name="Lslash" unicode="&#x141;" horiz-adv-x="469" 
d="M268 318l-109 -58v-143h266v-118h-388v196l-32 -17l-53 99l85 45v277h122v-212l56 30z" />
    <glyph glyph-name="exclam" unicode="!" horiz-adv-x="304" 
d="M190 167h-121v434h121v-434zM193 0h-126v124h126v-124z" />
    <glyph glyph-name="quotedbl" unicode="&#x22;" horiz-adv-x="408" 
d="M380 499l-10 -77h-119l10 91v133h119v-147zM176 499l-10 -77h-118l10 91v133h118v-147z" />
    <glyph glyph-name="numbersign" unicode="#" horiz-adv-x="537" 
d="M489 421l-21 -113h-80c-2 -11 -5 -22 -7 -33h81l-20 -112h-81c-6 -30 -12 -63 -18 -93h-118l18 93h-34c-6 -30 -12 -63 -18 -93h-117l16 93h-80l20 112h81c2 10 4 23 6 33h-81l20 113h81c5 29 12 60 17 89h118l-17 -89h35c5 29 12 60 17 89h117l-16 -89h81zM271 319h-38
c-3 -15 -6 -33 -9 -48h40c2 16 5 32 7 48z" />
    <glyph glyph-name="dollar" unicode="$" horiz-adv-x="587" 
d="M505 442l-117 -33s-5 11 -7 14c-12 22 -28 46 -50 63h-132c-15 -8 -37 -34 -37 -35v-53c0 -4 3 -6 3 -6l254 -69c55 -15 83 -67 83 -116v-57c0 -17 -4 -42 -17 -62c-13 -18 -52 -60 -74 -73c-16 -9 -42 -19 -66 -19h-19v-113h-117v113h-18c-61 0 -106 51 -132 85
c-8 10 -24 37 -38 76l115 37c3 -8 6 -15 7 -17c11 -23 25 -47 51 -64h148c15 8 37 36 37 37v54c0 4 -3 6 -3 6c-83 22 -169 46 -253 68c-56 15 -83 67 -83 116v55c0 18 3 43 16 63c12 17 52 58 75 72c16 9 41 19 65 19h13v106h117v-106h9c61 0 106 -52 131 -84
c8 -10 24 -37 39 -77z" />
    <glyph glyph-name="percent" unicode="%" horiz-adv-x="856" 
d="M635 600l-328 -600h-126l330 600h124zM786 100c0 -17 -2 -35 -14 -51c-7 -9 -27 -29 -39 -38c-16 -11 -38 -18 -58 -18h-58c-20 0 -42 7 -57 18c-13 9 -33 29 -40 38c-12 16 -14 34 -14 51v134c0 17 2 35 14 51c7 9 27 29 40 38c15 11 37 18 57 18h58c20 0 42 -7 58 -18
c12 -9 32 -29 39 -38c12 -16 14 -34 14 -51v-134zM687 214c0 1 0 4 -1 6c-5 6 -12 12 -19 18c-1 1 -4 1 -5 1h-33c-1 0 -4 0 -5 -1c-7 -5 -15 -13 -20 -19c-1 -2 -1 -5 -1 -5v-95s0 -2 1 -4c5 -6 13 -15 20 -19c1 -1 4 -1 5 -1h33c1 0 4 0 5 1c6 5 15 12 19 18c1 2 1 5 1 5
v95zM311 362c0 -17 -2 -35 -14 -51c-7 -9 -27 -29 -39 -38c-16 -11 -38 -18 -58 -18h-58c-20 0 -42 7 -57 18c-13 9 -33 29 -40 38c-12 16 -14 34 -14 51v134c0 17 2 35 14 51c7 9 27 29 40 38c15 11 37 18 57 18h58c20 0 42 -7 58 -18c12 -9 32 -29 39 -38
c12 -16 14 -34 14 -51v-134zM212 476c0 1 0 4 -1 6c-5 6 -12 12 -19 18c-1 1 -4 1 -5 1h-33c-1 0 -4 0 -5 -1c-7 -5 -15 -13 -20 -19c-1 -2 -1 -5 -1 -5v-95s0 -2 1 -4c5 -6 13 -15 20 -19c1 -1 4 -1 5 -1h33c1 0 4 0 5 1c6 5 15 12 19 18c1 2 1 5 1 5v95z" />
    <glyph glyph-name="ampersand" unicode="&#x26;" horiz-adv-x="586" 
d="M511 189h-27v-51c0 -23 -8 -47 -20 -65c-10 -14 -39 -45 -54 -55c-20 -14 -51 -23 -76 -23h-151c-25 0 -55 9 -75 23c-15 11 -44 41 -53 55c-13 18 -20 41 -20 65v77c0 38 18 65 36 84c-19 21 -36 44 -36 84v76c0 22 8 48 20 66c10 15 39 43 53 53c20 14 46 26 75 26h89
c65 0 110 -52 131 -85c9 -14 17 -27 23 -43l-111 -31c-17 34 -35 37 -46 42h-86c-2 0 -18 -15 -26 -28v-77c7 -14 22 -28 26 -28h109v-113h-109c-2 0 -18 -14 -26 -26v-77c8 -12 24 -25 26 -25h151c4 0 21 11 28 24v164h149v-112z" />
    <glyph glyph-name="quotesingle" unicode="'" horiz-adv-x="248" 
d="M175 499l-10 -77h-118l10 91v133h118v-147z" />
    <glyph glyph-name="parenleft" unicode="(" horiz-adv-x="355" 
d="M193 -60l-111 103c-16 15 -31 32 -39 43c-12 19 -17 42 -17 62v301c0 20 5 43 17 62c8 11 23 28 39 43l111 103l80 -83l-111 -105c-11 -10 -18 -20 -18 -21v-299c0 -1 7 -11 18 -21l111 -105z" />
    <glyph glyph-name="parenright" unicode=")" horiz-adv-x="358" 
d="M223 43l-111 -103l-80 83l111 105c11 10 18 20 18 21v299c0 1 -7 11 -18 21l-111 105l80 83l111 -103c16 -15 31 -32 39 -43c12 -19 17 -42 17 -62v-301c0 -20 -5 -43 -17 -62c-8 -11 -23 -28 -39 -43z" />
    <glyph glyph-name="asterisk" unicode="*" horiz-adv-x="468" 
d="M386 466l-82 -26l52 -68l-93 -68l-50 70l-49 -70l-93 68l51 68l-82 25l36 110l81 -28l-2 86h115l-2 -86l82 29z" />
    <glyph glyph-name="plus" unicode="+" horiz-adv-x="526" 
d="M437 192h-138v-135h-117v135h-138v114h138v137h117v-137h138v-114z" />
    <glyph glyph-name="comma" unicode="," horiz-adv-x="312" 
d="M221 91l-80 -174h-133l98 209z" />
    <glyph glyph-name="hyphen" unicode="-" horiz-adv-x="382" 
d="M296 191h-259v113h259v-113z" />
    <glyph glyph-name="period" unicode="." horiz-adv-x="283" 
d="M188 0h-141v142h141v-142z" />
    <glyph glyph-name="slash" unicode="/" horiz-adv-x="437" 
d="M427 600l-328 -600h-132l329 600h131z" />
    <glyph glyph-name="zero" unicode="0" 
d="M449 149c0 -21 -4 -43 -17 -62c-12 -17 -50 -59 -74 -73h1c-17 -10 -41 -19 -65 -19h-118c-25 0 -49 9 -66 19c-22 13 -61 56 -73 73c-13 19 -17 41 -17 62v301c0 22 4 44 17 63c12 16 51 59 73 72c17 10 41 19 66 19h118c24 0 48 -9 65 -19h-1c24 -14 62 -56 74 -72
c13 -19 17 -41 17 -63v-301zM327 149v301c-7 13 -25 31 -35 37h-113c-8 -6 -25 -21 -37 -38v-300c10 -15 27 -32 36 -37h113c8 5 25 21 36 37z" />
    <glyph glyph-name="one" unicode="1" 
d="M329 0h-123v481h-108v119h231v-600z" />
    <glyph glyph-name="two" unicode="2" 
d="M184 487c-11 -6 -35 -24 -42 -41l-117 29c8 19 16 34 25 46c24 32 71 83 132 83h115c25 0 53 -10 73 -24c15 -10 44 -41 55 -55c16 -21 18 -56 18 -65v-63c0 -55 -36 -95 -77 -115c-67 -33 -135 -66 -202 -99c-5 -3 -9 -4 -9 -9v-57h280v-117h-402v177c0 52 35 92 78 113
c67 33 137 67 204 100c4 2 6 6 6 10v62c-7 13 -21 25 -24 25h-113z" />
    <glyph glyph-name="three" unicode="3" 
d="M444 140c0 -23 -6 -47 -19 -66c-9 -13 -39 -45 -55 -56c-20 -14 -48 -23 -73 -23h-115c-60 0 -107 50 -132 84c-9 12 -18 29 -25 46l119 32c11 -26 29 -39 40 -45h112c3 0 17 12 26 26v82c-7 14 -22 26 -26 26h-135v114h136c3 0 17 12 25 26v74c-9 14 -23 27 -26 27h-112
c-15 -7 -35 -25 -42 -41c0 -1 -117 29 -117 29c6 17 15 33 25 46c25 32 71 83 132 83h115c25 0 53 -10 73 -24c15 -10 44 -41 55 -55c14 -18 19 -43 19 -65v-75c0 -38 -18 -63 -35 -82c17 -20 35 -45 35 -84v-79z" />
    <glyph glyph-name="four" unicode="4" 
d="M451 116h-69v-116h-123v116h-259v93l251 391h131v-367h69v-117zM259 233v178c-37 -57 -77 -121 -115 -178h115z" />
    <glyph glyph-name="five" unicode="5" 
d="M443 140c0 -22 -7 -47 -19 -66c-10 -15 -40 -46 -53 -56c-21 -15 -51 -23 -77 -23h-116c-60 0 -107 49 -133 84c-6 8 -15 23 -23 46l119 32c11 -26 29 -38 39 -44h115c9 6 20 17 26 26v101c-6 10 -20 21 -29 28h-247v332h370v-118h-247v-97h126c27 0 56 -9 77 -24
c13 -10 42 -38 53 -53c12 -18 19 -43 19 -66v-102z" />
    <glyph glyph-name="six" unicode="6" 
d="M20 459c0 23 6 47 19 66c9 13 39 45 55 56c20 14 48 23 73 23h115c60 0 109 -49 132 -84c8 -12 17 -27 25 -46l-118 -32c-11 25 -28 40 -42 45h-111c-3 0 -17 -12 -26 -25v-86c2 1 4 3 6 4c12 7 27 15 39 15h107c26 0 52 -7 73 -22c14 -10 46 -41 55 -55
c13 -19 19 -42 19 -65v-114c0 -22 -7 -47 -19 -65c-9 -14 -40 -43 -55 -55c-20 -14 -48 -24 -73 -24h-127c-25 0 -53 10 -73 24c-15 11 -46 41 -55 55c-13 18 -19 41 -19 64v321zM142 249v-111c7 -13 23 -26 26 -26h126c3 0 17 11 25 24v116c-7 13 -23 27 -27 27h-112
c-2 0 -8 0 -12 -2c-6 -5 -18 -15 -26 -28z" />
    <glyph glyph-name="seven" unicode="7" 
d="M450 508l-248 -508h-139l243 483h-268v117h412v-92z" />
    <glyph glyph-name="eight" unicode="8" 
d="M444 140c0 -23 -6 -47 -19 -66c-9 -13 -39 -45 -55 -56c-20 -14 -48 -23 -73 -23h-126c-26 0 -53 8 -73 23c-13 10 -45 41 -55 56c-12 19 -19 44 -19 66v80c0 38 17 65 35 84c-18 20 -35 43 -35 82v74c0 22 7 47 19 65c9 14 40 43 55 55c20 14 48 24 73 24h126
c25 0 53 -10 73 -24c15 -10 44 -41 55 -55c12 -18 19 -43 19 -65v-74c0 -38 -18 -63 -35 -82c17 -20 35 -45 35 -84v-80zM322 137v81c-8 15 -22 27 -25 27h-126c-3 0 -17 -12 -25 -27v-80c8 -14 23 -26 26 -26h124c3 0 19 12 26 25zM322 385v76c-9 14 -23 26 -26 26h-124
c-3 0 -19 -12 -26 -25v-77c7 -15 22 -26 25 -26h126c3 0 18 12 25 26z" />
    <glyph glyph-name="nine" unicode="9" 
d="M441 140c0 -23 -6 -47 -19 -66c-9 -13 -39 -45 -55 -56c-20 -14 -48 -23 -73 -23h-115c-60 0 -109 49 -132 84c-8 12 -17 27 -25 46l118 32c11 -25 28 -40 42 -45h111c3 0 17 12 26 25v86c-2 -1 -4 -3 -6 -4c-12 -7 -27 -15 -39 -15h-107c-26 0 -52 7 -73 22
c-14 10 -46 41 -55 55c-13 19 -19 42 -19 65v114c0 22 7 47 19 65c9 14 40 43 55 55c20 14 48 24 73 24h127c25 0 53 -10 73 -24c15 -11 46 -41 55 -55c13 -18 19 -41 19 -64v-321zM319 350v111c-7 13 -23 26 -26 26h-126c-3 0 -17 -11 -25 -24v-116c7 -13 23 -27 27 -27
h112c2 0 8 0 12 2c6 5 18 15 26 28z" />
    <glyph glyph-name="colon" unicode=":" horiz-adv-x="301" 
d="M194 246h-143v145h143v-145zM194 0h-143v145h143v-145z" />
    <glyph glyph-name="semicolon" unicode=";" horiz-adv-x="308" 
d="M215 106l-79 -186h-133l97 223zM198 245h-143v147h143v-147z" />
    <glyph glyph-name="less" unicode="&#x3c;" horiz-adv-x="719" 
d="M641 241h-427c84 -80 171 -162 255 -242h-167l-312 300l312 302h167l-257 -243h429v-117z" />
    <glyph glyph-name="equal" unicode="=" horiz-adv-x="499" 
d="M415 282h-385v109h385v-109zM415 132h-385v109h385v-109z" />
    <glyph glyph-name="greater" unicode="&#x3e;" horiz-adv-x="719" 
d="M676 299l-313 -300h-166l254 242h-426v117h428c-85 81 -173 164 -257 243h167z" />
    <glyph glyph-name="question" unicode="?" horiz-adv-x="501" 
d="M437 398c0 -54 -36 -86 -77 -106l-14 -6c-22 -9 -57 -33 -57 -44v-72h-121v76c0 69 61 109 113 132c19 9 34 15 34 23v50c-6 21 -25 36 -28 36h-112c-13 -6 -29 -12 -43 -42l-116 31c5 15 16 34 24 45c24 32 71 83 131 83h115c26 0 54 -9 74 -24c13 -10 46 -41 57 -55
c12 -16 20 -44 20 -66v-61zM292 0h-127v124h127v-124z" />
    <glyph glyph-name="at" unicode="@" horiz-adv-x="680" 
d="M200 -49l-70 -93c-23 12 -63 56 -75 72c-13 20 -17 41 -17 61v461c0 20 4 42 17 61c12 16 52 60 75 73c17 10 42 18 65 18h238c22 0 48 -9 65 -19c23 -12 62 -56 75 -72c14 -18 17 -41 17 -61v-356c2 -28 7 -69 9 -96h-119l-2 12c-15 -9 -34 -17 -53 -17h-50
c-26 0 -59 9 -77 23c-16 12 -40 37 -49 50c-14 21 -20 42 -20 66v154c0 23 6 47 20 66c7 11 32 38 49 49c21 13 51 22 77 22h50c15 0 33 -5 45 -12v36s0 1 -1 2c-9 16 -32 37 -41 42h-228c-9 -5 -31 -26 -42 -43v-458l1 -1c9 -15 32 -36 41 -40zM470 133v155
c-13 15 -40 28 -48 28h-47c-7 -4 -20 -18 -27 -30v-151c7 -10 19 -25 27 -30h47c8 0 36 14 48 28z" />
    <glyph glyph-name="A" unicode="A" horiz-adv-x="580" 
d="M539 0h-130l-40 115h-209c-13 -37 -28 -78 -41 -115h-130l208 600h135zM332 232l-68 193c-22 -64 -45 -129 -67 -193h135z" />
    <glyph glyph-name="B" unicode="B" horiz-adv-x="553" 
d="M476 143c0 -23 -5 -46 -18 -65c-9 -13 -38 -44 -53 -55c-20 -14 -51 -23 -76 -23h-292v600h292c27 0 56 -10 76 -24c15 -11 44 -42 53 -54c14 -21 18 -46 18 -67v-72c0 -39 -15 -64 -33 -84c19 -21 33 -44 33 -84v-72zM354 143v73c-9 15 -24 28 -27 28h-168v-127h169
c3 0 18 12 26 26zM354 382v73c-9 15 -24 28 -27 28h-168v-126h169c3 0 19 13 26 25z" />
    <glyph glyph-name="C" unicode="C" horiz-adv-x="555" 
d="M488 456l-113 -32c-13 27 -25 44 -53 63h-125c-10 -7 -30 -26 -39 -40v-298c0 -1 15 -23 39 -37h127c21 14 37 35 51 60l114 -28c-9 -25 -21 -46 -34 -64c-24 -34 -71 -85 -132 -85h-131c-24 0 -49 9 -66 19c-21 13 -59 53 -73 72c-12 19 -17 42 -17 62v303
c0 22 4 43 17 62c12 16 51 58 74 72c16 9 41 19 65 19h131c61 0 107 -51 131 -84c16 -22 26 -43 34 -64z" />
    <glyph glyph-name="D" unicode="D" horiz-adv-x="564" 
d="M482 151c0 -18 -4 -42 -16 -61c-14 -20 -52 -58 -74 -71c-17 -9 -41 -19 -64 -19h-291v600h291c21 0 47 -6 66 -18c22 -14 59 -57 71 -73c14 -20 17 -41 17 -62v-296zM360 155v287c-9 22 -22 32 -37 41h-164v-366h164c14 8 27 19 37 38z" />
    <glyph glyph-name="E" unicode="E" 
d="M431 0h-394v600h394v-117h-272v-123h263v-117h-263v-126h272v-117z" />
    <glyph glyph-name="F" unicode="F" horiz-adv-x="506" 
d="M431 483h-272v-123h258v-117h-258v-243h-122v600h394v-117z" />
    <glyph glyph-name="G" unicode="G" horiz-adv-x="593" 
d="M127 586c17 10 42 18 66 18h152c61 0 107 -51 131 -84c16 -22 26 -43 34 -64l-113 -32c-13 27 -25 44 -53 63h-146c-9 -6 -28 -22 -39 -39v-303c0 -5 21 -25 37 -33h146c15 7 38 29 38 36v90h-137v114h259v-225c0 -12 3 -33 7 -57l12 -71h-121l-4 18c-3 -1 -10 -6 -13 -8
c-12 -7 -24 -14 -39 -14h-151c-25 0 -49 9 -66 19c-21 13 -59 51 -73 71c-12 19 -17 42 -17 62v304c0 22 4 44 17 63c12 16 51 59 73 72z" />
    <glyph glyph-name="H" unicode="H" horiz-adv-x="567" 
d="M481 0h-122v242h-200v-242h-122v600h122v-241h200v241h122v-600z" />
    <glyph glyph-name="I" unicode="I" horiz-adv-x="255" 
d="M164 0h-123v600h123v-600z" />
    <glyph glyph-name="J" unicode="J" horiz-adv-x="465" 
d="M190 -6v1h-36c-61 0 -108 51 -132 85c-13 18 -25 39 -34 64l114 28c14 -25 30 -46 51 -60h72c8 0 37 29 37 34v454h122v-453c0 -21 -6 -43 -19 -62c-11 -17 -49 -59 -71 -72c-18 -10 -42 -19 -66 -19h-38z" />
    <glyph glyph-name="K" unicode="K" horiz-adv-x="526" 
d="M496 0h-148l-179 248h-10v-248h-122v600h122v-244h10c4 0 180 244 180 244h144l-221 -296c3 -2 224 -304 224 -304z" />
    <glyph glyph-name="L" unicode="L" horiz-adv-x="469" 
d="M425 0h-388v600h122v-482h266v-118z" />
    <glyph glyph-name="M" unicode="M" horiz-adv-x="657" 
d="M568 0h-122v361c-34 -73 -70 -146 -104 -218h-80l-103 217v-360h-122v600h133l134 -272c44 90 88 183 132 272h132v-600z" />
    <glyph glyph-name="N" unicode="N" horiz-adv-x="563" 
d="M476 0h-123l-194 353v-353h-122v600h125l192 -358v358h122v-600z" />
    <glyph glyph-name="O" unicode="O" horiz-adv-x="581" 
d="M499 149c0 -21 -4 -43 -17 -62c-13 -17 -51 -60 -73 -73c-17 -10 -42 -19 -66 -19h-152c-25 0 -49 9 -66 19c-22 13 -61 56 -73 73c-13 19 -17 41 -17 62v301c0 22 4 44 17 63c12 16 51 59 73 72c17 10 41 19 66 19h152c24 0 49 -9 66 -19c22 -13 60 -56 73 -72
c13 -19 17 -41 17 -63v-301zM377 149v301c-7 12 -26 31 -36 37h-147c-8 -6 -25 -21 -37 -38v-300c11 -15 28 -32 36 -37h147c8 6 26 23 37 37z" />
    <glyph glyph-name="P" unicode="P" horiz-adv-x="534" 
d="M477 371c0 -24 -6 -46 -19 -65c-9 -14 -40 -44 -54 -54c-22 -16 -49 -23 -75 -23h-170v-229h-122v600h292c25 0 56 -9 75 -23c14 -11 44 -42 54 -55c13 -18 19 -44 19 -66v-85zM355 370v89c-5 8 -16 19 -26 24h-170v-137h170c3 0 20 14 26 24z" />
    <glyph glyph-name="Q" unicode="Q" horiz-adv-x="587" 
d="M505 149c0 -21 -4 -43 -17 -62c-13 -17 -51 -59 -73 -73c-1 0 -2 0 -3 -1c-7 -4 -16 -8 -24 -11c13 -30 26 -61 39 -91h-131l-35 84h-69c-25 0 -49 9 -66 19c-22 13 -61 56 -73 73c-13 19 -17 41 -17 62v301c0 22 4 44 17 63c12 16 51 59 73 72c17 10 41 19 66 19h157
c24 0 49 -9 66 -19c22 -13 60 -56 73 -72c13 -19 17 -41 17 -63v-301zM383 150v300c-7 12 -26 31 -36 37h-152c-8 -6 -25 -21 -37 -38v-299c10 -15 28 -31 37 -37h17c-1 2 -2 6 -3 8l113 38l19 -46h5c8 6 26 23 37 37z" />
    <glyph glyph-name="R" unicode="R" horiz-adv-x="565" 
d="M477 371c0 -24 -6 -46 -19 -65c-9 -14 -40 -44 -54 -54c-8 -6 -16 -10 -24 -14c49 -90 130 -238 130 -238h-136l-119 229h-96v-229h-122v600h292c25 0 56 -9 75 -23c14 -11 44 -42 54 -55c13 -18 19 -44 19 -66v-85zM355 370v89c-5 8 -16 19 -26 24h-170v-137h170
c3 0 20 14 26 24z" />
    <glyph glyph-name="S" unicode="S" horiz-adv-x="565" 
d="M193 487c-16 -8 -37 -34 -37 -35v-53c0 -4 3 -6 3 -6l254 -69c55 -15 83 -67 83 -116v-59c0 -16 -5 -42 -18 -62c-13 -19 -52 -60 -73 -73c-16 -9 -42 -19 -66 -19h-153c-61 0 -108 51 -132 85c-13 18 -25 39 -34 64l113 35c14 -25 31 -53 52 -67h152c15 8 36 33 36 34
v59c0 5 -3 6 -3 6c-83 22 -169 46 -253 68c-56 15 -83 67 -83 116v55c0 18 3 43 16 63c12 17 52 58 75 72c16 9 41 19 65 19h142c61 0 107 -51 131 -84c16 -22 26 -43 34 -64l-113 -32c-13 27 -25 44 -53 63h-138z" />
    <glyph glyph-name="T" unicode="T" horiz-adv-x="511" 
d="M454 483h-161v-483h-123v483h-162v117h446v-117z" />
    <glyph glyph-name="U" unicode="U" horiz-adv-x="573" 
d="M491 149c0 -21 -4 -43 -17 -62c-12 -17 -50 -60 -72 -73c-18 -10 -42 -19 -66 -19h-143c-25 0 -49 9 -66 19c-22 13 -61 56 -73 73c-13 19 -17 41 -17 62v451h122v-450c12 -15 29 -33 37 -38h137c8 5 25 21 36 37v451h122v-451z" />
    <glyph glyph-name="V" unicode="V" horiz-adv-x="558" 
d="M507 600l-191 -600h-135l-192 600h129l130 -429s136 429 130 429h129z" />
    <glyph glyph-name="W" unicode="W" horiz-adv-x="742" 
d="M707 600l-139 -600h-131l-87 351c-28 -116 -58 -235 -86 -351h-131l-137 600h126l79 -370c28 122 59 249 87 370h124l87 -370c26 122 52 249 78 370h130z" />
    <glyph glyph-name="X" unicode="X" horiz-adv-x="526" 
d="M484 600l-175 -295l182 -305h-136l-113 195l-113 -195h-136l181 305l-174 295h136l106 -185l107 185h135z" />
    <glyph glyph-name="Y" unicode="Y" horiz-adv-x="526" 
d="M498 600l-204 -340v-260h-123v260l-201 340h138l125 -211l127 211h138z" />
    <glyph glyph-name="Z" unicode="Z" horiz-adv-x="504" 
d="M449 0h-416v89l257 394h-253v117h412v-90l-254 -393h254v-117z" />
    <glyph glyph-name="bracketleft" unicode="[" horiz-adv-x="338" 
d="M251 0h-213v600h213v-113h-92v-374h92v-113z" />
    <glyph glyph-name="backslash" unicode="\" horiz-adv-x="449" 
d="M460 0h-137l-328 600h136z" />
    <glyph glyph-name="bracketright" unicode="]" horiz-adv-x="338" 
d="M248 0h-212v113h91v374h-91v113h212v-600z" />
    <glyph glyph-name="asciicircum" unicode="^" horiz-adv-x="370" 
d="M-10 281l109 319h117l113 -319h-108l-63 192l-62 -192h-106z" />
    <glyph glyph-name="underscore" unicode="_" horiz-adv-x="481" 
d="M421 0h-401v116h401v-116z" />
    <glyph glyph-name="grave" unicode="`" horiz-adv-x="409" 
d="M308 660h-118l-105 136h130z" />
    <glyph glyph-name="a" unicode="a" horiz-adv-x="570" 
d="M529 0h-130l-40 115h-209c-13 -37 -28 -78 -41 -115h-130l208 600h135zM322 232l-68 193c-22 -64 -45 -129 -67 -193h135z" />
    <glyph glyph-name="b" unicode="b" horiz-adv-x="543" 
d="M466 143c0 -23 -5 -46 -18 -65c-9 -13 -38 -44 -53 -55c-20 -14 -51 -23 -76 -23h-282v600h282c27 0 56 -10 76 -24c15 -11 44 -42 53 -54c14 -21 18 -46 18 -67v-72c0 -39 -15 -64 -33 -84c19 -21 33 -44 33 -84v-72zM344 143v73c-9 15 -24 28 -27 28h-158v-127h159
c3 0 18 12 26 26zM344 382v73c-9 15 -24 28 -27 28h-158v-126h159c3 0 19 13 26 25z" />
    <glyph glyph-name="c" unicode="c" horiz-adv-x="531" 
d="M469 125l1 -1c-7 -16 -17 -33 -25 -45c-23 -35 -72 -84 -131 -84h-115c-26 0 -52 5 -72 19c-21 13 -59 53 -73 72c-12 19 -17 42 -17 62v300c0 22 4 43 17 62c9 13 55 58 71 70c20 14 49 24 75 24h114c60 0 107 -51 131 -83c5 -7 17 -27 24 -45l-117 -32
c-15 29 -29 37 -42 43h-109c-10 -7 -33 -29 -42 -43v-298c0 -2 19 -24 41 -34h111c13 5 29 20 41 45z" />
    <glyph glyph-name="d" unicode="d" horiz-adv-x="560" 
d="M477 151c0 -18 -4 -42 -16 -61c-14 -20 -52 -58 -74 -71c-17 -9 -41 -19 -64 -19h-286v600h286c21 0 47 -6 66 -18c22 -14 59 -57 71 -73c14 -20 17 -41 17 -62v-296zM355 155v287c-9 22 -22 32 -37 41h-159v-366h159c14 8 27 19 37 38z" />
    <glyph glyph-name="e" unicode="e" horiz-adv-x="506" 
d="M421 0h-384v600h384v-117h-262v-124h253v-117h-253v-125h262v-117z" />
    <glyph glyph-name="f" unicode="f" horiz-adv-x="496" 
d="M421 483h-262v-124h248v-117h-248v-242h-122v600h384v-117z" />
    <glyph glyph-name="g" unicode="g" horiz-adv-x="575" 
d="M503 0h-120l-5 26c-14 -13 -34 -31 -51 -31h-133c-25 0 -49 9 -66 19c-21 13 -59 51 -73 71c-12 19 -17 42 -17 62v305c0 22 4 44 17 63c12 16 43 53 65 66c20 13 49 24 74 24h140c60 0 107 -51 131 -83c9 -12 18 -29 25 -45l-118 -32c-15 29 -29 37 -42 43h-132
c-8 -6 -27 -21 -38 -37v-306c0 -2 17 -23 37 -33h124c13 8 39 27 39 36v90h-91v114h213v-224c0 -11 1 -23 5 -44c3 -18 16 -84 16 -84z" />
    <glyph glyph-name="h" unicode="h" horiz-adv-x="561" 
d="M471 0h-122v240h-190v-240h-122v600h122v-243h190v243h122v-600z" />
    <glyph glyph-name="i" unicode="i" horiz-adv-x="255" 
d="M164 0h-123v600h123v-600z" />
    <glyph glyph-name="j" unicode="j" horiz-adv-x="452" 
d="M371 148c0 -21 -5 -43 -17 -62c-12 -17 -50 -58 -74 -72h1c-17 -10 -41 -19 -65 -19h-72c-61 0 -108 50 -134 85c-5 7 -11 20 -20 45l117 32c12 -27 26 -39 36 -45h70c1 0 24 14 36 34v454h122v-452z" />
    <glyph glyph-name="k" unicode="k" horiz-adv-x="526" 
d="M496 0h-148l-179 248h-10v-248h-122v600h122v-244h10c4 0 180 244 180 244h144l-221 -296c3 -2 224 -304 224 -304z" />
    <glyph glyph-name="l" unicode="l" horiz-adv-x="469" 
d="M415 0h-378v600h122v-483h256v-117z" />
    <glyph glyph-name="m" unicode="m" horiz-adv-x="657" 
d="M568 0h-122v361c-34 -73 -70 -146 -104 -218h-80l-103 217v-360h-122v600h133l134 -272c44 90 88 183 132 272h132v-600z" />
    <glyph glyph-name="n" unicode="n" horiz-adv-x="563" 
d="M476 0h-123l-194 353v-353h-122v600h125l192 -358v358h122v-600z" />
    <glyph glyph-name="o" unicode="o" horiz-adv-x="567" 
d="M484 149c0 -20 -5 -43 -18 -62c-13 -18 -51 -60 -72 -73c-17 -10 -42 -19 -66 -19h-136c-25 0 -49 9 -66 19c-22 13 -61 56 -73 73c-13 19 -17 41 -17 62v301c0 22 4 44 17 63c12 16 51 59 73 72c17 10 41 19 66 19h136c23 0 49 -9 66 -19c21 -13 58 -55 72 -72
c13 -19 18 -42 18 -63v-301zM361 150v300c-7 13 -25 31 -35 37h-131c-8 -6 -25 -21 -37 -38v-299c11 -15 28 -32 36 -37h131c8 5 25 21 36 37z" />
    <glyph glyph-name="p" unicode="p" horiz-adv-x="524" 
d="M467 371c0 -24 -6 -46 -19 -65c-9 -14 -40 -44 -54 -54c-22 -16 -49 -23 -75 -23h-160v-229h-122v600h282c25 0 56 -9 75 -23c14 -11 44 -42 54 -55c13 -18 19 -44 19 -66v-85zM345 370v89c-5 8 -16 19 -26 24h-160v-137h160c3 0 20 14 26 24z" />
    <glyph glyph-name="q" unicode="q" horiz-adv-x="577" 
d="M496 149c0 -20 -5 -43 -18 -62c-13 -18 -51 -59 -72 -73c0 0 -1 0 -2 -1c-8 -4 -18 -8 -26 -11c13 -29 27 -62 40 -91h-131l-35 84h-59c-25 0 -49 9 -66 19c-22 13 -61 56 -73 73c-13 19 -17 41 -17 62v301c0 22 4 44 17 63c12 16 51 59 73 72c17 10 41 19 66 19h147
c23 0 49 -9 66 -19c21 -13 58 -55 72 -72c13 -19 18 -42 18 -63v-301zM373 150v300c-7 13 -25 31 -35 37h-142c-8 -6 -25 -21 -37 -38v-299c10 -15 28 -31 37 -37h7c-1 2 -2 6 -3 8l113 38l19 -46h5c8 5 25 21 36 37z" />
    <glyph glyph-name="r" unicode="r" horiz-adv-x="548" 
d="M467 371c0 -24 -6 -46 -19 -65c-9 -14 -40 -44 -54 -54c-7 -5 -15 -10 -23 -13c48 -90 126 -239 126 -239h-136l-114 229h-88v-229h-122v600h282c25 0 56 -9 75 -23c14 -11 44 -42 54 -55c13 -18 19 -44 19 -66v-85zM345 370v89c-5 8 -16 19 -26 24h-160v-137h160
c3 0 20 14 26 24z" />
    <glyph glyph-name="s" unicode="s" horiz-adv-x="539" 
d="M473 148c0 -17 -3 -43 -16 -63c-9 -14 -53 -59 -67 -69c-21 -15 -49 -22 -75 -22h-144c-59 0 -106 50 -131 84c-8 9 -18 32 -25 46l119 32c10 -24 27 -39 37 -45h148c14 8 32 33 32 34v60c0 4 -3 6 -3 6c-79 22 -160 46 -240 68c-55 15 -83 67 -83 116v55
c0 18 3 43 16 63c9 12 50 56 66 68c20 14 49 24 75 24h128c59 0 109 -49 131 -83c9 -15 15 -25 24 -45l-117 -32c-12 24 -30 36 -42 43h-118c-20 -10 -41 -35 -41 -36v-53c0 -4 3 -6 3 -6c79 -23 161 -46 241 -69c54 -16 82 -68 82 -116v-60z" />
    <glyph glyph-name="t" unicode="t" horiz-adv-x="501" 
d="M444 483h-156v-483h-123v483h-157v117h436v-117z" />
    <glyph glyph-name="u" unicode="u" horiz-adv-x="556" 
d="M481 149c0 -21 -4 -43 -17 -62c-12 -17 -50 -60 -72 -73c-18 -10 -42 -19 -66 -19h-133c-25 0 -49 9 -66 19c-22 13 -61 56 -73 73c-13 19 -17 41 -17 62v451h122v-450c12 -15 29 -33 37 -38h127c8 5 25 21 36 37v451h122v-451z" />
    <glyph glyph-name="w" unicode="w" horiz-adv-x="742" 
d="M707 600l-139 -600h-131l-87 351c-28 -116 -58 -235 -86 -351h-131l-137 600h126l79 -370c28 122 59 249 87 370h124l87 -370c26 122 52 249 78 370h130z" />
    <glyph glyph-name="x" unicode="x" horiz-adv-x="526" 
d="M484 600l-175 -295l182 -305h-136l-113 195l-113 -195h-136l181 305l-174 295h136l106 -185l107 185h135z" />
    <glyph glyph-name="y" unicode="y" horiz-adv-x="526" 
d="M498 600l-204 -340v-260h-123v260l-201 340h138l125 -211l127 211h138z" />
    <glyph glyph-name="z" unicode="z" horiz-adv-x="504" 
d="M449 0h-416v89l257 394h-253v117h412v-90l-254 -393h254v-117z" />
    <glyph glyph-name="braceleft" unicode="{" horiz-adv-x="355" 
d="M269 -6h-85c-23 0 -48 10 -64 19c-22 13 -62 52 -76 71c-13 20 -16 46 -16 62v306c0 18 3 43 17 63c12 16 51 59 73 72c17 10 42 18 66 18h85v-113h-82c-10 -7 -31 -24 -41 -39v-312c0 -9 26 -29 40 -34h83v-113z" />
    <glyph glyph-name="bar" unicode="|" horiz-adv-x="207" 
d="M143 -90h-117v763h117v-763z" />
    <glyph glyph-name="braceright" unicode="}" horiz-adv-x="353" 
d="M279 146c0 -17 -4 -42 -17 -62c-13 -19 -53 -57 -76 -71c-16 -9 -43 -19 -65 -19h-85v113h85c15 7 41 30 41 34v314c0 7 -26 29 -41 37h-85v113h85c23 0 49 -8 66 -18c22 -13 61 -56 74 -72c13 -19 18 -41 18 -63v-306z" />
    <glyph glyph-name="asciitilde" unicode="~" horiz-adv-x="471" 
d="M397 216l-99 -25c-7 17 -25 30 -34 27c-20 -4 -63 -20 -83 -25c-56 -13 -120 13 -154 99l101 25c9 -20 24 -28 30 -27c22 4 64 21 86 26c56 13 119 -16 153 -100z" />
    <glyph glyph-name="DEL" horiz-adv-x="461" 
 />
    <glyph glyph-name="Adieresis" unicode="&#xc4;" horiz-adv-x="580" 
d="M539 0h-130l-40 115h-209c-13 -37 -28 -78 -41 -115h-130l208 600h135zM332 232l-68 193c-22 -64 -45 -129 -67 -193h135zM420 666h-117v122h117v-122zM226 666h-115v122h115v-122z" />
    <glyph glyph-name="Aring" unicode="&#xc5;" horiz-adv-x="580" 
d="M539 0h-130l-40 115h-209c-13 -37 -28 -78 -41 -115h-130l208 600h135zM332 232l-68 193c-22 -64 -45 -129 -67 -193h135zM370 729c0 -60 -48 -107 -106 -107s-109 47 -109 107c0 57 51 106 109 106s106 -49 106 -106zM303 729c0 21 -17 40 -39 40c-23 0 -42 -19 -42 -40
c0 -23 19 -42 42 -42c22 0 39 19 39 42z" />
    <glyph glyph-name="Ccedilla" unicode="&#xc7;" horiz-adv-x="555" 
d="M490 456l-113 -32c-13 27 -25 44 -53 63h-125c-10 -7 -30 -26 -39 -40v-298c0 -1 15 -23 39 -37h127c21 14 37 35 51 60l114 -28c-9 -25 -21 -46 -34 -64c-24 -34 -71 -85 -132 -85h-131c-24 0 -49 9 -66 19c-21 13 -59 53 -73 72c-12 19 -17 42 -17 62v303
c0 22 4 43 17 62c12 16 51 58 74 72c16 9 41 19 65 19h131c61 0 107 -51 131 -84c16 -22 26 -43 34 -64zM330 -69l-71 -130h-124l91 160z" />
    <glyph glyph-name="Eacute" unicode="&#xc9;" 
d="M431 0h-394v600h394v-117h-272v-123h263v-117h-263v-126h272v-117zM264 660h-118l93 136h130z" />
    <glyph glyph-name="Ntilde" unicode="&#xd1;" horiz-adv-x="563" 
d="M476 0h-123l-194 353v-353h-122v600h125l192 -358v358h122v-600zM433 703l-102 -20c-7 18 -22 24 -29 22c-20 -4 -50 -16 -70 -20c-57 -10 -115 13 -149 99l104 21c9 -20 20 -24 26 -23c22 4 50 17 72 21c57 10 114 -16 148 -100z" />
    <glyph glyph-name="Odieresis" unicode="&#xd6;" horiz-adv-x="581" 
d="M418 666h-117v122h117v-122zM224 666h-115v122h115v-122zM499 149c0 -21 -4 -43 -17 -62c-13 -17 -51 -60 -73 -73c-17 -10 -42 -19 -66 -19h-152c-25 0 -49 9 -66 19c-22 13 -61 56 -73 73c-13 19 -17 41 -17 62v301c0 22 4 44 17 63c12 16 51 59 73 72
c17 10 41 19 66 19h152c24 0 49 -9 66 -19c22 -13 60 -56 73 -72c13 -19 17 -41 17 -63v-301zM377 149v301c-7 12 -26 31 -36 37h-147c-8 -6 -25 -21 -37 -38v-300c11 -15 28 -32 36 -37h147c8 6 26 23 37 37z" />
    <glyph glyph-name="Udieresis" unicode="&#xdc;" horiz-adv-x="573" 
d="M491 149c0 -21 -4 -43 -17 -62c-12 -17 -50 -60 -72 -73c-18 -10 -42 -19 -66 -19h-143c-25 0 -49 9 -66 19c-22 13 -61 56 -73 73c-13 19 -17 41 -17 62v451h122v-450c12 -15 29 -33 37 -38h137c8 5 25 21 36 37v451h122v-451zM418 666h-117v122h117v-122zM224 666h-115
v122h115v-122z" />
    <glyph glyph-name="aacute" unicode="&#xe1;" horiz-adv-x="580" 
d="M539 0h-130l-40 115h-209c-13 -37 -28 -78 -41 -115h-130l208 600h135zM332 232l-68 193c-22 -64 -45 -129 -67 -193h135zM320 662h-117l93 136h129z" />
    <glyph glyph-name="agrave" unicode="&#xe0;" horiz-adv-x="580" 
d="M539 0h-130l-40 115h-209c-13 -37 -28 -78 -41 -115h-130l208 600h135zM332 232l-68 193c-22 -64 -45 -129 -67 -193h135zM328 660h-118l-105 136h130z" />
    <glyph glyph-name="acircumflex" unicode="&#xe2;" horiz-adv-x="580" 
d="M539 0h-130l-40 115h-209c-13 -37 -28 -78 -41 -115h-130l208 600h135zM332 232l-68 193c-22 -64 -45 -129 -67 -193h135zM231 796h59l145 -136h-140l-35 39l-34 -39h-140z" />
    <glyph glyph-name="adieresis" unicode="&#xe4;" horiz-adv-x="580" 
d="M539 0h-130l-40 115h-209c-13 -37 -28 -78 -41 -115h-130l208 600h135zM332 232l-68 193c-22 -64 -45 -129 -67 -193h135zM417 666h-117v122h117v-122zM223 666h-115v122h115v-122z" />
    <glyph glyph-name="atilde" unicode="&#xe3;" horiz-adv-x="580" 
d="M539 0h-130l-40 115h-209c-13 -37 -28 -78 -41 -115h-130l208 600h135zM332 232l-68 193c-22 -64 -45 -129 -67 -193h135zM438 703l-102 -20c-7 18 -22 24 -29 22c-20 -4 -50 -16 -70 -20c-57 -10 -115 13 -149 99l104 21c9 -20 20 -24 26 -23c22 4 50 17 72 21
c57 10 114 -16 148 -100z" />
    <glyph glyph-name="aring" unicode="&#xe5;" horiz-adv-x="580" 
d="M539 0h-130l-40 115h-209c-13 -37 -28 -78 -41 -115h-130l208 600h135zM332 232l-68 193c-22 -64 -45 -129 -67 -193h135zM371 729c0 -60 -48 -107 -106 -107s-109 47 -109 107c0 57 51 106 109 106s106 -49 106 -106zM304 729c0 21 -17 40 -39 40c-23 0 -42 -19 -42 -40
c0 -23 19 -42 42 -42c22 0 39 19 39 42z" />
    <glyph glyph-name="ccedilla" unicode="&#xe7;" horiz-adv-x="531" 
d="M470 125l1 -1c-7 -16 -17 -33 -25 -45c-23 -35 -72 -84 -131 -84h-115c-26 0 -52 5 -72 19c-21 13 -59 53 -73 72c-12 19 -17 42 -17 62v300c0 22 4 43 17 62c9 13 55 58 71 70c20 14 49 24 75 24h114c60 0 107 -51 131 -83c5 -7 17 -27 24 -45l-117 -32
c-15 29 -29 37 -42 43h-109c-10 -7 -33 -29 -42 -43v-298c0 -2 19 -24 41 -34h111c13 5 29 20 41 45zM330 -69l-71 -130h-124l91 160z" />
    <glyph glyph-name="eacute" unicode="&#xe9;" horiz-adv-x="506" 
d="M421 0h-384v600h384v-117h-262v-124h253v-117h-253v-125h262v-117zM264 660h-118l93 136h130z" />
    <glyph glyph-name="egrave" unicode="&#xe8;" horiz-adv-x="506" 
d="M421 0h-384v600h384v-117h-262v-124h253v-117h-253v-125h262v-117zM318 660h-118l-105 136h130z" />
    <glyph glyph-name="ecircumflex" unicode="&#xea;" horiz-adv-x="509" 
d="M424 0h-384v600h384v-117h-262v-124h253v-117h-253v-125h262v-117zM203 796h59l145 -136h-140l-35 39l-34 -39h-140z" />
    <glyph glyph-name="edieresis" unicode="&#xeb;" horiz-adv-x="506" 
d="M421 0h-384v600h384v-117h-262v-124h253v-117h-253v-125h262v-117zM382 666h-117v122h117v-122zM188 666h-115v122h115v-122z" />
    <glyph glyph-name="iacute" unicode="&#xed;" horiz-adv-x="245" 
d="M159 0h-123v600h123v-600zM151 660h-118l93 136h130z" />
    <glyph glyph-name="igrave" unicode="&#xec;" horiz-adv-x="242" 
d="M159 0h-123v600h123v-600zM158 660h-118l-105 136h130z" />
    <glyph glyph-name="icircumflex" unicode="&#xee;" horiz-adv-x="263" 
d="M159 0h-123v600h123v-600zM62 796h59l145 -136h-140l-35 39l-34 -39h-140z" />
    <glyph glyph-name="idieresis" unicode="&#xef;" horiz-adv-x="250" 
d="M159 0h-123v600h123v-600zM249 666h-117v122h117v-122zM55 666h-115v122h115v-122z" />
    <glyph glyph-name="ntilde" unicode="&#xf1;" horiz-adv-x="563" 
d="M476 0h-123l-194 353v-353h-122v600h125l192 -358v358h122v-600zM440 703l-102 -20c-7 18 -22 24 -29 22c-20 -4 -50 -16 -70 -20c-57 -10 -115 13 -149 99l104 21c9 -20 20 -24 26 -23c22 4 50 17 72 21c57 10 114 -16 148 -100z" />
    <glyph glyph-name="oacute" unicode="&#xf3;" horiz-adv-x="567" 
d="M484 149c0 -20 -5 -43 -18 -62c-13 -18 -51 -60 -72 -73c-17 -10 -42 -19 -66 -19h-136c-25 0 -49 9 -66 19c-22 13 -61 56 -73 73c-13 19 -17 41 -17 62v301c0 22 4 44 17 63c12 16 51 59 73 72c17 10 41 19 66 19h136c23 0 49 -9 66 -19c21 -13 58 -55 72 -72
c13 -19 18 -42 18 -63v-301zM361 150v300c-7 13 -25 31 -35 37h-131c-8 -6 -25 -21 -37 -38v-299c11 -15 28 -32 36 -37h131c8 5 25 21 36 37zM284 660h-118l93 136h130z" />
    <glyph glyph-name="ograve" unicode="&#xf2;" horiz-adv-x="567" 
d="M484 149c0 -20 -5 -43 -18 -62c-13 -18 -51 -60 -72 -73c-17 -10 -42 -19 -66 -19h-136c-25 0 -49 9 -66 19c-22 13 -61 56 -73 73c-13 19 -17 41 -17 62v301c0 22 4 44 17 63c12 16 51 59 73 72c17 10 41 19 66 19h136c23 0 49 -9 66 -19c21 -13 58 -55 72 -72
c13 -19 18 -42 18 -63v-301zM361 150v300c-7 13 -25 31 -35 37h-131c-8 -6 -25 -21 -37 -38v-299c11 -15 28 -32 36 -37h131c8 5 25 21 36 37zM368 660h-118l-105 136h130z" />
    <glyph glyph-name="ocircumflex" unicode="&#xf4;" horiz-adv-x="567" 
d="M484 149c0 -20 -5 -43 -18 -62c-13 -18 -51 -60 -72 -73c-17 -10 -42 -19 -66 -19h-136c-25 0 -49 9 -66 19c-22 13 -61 56 -73 73c-13 19 -17 41 -17 62v301c0 22 4 44 17 63c12 16 51 59 73 72c17 10 41 19 66 19h136c23 0 49 -9 66 -19c21 -13 58 -55 72 -72
c13 -19 18 -42 18 -63v-301zM361 150v300c-7 13 -25 31 -35 37h-131c-8 -6 -25 -21 -37 -38v-299c11 -15 28 -32 36 -37h131c8 5 25 21 36 37zM232 796h59l145 -136h-140l-35 39l-34 -39h-140z" />
    <glyph glyph-name="odieresis" unicode="&#xf6;" horiz-adv-x="567" 
d="M484 149c0 -20 -5 -43 -18 -62c-13 -18 -51 -60 -72 -73c-17 -10 -42 -19 -66 -19h-136c-25 0 -49 9 -66 19c-22 13 -61 56 -73 73c-13 19 -17 41 -17 62v301c0 22 4 44 17 63c12 16 51 59 73 72c17 10 41 19 66 19h136c23 0 49 -9 66 -19c21 -13 58 -55 72 -72
c13 -19 18 -42 18 -63v-301zM361 150v300c-7 13 -25 31 -35 37h-131c-8 -6 -25 -21 -37 -38v-299c11 -15 28 -32 36 -37h131c8 5 25 21 36 37zM418 666h-117v122h117v-122zM224 666h-115v122h115v-122z" />
    <glyph glyph-name="otilde" unicode="&#xf5;" horiz-adv-x="567" 
d="M484 149c0 -20 -5 -43 -18 -62c-13 -18 -51 -60 -72 -73c-17 -10 -42 -19 -66 -19h-136c-25 0 -49 9 -66 19c-22 13 -61 56 -73 73c-13 19 -17 41 -17 62v301c0 22 4 44 17 63c12 16 51 59 73 72c17 10 41 19 66 19h136c23 0 49 -9 66 -19c21 -13 58 -55 72 -72
c13 -19 18 -42 18 -63v-301zM361 150v300c-7 13 -25 31 -35 37h-131c-8 -6 -25 -21 -37 -38v-299c11 -15 28 -32 36 -37h131c8 5 25 21 36 37zM437 703l-102 -20c-7 18 -22 24 -29 22c-20 -4 -50 -16 -70 -20c-57 -10 -115 13 -149 99l104 21c9 -20 20 -24 26 -23
c22 4 50 17 72 21c57 10 114 -16 148 -100z" />
    <glyph glyph-name="uacute" unicode="&#xfa;" horiz-adv-x="556" 
d="M481 149c0 -21 -4 -43 -17 -62c-12 -17 -50 -60 -72 -73c-18 -10 -42 -19 -66 -19h-133c-25 0 -49 9 -66 19c-22 13 -61 56 -73 73c-13 19 -17 41 -17 62v451h122v-450c12 -15 29 -33 37 -38h127c8 5 25 21 36 37v451h122v-451zM284 660h-118l93 136h130z" />
    <glyph glyph-name="ugrave" unicode="&#xf9;" horiz-adv-x="556" 
d="M481 149c0 -21 -4 -43 -17 -62c-12 -17 -50 -60 -72 -73c-18 -10 -42 -19 -66 -19h-133c-25 0 -49 9 -66 19c-22 13 -61 56 -73 73c-13 19 -17 41 -17 62v451h122v-450c12 -15 29 -33 37 -38h127c8 5 25 21 36 37v451h122v-451zM368 660h-118l-105 136h130z" />
    <glyph glyph-name="ucircumflex" unicode="&#xfb;" horiz-adv-x="556" 
d="M481 149c0 -21 -4 -43 -17 -62c-12 -17 -50 -60 -72 -73c-18 -10 -42 -19 -66 -19h-133c-25 0 -49 9 -66 19c-22 13 -61 56 -73 73c-13 19 -17 41 -17 62v451h122v-450c12 -15 29 -33 37 -38h127c8 5 25 21 36 37v451h122v-451zM232 796h59l145 -136h-140l-35 39l-34 -39
h-140z" />
    <glyph glyph-name="udieresis" unicode="&#xfc;" horiz-adv-x="556" 
d="M481 149c0 -21 -4 -43 -17 -62c-12 -17 -50 -60 -72 -73c-18 -10 -42 -19 -66 -19h-133c-25 0 -49 9 -66 19c-22 13 -61 56 -73 73c-13 19 -17 41 -17 62v451h122v-450c12 -15 29 -33 37 -38h127c8 5 25 21 36 37v451h122v-451zM415 666h-117v122h117v-122zM221 666h-115
v122h115v-122z" />
    <glyph glyph-name="dagger" unicode="&#x2020;" horiz-adv-x="341" 
d="M285 339h-66v-222h-118v222h-65v113h65v148h118v-148h66v-113z" />
    <glyph glyph-name="degree" unicode="&#xb0;" horiz-adv-x="406" 
d="M286 599c0 -60 -48 -107 -106 -107s-109 47 -109 107c0 57 51 106 109 106s106 -49 106 -106zM219 599c0 21 -17 40 -39 40c-23 0 -42 -19 -42 -40c0 -23 19 -42 42 -42c22 0 39 19 39 42z" />
    <glyph glyph-name="cent" unicode="&#xa2;" horiz-adv-x="531" 
d="M470 124l1 -1c-7 -20 -18 -36 -25 -45c-23 -33 -73 -82 -132 -84v-81h-117v81c-23 1 -51 7 -69 19c-21 13 -59 53 -73 72c-12 19 -17 42 -17 62v302c0 22 4 43 17 62c9 13 55 58 71 70c18 12 47 22 71 24v73h117l2 -73c57 -2 107 -52 130 -83c8 -10 15 -22 24 -45
l-117 -32c-15 30 -27 34 -43 41h-108c-10 -7 -33 -27 -42 -41v-297c0 -8 28 -26 42 -34h110c13 5 29 17 41 42z" />
    <glyph glyph-name="sterling" unicode="&#xa3;" horiz-adv-x="595" 
d="M392 160l118 -35c-6 -16 -16 -33 -22 -42c-25 -34 -72 -83 -133 -83h-286v173h-38v112h38v33h-38v113h38v22c0 20 3 42 17 62c12 17 51 58 73 72c16 9 42 19 65 19h150v-117h-145c-10 -6 -28 -21 -38 -35v-23h148v-113h-148v-33h148v-112h-148v-56h160c13 10 33 30 41 43
z" />
    <glyph glyph-name="section" unicode="&#xa7;" horiz-adv-x="518" 
d="M460 236l-12 -15c17 -22 28 -51 28 -79v-17c0 -17 -3 -43 -16 -63c-9 -15 -53 -59 -67 -69c-21 -15 -49 -22 -75 -22h-144c-59 0 -106 50 -131 84c-6 7 -12 20 -19 33c-2 4 -4 9 -6 13l119 31c11 -24 27 -38 40 -44h144c14 9 32 36 32 37v14c0 4 -3 6 -3 6
c-80 7 -160 16 -239 23c-55 14 -83 66 -83 115v15c0 17 3 42 16 63v-1c2 4 9 12 13 17c-19 22 -29 53 -29 82v15c0 17 3 42 16 61c9 13 50 57 66 69c20 14 49 24 75 24h128c59 0 109 -49 131 -84c5 -8 10 -15 15 -25c0 0 6 -13 9 -19l-117 -31c-12 23 -30 35 -42 42h-118
c-20 -10 -41 -36 -41 -37v-11c0 -4 3 -6 3 -6h-1c80 -8 162 -16 242 -24c54 -16 82 -68 82 -116v-17c0 -17 -3 -43 -16 -64zM350 320l-159 13c-20 -10 -41 -34 -41 -35v-11c0 -4 3 -6 3 -6c51 -5 105 -10 157 -15h11c14 8 32 33 32 34v14c0 3 -3 6 -3 6z" />
    <glyph glyph-name="bullet" unicode="&#x2022;" horiz-adv-x="448" 
d="M350 244c0 -24 -8 -50 -23 -68c-12 -12 -36 -34 -48 -41c-18 -12 -40 -17 -63 -17h-24c-23 0 -46 6 -63 17c-12 8 -39 30 -51 42c-17 20 -22 44 -22 67v16c0 53 37 84 72 108c19 13 40 17 64 17h24c23 0 44 -4 63 -17c36 -25 71 -55 71 -108v-16z" />
    <glyph glyph-name="paragraph" unicode="&#xb6;" horiz-adv-x="529" 
d="M470 0h-120v239h-16v-239h-119v239h-37c-26 0 -53 7 -74 23c-14 10 -46 40 -55 54c-13 19 -19 42 -19 65v75c0 22 7 47 19 66c9 13 40 43 55 55c20 14 50 23 75 23h291v-600zM215 358v125h-36c-9 -5 -21 -15 -27 -24v-75c8 -12 25 -26 27 -26h36zM350 358v125h-16v-125
h16z" />
    <glyph glyph-name="germandbls" unicode="&#xdf;" horiz-adv-x="1088" 
d="M473 148c0 -17 -3 -43 -16 -63c-9 -14 -53 -59 -67 -69c-21 -15 -49 -22 -75 -22h-144c-59 0 -106 50 -131 84c-8 9 -18 32 -25 46l119 32c10 -24 27 -39 37 -45h148c14 8 32 33 32 34v60c0 4 -3 6 -3 6c-79 22 -160 46 -240 68c-55 15 -83 67 -83 116v55
c0 18 3 43 16 63c9 12 50 56 66 68c20 14 49 24 75 24h128c59 0 109 -49 131 -83c9 -15 15 -25 24 -45l-117 -32c-12 24 -30 36 -42 43h-118c-20 -10 -41 -35 -41 -36v-53c0 -4 3 -6 3 -6c79 -23 161 -46 241 -69c54 -16 82 -68 82 -116v-60zM1022 148c0 -17 -3 -43 -16 -63
c-9 -14 -53 -59 -67 -69c-21 -15 -49 -22 -75 -22h-144c-59 0 -106 50 -131 84c-8 9 -18 32 -25 46l119 32c10 -24 27 -39 37 -45h148c14 8 32 33 32 34v60c0 4 -3 6 -3 6c-79 22 -160 46 -240 68c-55 15 -83 67 -83 116v55c0 18 3 43 16 63c9 12 50 56 66 68
c20 14 49 24 75 24h128c59 0 109 -49 131 -83c9 -15 15 -25 24 -45l-117 -32c-12 24 -30 36 -42 43h-118c-20 -10 -41 -35 -41 -36v-53c0 -4 3 -6 3 -6c79 -23 161 -46 241 -69c54 -16 82 -68 82 -116v-60z" />
    <glyph glyph-name="registered" unicode="&#xae;" horiz-adv-x="954" 
d="M205 -60l-111 103c-16 15 -31 32 -39 43c-12 19 -17 42 -17 62v301c0 20 5 43 17 62c8 11 23 28 39 43l111 103l82 -83l-111 -105c-11 -10 -18 -20 -18 -21v-299c0 -1 7 -11 18 -21l111 -105zM816 43l-111 -103l-82 83l111 105c11 10 18 20 18 21v299c0 1 -7 11 -18 21
l-111 105l82 83l111 -103c16 -15 31 -32 39 -43c12 -19 17 -42 17 -62v-301c0 -20 -5 -43 -17 -62c-8 -11 -23 -28 -39 -43zM616 114h-110l-50 94h-33v-92h-101v354h145c24 0 51 -8 69 -22c13 -10 41 -35 50 -48c12 -18 13 -32 13 -55v-13c0 -22 0 -41 -13 -60
c-7 -9 -20 -22 -35 -33zM499 323v23c-5 7 -18 18 -27 24h-49v-68h49c4 0 20 12 27 21z" />
    <glyph glyph-name="copyright" unicode="&#xa9;" horiz-adv-x="954" 
d="M595 371l-89 -19c-5 10 -10 16 -14 20h-68c-3 -3 -8 -7 -10 -10v-127c0 -1 3 -6 6 -9h73c3 3 7 10 12 20l89 -18c-5 -18 -11 -36 -18 -48c-13 -22 -47 -54 -87 -54h-71c-19 0 -33 2 -49 13s-42 36 -47 46v-1c-10 15 -11 28 -11 45v139c0 13 3 30 12 44c9 12 33 36 43 42
h-1c16 12 35 17 54 17h70c41 0 73 -31 87 -53c11 -17 14 -30 19 -47zM205 -60l-111 103c-16 15 -31 32 -39 43c-12 19 -17 42 -17 62v301c0 20 5 43 17 62c8 11 23 28 39 43l111 103l82 -83l-111 -105c-11 -10 -18 -20 -18 -21v-299c0 -1 7 -11 18 -21l111 -105zM816 43
l-111 -103l-82 83l111 105c11 10 18 20 18 21v299c0 1 -7 11 -18 21l-111 105l82 83l111 -103c16 -15 31 -32 39 -43c12 -19 17 -42 17 -62v-301c0 -20 -5 -43 -17 -62c-8 -11 -23 -28 -39 -43z" />
    <glyph glyph-name="trademark" unicode="&#x2122;" horiz-adv-x="615" 
d="M545 289h-109v108c-2 -6 -5 -14 -7 -19h-64l-7 18v-107h-112v205h-27v-205h-110v205h-72v105h327l31 -60c11 20 24 40 35 60h115v-310z" />
    <glyph glyph-name="acute" unicode="&#xb4;" horiz-adv-x="342" 
d="M244 660h-118l93 136h130z" />
    <glyph glyph-name="dieresis" unicode="&#xa8;" horiz-adv-x="335" 
d="M348 666h-117v122h117v-122zM154 666h-115v122h115v-122z" />
    <glyph glyph-name="notequal" unicode="&#x2260;" horiz-adv-x="499" 
d="M416 464l-40 -73h47v-109h-106l-22 -41h128v-109h-188l-44 -82h-136l45 82h-62v109h121l23 41h-144v109h203l40 73h135z" />
    <glyph glyph-name="AE" unicode="&#xc6;" horiz-adv-x="762" 
d="M677 0h-362v115h-155l-41 -115h-130l208 600h480v-117h-240v-123h231v-117h-231v-126h240v-117zM283 483l-86 -251h118v251h-32z" />
    <glyph glyph-name="Oslash" unicode="&#xd8;" horiz-adv-x="610" 
d="M520 620l-42 -76l28 -31c13 -19 18 -42 18 -63v-301c0 -20 -5 -43 -18 -62c-13 -18 -51 -60 -72 -73c-17 -10 -42 -19 -66 -19h-176c-4 0 -8 0 -12 1l-11 -22h-122l40 73c-15 15 -28 31 -34 40c-13 19 -17 41 -17 62v301c0 22 4 44 17 63c12 16 51 59 73 72
c17 10 41 19 66 19h176c7 0 14 -1 21 -2l10 18h121zM158 449v-271l168 309h-131c-8 -6 -25 -21 -37 -38zM401 150v251l-157 -288h121c8 5 25 21 36 37z" />
    <glyph glyph-name="infinity" unicode="&#x221e;" horiz-adv-x="769" 
d="M677 256c0 -24 -10 -54 -23 -73c-13 -16 -46 -42 -58 -49c-20 -13 -42 -18 -67 -18h-79c-25 0 -48 5 -68 18c-5 3 -14 9 -23 16c-9 -7 -17 -13 -22 -16c-20 -13 -42 -18 -67 -18h-79c-25 0 -48 5 -68 18c-12 7 -45 33 -58 49c-13 19 -23 49 -23 73v21c0 24 10 54 23 73
c13 16 46 42 58 50c20 13 43 20 68 20h79c25 0 47 -7 67 -20c5 -4 13 -10 22 -17c9 7 18 13 23 17c20 13 43 20 68 20h79c25 0 47 -7 67 -20c12 -8 45 -34 58 -50c13 -19 23 -49 23 -73v-21zM418 256v-2c0 -7 23 -22 32 -25h79c10 6 32 19 32 25v24c0 6 -22 20 -33 27h-77
c-2 -1 -33 -21 -33 -27v-22zM301 256v21v3c-5 7 -23 19 -32 25h-77c-2 -1 -33 -21 -33 -27v-24c0 -7 23 -22 32 -25h79c9 5 26 16 31 22v5z" />
    <glyph glyph-name="plusminus" unicode="&#xb1;" horiz-adv-x="526" 
d="M437 192h-138v-135h-117v135h-138v114h138v137h117v-137h138v-114zM438 -116h-392v116h392v-116z" />
    <glyph glyph-name="lessequal" unicode="&#x2264;" horiz-adv-x="466" 
d="M397 391l-214 -115c71 -38 143 -78 213 -115v-134l-384 209v78l385 209v-132z" />
    <glyph glyph-name="greaterequal" unicode="&#x2265;" horiz-adv-x="466" 
d="M408 236l-384 -209v134l213 115c-72 38 -143 77 -214 115v132l385 -209v-78z" />
    <glyph glyph-name="yen" unicode="&#xa5;" horiz-adv-x="511" 
d="M235 396l120 203h138l-103 -174h25v-111h-92c-6 -10 -14 -21 -19 -31h111v-109h-119v-174h-123v174h-118v109h110c-5 9 -13 21 -18 31h-92v111h26c-33 58 -69 116 -103 174h138z" />
    <glyph glyph-name="mu" unicode="&#xb5;" horiz-adv-x="563" 
d="M154 -90h-117v690h122v-450c12 -15 29 -33 37 -38h127c8 5 25 21 36 37v451h122v-451c0 -21 -4 -43 -17 -62c-12 -17 -50 -60 -72 -73c-18 -10 -42 -19 -66 -19h-123c-15 0 -33 14 -49 27v-112z" />
    <glyph glyph-name="partialdiff" unicode="&#x2202;" 
d="M160 487l-30 117h161c25 0 54 -10 74 -24c15 -12 46 -41 55 -55c12 -18 19 -43 19 -65v-321c0 -22 -7 -46 -19 -65c-10 -15 -42 -46 -55 -56c-20 -15 -48 -23 -74 -23h-116c-25 0 -53 9 -73 23c-16 11 -46 43 -55 56c-13 19 -19 43 -19 66v143c0 22 7 47 19 66
c11 15 41 46 55 55c21 15 47 22 73 22h96c13 0 34 -12 46 -22v58c-9 13 -23 25 -26 25h-131zM150 281v-143c9 -13 22 -25 25 -25h116c3 0 18 12 26 26v131c-8 12 -30 30 -38 37c-4 2 -8 3 -11 3h-92c-3 0 -19 -15 -26 -29z" />
    <glyph glyph-name="summation" unicode="&#x2211;" horiz-adv-x="504" 
d="M355 306l-151 -189h245v-117h-412v89l179 216l-176 205v90h410v-117h-246z" />
    <glyph glyph-name="product" unicode="&#x220f;" horiz-adv-x="567" 
d="M481 0h-122v483h-200v-483h-122v600h444v-600z" />
    <glyph glyph-name="pi" unicode="&#x3c0;" horiz-adv-x="710" 
d="M414 483h-177v-483h-123v483h-99v117h621v-117h-99v-483h-123v483z" />
    <glyph glyph-name="integral" unicode="&#x222b;" horiz-adv-x="462" 
 />
    <glyph glyph-name="ordfeminine" unicode="&#xaa;" horiz-adv-x="381" 
d="M326 255h-88l-7 35c-19 -18 -43 -35 -61 -35h-28c-20 0 -42 7 -57 18c-13 9 -33 29 -40 38c-12 16 -14 34 -14 51v134c0 17 2 35 14 51c7 9 27 29 40 38c15 11 37 18 57 18h169v-242zM212 508h-58c-1 0 -4 0 -5 -1c-7 -5 -15 -13 -20 -19c-1 -2 -1 -5 -1 -5v-108
s0 -2 1 -4c5 -6 13 -15 20 -19c1 -1 4 -1 5 -1h23c1 0 4 0 5 1c7 4 25 22 29 28c1 2 1 5 1 5v123z" />
    <glyph glyph-name="ordmasculine" unicode="&#xba;" horiz-adv-x="381" 
d="M311 362c0 -17 -2 -35 -14 -51c-7 -9 -27 -29 -39 -38c-16 -11 -38 -18 -58 -18h-58c-20 0 -42 7 -57 18c-13 9 -33 29 -40 38c-12 16 -14 34 -14 51v134c0 17 2 35 14 51c7 9 27 29 40 38c15 11 37 18 57 18h58c20 0 42 -7 58 -18c12 -9 32 -29 39 -38
c12 -16 14 -34 14 -51v-134zM212 476c0 1 0 4 -1 6c-5 6 -12 12 -19 18c-1 1 -4 1 -5 1h-33c-1 0 -4 0 -5 -1c-7 -5 -15 -13 -20 -19c-1 -2 -1 -5 -1 -5v-95s0 -2 1 -4c5 -6 13 -15 20 -19c1 -1 4 -1 5 -1h33c1 0 4 0 5 1c6 5 15 12 19 18c1 2 1 5 1 5v95z" />
    <glyph glyph-name="Omega" unicode="&#x2126;" horiz-adv-x="641" 
d="M265 112v-112h-240v117h70c-16 10 -29 20 -34 31c-11 20 -18 41 -18 61v241c0 22 4 44 17 63c12 16 51 59 73 72c17 10 41 19 66 19h197c24 0 49 -9 66 -19c22 -13 60 -56 73 -72c13 -19 17 -41 17 -63v-241c0 -20 -7 -41 -18 -61c-6 -11 -19 -21 -35 -31h71v-117h-240
v112c38 35 100 92 100 99v239c-7 12 -26 31 -36 37h-192c-8 -6 -25 -21 -37 -38v-238c0 -7 62 -64 100 -99z" />
    <glyph glyph-name="ae" unicode="&#xe6;" horiz-adv-x="767" 
d="M677 0h-362v115h-155l-41 -115h-130l208 600h480v-117h-240v-123h231v-117h-231v-126h240v-117zM283 483l-86 -251h118v251h-32z" />
    <glyph glyph-name="oslash" unicode="&#xf8;" horiz-adv-x="610" 
d="M520 620l-42 -76l28 -31c13 -19 18 -42 18 -63v-301c0 -20 -5 -43 -18 -62c-13 -18 -51 -60 -72 -73c-17 -10 -42 -19 -66 -19h-176c-4 0 -8 0 -12 1l-11 -22h-122l40 73c-15 15 -28 31 -34 40c-13 19 -17 41 -17 62v301c0 22 4 44 17 63c12 16 51 59 73 72
c17 10 41 19 66 19h176c7 0 14 -1 21 -2l10 18h121zM158 449v-271l168 309h-131c-8 -6 -25 -21 -37 -38zM401 150v251l-157 -288h121c8 5 25 21 36 37z" />
    <glyph glyph-name="questiondown" unicode="&#xbf;" horiz-adv-x="481" 
d="M465 125l1 -1c-5 -15 -16 -33 -24 -44c-24 -34 -72 -84 -131 -84h-114c-26 0 -55 10 -75 24c-14 10 -46 42 -57 56c-12 19 -20 44 -20 66v61c0 54 37 95 77 115c-3 -1 8 4 15 7c22 9 57 23 57 34v73h120v-77c0 -78 -70 -112 -113 -132c-19 -9 -34 -15 -34 -23v-54
c8 -16 27 -32 30 -32h110c13 6 28 13 42 43zM316 600v-123h-125v123h125z" />
    <glyph glyph-name="exclamdown" unicode="&#xa1;" horiz-adv-x="306" 
d="M192 0h-120v433h120v-433zM195 477h-128v123h128v-123z" />
    <glyph glyph-name="logicalnot" unicode="&#xac;" horiz-adv-x="597" 
d="M480 306v-249h-117v135h-318v114h435z" />
    <glyph glyph-name="radical" unicode="&#x221a;" horiz-adv-x="598" 
 />
    <glyph glyph-name="florin" unicode="&#x192;" horiz-adv-x="512" 
 />
    <glyph glyph-name="approxequal" unicode="&#x2248;" horiz-adv-x="499" 
d="M417 141l-115 -21c-7 18 -11 23 -16 23c-20 -4 -85 -8 -105 -12c-57 -10 -120 13 -154 99l114 21c9 -20 11 -24 16 -23c22 4 85 9 107 13c57 10 119 -16 153 -100zM417 295l-115 -21c-7 18 -11 23 -16 23c-20 -4 -85 -8 -105 -12c-57 -10 -120 13 -154 99l114 21
c9 -20 11 -24 16 -23c22 4 85 9 107 13c57 10 119 -16 153 -100z" />
    <glyph glyph-name="Delta" unicode="&#x2206;" horiz-adv-x="570" 
d="M529 0h-550l208 600h135zM362 117l-108 308c-22 -64 -85 -244 -107 -308h215z" />
    <glyph glyph-name="guillemotleft" unicode="&#xab;" horiz-adv-x="660" 
d="M579 123l-134 -35l-172 168l172 172l131 -38l-136 -132zM328 123l-134 -35l-172 168l172 172l131 -38l-136 -132z" />
    <glyph glyph-name="guillemotright" unicode="&#xbb;" horiz-adv-x="660" 
d="M156 88l-134 35l139 135l-136 132l131 38l172 -172zM407 88l-134 35l139 135l-136 132l131 38l172 -172z" />
    <glyph glyph-name="ellipsis" unicode="&#x2026;" horiz-adv-x="689" 
d="M391 0h-142v142h142v-142zM213 0h-140v142h140v-142zM567 0h-140v142h140v-142z" />
    <glyph glyph-name="nbspace" unicode="&#xa0;" horiz-adv-x="240" 
 />
    <glyph glyph-name="Agrave" unicode="&#xc0;" horiz-adv-x="570" 
d="M529 0h-130l-40 115h-209c-13 -37 -28 -78 -41 -115h-130l208 600h135zM322 232l-68 193c-22 -64 -45 -129 -67 -193h135zM318 660h-118l-105 136h130z" />
    <glyph glyph-name="Atilde" unicode="&#xc3;" horiz-adv-x="570" 
d="M529 0h-130l-40 115h-209c-13 -37 -28 -78 -41 -115h-130l208 600h135zM322 232l-68 193c-22 -64 -45 -129 -67 -193h135zM433 703l-102 -20c-7 18 -22 24 -29 22c-20 -4 -50 -16 -70 -20c-57 -10 -115 13 -149 99l104 21c9 -20 20 -24 26 -23c22 4 50 17 72 21
c57 10 114 -16 148 -100z" />
    <glyph glyph-name="Otilde" unicode="&#xd5;" horiz-adv-x="581" 
d="M499 149c0 -21 -4 -43 -17 -62c-13 -17 -51 -60 -73 -73c-17 -10 -42 -19 -66 -19h-152c-25 0 -49 9 -66 19c-22 13 -61 56 -73 73c-13 19 -17 41 -17 62v301c0 22 4 44 17 63c12 16 51 59 73 72c17 10 41 19 66 19h152c24 0 49 -9 66 -19c22 -13 60 -56 73 -72
c13 -19 17 -41 17 -63v-301zM377 149v301c-7 12 -26 31 -36 37h-147c-8 -6 -25 -21 -37 -38v-300c11 -15 28 -32 36 -37h147c8 6 26 23 37 37zM448 703l-102 -20c-7 18 -22 24 -29 22c-20 -4 -50 -16 -70 -20c-57 -10 -115 13 -149 99l104 21c9 -20 20 -24 26 -23
c22 4 50 17 72 21c57 10 114 -16 148 -100z" />
    <glyph glyph-name="OE" unicode="&#x152;" horiz-adv-x="813" 
d="M728 0h-360v5c-15 -6 -32 -10 -48 -10h-126c-25 0 -49 9 -66 19c-22 13 -61 56 -73 73c-13 19 -17 41 -17 62v301c0 22 4 44 17 63c12 16 51 59 73 72c17 10 41 19 66 19h126c16 0 33 -4 48 -10v6h360v-117h-252v-124h243v-117h-243v-125h252v-117zM353 150v300
c-7 13 -25 31 -35 37h-121c-8 -6 -25 -21 -37 -38v-299c11 -15 28 -32 36 -37h121c8 5 25 21 36 37z" />
    <glyph glyph-name="oe" unicode="&#x153;" horiz-adv-x="813" 
d="M728 0h-360v5c-15 -6 -32 -10 -48 -10h-126c-25 0 -49 9 -66 19c-22 13 -61 56 -73 73c-13 19 -17 41 -17 62v301c0 22 4 44 17 63c12 16 51 59 73 72c17 10 41 19 66 19h126c16 0 33 -4 48 -10v6h360v-117h-252v-124h243v-117h-243v-125h252v-117zM353 150v300
c-7 13 -25 31 -35 37h-121c-8 -6 -25 -21 -37 -38v-299c11 -15 28 -32 36 -37h121c8 5 25 21 36 37z" />
    <glyph glyph-name="endash" unicode="&#x2013;" horiz-adv-x="475" 
d="M396 193h-368v114h368v-114z" />
    <glyph glyph-name="emdash" unicode="&#x2014;" horiz-adv-x="559" 
d="M480 193h-452v114h452v-114z" />
    <glyph glyph-name="quotedblleft" unicode="&#x201c;" horiz-adv-x="443" 
d="M-14 468l80 174h133l-98 -209zM184 468l80 174h133l-98 -209z" />
    <glyph glyph-name="quotedblright" unicode="&#x201d;" horiz-adv-x="446" 
d="M397 610l-80 -174h-133l98 209zM199 610l-80 -174h-133l98 209z" />
    <glyph glyph-name="quoteleft" unicode="&#x2018;" horiz-adv-x="242" 
d="M183 610l-80 -174h-133l98 209z" />
    <glyph glyph-name="quoteright" unicode="&#x2019;" horiz-adv-x="242" 
d="M-14 468l80 174h133l-98 -209z" />
    <glyph glyph-name="divide" unicode="&#xf7;" horiz-adv-x="399" 
 />
    <glyph glyph-name="lozenge" unicode="&#x25ca;" horiz-adv-x="954" 
d="M205 -60l-111 103c-16 15 -31 32 -39 43c-12 19 -17 42 -17 62v301c0 20 5 43 17 62c8 11 23 28 39 43l111 103l82 -83l-111 -105c-11 -10 -18 -20 -18 -21v-299c0 -1 7 -11 18 -21l111 -105zM816 43l-111 -103l-82 83l111 105c11 10 18 20 18 21v299c0 1 -7 11 -18 21
l-111 105l82 83l111 -103c16 -15 31 -32 39 -43c12 -19 17 -42 17 -62v-301c0 -20 -5 -43 -17 -62c-8 -11 -23 -28 -39 -43zM551 239c-27 -19 -56 -31 -85 -31h-43v-92h-101v354h145c24 0 51 -8 69 -22c13 -10 41 -35 50 -48c12 -18 13 -32 13 -55v-13c0 -22 0 -41 -13 -60
c-7 -9 -20 -22 -35 -33zM499 323v23c-5 7 -18 18 -27 24h-49v-68h49c4 0 20 12 27 21z" />
    <glyph glyph-name="ydieresis" unicode="&#xff;" horiz-adv-x="511" 
d="M500 600l-204 -340v-260h-123v260l-201 340h138l125 -211l127 211h138zM391 666h-117v122h117v-122zM197 666h-115v122h115v-122z" />
    <glyph glyph-name="Ydieresis" unicode="&#x178;" horiz-adv-x="511" 
d="M500 600l-204 -340v-260h-123v260l-201 340h138l125 -211l127 211h138zM391 666h-117v122h117v-122zM197 666h-115v122h115v-122z" />
    <glyph glyph-name="fraction" unicode="&#x2044;" horiz-adv-x="598" 
 />
    <glyph glyph-name="currency" unicode="&#xa4;" horiz-adv-x="555" 
d="M434 296c0 -24 -10 -54 -23 -73c-1 -1 -1 -2 -2 -3l32 -31l-80 -81l-51 49c-8 -1 -16 -1 -24 -1h-79c-9 0 -16 0 -24 1l-52 -49l-83 82l33 32v1c-13 19 -23 49 -23 73v21c0 22 8 50 20 69l-34 34l80 81l47 -46c11 3 23 5 36 5h79c13 0 25 -2 36 -6l43 41l82 -83l-31 -30
c10 -19 18 -44 18 -65v-21zM318 294v24c0 6 -22 20 -33 27h-77c-2 -1 -33 -21 -33 -27v-24c0 -7 23 -22 32 -25h79c10 6 32 19 32 25z" />
    <glyph glyph-name="guilsinglleft" unicode="&#x2039;" horiz-adv-x="409" 
d="M328 123l-134 -35l-172 168l172 172l131 -38l-136 -132z" />
    <glyph glyph-name="guilsinglright" unicode="&#x203a;" horiz-adv-x="409" 
d="M156 88l-134 35l139 135l-136 132l131 38l172 -172z" />
    <glyph glyph-name="fi" unicode="&#xfb01;" horiz-adv-x="749" 
d="M421 483h-262v-124h248v-117h-248v-242h-122v600h384v-117zM663 0h-123v600h123v-600z" />
    <glyph glyph-name="fl" unicode="&#xfb02;" horiz-adv-x="960" 
d="M421 483h-262v-124h248v-117h-248v-242h-122v600h384v-117zM906 0h-378v600h122v-483h256v-117z" />
    <glyph glyph-name="daggerdbl" unicode="&#x2021;" horiz-adv-x="341" 
d="M285 339h-66v-78h65v-113h-65v-147h-118v147h-66v113h66v78h-65v113h65v147h118v-147h66v-113z" />
    <glyph glyph-name="periodcentered" unicode="&#xb7;" horiz-adv-x="302" 
d="M193 191h-141v120h141v-120z" />
    <glyph glyph-name="quotesinglbase" unicode="&#x201a;" horiz-adv-x="242" 
d="M195 91l-80 -174h-133l98 209z" />
    <glyph glyph-name="quotedblbase" unicode="&#x201e;" horiz-adv-x="448" 
d="M397 91l-80 -174h-133l98 209zM199 91l-80 -174h-133l98 209z" />
    <glyph glyph-name="perthousand" unicode="&#x2030;" horiz-adv-x="1195" 
d="M1125 100c0 -17 -2 -35 -14 -51c-7 -9 -27 -29 -39 -38c-16 -11 -38 -18 -58 -18h-58c-20 0 -42 7 -57 18c-13 9 -33 29 -40 38c-12 16 -14 34 -14 51v134c0 17 2 35 14 51c7 9 27 29 40 38c15 11 37 18 57 18h58c20 0 42 -7 58 -18c12 -9 32 -29 39 -38
c12 -16 14 -34 14 -51v-134zM1026 214c0 1 0 4 -1 6c-5 6 -12 12 -19 18c-1 1 -4 1 -5 1h-33c-1 0 -4 0 -5 -1c-7 -5 -15 -13 -20 -19c-1 -2 -1 -5 -1 -5v-95s0 -2 1 -4c5 -6 13 -15 20 -19c1 -1 4 -1 5 -1h33c1 0 4 0 5 1c6 5 15 12 19 18c1 2 1 5 1 5v95zM311 362
c0 -17 -2 -35 -14 -51c-7 -9 -27 -29 -39 -38c-16 -11 -38 -18 -58 -18h-58c-20 0 -42 7 -57 18c-13 9 -33 29 -40 38c-12 16 -14 34 -14 51v134c0 17 2 35 14 51c7 9 27 29 40 38c15 11 37 18 57 18h58c20 0 42 -7 58 -18c12 -9 32 -29 39 -38c12 -16 14 -34 14 -51v-134z
M212 476c0 1 0 4 -1 6c-5 6 -12 12 -19 18c-1 1 -4 1 -5 1h-33c-1 0 -4 0 -5 -1c-7 -5 -15 -13 -20 -19c-1 -2 -1 -5 -1 -5v-95s0 -2 1 -4c5 -6 13 -15 20 -19c1 -1 4 -1 5 -1h33c1 0 4 0 5 1c6 5 15 12 19 18c1 2 1 5 1 5v95zM786 100c0 -17 -2 -35 -14 -51
c-7 -9 -27 -29 -39 -38c-16 -11 -38 -18 -58 -18h-58c-20 0 -42 7 -57 18c-13 9 -33 29 -40 38c-12 16 -14 34 -14 51v134c0 17 2 35 14 51c7 9 27 29 40 38c15 11 37 18 57 18h58c20 0 42 -7 58 -18c12 -9 32 -29 39 -38c12 -16 14 -34 14 -51v-134zM687 214c0 1 0 4 -1 6
c-5 6 -12 12 -19 18c-1 1 -4 1 -5 1h-33c-1 0 -4 0 -5 -1c-7 -5 -15 -13 -20 -19c-1 -2 -1 -5 -1 -5v-95s0 -2 1 -4c5 -6 13 -15 20 -19c1 -1 4 -1 5 -1h33c1 0 4 0 5 1c6 5 15 12 19 18c1 2 1 5 1 5v95zM635 600l-328 -600h-126l330 600h124z" />
    <glyph glyph-name="Acircumflex" unicode="&#xc2;" horiz-adv-x="570" 
d="M529 0h-130l-40 115h-209c-13 -37 -28 -78 -41 -115h-130l208 600h135zM322 232l-68 193c-22 -64 -45 -129 -67 -193h135zM223 796h59l145 -136h-140l-35 39l-34 -39h-140z" />
    <glyph glyph-name="Ecircumflex" unicode="&#xca;" horiz-adv-x="518" 
d="M433 0h-394v600h394v-117h-272v-123h263v-117h-263v-126h272v-117zM203 796h59l145 -136h-140l-35 39l-34 -39h-140z" />
    <glyph glyph-name="Aacute" unicode="&#xc1;" horiz-adv-x="570" 
d="M529 0h-130l-40 115h-209c-13 -37 -28 -78 -41 -115h-130l208 600h135zM322 232l-68 193c-22 -64 -45 -129 -67 -193h135zM264 660h-118l93 136h130z" />
    <glyph glyph-name="Edieresis" unicode="&#xcb;" 
d="M431 0h-394v600h394v-117h-272v-123h263v-117h-263v-126h272v-117zM387 666h-117v122h117v-122zM193 666h-115v122h115v-122z" />
    <glyph glyph-name="Egrave" unicode="&#xc8;" 
d="M431 0h-394v600h394v-117h-272v-123h263v-117h-263v-126h272v-117zM318 660h-118l-105 136h130z" />
    <glyph glyph-name="Iacute" unicode="&#xcd;" horiz-adv-x="252" 
d="M159 0h-123v600h123v-600zM158 660h-118l93 136h130z" />
    <glyph glyph-name="Icircumflex" unicode="&#xce;" horiz-adv-x="250" 
d="M159 0h-123v600h123v-600zM62 796h59l145 -136h-140l-35 39l-34 -39h-140z" />
    <glyph glyph-name="Idieresis" unicode="&#xcf;" horiz-adv-x="250" 
d="M159 0h-123v600h123v-600zM249 666h-117v122h117v-122zM55 666h-115v122h115v-122z" />
    <glyph glyph-name="Igrave" unicode="&#xcc;" horiz-adv-x="250" 
d="M159 0h-123v600h123v-600zM158 660h-118l-105 136h130z" />
    <glyph glyph-name="Oacute" unicode="&#xd3;" horiz-adv-x="581" 
d="M499 149c0 -21 -4 -43 -17 -62c-13 -17 -51 -60 -73 -73c-17 -10 -42 -19 -66 -19h-152c-25 0 -49 9 -66 19c-22 13 -61 56 -73 73c-13 19 -17 41 -17 62v301c0 22 4 44 17 63c12 16 51 59 73 72c17 10 41 19 66 19h152c24 0 49 -9 66 -19c22 -13 60 -56 73 -72
c13 -19 17 -41 17 -63v-301zM377 149v301c-7 12 -26 31 -36 37h-147c-8 -6 -25 -21 -37 -38v-300c11 -15 28 -32 36 -37h147c8 6 26 23 37 37zM274 660h-118l93 136h130z" />
    <glyph glyph-name="Ocircumflex" unicode="&#xd4;" horiz-adv-x="581" 
d="M499 149c0 -21 -4 -43 -17 -62c-13 -17 -51 -60 -73 -73c-17 -10 -42 -19 -66 -19h-152c-25 0 -49 9 -66 19c-22 13 -61 56 -73 73c-13 19 -17 41 -17 62v301c0 22 4 44 17 63c12 16 51 59 73 72c17 10 41 19 66 19h152c24 0 49 -9 66 -19c22 -13 60 -56 73 -72
c13 -19 17 -41 17 -63v-301zM377 149v301c-7 12 -26 31 -36 37h-147c-8 -6 -25 -21 -37 -38v-300c11 -15 28 -32 36 -37h147c8 6 26 23 37 37zM242 796h59l145 -136h-140l-35 39l-34 -39h-140z" />
    <glyph glyph-name="Ograve" unicode="&#xd2;" horiz-adv-x="581" 
d="M499 149c0 -21 -4 -43 -17 -62c-13 -17 -51 -60 -73 -73c-17 -10 -42 -19 -66 -19h-152c-25 0 -49 9 -66 19c-22 13 -61 56 -73 73c-13 19 -17 41 -17 62v301c0 22 4 44 17 63c12 16 51 59 73 72c17 10 41 19 66 19h152c24 0 49 -9 66 -19c22 -13 60 -56 73 -72
c13 -19 17 -41 17 -63v-301zM377 149v301c-7 12 -26 31 -36 37h-147c-8 -6 -25 -21 -37 -38v-300c11 -15 28 -32 36 -37h147c8 6 26 23 37 37zM378 660h-118l-105 136h130z" />
    <glyph glyph-name="Uacute" unicode="&#xda;" horiz-adv-x="573" 
d="M491 149c0 -21 -4 -43 -17 -62c-12 -17 -50 -60 -72 -73c-18 -10 -42 -19 -66 -19h-143c-25 0 -49 9 -66 19c-22 13 -61 56 -73 73c-13 19 -17 41 -17 62v451h122v-450c12 -15 29 -33 37 -38h137c8 5 25 21 36 37v451h122v-451zM274 660h-118l93 136h130z" />
    <glyph glyph-name="Ucircumflex" unicode="&#xdb;" horiz-adv-x="573" 
d="M491 149c0 -21 -4 -43 -17 -62c-12 -17 -50 -60 -72 -73c-18 -10 -42 -19 -66 -19h-143c-25 0 -49 9 -66 19c-22 13 -61 56 -73 73c-13 19 -17 41 -17 62v451h122v-450c12 -15 29 -33 37 -38h137c8 5 25 21 36 37v451h122v-451zM237 796h59l145 -136h-140l-35 39l-34 -39
h-140z" />
    <glyph glyph-name="Ugrave" unicode="&#xd9;" horiz-adv-x="573" 
d="M491 149c0 -21 -4 -43 -17 -62c-12 -17 -50 -60 -72 -73c-18 -10 -42 -19 -66 -19h-143c-25 0 -49 9 -66 19c-22 13 -61 56 -73 73c-13 19 -17 41 -17 62v451h122v-450c12 -15 29 -33 37 -38h137c8 5 25 21 36 37v451h122v-451zM378 660h-118l-105 136h130z" />
    <glyph glyph-name="dotlessi" unicode="&#x131;" horiz-adv-x="245" 
d="M159 0h-123v600h123v-600z" />
    <glyph glyph-name="circumflex" unicode="&#x2c6;" horiz-adv-x="391" 
d="M162 796h59l145 -136h-140l-35 39l-34 -39h-140z" />
    <glyph glyph-name="tilde" unicode="&#x2dc;" horiz-adv-x="471" 
d="M377 703l-102 -20c-7 18 -22 24 -29 22c-20 -4 -50 -16 -70 -20c-57 -10 -115 13 -149 99l104 21c9 -20 20 -24 26 -23c22 4 50 17 72 21c57 10 114 -16 148 -100z" />
    <glyph glyph-name="macron" unicode="&#xaf;" horiz-adv-x="340" 
d="M246 683h-227v107h227v-107z" />
    <glyph glyph-name="breve" unicode="&#x2d8;" horiz-adv-x="444" 
d="M283 766h67c0 -60 -48 -107 -106 -107s-109 47 -109 107c-2 0 67 0 67 0c0 -23 19 -42 42 -42c22 0 39 19 39 42z" />
    <glyph glyph-name="dotaccent" unicode="&#x2d9;" horiz-adv-x="287" 
d="M193 684h-126v124h126v-124z" />
    <glyph glyph-name="ring" unicode="&#x2da;" horiz-adv-x="570" 
d="M350 729c0 -60 -48 -107 -106 -107s-109 47 -109 107c0 57 51 106 109 106s106 -49 106 -106zM283 729c0 21 -17 40 -39 40c-23 0 -42 -19 -42 -40c0 -23 19 -42 42 -42c22 0 39 19 39 42z" />
    <glyph glyph-name="cedilla" unicode="&#xb8;" horiz-adv-x="375" 
d="M320 -69l-71 -130h-124l91 160z" />
    <glyph glyph-name="hungarumlaut" unicode="&#x2dd;" horiz-adv-x="470" 
d="M338 660h-102l73 136h104zM185 660h-102l73 136h104z" />
    <glyph glyph-name="ogonek" unicode="&#x2db;" horiz-adv-x="375" 
d="M186 -199l-71 130l104 30l91 -160h-124z" />
    <glyph glyph-name="caron" unicode="&#x2c7;" horiz-adv-x="391" 
d="M221 660h-59l-145 136h140l35 -39l34 39h140z" />
    <glyph glyph-name="Eth" unicode="&#xd0;" horiz-adv-x="589" 
d="M507 151c0 -18 -4 -42 -16 -61c-14 -20 -52 -58 -74 -71c-17 -9 -41 -19 -64 -19h-286v245h-78v112h78v243h286c21 0 47 -6 66 -18c22 -14 59 -57 71 -73c14 -20 17 -41 17 -62v-296zM287 245h-98v-128h159c14 8 27 19 37 38v287c-9 22 -22 32 -37 41h-159v-126h98v-112z
" />
    <glyph glyph-name="threesuperior" unicode="&#xb3;" horiz-adv-x="505" 
 />
    <glyph glyph-name="Euro" unicode="&#x20ac;" horiz-adv-x="568" 
d="M349 174h-152v-28c0 -2 19 -24 41 -34h111c13 5 29 20 41 45l118 -32c-8 -18 -18 -35 -25 -46c-24 -35 -72 -84 -131 -84h-115c-26 0 -52 5 -72 19c-21 13 -60 53 -73 72c-12 19 -17 42 -17 62v26h-37v109h37v33h-37v109h37v23c0 22 4 43 17 62c8 13 55 58 71 70
c20 14 49 24 75 24h114c60 0 106 -51 131 -83c5 -7 17 -27 24 -45l-117 -32c-15 29 -29 37 -42 43h-109c-10 -7 -33 -29 -42 -43v-19h152v-109h-152v-33h152v-109z" />
    <glyph glyph-name="Thorn" unicode="&#xde;" horiz-adv-x="534" 
d="M477 260c0 -24 -6 -45 -19 -65c-9 -14 -40 -43 -54 -54c-22 -16 -49 -23 -75 -23h-170v-118h-122v599h122v-110h170c25 0 54 -8 75 -22c14 -11 44 -42 54 -56c12 -18 19 -44 19 -66v-85zM355 260v88c-5 8 -16 19 -26 25h-170v-137h170c3 0 20 14 26 24z" />
    <glyph glyph-name="thorn" unicode="&#xfe;" horiz-adv-x="534" 
d="M477 260c0 -24 -6 -45 -19 -65c-9 -14 -40 -43 -54 -54c-22 -16 -49 -23 -75 -23h-170v-118h-122v599h122v-110h170c25 0 54 -8 75 -22c14 -11 44 -42 54 -56c12 -18 19 -44 19 -66v-85zM355 260v88c-5 8 -16 19 -26 25h-170v-137h170c3 0 20 14 26 24z" />
    <glyph glyph-name="Sacute" unicode="&#x15a;" horiz-adv-x="565" 
d="M193 487c-16 -8 -37 -34 -37 -35v-53c0 -4 3 -6 3 -6l254 -69c55 -15 83 -67 83 -116v-59c0 -16 -5 -42 -18 -62c-13 -19 -52 -60 -73 -73c-16 -9 -42 -19 -66 -19h-153c-61 0 -108 51 -132 85c-13 18 -25 39 -34 64l113 35c14 -25 31 -53 52 -67h152c15 8 36 33 36 34
v59c0 5 -3 6 -3 6c-83 22 -169 46 -253 68c-56 15 -83 67 -83 116v55c0 18 3 43 16 63c12 17 52 58 75 72c16 9 41 19 65 19h142c61 0 107 -51 131 -84c16 -22 26 -43 34 -64l-113 -32c-13 27 -25 44 -53 63h-138zM301 660h-118l93 136h130z" />
    <glyph glyph-name="Tcaron" unicode="&#x164;" horiz-adv-x="515" 
d="M461 483h-161v-483h-123v483h-162v117h446v-117zM265 660h-59l-145 136h140l35 -39l34 39h140z" />
    <glyph glyph-name="Zacute" unicode="&#x179;" horiz-adv-x="504" 
d="M449 0h-416v89l257 394h-253v117h412v-90l-254 -393h254v-117zM282 660h-118l93 136h130z" />
    <glyph glyph-name="sacute" unicode="&#x15b;" horiz-adv-x="539" 
d="M473 148c0 -17 -3 -43 -16 -63c-9 -14 -53 -59 -67 -69c-21 -15 -49 -22 -75 -22h-144c-59 0 -106 50 -131 84c-8 9 -18 32 -25 46l119 32c10 -24 27 -39 37 -45h148c14 8 32 33 32 34v60c0 4 -3 6 -3 6c-79 22 -160 46 -240 68c-55 15 -83 67 -83 116v55
c0 18 3 43 16 63c9 12 50 56 66 68c20 14 49 24 75 24h128c59 0 109 -49 131 -83c9 -15 15 -25 24 -45l-117 -32c-12 24 -30 36 -42 43h-118c-20 -10 -41 -35 -41 -36v-53c0 -4 3 -6 3 -6c79 -23 161 -46 241 -69c54 -16 82 -68 82 -116v-60zM293 660h-118l93 136h130z" />
    <glyph glyph-name="tcaron" unicode="&#x165;" horiz-adv-x="515" 
d="M461 483h-161v-483h-123v483h-162v117h446v-117zM265 660h-59l-145 136h140l35 -39l34 39h140z" />
    <glyph glyph-name="zacute" unicode="&#x17a;" horiz-adv-x="504" 
d="M449 0h-416v89l257 394h-253v117h412v-90l-254 -393h254v-117zM282 660h-118l93 136h130z" />
    <glyph glyph-name="Aogonek" unicode="&#x104;" horiz-adv-x="570" 
d="M529 0h-130l-40 115h-209c-13 -37 -28 -78 -41 -115h-130l208 600h135zM322 232l-68 193c-22 -64 -45 -129 -67 -193h135zM446 -199l-71 130l104 30l91 -160h-124z" />
    <glyph glyph-name="Scommaaccent" unicode="&#x218;" horiz-adv-x="565" 
d="M193 487c-16 -8 -37 -34 -37 -35v-53c0 -4 3 -6 3 -6l254 -69c55 -15 83 -67 83 -116v-59c0 -16 -5 -42 -18 -62c-13 -19 -52 -60 -73 -73c-16 -9 -42 -19 -66 -19h-153c-61 0 -108 51 -132 85c-13 18 -25 39 -34 64l113 35c14 -25 31 -53 52 -67h152c15 8 36 33 36 34
v59c0 5 -3 6 -3 6c-83 22 -169 46 -253 68c-56 15 -83 67 -83 116v55c0 18 3 43 16 63c12 17 52 58 75 72c16 9 41 19 65 19h142c61 0 107 -51 131 -84c16 -22 26 -43 34 -64l-113 -32c-13 27 -25 44 -53 63h-138zM350 -69l-71 -130h-124l91 160z" />
    <glyph glyph-name="Zdotaccent" unicode="&#x17b;" horiz-adv-x="504" 
d="M449 0h-416v89l257 394h-253v117h412v-90l-254 -393h254v-117zM309 684h-126v124h126v-124z" />
    <glyph glyph-name="aogonek" unicode="&#x105;" horiz-adv-x="570" 
d="M529 0h-130l-40 115h-209c-13 -37 -28 -78 -41 -115h-130l208 600h135zM322 232l-68 193c-22 -64 -45 -129 -67 -193h135zM439 -199l-71 130l104 30l91 -160h-124z" />
    <glyph glyph-name="scommaaccent" unicode="&#x219;" horiz-adv-x="539" 
d="M473 148c0 -17 -3 -43 -16 -63c-9 -14 -53 -59 -67 -69c-21 -15 -49 -22 -75 -22h-144c-59 0 -106 50 -131 84c-8 9 -18 32 -25 46l119 32c10 -24 27 -39 37 -45h148c14 8 32 33 32 34v60c0 4 -3 6 -3 6c-79 22 -160 46 -240 68c-55 15 -83 67 -83 116v55
c0 18 3 43 16 63c9 12 50 56 66 68c20 14 49 24 75 24h128c59 0 109 -49 131 -83c9 -15 15 -25 24 -45l-117 -32c-12 24 -30 36 -42 43h-118c-20 -10 -41 -35 -41 -36v-53c0 -4 3 -6 3 -6c79 -23 161 -46 241 -69c54 -16 82 -68 82 -116v-60zM350 -69l-71 -130h-124l91 160z
" />
    <glyph glyph-name="Lcaron" unicode="&#x13d;" horiz-adv-x="469" 
d="M371 499l-10 -77h-118l10 91v133h118v-147zM425 0h-388v600h122v-482h266v-118z" />
    <glyph glyph-name="lcaron" unicode="&#x13e;" horiz-adv-x="469" 
d="M371 499l-10 -77h-118l10 91v133h118v-147zM425 0h-388v600h122v-482h266v-118z" />
    <glyph glyph-name="zdotaccent" unicode="&#x17c;" horiz-adv-x="504" 
d="M449 0h-416v89l257 394h-253v117h412v-90l-254 -393h254v-117zM309 684h-126v124h126v-124z" />
    <glyph glyph-name="Racute" unicode="&#x154;" horiz-adv-x="565" 
d="M477 371c0 -24 -6 -46 -19 -65c-9 -14 -40 -44 -54 -54c-8 -6 -16 -10 -24 -14c49 -90 130 -238 130 -238h-136l-119 229h-96v-229h-122v600h292c25 0 56 -9 75 -23c14 -11 44 -42 54 -55c13 -18 19 -44 19 -66v-85zM355 370v89c-5 8 -16 19 -26 24h-170v-137h170
c3 0 20 14 26 24zM278 660h-118l93 136h130z" />
    <glyph glyph-name="Abreve" unicode="&#x102;" horiz-adv-x="570" 
d="M529 0h-130l-40 115h-209c-13 -37 -28 -78 -41 -115h-130l208 600h135zM322 232l-68 193c-22 -64 -45 -129 -67 -193h135zM295 766h67c0 -60 -48 -107 -106 -107s-109 47 -109 107c-2 0 67 0 67 0c0 -23 19 -42 42 -42c22 0 39 19 39 42z" />
    <glyph glyph-name="Lacute" unicode="&#x139;" horiz-adv-x="469" 
d="M425 0h-388v600h122v-482h266v-118zM162 660h-118l93 136h130z" />
    <glyph glyph-name="Cacute" unicode="&#x106;" horiz-adv-x="555" 
d="M490 456l-113 -32c-13 27 -25 44 -53 63h-125c-10 -7 -30 -26 -39 -40v-298c0 -1 15 -23 39 -37h127c21 14 37 35 51 60l114 -28c-9 -25 -21 -46 -34 -64c-24 -34 -71 -85 -132 -85h-131c-24 0 -49 9 -66 19c-21 13 -59 53 -73 72c-12 19 -17 42 -17 62v303
c0 22 4 43 17 62c12 16 51 58 74 72c16 9 41 19 65 19h131c61 0 107 -51 131 -84c16 -22 26 -43 34 -64zM301 660h-118l93 136h130z" />
    <glyph glyph-name="Ccaron" unicode="&#x10c;" horiz-adv-x="555" 
d="M490 456l-113 -32c-13 27 -25 44 -53 63h-125c-10 -7 -30 -26 -39 -40v-298c0 -1 15 -23 39 -37h127c21 14 37 35 51 60l114 -28c-9 -25 -21 -46 -34 -64c-24 -34 -71 -85 -132 -85h-131c-24 0 -49 9 -66 19c-21 13 -59 53 -73 72c-12 19 -17 42 -17 62v303
c0 22 4 43 17 62c12 16 51 58 74 72c16 9 41 19 65 19h131c61 0 107 -51 131 -84c16 -22 26 -43 34 -64zM284 660h-59l-145 136h140l35 -39l34 39h140z" />
    <glyph glyph-name="Eogonek" unicode="&#x118;" 
d="M431 0h-394v600h394v-117h-272v-123h263v-117h-263v-126h272v-117zM236 -199l-71 130l104 30l91 -160h-124z" />
    <glyph glyph-name="Ecaron" unicode="&#x11a;" 
d="M431 0h-394v600h394v-117h-272v-123h263v-117h-263v-126h272v-117zM262 660h-59l-145 136h140l35 -39l34 39h140z" />
    <glyph glyph-name="Dcaron" unicode="&#x10e;" horiz-adv-x="559" 
d="M482 151c0 -18 -4 -42 -16 -61c-14 -20 -52 -58 -74 -71c-17 -9 -41 -19 -64 -19h-291v600h291c21 0 47 -6 66 -18c22 -14 59 -57 71 -73c14 -20 17 -41 17 -62v-296zM360 155v287c-9 22 -22 32 -37 41h-164v-366h164c14 8 27 19 37 38zM281 660h-59l-145 136h140l35 -39
l34 39h140z" />
    <glyph glyph-name="Dcroat" unicode="&#x110;" horiz-adv-x="589" 
d="M507 151c0 -18 -4 -42 -16 -61c-14 -20 -52 -58 -74 -71c-17 -9 -41 -19 -64 -19h-286v245h-78v112h78v243h286c21 0 47 -6 66 -18c22 -14 59 -57 71 -73c14 -20 17 -41 17 -62v-296zM287 245h-98v-128h159c14 8 27 19 37 38v287c-9 22 -22 32 -37 41h-159v-126h98v-112z
" />
    <glyph glyph-name="Nacute" unicode="&#x143;" horiz-adv-x="563" 
d="M476 0h-123l-194 353v-353h-122v600h125l192 -358v358h122v-600zM293 660h-118l93 136h130z" />
    <glyph glyph-name="Ncaron" unicode="&#x147;" horiz-adv-x="563" 
d="M476 0h-123l-194 353v-353h-122v600h125l192 -358v358h122v-600zM281 660h-59l-145 136h140l35 -39l34 39h140z" />
    <glyph glyph-name="Ohungarumlaut" unicode="&#x150;" horiz-adv-x="581" 
d="M499 149c0 -21 -4 -43 -17 -62c-13 -17 -51 -60 -73 -73c-17 -10 -42 -19 -66 -19h-152c-25 0 -49 9 -66 19c-22 13 -61 56 -73 73c-13 19 -17 41 -17 62v301c0 22 4 44 17 63c12 16 51 59 73 72c17 10 41 19 66 19h152c24 0 49 -9 66 -19c22 -13 60 -56 73 -72
c13 -19 17 -41 17 -63v-301zM377 149v301c-7 12 -26 31 -36 37h-147c-8 -6 -25 -21 -37 -38v-300c11 -15 28 -32 36 -37h147c8 6 26 23 37 37zM388 660h-102l73 136h104zM235 660h-102l73 136h104z" />
    <glyph glyph-name="Rcaron" unicode="&#x158;" horiz-adv-x="565" 
d="M477 371c0 -24 -6 -46 -19 -65c-9 -14 -40 -44 -54 -54c-8 -6 -16 -10 -24 -14c49 -90 130 -238 130 -238h-136l-119 229h-96v-229h-122v600h292c25 0 56 -9 75 -23c14 -11 44 -42 54 -55c13 -18 19 -44 19 -66v-85zM355 370v89c-5 8 -16 19 -26 24h-170v-137h170
c3 0 20 14 26 24zM283 660h-59l-145 136h140l35 -39l34 39h140z" />
    <glyph glyph-name="Uring" unicode="&#x16e;" horiz-adv-x="563" 
d="M491 149c0 -21 -4 -43 -17 -62c-12 -17 -50 -60 -72 -73c-18 -10 -42 -19 -66 -19h-143c-25 0 -49 9 -66 19c-22 13 -61 56 -73 73c-13 19 -17 41 -17 62v451h122v-450c12 -15 29 -33 37 -38h137c8 5 25 21 36 37v451h122v-451zM372 729c0 -60 -48 -107 -106 -107
s-109 47 -109 107c0 57 51 106 109 106s106 -49 106 -106zM305 729c0 21 -17 40 -39 40c-23 0 -42 -19 -42 -40c0 -23 19 -42 42 -42c22 0 39 19 39 42z" />
    <glyph glyph-name="Uhungarumlaut" unicode="&#x170;" horiz-adv-x="573" 
d="M491 149c0 -21 -4 -43 -17 -62c-12 -17 -50 -60 -72 -73c-18 -10 -42 -19 -66 -19h-143c-25 0 -49 9 -66 19c-22 13 -61 56 -73 73c-13 19 -17 41 -17 62v451h122v-450c12 -15 29 -33 37 -38h137c8 5 25 21 36 37v451h122v-451zM378 660h-102l73 136h104zM225 660h-102
l73 136h104z" />
    <glyph glyph-name="Tcommaaccent" unicode="&#x162;" horiz-adv-x="515" 
d="M461 483h-161v-483h-123v483h-162v117h446v-117zM313 -69l-76 -139h-130l96 174z" />
    <glyph glyph-name="racute" unicode="&#x155;" horiz-adv-x="548" 
d="M294 660h-118l93 136h130zM467 371c0 -24 -6 -46 -19 -65c-9 -14 -40 -44 -54 -54c-7 -5 -15 -10 -23 -13c48 -90 126 -239 126 -239h-136l-114 229h-88v-229h-122v600h282c25 0 56 -9 75 -23c14 -11 44 -42 54 -55c13 -18 19 -44 19 -66v-85zM345 370v89
c-5 8 -16 19 -26 24h-160v-137h160c3 0 20 14 26 24z" />
    <glyph glyph-name="abreve" unicode="&#x103;" horiz-adv-x="570" 
d="M529 0h-130l-40 115h-209c-13 -37 -28 -78 -41 -115h-130l208 600h135zM322 232l-68 193c-22 -64 -45 -129 -67 -193h135zM295 766h67c0 -60 -48 -107 -106 -107s-109 47 -109 107c-2 0 67 0 67 0c0 -23 19 -42 42 -42c22 0 39 19 39 42z" />
    <glyph glyph-name="lacute" unicode="&#x13a;" horiz-adv-x="469" 
d="M425 0h-388v600h122v-482h266v-118zM154 660h-118l93 136h130z" />
    <glyph glyph-name="cacute" unicode="&#x107;" horiz-adv-x="531" 
d="M304 660h-118l93 136h130zM469 125l1 -1c-7 -16 -17 -33 -25 -45c-23 -35 -72 -84 -131 -84h-115c-26 0 -52 5 -72 19c-21 13 -59 53 -73 72c-12 19 -17 42 -17 62v300c0 22 4 43 17 62c9 13 55 58 71 70c20 14 49 24 75 24h114c60 0 107 -51 131 -83c5 -7 17 -27 24 -45
l-117 -32c-15 29 -29 37 -42 43h-109c-10 -7 -33 -29 -42 -43v-298c0 -2 19 -24 41 -34h111c13 5 29 20 41 45z" />
    <glyph glyph-name="ccaron" unicode="&#x10d;" horiz-adv-x="531" 
d="M470 125l1 -1c-7 -16 -17 -33 -25 -45c-23 -35 -72 -84 -131 -84h-115c-26 0 -52 5 -72 19c-21 13 -59 53 -73 72c-12 19 -17 42 -17 62v300c0 22 4 43 17 62c9 13 55 58 71 70c20 14 49 24 75 24h114c60 0 107 -51 131 -83c5 -7 17 -27 24 -45l-117 -32
c-15 29 -29 37 -42 43h-109c-10 -7 -33 -29 -42 -43v-298c0 -2 19 -24 41 -34h111c13 5 29 20 41 45zM283 660h-59l-145 136h140l35 -39l34 39h140z" />
    <glyph glyph-name="eogonek" unicode="&#x119;" 
d="M431 0h-394v600h394v-117h-272v-123h263v-117h-263v-126h272v-117zM236 -199l-71 130l104 30l91 -160h-124z" />
    <glyph glyph-name="ecaron" unicode="&#x11b;" 
d="M431 0h-394v600h394v-117h-272v-123h263v-117h-263v-126h272v-117zM262 660h-59l-145 136h140l35 -39l34 39h140z" />
    <glyph glyph-name="dcaron" unicode="&#x10f;" horiz-adv-x="559" 
d="M477 151c0 -18 -4 -42 -16 -61c-14 -20 -52 -58 -74 -71c-17 -9 -41 -19 -64 -19h-286v600h286c21 0 47 -6 66 -18c22 -14 59 -57 71 -73c14 -20 17 -41 17 -62v-296zM355 155v287c-9 22 -22 32 -37 41h-159v-366h159c14 8 27 19 37 38zM280 660h-59l-145 136h140l35 -39
l34 39h140z" />
    <glyph glyph-name="dcroat" unicode="&#x111;" horiz-adv-x="559" 
d="M477 151c0 -18 -4 -42 -16 -61c-14 -20 -52 -58 -74 -71c-17 -9 -41 -19 -64 -19h-286v245h-78v112h78v243h286c21 0 47 -6 66 -18c22 -14 59 -57 71 -73c14 -20 17 -41 17 -62v-296zM257 245h-98v-128h159c14 8 27 19 37 38v287c-9 22 -22 32 -37 41h-159v-126h98v-112z
" />
    <glyph glyph-name="nacute" unicode="&#x144;" horiz-adv-x="563" 
d="M476 0h-123l-194 353v-353h-122v600h125l192 -358v358h122v-600zM293 660h-118l93 136h130z" />
    <glyph glyph-name="ncaron" unicode="&#x148;" horiz-adv-x="563" 
d="M476 0h-123l-194 353v-353h-122v600h125l192 -358v358h122v-600zM281 660h-59l-145 136h140l35 -39l34 39h140z" />
    <glyph glyph-name="ohungarumlaut" unicode="&#x151;" horiz-adv-x="567" 
d="M388 660h-102l73 136h104zM235 660h-102l73 136h104zM484 149c0 -20 -5 -43 -18 -62c-13 -18 -51 -60 -72 -73c-17 -10 -42 -19 -66 -19h-136c-25 0 -49 9 -66 19c-22 13 -61 56 -73 73c-13 19 -17 41 -17 62v301c0 22 4 44 17 63c12 16 51 59 73 72c17 10 41 19 66 19
h136c23 0 49 -9 66 -19c21 -13 58 -55 72 -72c13 -19 18 -42 18 -63v-301zM361 150v300c-7 13 -25 31 -35 37h-131c-8 -6 -25 -21 -37 -38v-299c11 -15 28 -32 36 -37h131c8 5 25 21 36 37z" />
    <glyph glyph-name="rcaron" unicode="&#x159;" horiz-adv-x="565" 
d="M477 371c0 -24 -6 -46 -19 -65c-9 -14 -40 -44 -54 -54c-8 -6 -16 -10 -24 -14c49 -90 130 -238 130 -238h-136l-119 229h-96v-229h-122v600h292c25 0 56 -9 75 -23c14 -11 44 -42 54 -55c13 -18 19 -44 19 -66v-85zM355 370v89c-5 8 -16 19 -26 24h-170v-137h170
c3 0 20 14 26 24zM283 660h-59l-145 136h140l35 -39l34 39h140z" />
    <glyph glyph-name="uring" unicode="&#x16f;" horiz-adv-x="556" 
d="M481 149c0 -21 -4 -43 -17 -62c-12 -17 -50 -60 -72 -73c-18 -10 -42 -19 -66 -19h-133c-25 0 -49 9 -66 19c-22 13 -61 56 -73 73c-13 19 -17 41 -17 62v451h122v-450c12 -15 29 -33 37 -38h127c8 5 25 21 36 37v451h122v-451zM367 729c0 -60 -48 -107 -106 -107
s-109 47 -109 107c0 57 51 106 109 106s106 -49 106 -106zM300 729c0 21 -17 40 -39 40c-23 0 -42 -19 -42 -40c0 -23 19 -42 42 -42c22 0 39 19 39 42z" />
    <glyph glyph-name="uhungarumlaut" unicode="&#x171;" horiz-adv-x="556" 
d="M481 149c0 -21 -4 -43 -17 -62c-12 -17 -50 -60 -72 -73c-18 -10 -42 -19 -66 -19h-133c-25 0 -49 9 -66 19c-22 13 -61 56 -73 73c-13 19 -17 41 -17 62v451h122v-450c12 -15 29 -33 37 -38h127c8 5 25 21 36 37v451h122v-451zM378 660h-102l73 136h104zM225 660h-102
l73 136h104z" />
    <glyph glyph-name="tcommaaccent" unicode="&#x163;" horiz-adv-x="515" 
d="M461 483h-161v-483h-123v483h-162v117h446v-117zM310 -69l-71 -130h-120l91 160z" />
    <glyph glyph-name="Amacron" unicode="&#x100;" horiz-adv-x="570" 
d="M378 683h-227v107h227v-107zM539 0h-130l-40 115h-209c-13 -37 -28 -78 -41 -115h-130l208 600h135zM332 232l-68 193c-22 -64 -45 -129 -67 -193h135z" />
    <glyph glyph-name="amacron" unicode="&#x101;" horiz-adv-x="570" 
d="M368 683h-227v107h227v-107zM529 0h-130l-40 115h-209c-13 -37 -28 -78 -41 -115h-130l208 600h135zM322 232l-68 193c-22 -64 -45 -129 -67 -193h135z" />
    <glyph glyph-name="Ccircumflex" unicode="&#x108;" horiz-adv-x="555" 
d="M490 456l-113 -32c-13 27 -25 44 -53 63h-125c-10 -7 -30 -26 -39 -40v-298c0 -1 15 -23 39 -37h127c21 14 37 35 51 60l114 -28c-9 -25 -21 -46 -34 -64c-24 -34 -71 -85 -132 -85h-131c-24 0 -49 9 -66 19c-21 13 -59 53 -73 72c-12 19 -17 42 -17 62v303
c0 22 4 43 17 62c12 16 51 58 74 72c16 9 41 19 65 19h131c61 0 107 -51 131 -84c16 -22 26 -43 34 -64zM228 796h59l145 -136h-140l-35 39l-34 -39h-140z" />
    <glyph glyph-name="ccircumflex" unicode="&#x109;" horiz-adv-x="531" 
d="M470 125l1 -1c-7 -16 -17 -33 -25 -45c-23 -35 -72 -84 -131 -84h-115c-26 0 -52 5 -72 19c-21 13 -59 53 -73 72c-12 19 -17 42 -17 62v300c0 22 4 43 17 62c9 13 55 58 71 70c20 14 49 24 75 24h114c60 0 107 -51 131 -83c5 -7 17 -27 24 -45l-117 -32
c-15 29 -29 37 -42 43h-109c-10 -7 -33 -29 -42 -43v-298c0 -2 19 -24 41 -34h111c13 5 29 20 41 45zM223 796h59l145 -136h-140l-35 39l-34 -39h-140z" />
    <glyph glyph-name="Cdotaccent" unicode="&#x10a;" horiz-adv-x="555" 
d="M490 456l-113 -32c-13 27 -25 44 -53 63h-125c-10 -7 -30 -26 -39 -40v-298c0 -1 15 -23 39 -37h127c21 14 37 35 51 60l114 -28c-9 -25 -21 -46 -34 -64c-24 -34 -71 -85 -132 -85h-131c-24 0 -49 9 -66 19c-21 13 -59 53 -73 72c-12 19 -17 42 -17 62v303
c0 22 4 43 17 62c12 16 51 58 74 72c16 9 41 19 65 19h131c61 0 107 -51 131 -84c16 -22 26 -43 34 -64zM324 684h-126v124h126v-124z" />
    <glyph glyph-name="cdotaccent" unicode="&#x10b;" horiz-adv-x="531" 
d="M470 125l1 -1c-7 -16 -17 -33 -25 -45c-23 -35 -72 -84 -131 -84h-115c-26 0 -52 5 -72 19c-21 13 -59 53 -73 72c-12 19 -17 42 -17 62v300c0 22 4 43 17 62c9 13 55 58 71 70c20 14 49 24 75 24h114c60 0 107 -51 131 -83c5 -7 17 -27 24 -45l-117 -32
c-15 29 -29 37 -42 43h-109c-10 -7 -33 -29 -42 -43v-298c0 -2 19 -24 41 -34h111c13 5 29 20 41 45zM325 684h-126v124h126v-124z" />
    <glyph glyph-name="Emacron" unicode="&#x112;" 
d="M348 683h-227v107h227v-107zM431 0h-394v600h394v-117h-272v-123h263v-117h-263v-126h272v-117z" />
    <glyph glyph-name="emacron" unicode="&#x113;" 
d="M348 683h-227v107h227v-107zM421 0h-384v600h384v-117h-262v-124h253v-117h-253v-125h262v-117z" />
    <glyph glyph-name="Ebreve" unicode="&#x114;" 
d="M431 0h-394v600h394v-117h-272v-123h263v-117h-263v-126h272v-117zM283 766h67c0 -60 -48 -107 -106 -107s-109 47 -109 107c-2 0 67 0 67 0c0 -23 19 -42 42 -42c22 0 39 19 39 42z" />
    <glyph glyph-name="ebreve" unicode="&#x115;" 
d="M431 0h-394v600h394v-117h-272v-123h263v-117h-263v-126h272v-117zM283 766h67c0 -60 -48 -107 -106 -107s-109 47 -109 107c-2 0 67 0 67 0c0 -23 19 -42 42 -42c22 0 39 19 39 42z" />
    <glyph glyph-name="Edotaccent" unicode="&#x116;" 
d="M431 0h-394v600h394v-117h-272v-123h263v-117h-263v-126h272v-117zM299 684h-126v124h126v-124z" />
    <glyph glyph-name="edotaccent" unicode="&#x117;" 
d="M431 0h-394v600h394v-117h-272v-123h263v-117h-263v-126h272v-117zM299 684h-126v124h126v-124z" />
    <glyph glyph-name="Gcircumflex" unicode="&#x11c;" horiz-adv-x="593" 
d="M127 586c17 10 42 18 66 18h152c61 0 107 -51 131 -84c16 -22 26 -43 34 -64l-113 -32c-13 27 -25 44 -53 63h-146c-9 -6 -28 -22 -39 -39v-303c0 -5 21 -25 37 -33h146c15 7 38 29 38 36v90h-137v114h259v-225c0 -12 3 -33 7 -57l12 -71h-121l-4 18c-3 -1 -10 -6 -13 -8
c-12 -7 -24 -14 -39 -14h-151c-25 0 -49 9 -66 19c-21 13 -59 51 -73 71c-12 19 -17 42 -17 62v304c0 22 4 44 17 63c12 16 51 59 73 72zM241 796h59l145 -136h-140l-35 39l-34 -39h-140z" />
    <glyph glyph-name="gcircumflex" unicode="&#x11d;" horiz-adv-x="575" 
d="M503 0h-120l-5 26c-14 -13 -34 -31 -51 -31h-133c-25 0 -49 9 -66 19c-21 13 -59 51 -73 71c-12 19 -17 42 -17 62v305c0 22 4 44 17 63c12 16 43 53 65 66c20 13 49 24 74 24h140c60 0 107 -51 131 -83c9 -12 18 -29 25 -45l-118 -32c-15 29 -29 37 -42 43h-132
c-8 -6 -27 -21 -38 -37v-306c0 -2 17 -23 37 -33h124c13 8 39 27 39 36v90h-91v114h213v-224c0 -11 1 -23 5 -44c3 -18 16 -84 16 -84zM235 796h59l145 -136h-140l-35 39l-34 -39h-140z" />
    <glyph glyph-name="Gbreve" unicode="&#x11e;" horiz-adv-x="593" 
d="M127 586c17 10 42 18 66 18h152c61 0 107 -51 131 -84c16 -22 26 -43 34 -64l-113 -32c-13 27 -25 44 -53 63h-146c-9 -6 -28 -22 -39 -39v-303c0 -5 21 -25 37 -33h146c15 7 38 29 38 36v90h-137v114h259v-225c0 -12 3 -33 7 -57l12 -71h-121l-4 18c-3 -1 -10 -6 -13 -8
c-12 -7 -24 -14 -39 -14h-151c-25 0 -49 9 -66 19c-21 13 -59 51 -73 71c-12 19 -17 42 -17 62v304c0 22 4 44 17 63c12 16 51 59 73 72zM320 766h67c0 -60 -48 -107 -106 -107s-109 47 -109 107c-2 0 67 0 67 0c0 -23 19 -42 42 -42c22 0 39 19 39 42z" />
    <glyph glyph-name="gbreve" unicode="&#x11f;" horiz-adv-x="575" 
d="M503 0h-120l-5 26c-14 -13 -34 -31 -51 -31h-133c-25 0 -49 9 -66 19c-21 13 -59 51 -73 71c-12 19 -17 42 -17 62v305c0 22 4 44 17 63c12 16 43 53 65 66c20 13 49 24 74 24h140c60 0 107 -51 131 -83c9 -12 18 -29 25 -45l-118 -32c-15 29 -29 37 -42 43h-132
c-8 -6 -27 -21 -38 -37v-306c0 -2 17 -23 37 -33h124c13 8 39 27 39 36v90h-91v114h213v-224c0 -11 1 -23 5 -44c3 -18 16 -84 16 -84zM309 766h67c0 -60 -48 -107 -106 -107s-109 47 -109 107c-2 0 67 0 67 0c0 -23 19 -42 42 -42c22 0 39 19 39 42z" />
    <glyph glyph-name="Gdotaccent" unicode="&#x120;" horiz-adv-x="593" 
d="M127 586c17 10 42 18 66 18h152c61 0 107 -51 131 -84c16 -22 26 -43 34 -64l-113 -32c-13 27 -25 44 -53 63h-146c-9 -6 -28 -22 -39 -39v-303c0 -5 21 -25 37 -33h146c15 7 38 29 38 36v90h-137v114h259v-225c0 -12 3 -33 7 -57l12 -71h-121l-4 18c-3 -1 -10 -6 -13 -8
c-12 -7 -24 -14 -39 -14h-151c-25 0 -49 9 -66 19c-21 13 -59 51 -73 71c-12 19 -17 42 -17 62v304c0 22 4 44 17 63c12 16 51 59 73 72zM347 684h-126v124h126v-124z" />
    <glyph glyph-name="gdotaccent" unicode="&#x121;" horiz-adv-x="575" 
d="M503 0h-120l-5 26c-14 -13 -34 -31 -51 -31h-133c-25 0 -49 9 -66 19c-21 13 -59 51 -73 71c-12 19 -17 42 -17 62v305c0 22 4 44 17 63c12 16 43 53 65 66c20 13 49 24 74 24h140c60 0 107 -51 131 -83c9 -12 18 -29 25 -45l-118 -32c-15 29 -29 37 -42 43h-132
c-8 -6 -27 -21 -38 -37v-306c0 -2 17 -23 37 -33h124c13 8 39 27 39 36v90h-91v114h213v-224c0 -11 1 -23 5 -44c3 -18 16 -84 16 -84zM338 684h-126v124h126v-124z" />
    <glyph glyph-name="Gcommaaccent" unicode="&#x122;" horiz-adv-x="593" 
d="M127 586c17 10 42 18 66 18h152c61 0 107 -51 131 -84c16 -22 26 -43 34 -64l-113 -32c-13 27 -25 44 -53 63h-146c-9 -6 -28 -22 -39 -39v-303c0 -5 21 -25 37 -33h146c15 7 38 29 38 36v90h-137v114h259v-225c0 -12 3 -33 7 -57l12 -71h-121l-4 18c-3 -1 -10 -6 -13 -8
c-12 -7 -24 -14 -39 -14h-151c-25 0 -49 9 -66 19c-21 13 -59 51 -73 71c-12 19 -17 42 -17 62v304c0 22 4 44 17 63c12 16 51 59 73 72zM320 -69l-71 -130h-124l91 160z" />
    <glyph glyph-name="gcommaaccent" unicode="&#x123;" horiz-adv-x="575" 
d="M503 0h-120l-5 26c-14 -13 -34 -31 -51 -31h-133c-25 0 -49 9 -66 19c-21 13 -59 51 -73 71c-12 19 -17 42 -17 62v305c0 22 4 44 17 63c12 16 43 53 65 66c20 13 49 24 74 24h140c60 0 107 -51 131 -83c9 -12 18 -29 25 -45l-118 -32c-15 29 -29 37 -42 43h-132
c-8 -6 -27 -21 -38 -37v-306c0 -2 17 -23 37 -33h124c13 8 39 27 39 36v90h-91v114h213v-224c0 -11 1 -23 5 -44c3 -18 16 -84 16 -84zM320 -69l-71 -130h-124l91 160z" />
    <glyph glyph-name="Hcircumflex" unicode="&#x124;" horiz-adv-x="567" 
d="M481 0h-122v242h-200v-242h-122v600h122v-241h200v241h122v-600zM226 796h59l145 -136h-140l-35 39l-34 -39h-140z" />
    <glyph glyph-name="hcircumflex" unicode="&#x125;" horiz-adv-x="567" 
d="M481 0h-122v242h-200v-242h-122v600h122v-241h200v241h122v-600zM226 796h59l145 -136h-140l-35 39l-34 -39h-140z" />
    <glyph glyph-name="Hbar" unicode="&#x126;" horiz-adv-x="567" 
d="M481 0h-122v242h-200v-242h-122v456h-37v111h37v33h122v-33h200v33h122v-33h40v-111h-40v-456zM159 359h200v97h-200v-97z" />
    <glyph glyph-name="hbar" unicode="&#x127;" horiz-adv-x="567" 
d="M481 0h-122v242h-200v-242h-122v456h-37v111h37v33h122v-33h200v33h122v-33h40v-111h-40v-456zM159 359h200v97h-200v-97z" />
    <glyph glyph-name="Itilde" unicode="&#x128;" horiz-adv-x="245" 
d="M159 0h-123v600h123v-600zM271 703l-102 -20c-7 18 -22 24 -29 22c-20 -4 -50 -16 -70 -20c-57 -10 -115 13 -149 99l104 21c9 -20 20 -24 26 -23c22 4 50 17 72 21c57 10 114 -16 148 -100z" />
    <glyph glyph-name="itilde" unicode="&#x129;" horiz-adv-x="245" 
d="M159 0h-123v600h123v-600zM271 703l-102 -20c-7 18 -22 24 -29 22c-20 -4 -50 -16 -70 -20c-57 -10 -115 13 -149 99l104 21c9 -20 20 -24 26 -23c22 4 50 17 72 21c57 10 114 -16 148 -100z" />
    <glyph glyph-name="Imacron" unicode="&#x12a;" horiz-adv-x="249" 
d="M215 683h-227v107h227v-107zM164 0h-123v600h123v-600z" />
    <glyph glyph-name="imacron" unicode="&#x12b;" horiz-adv-x="250" 
d="M212 683h-227v107h227v-107zM164 0h-123v600h123v-600z" />
    <glyph glyph-name="Ibreve" unicode="&#x12c;" horiz-adv-x="245" 
d="M159 0h-123v600h123v-600zM139 766h67c0 -60 -48 -107 -106 -107s-109 47 -109 107c-2 0 67 0 67 0c0 -23 19 -42 42 -42c22 0 39 19 39 42z" />
    <glyph glyph-name="ibreve" unicode="&#x12d;" horiz-adv-x="245" 
d="M159 0h-123v600h123v-600zM139 766h67c0 -60 -48 -107 -106 -107s-109 47 -109 107c-2 0 67 0 67 0c0 -23 19 -42 42 -42c22 0 39 19 39 42z" />
    <glyph glyph-name="Iogonek" unicode="&#x12e;" horiz-adv-x="245" 
d="M159 0h-123v600h123v-600zM104 -199l-71 130l104 30l91 -160h-124z" />
    <glyph glyph-name="iogonek" unicode="&#x12f;" horiz-adv-x="245" 
d="M159 0h-123v600h123v-600zM104 -199l-71 130l104 30l91 -160h-124z" />
    <glyph glyph-name="Idotaccent" unicode="&#x130;" horiz-adv-x="245" 
d="M159 0h-123v600h123v-600zM160 684h-126v124h126v-124z" />
    <glyph glyph-name="IJ" unicode="&#x132;" horiz-adv-x="716" 
d="M159 0h-123v600h123v-600zM438 -6v1h-36c-61 0 -108 51 -132 85c-13 18 -25 39 -34 64l114 28c14 -25 30 -46 51 -60h72c8 0 37 29 37 34v454h122v-453c0 -21 -6 -43 -19 -62c-11 -17 -49 -59 -71 -72c-18 -10 -42 -19 -66 -19h-38z" />
    <glyph glyph-name="ij" unicode="&#x133;" horiz-adv-x="697" 
d="M159 0h-123v600h123v-600zM616 148c0 -21 -5 -43 -17 -62c-12 -17 -50 -58 -74 -72h1c-17 -10 -41 -19 -65 -19h-72c-61 0 -108 50 -134 85c-5 7 -11 20 -20 45l117 32c12 -27 26 -39 36 -45h70c1 0 24 14 36 34v454h122v-452z" />
    <glyph glyph-name="Jcircumflex" unicode="&#x134;" horiz-adv-x="465" 
d="M187 -6v1h-36c-61 0 -108 51 -132 85c-13 18 -25 39 -34 64l114 28c14 -25 30 -46 51 -60h72c8 0 37 29 37 34v454h122v-453c0 -21 -6 -43 -19 -62c-11 -17 -49 -59 -71 -72c-18 -10 -42 -19 -66 -19h-38zM287 796h59l145 -136h-140l-35 39l-34 -39h-140z" />
    <glyph glyph-name="jcircumflex" unicode="&#x135;" horiz-adv-x="452" 
d="M371 148c0 -21 -5 -43 -17 -62c-12 -17 -50 -58 -74 -72h1c-17 -10 -41 -19 -65 -19h-72c-61 0 -108 50 -134 85c-5 7 -11 20 -20 45l117 32c12 -27 26 -39 36 -45h70c1 0 24 14 36 34v454h122v-452zM278 796h59l145 -136h-140l-35 39l-34 -39h-140z" />
    <glyph glyph-name="Kcommaaccent" unicode="&#x136;" horiz-adv-x="531" 
d="M320 -69l-71 -130h-124l91 160zM496 0h-148l-179 248h-10v-248h-122v600h122v-244h10c4 0 180 244 180 244h144l-221 -296c3 -2 224 -304 224 -304z" />
    <glyph glyph-name="kcommaaccent" unicode="&#x137;" horiz-adv-x="531" 
d="M320 -69l-71 -130h-124l91 160zM496 0h-148l-179 248h-10v-248h-122v600h122v-244h10c4 0 180 244 180 244h144l-221 -296c3 -2 224 -304 224 -304z" />
    <glyph glyph-name="kgreenlandic" unicode="&#x138;" horiz-adv-x="531" 
d="M496 0h-148l-179 248h-10v-248h-122v600h122v-244h10c4 0 174 235 179 242l-1 2h151v-116h-92l-134 -180c3 -2 224 -304 224 -304z" />
    <glyph glyph-name="Lcommaaccent" unicode="&#x13b;" horiz-adv-x="469" 
d="M320 -69l-71 -130h-124l91 160zM425 0h-388v600h122v-482h266v-118z" />
    <glyph glyph-name="lcommaaccent" unicode="&#x13c;" horiz-adv-x="469" 
d="M320 -69l-71 -130h-124l91 160zM425 0h-388v600h122v-482h266v-118z" />
    <glyph glyph-name="Ldot" unicode="&#x13f;" horiz-adv-x="469" 
d="M425 0h-388v600h122v-482h266v-118zM372 237h-126v124h126v-124z" />
    <glyph glyph-name="ldot" unicode="&#x140;" horiz-adv-x="469" 
d="M425 0h-388v600h122v-482h266v-118zM372 237h-126v124h126v-124z" />
    <glyph glyph-name="Ncommaaccent" unicode="&#x145;" horiz-adv-x="563" 
d="M320 -69l-71 -130h-124l91 160zM476 0h-123l-194 353v-353h-122v600h125l192 -358v358h122v-600z" />
    <glyph glyph-name="ncommaaccent" unicode="&#x146;" horiz-adv-x="563" 
d="M320 -69l-71 -130h-124l91 160zM476 0h-123l-194 353v-353h-122v600h125l192 -358v358h122v-600z" />
    <glyph glyph-name="napostrophe" unicode="&#x149;" horiz-adv-x="670" 
d="M100 499l-10 -77h-118l10 91v133h118v-147zM583 0h-123l-194 353v-353h-122v600h125l192 -358v358h122v-600z" />
    <glyph glyph-name="Eng" unicode="&#x14a;" horiz-adv-x="563" 
d="M475 -52c0 -21 -5 -43 -17 -62c-12 -17 -50 -58 -74 -72h1c-17 -10 -41 -19 -65 -19h-70c-1 0 -1 117 -1 117h68c1 0 24 14 36 34v54l-194 353v-353h-122v600h125l191 -356l1 356h122v-600h-1v-52z" />
    <glyph glyph-name="eng" unicode="&#x14b;" horiz-adv-x="563" 
d="M475 -52c0 -21 -5 -43 -17 -62c-12 -17 -50 -58 -74 -72h1c-17 -10 -41 -19 -65 -19h-70c-1 0 -1 117 -1 117h68c1 0 24 14 36 34v54l-194 353v-353h-122v600h125l191 -356l1 356h122v-600h-1v-52z" />
    <glyph glyph-name="Omacron" unicode="&#x14c;" horiz-adv-x="581" 
d="M499 149c0 -21 -4 -43 -17 -62c-13 -17 -51 -60 -73 -73c-17 -10 -42 -19 -66 -19h-152c-25 0 -49 9 -66 19c-22 13 -61 56 -73 73c-13 19 -17 41 -17 62v301c0 22 4 44 17 63c12 16 51 59 73 72c17 10 41 19 66 19h152c24 0 49 -9 66 -19c22 -13 60 -56 73 -72
c13 -19 17 -41 17 -63v-301zM377 149v301c-7 12 -26 31 -36 37h-147c-8 -6 -25 -21 -37 -38v-300c11 -15 28 -32 36 -37h147c8 6 26 23 37 37zM386 683h-227v107h227v-107z" />
    <glyph glyph-name="omacron" unicode="&#x14d;" horiz-adv-x="567" 
d="M376 683h-227v107h227v-107zM484 149c0 -20 -5 -43 -18 -62c-13 -18 -51 -60 -72 -73c-17 -10 -42 -19 -66 -19h-136c-25 0 -49 9 -66 19c-22 13 -61 56 -73 73c-13 19 -17 41 -17 62v301c0 22 4 44 17 63c12 16 51 59 73 72c17 10 41 19 66 19h136c23 0 49 -9 66 -19
c21 -13 58 -55 72 -72c13 -19 18 -42 18 -63v-301zM361 150v300c-7 13 -25 31 -35 37h-131c-8 -6 -25 -21 -37 -38v-299c11 -15 28 -32 36 -37h131c8 5 25 21 36 37z" />
    <glyph glyph-name="Obreve" unicode="&#x14e;" horiz-adv-x="581" 
d="M312 766h67c0 -60 -48 -107 -106 -107s-109 47 -109 107c-2 0 67 0 67 0c0 -23 19 -42 42 -42c22 0 39 19 39 42zM499 149c0 -21 -4 -43 -17 -62c-13 -17 -51 -60 -73 -73c-17 -10 -42 -19 -66 -19h-152c-25 0 -49 9 -66 19c-22 13 -61 56 -73 73c-13 19 -17 41 -17 62
v301c0 22 4 44 17 63c12 16 51 59 73 72c17 10 41 19 66 19h152c24 0 49 -9 66 -19c22 -13 60 -56 73 -72c13 -19 17 -41 17 -63v-301zM377 149v301c-7 12 -26 31 -36 37h-147c-8 -6 -25 -21 -37 -38v-300c11 -15 28 -32 36 -37h147c8 6 26 23 37 37z" />
    <glyph glyph-name="obreve" unicode="&#x14f;" horiz-adv-x="567" 
d="M484 149c0 -20 -5 -43 -18 -62c-13 -18 -51 -60 -72 -73c-17 -10 -42 -19 -66 -19h-136c-25 0 -49 9 -66 19c-22 13 -61 56 -73 73c-13 19 -17 41 -17 62v301c0 22 4 44 17 63c12 16 51 59 73 72c17 10 41 19 66 19h136c23 0 49 -9 66 -19c21 -13 58 -55 72 -72
c13 -19 18 -42 18 -63v-301zM361 150v300c-7 13 -25 31 -35 37h-131c-8 -6 -25 -21 -37 -38v-299c11 -15 28 -32 36 -37h131c8 5 25 21 36 37zM306 766h67c0 -60 -48 -107 -106 -107s-109 47 -109 107c-2 0 67 0 67 0c0 -23 19 -42 42 -42c22 0 39 19 39 42z" />
    <glyph glyph-name="Rcommaaccent" unicode="&#x156;" horiz-adv-x="565" 
d="M477 371c0 -24 -6 -46 -19 -65c-9 -14 -40 -44 -54 -54c-8 -6 -16 -10 -24 -14c49 -90 130 -238 130 -238h-136l-119 229h-96v-229h-122v600h292c25 0 56 -9 75 -23c14 -11 44 -42 54 -55c13 -18 19 -44 19 -66v-85zM355 370v89c-5 8 -16 19 -26 24h-170v-137h170
c3 0 20 14 26 24zM320 -69l-71 -130h-124l91 160z" />
    <glyph glyph-name="rcommaaccent" unicode="&#x157;" horiz-adv-x="565" 
d="M477 371c0 -24 -6 -46 -19 -65c-9 -14 -40 -44 -54 -54c-8 -6 -16 -10 -24 -14c49 -90 130 -238 130 -238h-136l-119 229h-96v-229h-122v600h292c25 0 56 -9 75 -23c14 -11 44 -42 54 -55c13 -18 19 -44 19 -66v-85zM355 370v89c-5 8 -16 19 -26 24h-170v-137h170
c3 0 20 14 26 24zM320 -69l-71 -130h-124l91 160z" />
    <glyph glyph-name="Scircumflex" unicode="&#x15c;" horiz-adv-x="565" 
d="M193 487c-16 -8 -37 -34 -37 -35v-53c0 -4 3 -6 3 -6l254 -69c55 -15 83 -67 83 -116v-59c0 -16 -5 -42 -18 -62c-13 -19 -52 -60 -73 -73c-16 -9 -42 -19 -66 -19h-153c-61 0 -108 51 -132 85c-13 18 -25 39 -34 64l113 35c14 -25 31 -53 52 -67h152c15 8 36 33 36 34
v59c0 5 -3 6 -3 6c-83 22 -169 46 -253 68c-56 15 -83 67 -83 116v55c0 18 3 43 16 63c12 17 52 58 75 72c16 9 41 19 65 19h142c61 0 107 -51 131 -84c16 -22 26 -43 34 -64l-113 -32c-13 27 -25 44 -53 63h-138zM236 796h59l145 -136h-140l-35 39l-34 -39h-140z" />
    <glyph glyph-name="scircumflex" unicode="&#x15d;" horiz-adv-x="539" 
d="M473 148c0 -17 -3 -43 -16 -63c-9 -14 -53 -59 -67 -69c-21 -15 -49 -22 -75 -22h-144c-59 0 -106 50 -131 84c-8 9 -18 32 -25 46l119 32c10 -24 27 -39 37 -45h148c14 8 32 33 32 34v60c0 4 -3 6 -3 6c-79 22 -160 46 -240 68c-55 15 -83 67 -83 116v55
c0 18 3 43 16 63c9 12 50 56 66 68c20 14 49 24 75 24h128c59 0 109 -49 131 -83c9 -15 15 -25 24 -45l-117 -32c-12 24 -30 36 -42 43h-118c-20 -10 -41 -35 -41 -36v-53c0 -4 3 -6 3 -6c79 -23 161 -46 241 -69c54 -16 82 -68 82 -116v-60zM213 796h59l145 -136h-140
l-35 39l-34 -39h-140z" />
    <glyph glyph-name="Scedilla" unicode="&#x15e;" horiz-adv-x="565" 
d="M193 487c-16 -8 -37 -34 -37 -35v-53c0 -4 3 -6 3 -6l254 -69c55 -15 83 -67 83 -116v-59c0 -16 -5 -42 -18 -62c-13 -19 -52 -60 -73 -73c-16 -9 -42 -19 -66 -19h-153c-61 0 -108 51 -132 85c-13 18 -25 39 -34 64l113 35c14 -25 31 -53 52 -67h152c15 8 36 33 36 34
v59c0 5 -3 6 -3 6c-83 22 -169 46 -253 68c-56 15 -83 67 -83 116v55c0 18 3 43 16 63c12 17 52 58 75 72c16 9 41 19 65 19h142c61 0 107 -51 131 -84c16 -22 26 -43 34 -64l-113 -32c-13 27 -25 44 -53 63h-138zM320 -69l-71 -130h-124l91 160z" />
    <glyph glyph-name="scedilla" unicode="&#x15f;" horiz-adv-x="539" 
d="M473 148c0 -17 -3 -43 -16 -63c-9 -14 -53 -59 -67 -69c-21 -15 -49 -22 -75 -22h-144c-59 0 -106 50 -131 84c-8 9 -18 32 -25 46l119 32c10 -24 27 -39 37 -45h148c14 8 32 33 32 34v60c0 4 -3 6 -3 6c-79 22 -160 46 -240 68c-55 15 -83 67 -83 116v55
c0 18 3 43 16 63c9 12 50 56 66 68c20 14 49 24 75 24h128c59 0 109 -49 131 -83c9 -15 15 -25 24 -45l-117 -32c-12 24 -30 36 -42 43h-118c-20 -10 -41 -35 -41 -36v-53c0 -4 3 -6 3 -6c79 -23 161 -46 241 -69c54 -16 82 -68 82 -116v-60zM320 -69l-71 -130h-124l91 160z
" />
    <glyph glyph-name="Tbar" unicode="&#x166;" horiz-adv-x="515" 
d="M406 250h-113v-250h-123v250h-120v114h120v119h-162v117h446v-117h-161v-119h113v-114z" />
    <glyph glyph-name="tbar" unicode="&#x167;" horiz-adv-x="515" 
d="M406 250h-113v-250h-123v250h-120v114h120v119h-162v117h446v-117h-161v-119h113v-114z" />
    <glyph glyph-name="Utilde" unicode="&#x168;" horiz-adv-x="573" 
d="M437 703l-102 -20c-7 18 -22 24 -29 22c-20 -4 -50 -16 -70 -20c-57 -10 -115 13 -149 99l104 21c9 -20 20 -24 26 -23c22 4 50 17 72 21c57 10 114 -16 148 -100zM491 149c0 -21 -4 -43 -17 -62c-12 -17 -50 -60 -72 -73c-18 -10 -42 -19 -66 -19h-143
c-25 0 -49 9 -66 19c-22 13 -61 56 -73 73c-13 19 -17 41 -17 62v451h122v-450c12 -15 29 -33 37 -38h137c8 5 25 21 36 37v451h122v-451z" />
    <glyph glyph-name="utilde" unicode="&#x169;" horiz-adv-x="556" 
d="M481 149c0 -21 -4 -43 -17 -62c-12 -17 -50 -60 -72 -73c-18 -10 -42 -19 -66 -19h-133c-25 0 -49 9 -66 19c-22 13 -61 56 -73 73c-13 19 -17 41 -17 62v451h122v-450c12 -15 29 -33 37 -38h127c8 5 25 21 36 37v451h122v-451zM437 703l-102 -20c-7 18 -22 24 -29 22
c-20 -4 -50 -16 -70 -20c-57 -10 -115 13 -149 99l104 21c9 -20 20 -24 26 -23c22 4 50 17 72 21c57 10 114 -16 148 -100z" />
    <glyph glyph-name="Umacron" unicode="&#x16a;" horiz-adv-x="573" 
d="M491 149c0 -21 -4 -43 -17 -62c-12 -17 -50 -60 -72 -73c-18 -10 -42 -19 -66 -19h-143c-25 0 -49 9 -66 19c-22 13 -61 56 -73 73c-13 19 -17 41 -17 62v451h122v-450c12 -15 29 -33 37 -38h137c8 5 25 21 36 37v451h122v-451zM378 683h-227v107h227v-107z" />
    <glyph glyph-name="umacron" unicode="&#x16b;" horiz-adv-x="556" 
d="M481 149c0 -21 -4 -43 -17 -62c-12 -17 -50 -60 -72 -73c-18 -10 -42 -19 -66 -19h-133c-25 0 -49 9 -66 19c-22 13 -61 56 -73 73c-13 19 -17 41 -17 62v451h122v-450c12 -15 29 -33 37 -38h127c8 5 25 21 36 37v451h122v-451zM373 683h-227v107h227v-107z" />
    <glyph glyph-name="Ubreve" unicode="&#x16c;" horiz-adv-x="573" 
d="M491 149c0 -21 -4 -43 -17 -62c-12 -17 -50 -60 -72 -73c-18 -10 -42 -19 -66 -19h-143c-25 0 -49 9 -66 19c-22 13 -61 56 -73 73c-13 19 -17 41 -17 62v451h122v-450c12 -15 29 -33 37 -38h137c8 5 25 21 36 37v451h122v-451zM305 766h67c0 -60 -48 -107 -106 -107
s-109 47 -109 107c-2 0 67 0 67 0c0 -23 19 -42 42 -42c22 0 39 19 39 42z" />
    <glyph glyph-name="ubreve" unicode="&#x16d;" horiz-adv-x="556" 
d="M481 149c0 -21 -4 -43 -17 -62c-12 -17 -50 -60 -72 -73c-18 -10 -42 -19 -66 -19h-133c-25 0 -49 9 -66 19c-22 13 -61 56 -73 73c-13 19 -17 41 -17 62v451h122v-450c12 -15 29 -33 37 -38h127c8 5 25 21 36 37v451h122v-451zM301 766h67c0 -60 -48 -107 -106 -107
s-109 47 -109 107c-2 0 67 0 67 0c0 -23 19 -42 42 -42c22 0 39 19 39 42z" />
    <glyph glyph-name="Uogonek" unicode="&#x172;" horiz-adv-x="573" 
d="M241 -199l-71 130l104 30l91 -160h-124zM491 149c0 -21 -4 -43 -17 -62c-12 -17 -50 -60 -72 -73c-18 -10 -42 -19 -66 -19h-143c-25 0 -49 9 -66 19c-22 13 -61 56 -73 73c-13 19 -17 41 -17 62v451h122v-450c12 -15 29 -33 37 -38h137c8 5 25 21 36 37v451h122v-451z
" />
    <glyph glyph-name="uogonek" unicode="&#x173;" horiz-adv-x="556" 
d="M239 -199l-71 130l104 30l91 -160h-124zM481 149c0 -21 -4 -43 -17 -62c-12 -17 -50 -60 -72 -73c-18 -10 -42 -19 -66 -19h-133c-25 0 -49 9 -66 19c-22 13 -61 56 -73 73c-13 19 -17 41 -17 62v451h122v-450c12 -15 29 -33 37 -38h127c8 5 25 21 36 37v451h122v-451z
" />
    <glyph glyph-name="Wcircumflex" unicode="&#x174;" horiz-adv-x="742" 
d="M707 600l-139 -600h-131l-87 351c-28 -116 -58 -235 -86 -351h-131l-137 600h126l79 -370c28 122 59 249 87 370h124l87 -370c26 122 52 249 78 370h130zM318 796h59l145 -136h-140l-35 39l-34 -39h-140z" />
    <glyph glyph-name="wcircumflex" unicode="&#x175;" horiz-adv-x="742" 
d="M707 600l-139 -600h-131l-87 351c-28 -116 -58 -235 -86 -351h-131l-137 600h126l79 -370c28 122 59 249 87 370h124l87 -370c26 122 52 249 78 370h130zM318 796h59l145 -136h-140l-35 39l-34 -39h-140z" />
    <glyph glyph-name="Ycircumflex" unicode="&#x176;" horiz-adv-x="511" 
d="M500 600l-204 -340v-260h-123v260l-201 340h138l125 -211l127 211h138zM202 796h59l145 -136h-140l-35 39l-34 -39h-140z" />
    <glyph glyph-name="ycircumflex" unicode="&#x177;" horiz-adv-x="511" 
d="M500 600l-204 -340v-260h-123v260l-201 340h138l125 -211l127 211h138zM202 796h59l145 -136h-140l-35 39l-34 -39h-140z" />
    <glyph glyph-name="longs" unicode="&#x17f;" horiz-adv-x="539" 
d="M473 148c0 -17 -3 -43 -16 -63c-9 -14 -53 -59 -67 -69c-21 -15 -49 -22 -75 -22h-144c-59 0 -106 50 -131 84c-8 9 -18 32 -25 46l119 32c10 -24 27 -39 37 -45h148c14 8 32 33 32 34v60c0 4 -3 6 -3 6c-79 22 -160 46 -240 68c-55 15 -83 67 -83 116v55
c0 18 3 43 16 63c9 12 50 56 66 68c20 14 49 24 75 24h128c59 0 109 -49 131 -83c9 -15 15 -25 24 -45l-117 -32c-12 24 -30 36 -42 43h-118c-20 -10 -41 -35 -41 -36v-53c0 -4 3 -6 3 -6c79 -23 161 -46 241 -69c54 -16 82 -68 82 -116v-60z" />
    <glyph glyph-name="afii10017" unicode="&#x410;" horiz-adv-x="580" 
d="M539 0h-130l-40 115h-209c-13 -37 -28 -78 -41 -115h-130l208 600h135zM332 232l-68 193c-22 -64 -45 -129 -67 -193h135z" />
    <glyph glyph-name="afii10019" unicode="&#x412;" horiz-adv-x="553" 
d="M476 143c0 -23 -5 -46 -18 -65c-9 -13 -38 -44 -53 -55c-20 -14 -51 -23 -76 -23h-292v600h292c27 0 56 -10 76 -24c15 -11 44 -42 53 -54c14 -21 18 -46 18 -67v-72c0 -39 -15 -64 -33 -84c19 -21 33 -44 33 -84v-72zM354 143v73c-9 15 -24 28 -27 28h-168v-127h169
c3 0 18 12 26 26zM354 382v73c-9 15 -24 28 -27 28h-168v-126h169c3 0 19 13 26 25z" />
    <glyph glyph-name="afii10022" unicode="&#x415;" 
d="M431 0h-394v600h394v-117h-272v-123h263v-117h-263v-126h272v-117z" />
    <glyph glyph-name="afii10026" unicode="&#x418;" horiz-adv-x="563" 
d="M160 0h-123v600h122v-358l192 358h125v-600h-122v353z" />
    <glyph glyph-name="afii10027" unicode="&#x419;" horiz-adv-x="563" 
d="M160 0h-123v600h122v-358l192 358h125v-600h-122v353zM294 766h67c0 -60 -48 -107 -106 -107s-109 47 -109 107c-2 0 67 0 67 0c0 -23 19 -42 42 -42c22 0 39 19 39 42z" />
    <glyph glyph-name="afii10028" unicode="&#x41a;" horiz-adv-x="526" 
d="M496 0h-148l-179 248h-10v-248h-122v600h122v-244h10c4 0 180 244 180 244h144l-221 -296c3 -2 224 -304 224 -304z" />
    <glyph glyph-name="afii10030" unicode="&#x41c;" horiz-adv-x="657" 
d="M568 0h-122v361c-34 -73 -70 -146 -104 -218h-80l-103 217v-360h-122v600h133l134 -272c44 90 88 183 132 272h132v-600z" />
    <glyph glyph-name="afii10031" unicode="&#x41d;" horiz-adv-x="567" 
d="M481 0h-122v242h-200v-242h-122v600h122v-241h200v241h122v-600z" />
    <glyph glyph-name="afii10032" unicode="&#x41e;" horiz-adv-x="581" 
d="M499 149c0 -21 -4 -43 -17 -62c-13 -17 -51 -60 -73 -73c-17 -10 -42 -19 -66 -19h-152c-25 0 -49 9 -66 19c-22 13 -61 56 -73 73c-13 19 -17 41 -17 62v301c0 22 4 44 17 63c12 16 51 59 73 72c17 10 41 19 66 19h152c24 0 49 -9 66 -19c22 -13 60 -56 73 -72
c13 -19 17 -41 17 -63v-301zM377 149v301c-7 12 -26 31 -36 37h-147c-8 -6 -25 -21 -37 -38v-300c11 -15 28 -32 36 -37h147c8 6 26 23 37 37z" />
    <glyph glyph-name="afii10034" unicode="&#x420;" horiz-adv-x="534" 
d="M477 371c0 -24 -6 -46 -19 -65c-9 -14 -40 -44 -54 -54c-22 -16 -49 -23 -75 -23h-170v-229h-122v600h292c25 0 56 -9 75 -23c14 -11 44 -42 54 -55c13 -18 19 -44 19 -66v-85zM355 370v89c-5 8 -16 19 -26 24h-170v-137h170c3 0 20 14 26 24z" />
    <glyph glyph-name="afii10035" unicode="&#x421;" horiz-adv-x="555" 
d="M488 456l-113 -32c-13 27 -25 44 -53 63h-125c-10 -7 -30 -26 -39 -40v-298c0 -1 15 -23 39 -37h127c21 14 37 35 51 60l114 -28c-9 -25 -21 -46 -34 -64c-24 -34 -71 -85 -132 -85h-131c-24 0 -49 9 -66 19c-21 13 -59 53 -73 72c-12 19 -17 42 -17 62v303
c0 22 4 43 17 62c12 16 51 58 74 72c16 9 41 19 65 19h131c61 0 107 -51 131 -84c16 -22 26 -43 34 -64z" />
    <glyph glyph-name="afii10036" unicode="&#x422;" horiz-adv-x="515" 
d="M458 483h-161v-483h-123v483h-162v117h446v-117z" />
    <glyph glyph-name="afii10037" unicode="&#x423;" horiz-adv-x="526" 
d="M495 600l-252 -600h-126l67 159h-17l-190 441h129l131 -314l129 314h129z" />
    <glyph glyph-name="afii10083" unicode="&#x441;" horiz-adv-x="531" 
d="M469 125l1 -1c-7 -16 -17 -33 -25 -45c-23 -35 -72 -84 -131 -84h-115c-26 0 -52 5 -72 19c-21 13 -59 53 -73 72c-12 19 -17 42 -17 62v300c0 22 4 43 17 62c9 13 55 58 71 70c20 14 49 24 75 24h114c60 0 107 -51 131 -83c5 -7 17 -27 24 -45l-117 -32
c-15 29 -29 37 -42 43h-109c-10 -7 -33 -29 -42 -43v-298c0 -2 19 -24 41 -34h111c13 5 29 20 41 45z" />
    <glyph glyph-name="afii10033" unicode="&#x41f;" horiz-adv-x="567" 
d="M481 0h-122v483h-200v-483h-122v600h444v-600z" />
    <glyph glyph-name="afii10024" unicode="&#x416;" horiz-adv-x="816" 
d="M786 0h-148l-179 248h-10v-248h-122v248h-10l-179 -248h-148s221 302 224 304l-221 296h144s176 -244 180 -244h10v244h122v-244h10c4 0 180 244 180 244h144l-221 -296c3 -2 224 -304 224 -304z" />
    <glyph glyph-name="afii10020" unicode="&#x413;" horiz-adv-x="469" 
d="M37 600h388v-118h-266v-482h-122v600z" />
    <glyph glyph-name="afii10025" unicode="&#x417;" horiz-adv-x="529" 
d="M310 604c25 0 53 -10 73 -24c15 -10 44 -41 55 -55c14 -18 19 -43 19 -65v-75c0 -38 -18 -63 -35 -82c17 -20 35 -45 35 -84v-79c0 -23 -6 -47 -19 -66c-9 -13 -39 -45 -55 -56c-20 -14 -48 -23 -73 -23h-138c-61 0 -107 50 -131 83c-16 22 -26 44 -34 65l113 32
c13 -27 25 -44 53 -63h136c3 0 17 12 26 26v82c-7 14 -22 26 -26 26h-135v114h136c3 0 17 12 25 26v74c-9 14 -23 27 -26 27h-136c-28 -19 -40 -36 -53 -63l-113 32c8 21 18 43 34 65c24 33 70 83 131 83h138z" />
    <glyph glyph-name="afii10018" unicode="&#x411;" horiz-adv-x="554" 
d="M477 229v-85c0 -22 -7 -47 -19 -66c-10 -13 -40 -44 -54 -55c-21 -14 -50 -23 -75 -23h-292v600h388v-118h-266v-111h170c26 0 53 -7 75 -23c14 -10 45 -40 54 -54c13 -19 19 -41 19 -65zM355 141v89c-6 10 -23 24 -26 24h-170v-137h170c10 5 21 16 26 24z" />
    <glyph glyph-name="afii10039" unicode="&#x425;" horiz-adv-x="526" 
d="M484 600l-175 -295l182 -305h-136l-113 195l-113 -195h-136l181 305l-174 295h136l106 -185l107 185h135z" />
    <glyph glyph-name="afii10041" unicode="&#x427;" horiz-adv-x="553" 
d="M27 600h122v-230c6 -10 23 -24 26 -24h170v254h122v-600h-122v229h-170c-26 0 -53 7 -75 23c-14 10 -45 40 -54 54c-13 19 -19 41 -19 65v229z" />
    <glyph glyph-name="afii10049" unicode="&#x42f;" horiz-adv-x="567" 
d="M41 371v85c0 22 6 48 19 66c10 13 40 44 54 55c19 14 50 23 75 23h292v-600h-122v229h-96l-119 -229h-136s81 148 130 238c-8 4 -16 8 -24 14c-14 10 -45 40 -54 54c-13 19 -19 41 -19 65zM163 459v-89c6 -10 23 -24 26 -24h170v137h-170c-10 -5 -21 -16 -26 -24z" />
    <glyph glyph-name="afii10029" unicode="&#x41b;" horiz-adv-x="587" 
d="M-15 0v116l65 1c8 0 37 29 37 34v449h414v-600h-122v483h-170v-330c0 -21 -6 -43 -19 -62c-11 -17 -49 -59 -71 -72c-18 -10 -42 -19 -66 -19h-68z" />
    <glyph glyph-name="afii10021" unicode="&#x414;" horiz-adv-x="636" 
d="M598 117l-22 -220h-127l9 103h-347v-103h-123v220h57c10 2 36 29 36 34l64 449h370v-483h83zM205 152c-2 -13 -7 -24 -11 -35h199v366h-141z" />
    <glyph glyph-name="afii10038" unicode="&#x424;" horiz-adv-x="640" 
d="M354 -110h-111v105h-49c-25 0 -49 9 -66 19c-22 13 -61 56 -73 73c-13 19 -17 41 -17 62v301c0 22 4 44 17 63c12 16 51 59 73 72c17 10 41 19 66 19h49v89h111v-89h47c24 0 49 -9 66 -19c22 -13 60 -56 73 -72c13 -19 17 -41 17 -63v-301c0 -21 -4 -43 -17 -62
c-13 -17 -51 -60 -73 -73c-17 -10 -42 -19 -66 -19h-47v-105zM160 149c11 -15 28 -32 36 -37h47v375h-46c-8 -6 -25 -21 -37 -38v-300zM435 149v301c-7 12 -26 31 -36 37h-45v-375h44c8 6 26 23 37 37z" />
    <glyph glyph-name="afii10040" unicode="&#x426;" horiz-adv-x="572" 
d="M532 117l-20 -220h-127l4 103h-352v600h122v-483h170v483h122v-483h81z" />
    <glyph glyph-name="afii10043" unicode="&#x429;" horiz-adv-x="744" 
d="M269 600h122v-483h110v483h122v-483h81l-20 -219h-127l4 102h-524v600h122v-483h110v483z" />
    <glyph glyph-name="afii10042" unicode="&#x428;" horiz-adv-x="710" 
d="M269 600h122v-483h110v483h122v-600h-586v600h122v-483h110v483z" />
    <glyph glyph-name="afii10046" unicode="&#x42c;" horiz-adv-x="534" 
d="M477 229v-85c0 -22 -7 -47 -19 -66c-10 -13 -40 -44 -54 -55c-21 -14 -50 -23 -75 -23h-292v600h122v-229h170c26 0 53 -7 75 -23c14 -10 45 -40 54 -54c13 -19 19 -41 19 -65zM355 141v89c-6 10 -23 24 -26 24h-170v-137h170c10 5 21 16 26 24z" />
    <glyph glyph-name="afii10044" unicode="&#x42a;" horiz-adv-x="584" 
d="M-22 482v118h231v-229h170c26 0 53 -7 75 -23c14 -10 45 -40 54 -54c13 -19 19 -41 19 -65v-85c0 -22 -7 -47 -19 -66c-10 -13 -40 -44 -54 -55c-21 -14 -50 -23 -75 -23h-292v482h-109zM405 141v89c-6 10 -23 24 -26 24h-170v-137h170c10 5 21 16 26 24z" />
    <glyph glyph-name="afii10045" unicode="&#x42b;" horiz-adv-x="763" 
d="M477 229v-85c0 -22 -7 -47 -19 -66c-10 -13 -40 -44 -54 -55c-21 -14 -50 -23 -75 -23h-292v600h122v-229h170c26 0 53 -7 75 -23c14 -10 45 -40 54 -54c13 -19 19 -41 19 -65zM355 141v89c-6 10 -23 24 -26 24h-170v-137h170c10 5 21 16 26 24zM676 0h-123v600h123v-600
z" />
    <glyph glyph-name="afii10047" unicode="&#x42d;" horiz-adv-x="534" 
d="M172 -5c-61 0 -107 50 -131 83c-16 22 -26 44 -34 65l113 32c13 -27 25 -44 53 -63h136c3 0 17 12 26 26v108h-161v114h161v100c-9 14 -23 27 -26 27h-136c-28 -19 -40 -36 -53 -63l-113 32c8 21 18 43 34 65c24 33 70 83 131 83h138c25 0 53 -10 73 -24
c15 -10 44 -41 55 -55c14 -18 19 -43 19 -65v-320c0 -23 -6 -47 -19 -66c-9 -13 -39 -45 -55 -56c-20 -14 -48 -23 -73 -23h-138z" />
    <glyph glyph-name="afii10095" unicode="&#x44d;" horiz-adv-x="526" 
d="M327 246h-171v114h171v100c-9 14 -23 27 -26 27h-132c-15 -7 -35 -25 -42 -41c0 -1 -117 29 -117 29c6 17 15 33 25 46c25 32 71 83 132 83h135c25 0 53 -10 73 -24c15 -10 44 -41 55 -55c14 -18 19 -43 19 -65v-320c0 -23 -6 -47 -19 -66c-9 -13 -39 -45 -55 -56
c-20 -14 -48 -23 -73 -23h-135c-60 0 -107 50 -132 84c-9 12 -18 29 -25 46l119 32c11 -26 29 -39 40 -45h132c3 0 17 12 26 26v108z" />
    <glyph glyph-name="afii10053" unicode="&#x404;" horiz-adv-x="555" 
d="M185 -5c-25 0 -53 9 -73 23c-16 11 -46 43 -55 56c-13 19 -19 43 -19 66v320c0 22 5 47 19 65c11 14 40 45 55 55c20 14 48 24 73 24h136c61 0 107 -50 131 -83c16 -22 26 -44 34 -65l-113 -32c-13 27 -25 44 -53 63h-134c-3 0 -17 -13 -26 -27v-100h161v-114h-161v-108
c9 -14 23 -26 26 -26h134c28 19 40 36 53 63l113 -32c-8 -21 -18 -43 -34 -65c-24 -33 -70 -83 -131 -83h-136z" />
    <glyph glyph-name="afii10101" unicode="&#x454;" horiz-adv-x="531" 
d="M331 246h-171v-108c9 -14 23 -26 26 -26h132c11 6 29 19 40 45l119 -32c-7 -17 -16 -34 -25 -46c-25 -34 -72 -84 -132 -84h-135c-25 0 -53 9 -73 23c-16 11 -46 43 -55 56c-13 19 -19 43 -19 66v320c0 22 5 47 19 65c11 14 40 45 55 55c20 14 48 24 73 24h135
c61 0 107 -51 132 -83c10 -13 19 -29 25 -46c0 0 -117 -30 -117 -29c-7 16 -27 34 -42 41h-132c-3 0 -17 -13 -26 -27v-100h171v-114z" />
    <glyph glyph-name="afii10055" unicode="&#x406;" horiz-adv-x="255" 
d="M164 0h-123v600h123v-600z" />
    <glyph glyph-name="afii10057" unicode="&#x408;" horiz-adv-x="465" 
d="M384 147c0 -21 -6 -43 -19 -62c-11 -17 -49 -59 -71 -72c-18 -10 -42 -19 -66 -19h-72c-61 0 -107 50 -133 85c-11 14 -26 45 -38 78l117 30c11 -23 14 -28 14 -28c10 -18 29 -39 39 -47h70c8 0 37 29 37 34v454h122v-453z" />
    <glyph glyph-name="afii10105" unicode="&#x458;" horiz-adv-x="452" 
d="M371 148c0 -21 -5 -43 -17 -62c-12 -17 -50 -58 -74 -72h1c-17 -10 -41 -19 -65 -19h-72c-61 0 -108 50 -134 85c-5 7 -11 20 -20 45l117 32c12 -27 26 -39 36 -45h70c1 0 24 14 36 34v454h122v-452z" />
    <glyph glyph-name="afii10054" unicode="&#x405;" horiz-adv-x="565" 
d="M193 487c-16 -8 -37 -34 -37 -35v-53c0 -4 3 -6 3 -6l254 -69c55 -15 83 -67 83 -116v-59c0 -16 -5 -42 -18 -62c-13 -19 -52 -60 -73 -73c-16 -9 -42 -19 -66 -19h-153c-61 0 -108 51 -132 85c-13 18 -25 39 -34 64l113 35c14 -25 31 -53 52 -67h152c15 8 36 33 36 34
v59c0 5 -3 6 -3 6c-83 22 -169 46 -253 68c-56 15 -83 67 -83 116v55c0 18 3 43 16 63c12 17 52 58 75 72c16 9 41 19 65 19h142c61 0 107 -51 131 -84c16 -22 26 -43 34 -64l-113 -32c-13 27 -25 44 -53 63h-138z" />
    <glyph glyph-name="afii10102" unicode="&#x455;" horiz-adv-x="539" 
d="M473 148c0 -17 -3 -43 -16 -63c-9 -14 -53 -59 -67 -69c-21 -15 -49 -22 -75 -22h-144c-59 0 -106 50 -131 84c-8 9 -18 32 -25 46l119 32c10 -24 27 -39 37 -45h148c14 8 32 33 32 34v60c0 4 -3 6 -3 6c-79 22 -160 46 -240 68c-55 15 -83 67 -83 116v55
c0 18 3 43 16 63c9 12 50 56 66 68c20 14 49 24 75 24h128c59 0 109 -49 131 -83c9 -15 15 -25 24 -45l-117 -32c-12 24 -30 36 -42 43h-118c-20 -10 -41 -35 -41 -36v-53c0 -4 3 -6 3 -6c79 -23 161 -46 241 -69c54 -16 82 -68 82 -116v-60z" />
    <glyph glyph-name="afii10061" unicode="&#x40c;" horiz-adv-x="531" 
d="M297 660h-128l93 136h140zM501 0h-154l-188 242v-242h-122v600h122v-238c0 -4 188 238 188 238h153l-240 -296c3 -2 241 -304 241 -304z" />
    <glyph glyph-name="afii10109" unicode="&#x45c;" horiz-adv-x="531" 
d="M297 660h-128l93 136h140zM501 0h-154l-188 242v-242h-122v600h122v-238c0 -4 188 238 188 238h153l-240 -296c3 -2 241 -304 241 -304z" />
    <glyph glyph-name="afii10048" unicode="&#x42e;" horiz-adv-x="778" 
d="M159 0h-123v600h123v-239h90v89c0 22 4 44 17 63c12 16 51 59 73 72c17 10 41 19 66 19h136c23 0 49 -9 66 -19c21 -13 58 -55 72 -72c13 -19 18 -42 18 -63v-301c0 -20 -5 -43 -18 -62c-13 -18 -51 -60 -72 -73c-17 -10 -42 -19 -66 -19h-136c-25 0 -49 9 -66 19
c-22 13 -61 56 -73 73c-13 19 -17 41 -17 62v96h-90v-245zM574 150v300c-7 13 -25 31 -35 37h-131c-8 -6 -25 -21 -37 -38v-299c11 -15 28 -32 36 -37h131c8 5 25 21 36 37z" />
    <glyph glyph-name="afii10103" unicode="&#x456;" horiz-adv-x="255" 
d="M164 0h-123v600h123v-600z" />
    <glyph glyph-name="afii10098" unicode="&#x491;" horiz-adv-x="469" 
d="M37 600h274v93h114v-211h-266v-482h-122v600z" />
    <glyph glyph-name="afii10050" unicode="&#x490;" horiz-adv-x="469" 
d="M37 600h388v-118h-266v-482h-122v600zM311 597v96h114v-96h-114z" />
    <glyph glyph-name="afii10052" unicode="&#x403;" horiz-adv-x="469" 
d="M37 600h388v-118h-266v-482h-122v600zM266 660h-128l93 136h140z" />
    <glyph glyph-name="afii10068" unicode="&#x433;" horiz-adv-x="469" 
d="M37 600h388v-118h-266v-482h-122v600z" />
    <glyph glyph-name="afii10100" unicode="&#x453;" horiz-adv-x="469" 
d="M37 600h388v-118h-266v-482h-122v600zM266 660h-128l93 136h140z" />
    <glyph glyph-name="afii10065" unicode="&#x430;" horiz-adv-x="580" 
d="M539 0h-130l-40 115h-209c-13 -37 -28 -78 -41 -115h-130l208 600h135zM332 232l-68 193c-22 -64 -45 -129 -67 -193h135z" />
    <glyph glyph-name="afii10066" unicode="&#x431;" horiz-adv-x="554" 
d="M477 229v-85c0 -22 -7 -47 -19 -66c-10 -13 -40 -44 -54 -55c-21 -14 -50 -23 -75 -23h-292v600h388v-118h-266v-111h170c26 0 53 -7 75 -23c14 -10 45 -40 54 -54c13 -19 19 -41 19 -65zM355 141v89c-6 10 -23 24 -26 24h-170v-137h170c10 5 21 16 26 24z" />
    <glyph glyph-name="afii10067" unicode="&#x432;" horiz-adv-x="543" 
d="M466 143c0 -23 -5 -46 -18 -65c-9 -13 -38 -44 -53 -55c-20 -14 -51 -23 -76 -23h-282v600h282c27 0 56 -10 76 -24c15 -11 44 -42 53 -54c14 -21 18 -46 18 -67v-72c0 -39 -15 -64 -33 -84c19 -21 33 -44 33 -84v-72zM344 143v73c-9 15 -24 28 -27 28h-158v-127h159
c3 0 18 12 26 26zM344 382v73c-9 15 -24 28 -27 28h-158v-126h159c3 0 19 13 26 25z" />
    <glyph glyph-name="afii10056" unicode="&#x407;" horiz-adv-x="245" 
d="M253 666h-117v122h117v-122zM59 666h-115v122h115v-122zM164 0h-123v600h123v-600z" />
    <glyph glyph-name="afii10073" unicode="&#x437;" horiz-adv-x="521" 
d="M449 140c0 -23 -6 -47 -19 -66c-9 -13 -39 -45 -55 -56c-20 -14 -48 -23 -73 -23h-135c-60 0 -107 50 -132 84c-9 12 -18 29 -25 46l119 32c11 -26 29 -39 40 -45h132c3 0 17 12 26 26v82c-7 14 -22 26 -26 26h-145v114h146c3 0 17 12 25 26v74c-9 14 -23 27 -26 27h-132
c-15 -7 -35 -25 -42 -41c0 -1 -117 29 -117 29c6 17 15 33 25 46c25 32 71 83 132 83h135c25 0 53 -10 73 -24c15 -10 44 -41 55 -55c14 -18 19 -43 19 -65v-75c0 -38 -18 -63 -35 -82c17 -20 35 -45 35 -84v-79z" />
    <glyph glyph-name="afii10097" unicode="&#x44f;" horiz-adv-x="557" 
d="M42 371v85c0 22 6 48 19 66c10 13 40 44 54 55c19 14 50 23 75 23h282v-600h-122v229h-88l-114 -229h-136s78 149 126 239c-8 3 -16 8 -23 13c-14 10 -45 40 -54 54c-13 19 -19 41 -19 65zM164 459v-89c6 -10 23 -24 26 -24h160v137h-160c-10 -5 -21 -16 -26 -24z" />
    <glyph glyph-name="afii10072" unicode="&#x436;" horiz-adv-x="816" 
d="M786 0h-148l-179 248h-10v-248h-122v248h-10l-179 -248h-148s221 302 224 304l-221 296h144s176 -244 180 -244h10v244h122v-244h10c4 0 180 244 180 244h144l-221 -296c3 -2 224 -304 224 -304z" />
    <glyph glyph-name="afii10074" unicode="&#x438;" horiz-adv-x="563" 
d="M160 0h-123v600h122v-358l192 358h125v-600h-122v353z" />
    <glyph glyph-name="afii10075" unicode="&#x439;" horiz-adv-x="563" 
d="M160 0h-123v600h122v-358l192 358h125v-600h-122v353zM303 766h67c0 -60 -48 -107 -106 -107s-109 47 -109 107c-2 0 67 0 67 0c0 -23 19 -42 42 -42c22 0 39 19 39 42z" />
    <glyph glyph-name="afii10076" unicode="&#x43a;" horiz-adv-x="526" 
d="M496 0h-148l-179 248h-10v-248h-122v600h122v-244h10c4 0 180 244 180 244h144l-221 -296c3 -2 224 -304 224 -304z" />
    <glyph glyph-name="afii10077" unicode="&#x43b;" horiz-adv-x="587" 
d="M-15 0v116l65 1c8 0 37 29 37 34v449h414v-600h-122v483h-170v-330c0 -21 -6 -43 -19 -62c-11 -17 -49 -59 -71 -72c-18 -10 -42 -19 -66 -19h-68z" />
    <glyph glyph-name="afii10078" unicode="&#x43c;" horiz-adv-x="657" 
d="M568 0h-122v361c-34 -73 -70 -146 -104 -218h-80l-103 217v-360h-122v600h133l134 -272c44 90 88 183 132 272h132v-600z" />
    <glyph glyph-name="afii10079" unicode="&#x43d;" horiz-adv-x="567" 
d="M481 0h-122v242h-200v-242h-122v600h122v-241h200v241h122v-600z" />
    <glyph glyph-name="afii10080" unicode="&#x43e;" horiz-adv-x="567" 
d="M484 149c0 -20 -5 -43 -18 -62c-13 -18 -51 -60 -72 -73c-17 -10 -42 -19 -66 -19h-136c-25 0 -49 9 -66 19c-22 13 -61 56 -73 73c-13 19 -17 41 -17 62v301c0 22 4 44 17 63c12 16 51 59 73 72c17 10 41 19 66 19h136c23 0 49 -9 66 -19c21 -13 58 -55 72 -72
c13 -19 18 -42 18 -63v-301zM361 150v300c-7 13 -25 31 -35 37h-131c-8 -6 -25 -21 -37 -38v-299c11 -15 28 -32 36 -37h131c8 5 25 21 36 37z" />
    <glyph glyph-name="afii10081" unicode="&#x43f;" horiz-adv-x="567" 
d="M481 0h-122v483h-200v-483h-122v600h444v-600z" />
    <glyph glyph-name="afii10082" unicode="&#x440;" horiz-adv-x="524" 
d="M467 371c0 -24 -6 -46 -19 -65c-9 -14 -40 -44 -54 -54c-22 -16 -49 -23 -75 -23h-160v-229h-122v600h282c25 0 54 -9 75 -23c14 -11 44 -42 54 -55c12 -19 19 -44 19 -66v-85zM345 370v89c-5 8 -16 19 -26 24h-160v-137h160c3 0 20 14 26 24z" />
    <glyph glyph-name="afii10084" unicode="&#x442;" horiz-adv-x="515" 
d="M458 483h-161v-483h-123v483h-162v117h446v-117z" />
    <glyph glyph-name="afii10069" unicode="&#x434;" horiz-adv-x="616" 
d="M578 117l-22 -220h-127l9 103h-327v-103h-123v220h57c10 2 36 29 36 34l64 449h350v-483h83zM205 152c-2 -13 -7 -24 -11 -35h179v366h-121z" />
    <glyph glyph-name="afii10070" unicode="&#x435;" horiz-adv-x="506" 
d="M421 0h-384v600h384v-117h-262v-124h253v-117h-253v-125h262v-117z" />
    <glyph glyph-name="afii10087" unicode="&#x445;" horiz-adv-x="526" 
d="M484 600l-175 -295l182 -305h-136l-113 195l-113 -195h-136l181 305l-174 295h136l106 -185l107 185h135z" />
    <glyph glyph-name="afii10088" unicode="&#x446;" horiz-adv-x="572" 
d="M532 117l-20 -220h-127l4 103h-352v600h122v-483h170v483h122v-483h81z" />
    <glyph glyph-name="afii10089" unicode="&#x447;" horiz-adv-x="553" 
d="M27 600h122v-230c6 -10 23 -24 26 -24h170v254h122v-600h-122v229h-170c-26 0 -53 7 -75 23c-14 10 -45 40 -54 54c-13 19 -19 41 -19 65v229z" />
    <glyph glyph-name="afii10090" unicode="&#x448;" horiz-adv-x="710" 
d="M269 600h122v-483h110v483h122v-600h-586v600h122v-483h110v483z" />
    <glyph glyph-name="afii10091" unicode="&#x449;" horiz-adv-x="744" 
d="M269 600h122v-483h110v483h122v-483h81l-20 -219h-127l4 102h-524v600h122v-483h110v483z" />
    <glyph glyph-name="afii10092" unicode="&#x44a;" horiz-adv-x="584" 
d="M-22 482v118h231v-229h170c26 0 53 -7 75 -23c14 -10 45 -40 54 -54c13 -19 19 -41 19 -65v-85c0 -22 -7 -47 -19 -66c-10 -13 -40 -44 -54 -55c-21 -14 -50 -23 -75 -23h-292v482h-109zM405 141v89c-6 10 -23 24 -26 24h-170v-137h170c10 5 21 16 26 24z" />
    <glyph glyph-name="afii10093" unicode="&#x44b;" horiz-adv-x="763" 
d="M477 229v-85c0 -22 -7 -47 -19 -66c-10 -13 -40 -44 -54 -55c-21 -14 -50 -23 -75 -23h-292v600h122v-229h170c26 0 53 -7 75 -23c14 -10 45 -40 54 -54c13 -19 19 -41 19 -65zM355 141v89c-6 10 -23 24 -26 24h-170v-137h170c10 5 21 16 26 24zM676 0h-123v600h123v-600
z" />
    <glyph glyph-name="afii10094" unicode="&#x44c;" horiz-adv-x="534" 
d="M477 229v-85c0 -22 -7 -47 -19 -66c-10 -13 -40 -44 -54 -55c-21 -14 -50 -23 -75 -23h-292v600h122v-229h170c26 0 53 -7 75 -23c14 -10 45 -40 54 -54c13 -19 19 -41 19 -65zM355 141v89c-6 10 -23 24 -26 24h-170v-137h170c10 5 21 16 26 24z" />
    <glyph glyph-name="afii10096" unicode="&#x44e;" horiz-adv-x="778" 
d="M159 0h-123v600h123v-239h90v89c0 22 4 44 17 63c12 16 51 59 73 72c17 10 41 19 66 19h136c23 0 49 -9 66 -19c21 -13 58 -55 72 -72c13 -19 18 -42 18 -63v-301c0 -20 -5 -43 -18 -62c-13 -18 -51 -60 -72 -73c-17 -10 -42 -19 -66 -19h-136c-25 0 -49 9 -66 19
c-22 13 -61 56 -73 73c-13 19 -17 41 -17 62v96h-90v-245zM574 150v300c-7 13 -25 31 -35 37h-131c-8 -6 -25 -21 -37 -38v-299c11 -15 28 -32 36 -37h131c8 5 25 21 36 37z" />
    <glyph glyph-name="afii10085" unicode="&#x443;" horiz-adv-x="526" 
d="M495 600l-252 -600h-126l67 159h-17l-190 441h129l131 -314l129 314h129z" />
    <glyph glyph-name="afii10086" unicode="&#x444;" horiz-adv-x="638" 
d="M354 -110h-111v105h-49c-25 0 -49 9 -66 19c-22 13 -61 56 -73 73c-13 19 -17 41 -17 62v301c0 22 4 44 17 63c12 16 51 59 73 72c17 10 41 19 66 19h49v89h111v-89h47c24 0 49 -9 66 -19c22 -13 60 -56 73 -72c13 -19 17 -41 17 -63v-301c0 -21 -4 -43 -17 -62
c-13 -17 -51 -60 -73 -73c-17 -10 -42 -19 -66 -19h-47v-105zM160 149c11 -15 28 -32 36 -37h47v375h-46c-8 -6 -25 -21 -37 -38v-300zM435 149v301c-7 12 -26 31 -36 37h-45v-375h44c8 6 26 23 37 37z" />
    <glyph glyph-name="afii10051" unicode="&#x402;" horiz-adv-x="675" 
d="M461 483h-161v-112h170c26 0 53 -7 75 -23c14 -10 45 -40 54 -54c13 -19 19 -41 19 -65v-85c0 -22 -7 -47 -19 -66c-10 -13 -40 -44 -54 -55c-21 -14 -50 -23 -75 -23h-58v117h58c10 5 21 16 26 24v89c-6 10 -23 24 -26 24h-170v-254h-123v483h-162v117h446v-117z" />
    <glyph glyph-name="afii10099" unicode="&#x452;" horiz-adv-x="675" 
d="M461 483h-161v-112h170c26 0 53 -7 75 -23c14 -10 45 -40 54 -54c13 -19 19 -41 19 -65v-85c0 -22 -7 -47 -19 -66c-10 -13 -40 -44 -54 -55c-21 -14 -50 -23 -75 -23h-58v117h58c10 5 21 16 26 24v89c-6 10 -23 24 -26 24h-170v-254h-123v483h-162v117h446v-117z" />
    <glyph glyph-name="afii10060" unicode="&#x40b;" horiz-adv-x="665" 
d="M598 -1h-122v231c-6 10 -23 24 -26 24h-150v-254h-123v483h-162v117h446v-117h-161v-112h150c26 0 53 -7 75 -23c14 -10 45 -40 54 -54c13 -19 19 -41 19 -65v-230z" />
    <glyph glyph-name="afii10108" unicode="&#x45b;" horiz-adv-x="665" 
d="M598 -1h-122v231c-6 10 -23 24 -26 24h-150v-254h-123v483h-162v117h446v-117h-161v-112h150c26 0 53 -7 75 -23c14 -10 45 -40 54 -54c13 -19 19 -41 19 -65v-230z" />
    <glyph glyph-name="afii10104" unicode="&#x457;" horiz-adv-x="245" 
d="M255 666h-117v122h117v-122zM61 666h-115v122h115v-122zM164 0h-123v600h123v-600z" />
    <glyph glyph-name="afii10071" unicode="&#x451;" horiz-adv-x="506" 
d="M421 0h-384v600h384v-117h-262v-124h253v-117h-253v-125h262v-117zM384 666h-117v122h117v-122zM190 666h-115v122h115v-122z" />
    <glyph glyph-name="afii10023" unicode="&#x401;" 
d="M431 0h-394v600h394v-117h-272v-123h263v-117h-263v-126h272v-117zM394 666h-117v122h117v-122zM200 666h-115v122h115v-122z" />
    <glyph glyph-name="afii10062" unicode="&#x40e;" horiz-adv-x="507" 
d="M273 766h67c0 -60 -48 -107 -106 -107s-109 47 -109 107c-2 0 67 0 67 0c0 -23 19 -42 42 -42c22 0 39 19 39 42zM495 600l-252 -600h-126l67 159h-17l-190 441h129l131 -314l129 314h129z" />
    <glyph glyph-name="afii10110" unicode="&#x45e;" horiz-adv-x="507" 
d="M269 766h67c0 -60 -48 -107 -106 -107s-109 47 -109 107c-2 0 67 0 67 0c0 -23 19 -42 42 -42c22 0 39 19 39 42zM495 600l-252 -600h-126l67 159h-17l-190 441h129l131 -314l129 314h129z" />
    <glyph glyph-name="afii10058" unicode="&#x409;" horiz-adv-x="806" 
d="M749 229v-85c0 -22 -7 -47 -19 -66c-10 -13 -40 -44 -54 -55c-21 -14 -50 -23 -75 -23h-272v483h-140v-336c0 -21 -6 -43 -19 -62c-11 -17 -49 -59 -71 -72c-18 -10 -42 -19 -66 -19h-68v118h65c8 0 37 29 37 34v454h384v-229h150c26 0 53 -7 75 -23
c14 -10 45 -40 54 -54c13 -19 19 -41 19 -65zM627 141v89c-6 10 -23 24 -26 24h-150v-137h150c10 5 21 16 26 24z" />
    <glyph glyph-name="afii10059" unicode="&#x40a;" horiz-adv-x="806" 
d="M749 229v-85c0 -22 -7 -47 -19 -66c-10 -13 -40 -44 -54 -55c-21 -14 -50 -23 -75 -23h-272v254h-170v-254h-122v600h122v-229h170v229h122v-229h150c26 0 53 -7 75 -23c14 -10 45 -40 54 -54c13 -19 19 -41 19 -65zM627 141v89c-6 10 -23 24 -26 24h-150v-137h150
c10 5 21 16 26 24z" />
    <glyph glyph-name="afii10106" unicode="&#x459;" horiz-adv-x="806" 
d="M749 229v-85c0 -22 -7 -47 -19 -66c-10 -13 -40 -44 -54 -55c-21 -14 -50 -23 -75 -23h-272v483h-140v-336c0 -21 -6 -43 -19 -62c-11 -17 -49 -59 -71 -72c-18 -10 -42 -19 -66 -19h-68v118h65c8 0 37 29 37 34v454h384v-229h150c26 0 53 -7 75 -23
c14 -10 45 -40 54 -54c13 -19 19 -41 19 -65zM627 141v89c-6 10 -23 24 -26 24h-150v-137h150c10 5 21 16 26 24z" />
    <glyph glyph-name="afii10107" unicode="&#x45a;" horiz-adv-x="806" 
d="M749 229v-85c0 -22 -7 -47 -19 -66c-10 -13 -40 -44 -54 -55c-21 -14 -50 -23 -75 -23h-272v254h-170v-254h-122v600h122v-229h170v229h122v-229h150c26 0 53 -7 75 -23c14 -10 45 -40 54 -54c13 -19 19 -41 19 -65zM627 141v89c-6 10 -23 24 -26 24h-150v-137h150
c10 5 21 16 26 24z" />
    <glyph glyph-name="afii10145" unicode="&#x40f;" horiz-adv-x="567" 
d="M359 600h122v-600h-168v-110h-111v110h-165v600h122v-483h200v483z" />
    <glyph glyph-name="afii10193" unicode="&#x45f;" horiz-adv-x="567" 
d="M359 600h122v-600h-168v-110h-111v110h-165v600h122v-483h200v483z" />
    <glyph glyph-name="afii61352" unicode="&#x2116;" horiz-adv-x="932" 
d="M476 0h-123l-194 353v-353h-122v600h125l192 -358v358h122v-600zM862 362c0 -17 -2 -35 -14 -51c-7 -9 -27 -29 -39 -38c-16 -11 -38 -18 -58 -18h-58c-20 0 -42 7 -57 18c-13 9 -33 29 -40 38c-12 16 -14 34 -14 51v134c0 17 2 35 14 51c7 9 27 29 40 38
c15 11 37 18 57 18h58c20 0 42 -7 58 -18c12 -9 32 -29 39 -38c12 -16 14 -34 14 -51v-134zM763 476c0 1 0 4 -1 6c-5 6 -12 12 -19 18c-1 1 -4 1 -5 1h-33c-1 0 -4 0 -5 -1c-7 -5 -15 -13 -20 -19c-1 -2 -1 -5 -1 -5v-95s0 -2 1 -4c5 -6 13 -15 20 -19c1 -1 4 -1 5 -1h33
c1 0 4 0 5 1c6 5 15 12 19 18c1 2 1 5 1 5v95z" />
    <glyph glyph-name="twosuperior" unicode="&#xb2;" 
 />
    <glyph glyph-name="v" unicode="v" horiz-adv-x="558" 
d="M507 600l-191 -600h-135l-192 600h129l130 -429s136 429 130 429h129z" />
    </font>
</defs>
</svg>
