<?xml version="1.0" encoding="UTF-8"?>
<svg width="24px" height="24px" viewBox="0 0 24 24" version="1.1" xmlns="http://www.w3.org/2000/svg" xmlns:xlink="http://www.w3.org/1999/xlink">
    <!-- Generator: Sketch 64 (93537) - https://sketch.com -->
    <title>jinja-param</title>
    <desc>Created with Sketch.</desc>
    <!-- fill="#8A9BA8" -->
    <g id="jinja-param-on" fill-rule="evenodd">
        <path d="M11.2731137,24 L11.2731137,21.0414453 L9.97236982,21.0414453 C9.37725824,21.0414453 8.90541977,20.8841658 8.55685441,20.5696068 C8.20828905,20.2550478 8.05100956,19.8172157 8.08501594,19.2561105 L8.08501594,19.2561105 L8.34006376,15.2773645 C8.40807651,14.325186 8.1402763,13.5557917 7.53666312,12.9691817 C6.93304995,12.3825717 6.12114772,12.0722635 5.10095643,12.0382572 L5.10095643,12.0382572 L5.10095643,11.9107333 C6.10414453,11.8767269 6.91179596,11.5791711 7.52391073,11.0180659 C8.1360255,10.4569607 8.40807651,9.70031881 8.34006376,8.74814028 L8.34006376,8.74814028 L8.08501594,4.74388948 C8.05100956,4.11477152 8.20403826,3.65568544 8.54410202,3.36663124 C8.88416578,3.07757705 9.36025505,2.93304995 9.97236982,2.93304995 L9.97236982,2.93304995 L11.2731137,2.93304995 L11.2731137,0 L9.53878852,0 C8.80765143,0 8.1445271,0.102019129 7.54941552,0.306057386 C6.95430393,0.510095643 6.45270988,0.803400638 6.04463337,1.18597237 C5.63655685,1.5685441 5.32624867,2.03188098 5.11370882,2.575983 C4.90116897,3.12008502 4.82040383,3.74070138 4.87141339,4.43783209 L4.87141339,4.43783209 L5.12646121,8.44208289 C5.16046759,9.1392136 5.01168969,9.66206164 4.68012752,10.010627 C4.34856536,10.3591923 3.80021254,10.533475 3.03506908,10.533475 L3.03506908,10.533475 L1.91846539e-13,10.533475 L1.91846539e-13,13.466525 L3.03506908,13.466525 C3.81721573,13.466525 4.37407014,13.6450584 4.70563231,14.0021254 C5.03719447,14.3591923 5.17747078,14.8862912 5.12646121,15.5834219 L5.12646121,15.5834219 L4.87141339,19.4601488 C4.82040383,20.1572795 4.90116897,20.7863974 5.11370882,21.3475027 C5.32624867,21.9086079 5.64080765,22.3846971 6.05738576,22.7757705 C6.47396387,23.1668438 6.97980871,23.4686504 7.5749203,23.6811902 C8.17003188,23.8937301 8.82465462,24 9.53878852,24 L9.53878852,24 L11.2731137,24 Z M23.3878852,24 L23.3878852,21.0414453 L22.0871413,21.0414453 C21.4920298,21.0414453 21.0201913,20.8841658 20.6716259,20.5696068 C20.3230606,20.2550478 20.1657811,19.8172157 20.1997875,19.2561105 L20.1997875,19.2561105 L20.4548353,15.2773645 C20.522848,14.325186 20.2550478,13.5557917 19.6514346,12.9691817 C19.0478215,12.3825717 18.2359192,12.0722635 17.2157279,12.0382572 L17.2157279,12.0382572 L17.2157279,11.9107333 C18.218916,11.8767269 19.0265675,11.5791711 19.6386823,11.0180659 C20.250797,10.4569607 20.522848,9.70031881 20.4548353,8.74814028 L20.4548353,8.74814028 L20.1997875,4.74388948 C20.1657811,4.11477152 20.3188098,3.65568544 20.6588735,3.36663124 C20.9989373,3.07757705 21.4750266,2.93304995 22.0871413,2.93304995 L22.0871413,2.93304995 L23.3878852,2.93304995 L23.3878852,0 L21.65356,0 C20.922423,0 20.2592986,0.102019129 19.664187,0.306057386 C19.0690755,0.510095643 18.5674814,0.803400638 18.1594049,1.18597237 C17.7513284,1.5685441 17.4410202,2.03188098 17.2284803,2.575983 C17.0159405,3.12008502 16.9351753,3.74070138 16.9861849,4.43783209 L16.9861849,4.43783209 L17.2412327,8.44208289 C17.2752391,9.1392136 17.1264612,9.66206164 16.794899,10.010627 C16.4633369,10.3591923 15.9149841,10.533475 15.1498406,10.533475 L15.1498406,10.533475 L12.1147715,10.533475 L12.1147715,13.466525 L15.1498406,13.466525 C15.9319872,13.466525 16.4888417,13.6450584 16.8204038,14.0021254 C17.151966,14.3591923 17.2922423,14.8862912 17.2412327,15.5834219 L17.2412327,15.5834219 L16.9861849,19.4601488 C16.9351753,20.1572795 17.0159405,20.7863974 17.2284803,21.3475027 C17.4410202,21.9086079 17.7555792,22.3846971 18.1721573,22.7757705 C18.5887354,23.1668438 19.0945802,23.4686504 19.6896918,23.6811902 C20.2848034,23.8937301 20.9394261,24 21.65356,24 L21.65356,24 L23.3878852,24 Z" fill-rule="evenodd"></path>
    </g>
</svg>
