<?xml version="1.0" encoding="UTF-8"?>
<svg width="320px" height="320px" viewBox="0 0 320 320" version="1.1" xmlns="http://www.w3.org/2000/svg" xmlns:xlink="http://www.w3.org/1999/xlink">
    <!-- Generator: Sketch 58 (84663) - https://sketch.com -->
    <title>logo_light</title>
    <desc>Created with Sketch.</desc>
    <g id="logo" stroke="none" stroke-width="1" fill="none" fill-rule="evenodd">
        <g id="Desktop-HD" transform="translate(-290.000000, -227.000000)" fill="#FFFFFF">
            <g id="Group" transform="translate(290.000000, 227.000000)">
                <path d="M160,0 C248.36556,0 320,71.63444 320,160 C320,195.109491 308.691503,227.577741 289.518193,253.961068 L253.30435,217.748029 C263.707689,200.974839 269.714286,181.188877 269.714286,160 C269.714286,99.4064732 220.593527,50.2857143 160,50.2857143 C99.4064732,50.2857143 50.2857143,99.4064732 50.2857143,160 C50.2857143,220.593527 99.4064732,269.714286 160,269.714286 C181.188877,269.714286 200.974839,263.707689 217.748029,253.30435 L253.961068,289.518193 C227.577741,308.691503 195.109491,320 160,320 C71.63444,320 0,248.36556 0,160 C0,71.63444 71.63444,0 160,0 Z M162.253521,99.1549296 C197.101911,99.1549296 225.352113,127.405131 225.352113,162.253521 C225.352113,197.101911 197.101911,225.352113 162.253521,225.352113 C127.405131,225.352113 99.1549296,197.101911 99.1549296,162.253521 C99.1549296,127.405131 127.405131,99.1549296 162.253521,99.1549296 Z" id="logo_light"></path>
            </g>
        </g>
    </g>
</svg>