<?xml version="1.0" standalone="no"?>
<!DOCTYPE svg PUBLIC "-//W3C//DTD SVG 1.1//EN" "http://www.w3.org/Graphics/SVG/1.1/DTD/svg11.dtd" >
<svg>
<metadata>
Created by FontForge 20120731 at Sun Jun 30 17:41:14 2019
 By www
Published by Die Gestalten Verlag GmbH &#38; Co. KG, 2008
Copyright (c) by Binnenland and re-p.org, 2008. All rights reserved. This software may not be reproduced, used, displayed, modified, disclosed or transferred without the express written approval of (Binnenland). 
</metadata>
<defs>
<font id="BlenderPro-BoldItalic" horiz-adv-x="555" >
  <font-face 
    font-family="Blender Pro Bold Italic"
    font-weight="701"
    font-style="italic"
    font-stretch="normal"
    units-per-em="1000"
    panose-1="2 0 8 6 3 0 0 9 0 4"
    ascent="800"
    descent="-200"
    x-height="432"
    cap-height="598"
    bbox="-94 -215 1131.2 841"
    underline-thickness="20"
    underline-position="-113"
    stemh="100"
    stemv="105"
    unicode-range="U+000D-FB02"
  />
<missing-glyph horiz-adv-x="1000" 
 />
    <glyph glyph-name=".notdef" horiz-adv-x="1000" 
 />
    <glyph glyph-name="Eth" unicode="&#xd0;" horiz-adv-x="583" 
d="M515 145c-4 -18 -11 -39 -26 -57c-16 -18 -64 -58 -88 -70c-18 -9 -42 -18 -63 -18h-274l49 252h-76l19 94h75l49 252h274c19 0 43 -6 57 -17c20 -13 50 -56 58 -73c10 -18 9 -38 5 -57zM188 100h153c2 0 6 1 10 3c16 8 58 39 60 51l58 296c1 4 1 9 -1 14
c-6 15 -20 28 -26 32c-3 2 -8 2 -10 2h-167l-30 -152h104l-19 -94h-103z" />
    <glyph glyph-name="eth" unicode="&#xf0;" horiz-adv-x="481" 
d="M387 401l4 26c1 6 1 22 -15 31l-52 30l-56 -23l-29 71l-40 24l54 75l90 -53l99 42l30 -76l-41 -17l3 -1c45 -29 63 -51 52 -105l-3 -16l-54 -283c-4 -20 -11 -42 -29 -61c-10 -12 -40 -38 -57 -49c-23 -14 -52 -21 -77 -21h-94c-25 0 -51 7 -68 21c-13 11 -34 37 -40 49
c-10 19 -9 41 -5 61l35 180c4 20 11 42 29 61c10 12 41 37 58 48c23 14 51 22 76 22h75c27 0 45 -21 55 -36zM279 90c2 0 4 1 6 2c10 5 41 26 44 34l36 178c-10 15 -37 38 -49 38h-72c-2 0 -3 0 -5 -1c-14 -7 -35 -25 -44 -37c-2 -2 -3 -6 -3 -6l-35 -184
c-2 -6 12 -18 20 -23c0 0 2 -1 6 -1h96z" />
    <glyph glyph-name="Lslash" unicode="&#x141;" horiz-adv-x="500" 
d="M431 0h-370l39 204l-36 -17l-31 88l89 42l55 281h106l-44 -225l82 39l30 -88l-134 -64l-31 -160h264z" />
    <glyph glyph-name="lslash" unicode="&#x142;" horiz-adv-x="306" 
d="M183 0h-101v74l27 139l-55 -26l-28 84l104 49l54 278h100l-44 -225l74 35l27 -84l-122 -58l-35 -181z" />
    <glyph glyph-name="Yacute" unicode="&#xdd;" horiz-adv-x="520" 
d="M600 598l-264 -337l-50 -261h-105l50 261l-130 337h109l89 -227l177 227h124zM362 632l-92 27l115 119h124z" />
    <glyph glyph-name="yacute" unicode="&#xfd;" horiz-adv-x="430" 
d="M478 432l-317 -594h-101l89 162h-9l-67 432h104l40 -294l154 294h107zM294 488l-92 27l115 119h124z" />
    <glyph glyph-name="HT" horiz-adv-x="500" 
 />
    <glyph glyph-name="LF" horiz-adv-x="500" 
 />
    <glyph glyph-name="CR" unicode="&#xd;" horiz-adv-x="500" 
 />
    <glyph glyph-name="Zcaron" unicode="&#x17d;" horiz-adv-x="491" 
d="M423 0h-394l16 85l340 413h-260l20 100h394l-17 -87l-336 -411h256zM404 768h112l-124 -131h-94l-72 131h102l27 -57z" />
    <glyph glyph-name="zcaron" unicode="&#x17e;" horiz-adv-x="444" 
d="M379 0h-344l15 81l246 256h-204l18 95h342l-15 -82l-247 -255h207zM355 624h112l-124 -131h-94l-72 131h102l27 -57z" />
    <glyph glyph-name="DLE" horiz-adv-x="500" 
 />
    <glyph glyph-name="DC1" horiz-adv-x="206" 
 />
    <glyph glyph-name="DC2" horiz-adv-x="223" 
 />
    <glyph glyph-name="DC3" horiz-adv-x="299" 
 />
    <glyph glyph-name="DC4" horiz-adv-x="333" 
 />
    <glyph glyph-name="onehalf" unicode="&#xbd;" horiz-adv-x="837" 
d="M729 598l-440 -598h-112l440 598h112zM709 222c4 11 -4 24 -18 24h-59c-11 0 -29 -13 -42 -26l-65 41c17 17 35 32 50 42c22 14 48 22 71 22h54c40 0 66 -24 86 -54c11 -18 12 -32 7 -52c0 -3 -2 -6 -2 -9c-10 -47 -63 -78 -105 -90c-32 -11 -61 -20 -92 -30h1
c-12 -5 -14 -7 -16 -14h177l-14 -82h-265l15 84c11 46 46 74 93 88l86 27c7 2 36 17 38 29zM343 274h-238l15 81h78l33 172h-67l14 79h150l-47 -251h77z" />
    <glyph glyph-name="onequarter" unicode="&#xbc;" horiz-adv-x="777" 
d="M728 598l-440 -598h-112l440 598h112zM719 66h-47l-12 -65h-87l12 65h-149l15 77l197 192h74l-33 -188h47zM605 149l18 71l-81 -71h63zM343 274h-238l15 81h78l33 172h-67l14 79h150l-47 -251h77z" />
    <glyph glyph-name="onesuperior" unicode="&#xb9;" horiz-adv-x="347" 
d="M343 274h-238l15 81h78l33 172h-67l14 79h150l-47 -251h77z" />
    <glyph glyph-name="threequarters" unicode="&#xbe;" horiz-adv-x="780" 
d="M739 598l-440 -598h-112l440 598h112zM720 66h-47l-12 -65h-87l12 65h-149l15 77l197 192h74l-33 -188h47zM606 149l18 71l-81 -71h63zM245 472h49c20 0 42 1 49 21c2 12 -1 17 -11 24h1c-3 1 -5 3 -9 3h-70c-12 0 -29 -13 -43 -26l-68 42c17 17 37 32 53 42
c22 14 49 23 72 23h67c38 0 67 -26 88 -53c9 -15 10 -35 7 -56c-8 -36 -25 -50 -41 -59c13 -9 24 -23 17 -58c-4 -23 -12 -42 -27 -60c-32 -29 -57 -47 -107 -47h-67c-23 0 -49 10 -65 23c-9 7 -22 23 -35 44l71 39c11 -15 22 -25 34 -25h74c4 0 8 2 12 3c13 6 24 14 26 26
c3 18 -8 19 -46 19h-46z" />
    <glyph glyph-name="threesuperior" unicode="&#xb3;" horiz-adv-x="421" 
d="M245 472h49c20 0 42 1 49 21c2 12 -1 17 -11 24h1c-3 1 -5 3 -9 3h-70c-12 0 -29 -13 -43 -26l-68 42c17 17 37 32 53 42c22 14 49 23 72 23h67c38 0 67 -26 88 -53c9 -15 10 -35 7 -56c-8 -36 -25 -50 -41 -59c13 -9 24 -23 17 -58c-4 -23 -12 -42 -27 -60
c-32 -29 -57 -47 -107 -47h-67c-23 0 -49 10 -65 23c-9 7 -22 23 -35 44l71 39c11 -15 22 -25 34 -25h74c4 0 8 2 12 3c13 6 24 14 26 26c3 18 -8 19 -46 19h-46z" />
    <glyph glyph-name="twosuperior" unicode="&#xb2;" horiz-adv-x="413" 
d="M337 504c4 11 -4 24 -18 24h-59c-11 0 -29 -13 -42 -26l-65 41c17 17 35 32 50 42c22 14 48 22 71 22h54c40 0 66 -24 86 -54c11 -18 12 -32 7 -52c0 -3 -2 -6 -2 -9c-10 -47 -63 -78 -105 -90c-32 -11 -61 -20 -92 -30h1c-12 -5 -14 -7 -16 -14h177l-14 -82h-265l15 84
c11 46 46 74 93 88l86 27c7 2 36 17 38 29z" />
    <glyph glyph-name="brokenbar" unicode="&#xa6;" horiz-adv-x="193" 
d="M203 341h-98l63 326h98zM118 -94h-98l64 329h98z" />
    <glyph glyph-name="minus" unicode="&#x2212;" horiz-adv-x="470" 
d="M428 196h-355l18 95h355z" />
    <glyph glyph-name="multiply" unicode="&#xd7;" horiz-adv-x="514" 
d="M136 54l-59 75l143 119l-96 120l76 64l97 -121l146 123l59 -75l-145 -123l94 -118l-76 -64l-95 119z" />
    <glyph glyph-name="RS" horiz-adv-x="500" 
 />
    <glyph glyph-name="US" horiz-adv-x="500" 
 />
    <glyph glyph-name="space" unicode=" " horiz-adv-x="235" 
 />
    <glyph glyph-name="exclam" unicode="!" horiz-adv-x="266" 
d="M186 162h-100l85 436h100zM168 -3h-122l23 118h122z" />
    <glyph glyph-name="quotedbl" unicode="&#x22;" horiz-adv-x="400" 
d="M420 500l-22 -68h-99l25 81l25 127h98zM271 500l-22 -68h-99l25 81l25 127h98z" />
    <glyph glyph-name="numbersign" unicode="#" horiz-adv-x="534" 
d="M548 409l-35 -95h-84l-21 -54h84l-35 -94h-84l-37 -95h-100l37 95h-41l-37 -95h-100l36 95h-83l35 94h84l21 54h-84l35 95h84l35 91h100l-35 -91h41l35 91h100l-35 -91h84zM329 314h-41l-21 -54h41z" />
    <glyph glyph-name="dollar" unicode="$" horiz-adv-x="546" 
d="M513 142c-3 -17 -10 -39 -27 -57c-15 -18 -64 -60 -87 -72c-18 -9 -44 -18 -65 -18h-44l-17 -85h-58l17 85h-57c-56 0 -92 48 -111 83c-6 11 -7 16 -12 31l98 31s15 -26 35 -44c0 0 2 -1 7 -1h59l32 163l-118 32c-49 14 -66 63 -57 109l11 56c3 17 11 39 26 57
c16 18 65 60 88 72c18 9 44 18 66 18h53l13 67h58l-13 -67h37c57 0 91 -49 110 -83c6 -11 9 -20 14 -35l-99 -27s-17 31 -35 44c0 0 -1 1 -6 1h-41l-31 -159l110 -30c48 -14 65 -64 56 -109zM213 399c-2 -9 3 -16 7 -17l83 -23l29 143h-41c-4 0 -6 -1 -6 -1
c-18 -8 -61 -46 -62 -54zM412 223l-73 20l-30 -148h33c4 0 6 1 6 1c17 8 60 45 61 53l12 57c2 9 -4 16 -9 17z" />
    <glyph glyph-name="percent" unicode="%" horiz-adv-x="836" 
d="M506 169l10 50c3 16 8 33 22 48c9 9 31 28 45 37c17 10 39 17 58 17h64c19 0 40 -6 53 -17c10 -8 25 -28 30 -37c8 -15 7 -32 4 -48l-25 -128c-3 -16 -8 -33 -22 -48c-9 -9 -31 -28 -45 -37c-17 -10 -39 -17 -58 -17h-64c-19 0 -40 6 -53 17c-10 8 -25 28 -30 37
c-8 15 -7 32 -4 48zM733 598l-447 -599h-115l448 599h114zM597 206l-23 -112c0 -1 -1 -3 0 -5c3 -6 10 -13 16 -17c2 -1 4 -1 5 -1h52c1 0 4 0 6 1c9 5 25 20 31 27c1 2 2 5 2 5l23 112c0 1 1 3 0 5c-3 6 -10 13 -16 17c-2 1 -4 1 -5 1h-52c-1 0 -4 0 -6 -1
c-9 -5 -25 -20 -31 -27c-1 -2 -2 -5 -2 -5zM123 455l10 50c3 16 8 33 22 48c9 9 31 28 45 37c17 10 39 17 58 17h64c19 0 40 -6 53 -17c10 -8 25 -28 30 -37c8 -15 7 -32 4 -48l-25 -128c-3 -16 -8 -33 -22 -48c-9 -9 -31 -28 -45 -37c-17 -10 -39 -17 -58 -17h-64
c-19 0 -40 6 -53 17c-10 8 -25 28 -30 37c-8 15 -7 32 -4 48zM214 492l-23 -112c0 -1 -1 -3 0 -5c3 -6 10 -13 16 -17c2 -1 4 -1 5 -1h52c1 0 4 0 6 1c9 5 25 20 31 27c1 2 2 5 2 5l23 112c0 1 1 3 0 5c-3 6 -10 13 -16 17c-2 1 -4 1 -5 1h-52c-1 0 -4 0 -6 -1
c-9 -5 -25 -20 -31 -27c-1 -2 -2 -5 -2 -5z" />
    <glyph glyph-name="ampersand" unicode="&#x26;" horiz-adv-x="561" 
d="M321 -4h-136c-24 0 -49 7 -66 21c-12 10 -37 42 -43 55c-9 18 -11 40 -6 61l14 77c8 41 30 63 57 85c1 1 1 1 2 1c-8 10 -15 20 -19 26c-10 22 -11 36 -6 62l16 79c5 21 15 43 30 61c12 13 48 45 65 55c22 14 51 22 75 22h84c57 0 93 -46 113 -82c8 -14 13 -32 16 -44
l-98 -26l-2 6c-7 20 -26 38 -37 44c-4 2 -8 2 -11 2h-76c-2 0 -4 0 -6 -1c-13 -7 -36 -26 -46 -38c0 0 -2 -2 -3 -7l-14 -70c-1 -6 -2 -8 -1 -11c4 -13 10 -19 17 -25c2 -2 6 -3 8 -3h111l-19 -99h-103c-9 0 -36 -21 -46 -36c-2 -3 -3 -8 -3 -8l-14 -75c-1 -3 0 -7 0 -7
c6 -15 15 -25 24 -25h135c10 0 43 29 55 44c0 0 2 2 3 7l27 139h130l-20 -102h-28l-10 -53c-4 -22 -14 -43 -30 -60c-11 -13 -47 -43 -63 -53c-22 -14 -52 -22 -76 -22z" />
    <glyph glyph-name="quotesingle" unicode="'" horiz-adv-x="232" 
d="M271 500l-22 -68h-99l25 81l25 127h98z" />
    <glyph glyph-name="parenleft" unicode="(" horiz-adv-x="345" 
d="M122 447c4 19 12 40 27 58c16 18 54 50 87 76s64 50 82 65l62 -78c-23 -16 -158 -121 -160 -136l-57 -298c-3 -17 83 -108 98 -126l-80 -65c-18 20 -41 43 -62 68s-41 51 -52 73c-8 18 -8 38 -5 57z" />
    <glyph glyph-name="parenright" unicode=")" horiz-adv-x="354" 
d="M290 142c-4 -19 -12 -40 -27 -58c-16 -18 -54 -50 -87 -76s-64 -50 -82 -65l-62 78c23 16 158 121 160 136l57 298c3 17 -83 108 -98 126l80 65c18 -20 41 -43 62 -68s41 -51 52 -73c8 -18 8 -38 5 -57z" />
    <glyph glyph-name="asterisk" unicode="*" horiz-adv-x="457" 
d="M349 633l-2 -113l109 38l26 -84l-107 -33l69 -91l-71 -51l-65 92l-65 -94l-71 52l67 90l-109 33l28 84l106 -37l-2 114h87z" />
    <glyph glyph-name="plus" unicode="+" horiz-adv-x="514" 
d="M470 196h-140l-27 -139h-101l27 139h-140l18 94h140l27 141h101l-27 -141h140z" />
    <glyph glyph-name="comma" unicode="," horiz-adv-x="271" 
d="M206 73l-105 -158h-121l125 190z" />
    <glyph glyph-name="hyphen" unicode="-" horiz-adv-x="319" 
d="M285 196h-222l18 94h222z" />
    <glyph glyph-name="period" unicode="." horiz-adv-x="267" 
d="M168 0h-123l24 126h123z" />
    <glyph glyph-name="slash" unicode="/" horiz-adv-x="442" 
d="M514 598l-399 -598h-117l400 598h116z" />
    <glyph glyph-name="zero" unicode="0" horiz-adv-x="519" 
d="M540 464l-63 -331c-5 -21 -15 -43 -30 -61c-12 -13 -50 -45 -66 -55c-22 -14 -49 -22 -74 -22h-127c-24 0 -49 8 -65 22c-13 10 -38 42 -44 55c-9 18 -11 39 -7 60l64 331c5 21 15 43 30 61c12 13 50 45 66 55c22 14 49 22 74 22h126c24 0 49 -8 65 -22
c13 -10 38 -42 44 -55c9 -18 11 -39 7 -60zM373 144l62 325c1 3 0 5 0 5c-6 15 -16 27 -25 27h-123c-9 0 -45 -26 -53 -40c-1 -2 -2 -4 -3 -9l-63 -325c-1 -3 0 -5 0 -5c6 -15 17 -27 26 -27h123c9 0 45 26 53 40c1 2 2 4 3 9z" />
    <glyph glyph-name="one" unicode="1" horiz-adv-x="519" 
d="M322 0h-106l97 497h-119l20 101h224z" />
    <glyph glyph-name="two" unicode="2" horiz-adv-x="519" 
d="M536 463l-12 -64c-10 -51 -52 -88 -95 -108l-217 -102c-12 -6 -19 -15 -20 -21l-13 -68h280l-19 -100h-385l33 172c10 50 49 87 96 109l219 103c9 4 15 9 17 18l12 66c1 3 0 7 0 7c-6 15 -15 25 -24 25h-105c-1 0 -2 0 -5 -1c-13 -6 -46 -28 -59 -52l-102 29
c11 19 22 32 32 43c34 34 87 82 144 82h108c24 0 49 -8 66 -22c12 -10 37 -42 43 -55c9 -18 11 -40 6 -61z" />
    <glyph glyph-name="three" unicode="3" horiz-adv-x="519" 
d="M215 253l19 99h123h1c9 0 36 21 46 36c2 3 3 8 3 8l14 72c1 3 0 7 0 7c-6 15 -15 25 -24 25h-115c-1 0 -2 0 -5 -1c-13 -6 -46 -28 -59 -52l-102 29c11 19 22 32 32 43c34 34 87 82 144 82h118c24 0 49 -8 66 -22c12 -10 37 -42 43 -55c9 -18 11 -40 6 -61l-14 -75
c-8 -41 -30 -63 -57 -85c-1 -1 -1 -1 -2 -1c8 -10 15 -20 19 -26c10 -22 11 -36 6 -62l-16 -81c-5 -21 -15 -43 -30 -61c-12 -13 -48 -45 -65 -55c-22 -14 -51 -22 -75 -22h-114c-57 0 -94 46 -114 82c-8 14 -13 32 -16 44l99 26l2 -6c7 -20 26 -38 37 -44c4 -2 8 -2 11 -2
h106c2 0 4 0 6 1c13 7 36 26 46 38c0 0 2 2 3 7l14 73c1 6 2 8 1 11c-4 13 -10 19 -17 25c-2 2 -6 3 -8 3h-132z" />
    <glyph glyph-name="four" unicode="4" horiz-adv-x="519" 
d="M471 119h-61l-23 -119h-105l23 119h-268l17 90l328 389h121l-74 -379h61zM324 219l44 227l-189 -227h145z" />
    <glyph glyph-name="five" unicode="5" horiz-adv-x="519" 
d="M306 95c2 0 4 0 6 1c13 7 36 26 46 38c0 0 2 2 3 7l18 95c1 6 2 8 1 11c-4 13 -10 19 -17 25c-2 2 -6 3 -8 3h-243l63 323h351l-20 -100h-246l-24 -123h132c25 0 51 -9 67 -24c13 -10 37 -39 44 -52c8 -18 10 -40 6 -62l-20 -104c-5 -21 -15 -43 -30 -61
c-12 -13 -48 -45 -65 -55c-22 -14 -51 -22 -75 -22h-108c-57 0 -93 46 -113 82c-8 14 -13 32 -16 44l98 26l2 -6c7 -20 26 -38 37 -44c4 -2 8 -2 11 -2h100z" />
    <glyph glyph-name="six" unicode="6" horiz-adv-x="519" 
d="M239 466c-3 -3 -4 -6 -5 -10l-19 -101s41 31 63 31h98c25 0 48 -7 66 -21c12 -10 38 -41 44 -54c9 -18 10 -40 6 -61l-22 -117c-5 -21 -15 -43 -30 -61c-12 -13 -50 -45 -66 -55c-22 -14 -49 -22 -74 -22h-118c-24 0 -49 8 -65 22c-13 10 -38 42 -44 55
c-9 18 -11 39 -7 60l65 331c4 21 14 43 30 61c11 13 48 45 65 55c22 14 49 22 73 22h107c57 0 93 -46 113 -82c8 -14 13 -32 16 -44l-98 -26l-2 6c-7 20 -26 38 -37 44c-4 2 -8 2 -11 2h-101c-12 0 -33 -21 -47 -35zM193 240l-22 -113c-1 -3 0 -5 0 -5c6 -15 16 -27 25 -27
h115c9 0 45 26 53 40c1 2 2 4 3 9l20 105c1 5 2 10 1 13c-6 16 -19 26 -26 26h-97c-1 0 -13 1 -19 -3c0 0 -41 -28 -53 -45z" />
    <glyph glyph-name="seven" unicode="7" horiz-adv-x="519" 
d="M557 516l-346 -516h-119l341 498h-295l20 100h415z" />
    <glyph glyph-name="eight" unicode="8" horiz-adv-x="519" 
d="M79 212c7 32 15 47 44 76l15 13c-19 22 -32 44 -24 85l15 78c4 21 14 43 30 61c11 13 49 45 65 55c22 14 50 22 75 22h116c24 0 48 -8 64 -22c13 -10 38 -42 45 -55c8 -18 10 -40 6 -61l-15 -78c-8 -38 -28 -60 -51 -80c-2 -2 -4 -3 -6 -5l10 -14c14 -20 18 -44 12 -75
l-15 -79c-4 -21 -14 -43 -30 -61c-11 -13 -49 -45 -65 -55c-22 -14 -50 -22 -75 -22h-116c-24 0 -48 8 -64 22c-13 10 -38 42 -45 55c-8 18 -10 40 -6 61zM185 214c0 0 -1 -1 -2 -5c0 -3 -11 -60 -15 -81c0 -1 -1 -4 0 -6c7 -14 18 -27 27 -27h114c10 0 36 21 48 36
c0 0 3 3 4 9l15 76c1 4 0 7 0 7c-5 15 -18 27 -25 27h-122c-9 0 -33 -21 -44 -36zM409 384c0 0 1 1 2 5c0 3 11 59 15 80c0 1 1 4 0 6c-7 14 -18 27 -27 27h-114c-10 0 -36 -21 -48 -36c0 0 -3 -3 -4 -9l-15 -75c-1 -4 0 -7 0 -7c5 -15 18 -27 25 -27h122c9 0 33 21 44 36z
" />
    <glyph glyph-name="nine" unicode="9" horiz-adv-x="519" 
d="M358 130c3 3 4 6 5 10l19 101s-41 -31 -63 -31h-98c-25 0 -48 7 -66 21c-12 10 -38 41 -44 54c-9 18 -10 40 -6 61l22 117c5 21 15 43 30 61c12 13 50 45 66 55c22 14 49 22 74 22h118c24 0 49 -8 65 -22c13 -10 38 -42 44 -55c9 -18 11 -39 7 -60l-65 -331
c-4 -21 -14 -43 -30 -61c-11 -13 -48 -45 -65 -55c-22 -14 -49 -22 -73 -22h-107c-57 0 -93 46 -113 82c-8 14 -13 32 -16 44l98 26l2 -6c7 -20 26 -38 37 -44c4 -2 8 -2 11 -2h101c12 0 33 21 47 35zM404 356l22 113c1 3 0 5 0 5c-6 15 -16 27 -25 27h-115
c-9 0 -45 -26 -53 -40c-1 -2 -2 -4 -3 -9l-20 -105c-1 -5 -2 -10 -1 -13c6 -16 19 -26 26 -26h97c1 0 13 -1 19 3c0 0 41 28 53 45z" />
    <glyph glyph-name="colon" unicode=":" horiz-adv-x="267" 
d="M213 249h-123l24 126h123zM168 0h-123l24 126h123z" />
    <glyph glyph-name="semicolon" unicode=";" horiz-adv-x="270" 
d="M219 248h-123l24 126h123zM206 73l-105 -158h-121l125 190z" />
    <glyph glyph-name="less" unicode="&#x3c;" horiz-adv-x="722" 
d="M675 249h-464l199 -248h-125l-241 296l354 298h140l-287 -249h443z" />
    <glyph glyph-name="equal" unicode="=" horiz-adv-x="486" 
d="M457 283h-373l18 93h373zM427 133h-373l18 92h373z" />
    <glyph glyph-name="greater" unicode="&#x3e;" horiz-adv-x="722" 
d="M95 347h464l-199 248h125l241 -296l-354 -298h-140l287 249h-443z" />
    <glyph glyph-name="question" unicode="?" horiz-adv-x="464" 
d="M507 395c-9 -50 -51 -88 -93 -107c-17 -8 -85 -31 -89 -52l-14 -74h-105l15 78c18 88 99 111 166 141c9 4 15 11 17 20l12 66c1 4 1 8 0 10c-7 14 -14 24 -24 24h-113c-2 0 -6 -1 -9 -3c-15 -9 -39 -29 -51 -45l-5 -7l-99 31c11 19 20 29 31 42c32 36 86 82 143 82h116
c24 0 50 -9 66 -23c12 -10 37 -40 44 -53c8 -18 10 -40 6 -61zM290 0h-121l22 117h121z" />
    <glyph glyph-name="at" unicode="@" horiz-adv-x="641" 
d="M228 -71v-95h-75c-22 0 -44 8 -58 18c-19 12 -51 55 -59 72c-9 18 -9 38 -5 57l92 474c4 19 12 39 27 57c15 17 64 60 87 72c18 10 44 18 66 18h215c21 0 44 -8 58 -18c19 -12 49 -55 59 -72c9 -18 9 -38 5 -57l-71 -366l-6 -89h-100l-1 22c-21 -14 -46 -27 -70 -27h-42
c-25 0 -52 8 -68 22c-13 11 -33 37 -39 49c-9 19 -10 40 -6 62l33 170c5 22 14 44 30 62c11 11 40 38 58 49c23 14 51 21 76 21h42c21 0 40 -11 55 -23l10 52c0 1 0 3 -1 6c-6 19 -23 35 -33 41c-2 1 -4 1 -5 1h-208s-4 0 -5 -1c-16 -8 -42 -31 -63 -52c-3 -3 -4 -5 -5 -9
l-90 -465c-1 -4 -1 -7 0 -10c5 -17 26 -36 33 -40c2 -1 4 -1 5 -1h59zM478 136l31 163c-10 15 -35 38 -47 38h-39c-4 0 -8 -2 -11 -4c-12 -8 -30 -24 -39 -36c-2 -3 -2 -3 -4 -8l-32 -164c-1 -4 0 -6 0 -6c4 -12 11 -22 21 -29c2 -1 4 -2 6 -2h42c11 0 56 33 72 48z" />
    <glyph glyph-name="A" unicode="A" horiz-adv-x="549" 
d="M515 0h-106l-20 127h-227l-68 -127h-118l325 598h122zM376 227l-35 236l-126 -236h161z" />
    <glyph glyph-name="B" unicode="B" 
d="M493 136c-4 -21 -13 -42 -29 -60c-11 -13 -47 -44 -63 -54c-23 -14 -52 -22 -76 -22h-281l116 598h281c26 0 50 -9 67 -23c12 -10 36 -41 43 -54c9 -19 9 -42 5 -62l-15 -74c-10 -46 -39 -74 -62 -87c19 -23 37 -44 29 -86zM435 386c0 0 2 2 3 7l14 70c1 4 1 6 0 9
c-5 16 -18 26 -24 26h-182l-29 -151h170c9 0 38 24 48 39zM387 139c0 0 2 3 3 7l14 72c1 4 0 7 0 7c-5 16 -18 25 -24 25h-182l-29 -150h169c9 0 39 24 49 39z" />
    <glyph glyph-name="C" unicode="C" horiz-adv-x="553" 
d="M490 116c-11 -18 -18 -27 -28 -38c-33 -35 -87 -83 -143 -83h-125c-22 0 -45 8 -59 18c-19 12 -51 53 -59 71c-9 18 -9 38 -5 57l61 315c4 19 12 38 27 56c15 17 64 60 87 72c18 9 44 18 66 18h125c56 0 91 -49 110 -83c6 -11 9 -19 15 -35l-100 -28s-23 36 -36 45
c-1 1 -3 1 -4 1h-120c-2 0 -4 -1 -4 -1c-14 -7 -47 -34 -60 -50c-2 -2 -3 -7 -4 -12l-60 -304c-2 -11 19 -32 30 -39c1 -1 6 -1 7 -1h118c1 0 3 0 5 1c23 10 54 48 54 48z" />
    <glyph glyph-name="D" unicode="D" horiz-adv-x="563" 
d="M495 145c-4 -18 -11 -39 -26 -57c-16 -18 -64 -58 -88 -70c-18 -9 -42 -18 -63 -18h-274l116 598h274c19 0 43 -6 57 -17c20 -13 50 -56 58 -73c10 -18 9 -38 5 -57zM168 100h153c2 0 6 1 10 3c16 8 58 39 60 51l58 296c1 4 1 9 -1 14c-6 15 -20 28 -26 32
c-3 2 -8 2 -10 2h-167z" />
    <glyph glyph-name="E" unicode="E" horiz-adv-x="516" 
d="M420 0h-376l116 598h376l-20 -100h-270l-29 -151h251l-19 -100h-251l-29 -147h270z" />
    <glyph glyph-name="F" unicode="F" horiz-adv-x="494" 
d="M515 498h-268l-29 -151h250l-19 -100h-250l-48 -247h-107l116 598h375z" />
    <glyph glyph-name="G" unicode="G" horiz-adv-x="598" 
d="M340 -5h-146c-22 0 -45 8 -59 18c-19 12 -51 53 -59 71c-9 18 -9 38 -5 57l61 315c4 19 12 38 27 56c15 17 64 60 87 72c18 9 44 18 66 18h139c56 0 91 -49 110 -83c6 -11 9 -19 15 -35l-100 -28s-23 36 -36 45c-1 1 -3 1 -4 1h-134c-2 0 -4 -1 -4 -1
c-14 -7 -47 -34 -60 -50c-2 -2 -3 -7 -4 -12l-60 -304c-2 -11 19 -32 30 -39c1 -1 6 -1 7 -1h139c3 0 5 1 5 1c16 8 58 41 61 53l18 93h-129l19 100h234l-39 -202s-6 -66 -8 -140h-103l-1 24c-16 -10 -44 -29 -67 -29z" />
    <glyph glyph-name="H" unicode="H" horiz-adv-x="572" 
d="M472 0h-106l49 247h-217l-49 -247h-105l116 598h106l-50 -251h217l50 251h105z" />
    <glyph glyph-name="I" unicode="I" horiz-adv-x="249" 
d="M151 0h-107l116 598h105z" />
    <glyph glyph-name="J" unicode="J" horiz-adv-x="472" 
d="M396 141c-4 -19 -13 -39 -28 -57c-15 -17 -62 -59 -85 -71c-19 -10 -44 -18 -65 -18h-74c-58 0 -92 47 -112 83c-3 4 -6 12 -13 38l99 25c6 -22 21 -39 32 -45c1 -1 10 -1 8 -1h66c7 -1 67 49 68 55l88 448h105z" />
    <glyph glyph-name="K" unicode="K" horiz-adv-x="539" 
d="M506 0h-119l-169 250h-21l-48 -250h-105l116 598h105l-49 -249h10c85 82 162 168 246 249h129l-297 -302c58 -91 145 -210 202 -296z" />
    <glyph glyph-name="L" unicode="L" horiz-adv-x="480" 
d="M414 0h-370l116 598h106l-97 -498h264z" />
    <glyph glyph-name="M" unicode="M" horiz-adv-x="661" 
d="M561 0h-105l79 409l-170 -262h-69l-68 261l-79 -408h-105l116 598h113l82 -295l196 295h126z" />
    <glyph glyph-name="N" unicode="N" horiz-adv-x="567" 
d="M467 0h-111l-129 398l-78 -398h-105l116 598h113l126 -403l79 403h105z" />
    <glyph glyph-name="O" unicode="O" horiz-adv-x="589" 
d="M345 -5h-151c-22 0 -45 8 -59 18c-19 12 -51 53 -59 71c-9 18 -9 38 -5 57l61 315c4 19 12 38 27 56c15 17 64 60 87 72c18 9 44 18 66 18h151c22 0 45 -8 59 -18c19 -12 51 -53 59 -71c9 -18 9 -38 5 -57l-61 -315c-4 -19 -12 -38 -27 -56c-15 -17 -64 -60 -87 -72
c-18 -9 -44 -18 -66 -18zM446 502h-144c-2 0 -4 -1 -4 -1c-14 -7 -47 -34 -60 -50c-2 -2 -3 -7 -4 -12l-60 -304c-2 -11 19 -32 30 -39c1 -1 6 -1 7 -1h144c2 0 4 1 4 1c14 7 47 34 60 50c2 2 3 7 4 12l60 304c2 11 -19 32 -30 39c-1 1 -6 1 -7 1z" />
    <glyph glyph-name="P" unicode="P" horiz-adv-x="537" 
d="M540 372c-4 -22 -15 -43 -30 -61c-12 -13 -48 -43 -64 -53c-24 -15 -52 -22 -76 -22h-175l-45 -236h-106l116 598h281c24 0 49 -8 66 -22c13 -10 37 -42 44 -55c8 -18 10 -40 6 -61zM437 381l18 87s1 4 0 7c-4 11 -14 22 -21 23h-5h-183l-31 -162h166c9 0 41 22 51 36
c0 0 4 5 5 9z" />
    <glyph glyph-name="Q" unicode="Q" horiz-adv-x="593" 
d="M281 -92l-19 87h-68c-22 0 -45 8 -59 18c-19 12 -51 53 -59 71c-9 18 -9 38 -5 57l61 315c4 19 12 38 27 56c15 17 64 60 87 72c18 9 44 18 66 18h151c22 0 45 -8 59 -18c19 -12 51 -53 59 -71c9 -18 9 -38 5 -57l-61 -315c-4 -19 -12 -38 -27 -56
c-15 -17 -64 -60 -87 -72c-12 -6 -28 -12 -43 -15l20 -90h-107zM446 502h-144c-2 0 -4 -1 -4 -1c-14 -7 -47 -34 -60 -50c-2 -2 -3 -7 -4 -12l-60 -304c-2 -11 19 -32 30 -39c1 -1 6 -1 7 -1h30l-3 15l98 30l10 -45h9c2 0 4 1 4 1c14 7 47 34 60 50c2 2 3 7 4 12l60 304
c2 11 -19 32 -30 39c-1 1 -6 1 -7 1z" />
    <glyph glyph-name="R" unicode="R" horiz-adv-x="579" 
d="M540 372c-4 -22 -15 -43 -30 -61c-12 -13 -48 -43 -64 -53c-12 -8 -25 -13 -38 -17l91 -241h-110l-86 236h-108l-45 -236h-106l116 598h281c24 0 49 -8 66 -22c13 -10 37 -42 44 -55c8 -18 10 -40 6 -61zM437 381l18 87s1 4 0 7c-4 11 -14 22 -21 23h-188l-31 -162h166
c9 0 41 22 51 36c0 0 4 5 5 9z" />
    <glyph glyph-name="S" unicode="S" horiz-adv-x="571" 
d="M513 142c-3 -17 -10 -39 -27 -57c-15 -18 -64 -60 -87 -72c-18 -9 -44 -18 -65 -18h-159c-56 0 -92 48 -111 83c-6 11 -7 16 -12 31l98 31s15 -26 35 -44c0 0 2 -1 7 -1h150c4 0 6 1 6 1c17 8 60 45 61 53l12 57c2 9 -4 16 -9 17l-247 67c-49 14 -66 63 -57 109l11 56
c3 17 11 39 26 57c16 18 65 60 88 72c18 9 44 18 66 18h148c57 0 91 -49 110 -83c6 -11 9 -20 14 -35l-99 -27s-17 31 -35 44c0 0 -1 1 -6 1h-140c-4 0 -6 -1 -6 -1c-18 -8 -61 -46 -62 -54l-10 -48c-2 -9 3 -16 7 -17l249 -69c48 -14 65 -64 56 -109z" />
    <glyph glyph-name="T" unicode="T" horiz-adv-x="504" 
d="M537 498h-161l-96 -498h-106l96 498h-162l20 100h429z" />
    <glyph glyph-name="U" unicode="U" 
d="M474 598h105l-89 -457c-4 -19 -12 -38 -27 -56c-15 -17 -64 -60 -87 -72c-18 -9 -44 -18 -66 -18h-125c-22 0 -45 8 -59 18c-19 12 -51 53 -59 71c-9 18 -9 38 -5 57l89 457h105l-91 -463c-2 -11 19 -32 30 -39c1 -1 6 -1 7 -1h118c2 0 4 1 4 1c14 7 47 34 60 50
c2 2 3 7 4 12z" />
    <glyph glyph-name="V" unicode="V" horiz-adv-x="523" 
d="M609 598l-314 -598h-123l-81 598h107l57 -463l238 463h116z" />
    <glyph glyph-name="W" unicode="W" horiz-adv-x="738" 
d="M817 598l-254 -598h-119l-19 401l-174 -401h-120l-21 598h103l8 -420l181 420h112l17 -420l172 420h114z" />
    <glyph glyph-name="X" unicode="X" horiz-adv-x="532" 
d="M116 0h-125l250 312l-123 286h110l85 -200l158 200h125l-239 -298l130 -300h-111l-91 213z" />
    <glyph glyph-name="Y" unicode="Y" horiz-adv-x="520" 
d="M598 598l-264 -337l-50 -261h-105l50 261l-130 337h109l89 -227l177 227h124z" />
    <glyph glyph-name="Z" unicode="Z" horiz-adv-x="491" 
d="M423 0h-394l16 85l340 413h-260l20 100h394l-17 -87l-336 -411h256z" />
    <glyph glyph-name="bracketleft" unicode="[" horiz-adv-x="324" 
d="M241 0h-197l116 598h197l-19 -95h-92l-79 -408h92z" />
    <glyph glyph-name="backslash" unicode="\" horiz-adv-x="436" 
d="M419 0h-111l-206 600h109z" />
    <glyph glyph-name="bracketright" unicode="]" horiz-adv-x="329" 
d="M229 0h-197l18 95h92l79 408h-92l19 95h197z" />
    <glyph glyph-name="asciicircum" unicode="^" horiz-adv-x="345" 
d="M44 281l171 319h96l51 -319h-92l-26 192l-99 -192h-101z" />
    <glyph glyph-name="underscore" unicode="_" horiz-adv-x="462" 
d="M400 -94h-389l19 94h389z" />
    <glyph glyph-name="grave" unicode="`" horiz-adv-x="381" 
d="M392 513l-88 -25l-89 146h108z" />
    <glyph glyph-name="a" unicode="a" horiz-adv-x="479" 
d="M344 271l8 41s1 4 0 5c-3 7 -14 19 -20 23c-2 1 -4 2 -6 2h-92c-12 0 -38 -24 -46 -32l-92 29c15 24 62 63 80 74c21 13 52 24 76 24h86c25 0 52 -8 69 -22c13 -11 33 -35 39 -47c10 -19 9 -42 5 -62l-42 -218l-2 -88h-99l-7 22c-20 -13 -43 -27 -66 -27h-82
c-25 0 -51 8 -68 22c-13 11 -32 36 -38 47c-10 18 -10 39 -6 61l3 18c5 22 14 43 30 61c10 11 39 34 56 45c23 14 51 22 76 22h138zM317 131l10 51h-134c-3 0 -6 -1 -8 -2c-12 -7 -30 -23 -40 -35c0 0 -1 -2 -1 -3l-4 -23c0 -1 0 -2 1 -4c4 -9 13 -19 18 -23c0 0 2 -2 6 -2
h82c11 0 60 32 70 41z" />
    <glyph glyph-name="b" unicode="b" horiz-adv-x="490" 
d="M200 -5c-24 0 -45 13 -60 27l-7 -22h-99l25 89l99 509h100l-36 -184c19 12 42 23 63 23h73c25 0 52 -8 69 -22c13 -11 33 -36 39 -48c10 -19 9 -41 5 -61l-35 -180c-4 -20 -11 -42 -29 -61c-10 -12 -40 -38 -57 -49c-23 -14 -52 -21 -77 -21h-73zM286 90c2 0 4 1 6 2
c10 5 41 26 44 34l35 184c0 1 1 5 0 7c-3 7 -13 20 -19 24c-2 1 -3 1 -5 1h-77c-12 0 -55 -29 -71 -44l-32 -168c10 -15 37 -40 48 -40h71z" />
    <glyph glyph-name="c" unicode="c" horiz-adv-x="469" 
d="M193 298l-35 -179s0 -3 1 -6c4 -9 13 -17 19 -21c0 0 4 -2 6 -2h101c10 0 35 20 42 27l4 4l92 -29c-14 -24 -60 -63 -78 -74c-22 -13 -52 -23 -76 -23h-96c-25 0 -52 7 -69 21c-13 11 -33 37 -39 49c-10 19 -10 41 -6 61l35 180c4 20 12 42 30 61c10 12 40 37 57 48
c23 14 52 22 77 22h92c24 0 51 -12 68 -25c13 -11 45 -50 50 -74l-93 -27l-2 4c-5 7 -22 27 -32 27h-93c-2 0 -7 -1 -9 -2c-14 -7 -35 -22 -43 -34c-2 -3 -3 -8 -3 -8z" />
    <glyph glyph-name="d" unicode="d" horiz-adv-x="495" 
d="M414 0h-98l-2 22c-21 -14 -46 -27 -70 -27h-72c-25 0 -52 8 -68 22c-13 11 -33 37 -39 49c-9 19 -10 40 -6 62l35 177c4 22 13 44 30 62c10 11 39 38 57 49c23 14 51 21 76 21h72c21 0 40 -14 55 -26l36 187h100l-99 -509zM331 140l31 164c-10 15 -37 38 -49 38h-68
c-3 0 -5 0 -6 -1c-13 -7 -35 -25 -45 -37c0 0 -1 -2 -2 -5l-33 -176c-1 -4 0 -6 0 -6c3 -9 14 -20 19 -25c2 -2 4 -2 6 -2h70c11 0 61 35 77 50z" />
    <glyph glyph-name="e" unicode="e" horiz-adv-x="481" 
d="M436 168h-271l-9 -47v-5c6 -15 21 -26 28 -26h99c10 0 36 20 43 27l4 4l90 -29c-14 -24 -60 -63 -78 -74c-22 -13 -52 -23 -76 -23h-94c-25 0 -52 7 -69 21c-13 11 -33 37 -39 48c-10 18 -11 40 -7 62l35 180c4 22 14 43 31 61c10 11 40 37 57 48c23 14 52 22 77 22h92
c25 0 52 -8 69 -22c13 -11 33 -36 39 -48c10 -19 10 -41 6 -61zM353 257l11 54s1 5 0 6c-3 7 -15 20 -21 24c-2 1 -4 1 -6 1h-94c-10 0 -38 -21 -50 -36c-1 -1 -2 -6 -2 -6l-9 -43h171z" />
    <glyph glyph-name="f" unicode="f" horiz-adv-x="340" 
d="M405 508h-87c-1 0 -7 0 -11 -2c-11 -6 -38 -25 -42 -37c-1 -3 -1 -4 -8 -37h109l-18 -95h-109l-65 -337h-100l65 337h-67l18 95h67l8 38c4 21 12 43 30 62c10 11 39 37 57 48c23 14 53 22 78 22h94z" />
    <glyph glyph-name="g" unicode="g" horiz-adv-x="498" 
d="M172 -5c-25 0 -51 7 -68 21c-13 11 -34 37 -40 49c-10 19 -9 41 -5 61l35 180c4 20 11 42 29 61c10 12 41 37 58 48c23 14 51 22 76 22h79c24 0 46 -13 61 -27l8 22h98l-26 -90l-73 -378c-5 -21 -12 -44 -30 -63c-10 -12 -40 -37 -57 -48c-23 -14 -53 -22 -77 -22h-88
c-24 0 -51 11 -68 24c-14 11 -44 50 -49 74l92 27l2 -4c5 -7 22 -26 32 -26h90c4 0 7 1 10 3c10 6 35 24 40 31c3 4 3 5 4 9l9 51c-19 -12 -42 -25 -63 -25h-79zM262 90c0 0 5 0 7 1c20 9 53 35 69 50l31 160c-11 15 -33 41 -48 41h-77c-2 0 -3 0 -5 -1
c-14 -7 -35 -25 -44 -37c-2 -2 -3 -6 -3 -6l-35 -184c-2 -6 12 -18 20 -23c0 0 2 -1 6 -1h79z" />
    <glyph glyph-name="h" unicode="h" horiz-adv-x="485" 
d="M402 0h-100l60 312v6c-3 8 -14 19 -19 23c-1 1 -5 1 -8 1h-72c-19 0 -57 -31 -73 -45l-57 -297h-100l116 598h100l-35 -184c18 12 39 23 59 23h74c25 0 52 -8 69 -22c13 -11 33 -36 39 -48c10 -19 10 -41 6 -61z" />
    <glyph glyph-name="i" unicode="i" horiz-adv-x="225" 
d="M239 493h-107l21 107h107zM144 0h-100l83 432h100z" />
    <glyph glyph-name="j" unicode="j" horiz-adv-x="232" 
d="M256 493h-107l21 107h107zM-75 -72h74c4 0 6 1 6 1c12 7 36 24 46 38c0 0 2 3 3 7l89 458h100l-90 -464c-4 -22 -13 -44 -30 -63c-10 -11 -40 -38 -58 -49c-23 -14 -52 -21 -75 -21h-84z" />
    <glyph glyph-name="k" unicode="k" horiz-adv-x="453" 
d="M440 0h-123l-126 177h-21l-34 -177h-100l116 598h100l-64 -327h7c56 51 117 112 171 161h134l-226 -209z" />
    <glyph glyph-name="l" unicode="l" horiz-adv-x="230" 
d="M155 0h-101v74l102 524h100l-100 -513z" />
    <glyph glyph-name="m" unicode="m" horiz-adv-x="716" 
d="M389 0h-100l60 312v6c-3 8 -14 19 -19 23c-1 1 -5 1 -8 1h-50c-19 0 -57 -31 -73 -45l-57 -297h-100l66 343l5 89h98l3 -23c21 13 45 28 68 28h52c25 0 52 -8 69 -22c6 -6 15 -15 22 -24c15 13 63 46 99 46h54c25 0 52 -8 69 -22c13 -11 33 -36 39 -48
c10 -19 10 -41 6 -61l-59 -306h-100l60 312v6c-3 8 -14 19 -19 23c-1 1 -5 1 -8 1h-52c-17 0 -49 -24 -67 -40z" />
    <glyph glyph-name="n" unicode="n" horiz-adv-x="495" 
d="M412 0h-100l60 312v6c-3 8 -14 19 -19 23c-1 1 -5 1 -8 1h-72c-19 0 -57 -31 -73 -45l-57 -297h-100l66 343l5 89h98l3 -23c21 13 45 28 68 28h74c25 0 52 -8 69 -22c13 -11 33 -36 39 -48c10 -19 10 -41 6 -61z" />
    <glyph glyph-name="o" unicode="o" horiz-adv-x="484" 
d="M429 126c-4 -20 -11 -42 -29 -61c-10 -12 -40 -38 -57 -49c-23 -14 -52 -21 -77 -21h-94c-25 0 -51 7 -68 21c-13 11 -34 37 -40 49c-10 19 -9 41 -5 61l35 180c4 20 11 42 29 61c10 12 41 37 58 48c23 14 51 22 76 22h94c25 0 52 -8 69 -22c13 -11 33 -36 39 -48
c10 -19 9 -41 5 -61zM192 298l-35 -184c-2 -6 12 -18 20 -23c0 0 2 -1 6 -1h96c2 0 4 1 6 2c10 5 41 26 44 34l35 184c0 1 1 5 0 7c-3 7 -13 20 -19 24c-2 1 -3 1 -5 1h-96c-2 0 -3 0 -5 -1c-14 -7 -35 -25 -44 -37c-2 -2 -3 -6 -3 -6z" />
    <glyph glyph-name="p" unicode="p" horiz-adv-x="491" 
d="M215 410c21 14 46 27 70 27h73c25 0 52 -8 69 -22c13 -11 33 -36 39 -48c10 -19 9 -41 5 -61l-35 -180c-4 -20 -11 -42 -29 -61c-10 -12 -40 -38 -57 -49c-23 -14 -52 -21 -77 -21h-73c-21 0 -40 11 -55 23l-35 -181h-100l98 506l8 89h99v-22zM286 90c2 0 4 1 6 2
c10 5 41 26 44 34l35 184c0 1 1 5 0 7c-3 7 -13 20 -19 24c-2 1 -3 1 -5 1h-77c-11 0 -55 -30 -71 -45l-32 -171c10 -15 34 -36 46 -36h73z" />
    <glyph glyph-name="q" unicode="q" horiz-adv-x="497" 
d="M245 -5h-73c-25 0 -51 7 -68 21c-13 11 -34 37 -40 49c-10 19 -9 41 -5 61l35 180c4 20 11 42 29 61c10 12 41 37 58 48c23 14 51 22 76 22h73c24 0 45 -13 60 -27l9 22h98l-26 -89l-98 -506h-100l35 181c-19 -12 -42 -23 -63 -23zM317 342h-73c-2 0 -3 0 -5 -1
c-14 -7 -35 -25 -44 -37c-2 -2 -3 -6 -3 -6l-35 -184c-2 -6 12 -18 20 -23c0 0 2 -1 6 -1h71c12 0 62 33 78 48l32 166c-10 15 -36 38 -47 38z" />
    <glyph glyph-name="r" unicode="r" horiz-adv-x="416" 
d="M461 338l-94 -27c0 1 -1 2 -2 4c-5 7 -19 28 -29 27h-64c-23 0 -58 -30 -73 -45l-58 -297h-100l66 343l6 89h98l3 -24c20 13 46 29 69 29h60c24 0 51 -12 68 -25c13 -11 45 -50 50 -74z" />
    <glyph glyph-name="s" unicode="s" horiz-adv-x="469" 
d="M128 120l2 -4c5 -10 21 -25 31 -26h114c12 0 46 27 49 41l4 20c1 5 0 13 -11 14c-34 3 -104 10 -160 15c-52 4 -87 38 -74 102l5 27c4 22 13 43 29 61c36 40 79 67 129 67h96c24 0 52 -10 68 -23c14 -11 45 -50 51 -74l-93 -26l-2 4c-4 8 -17 24 -27 24h-104s-9 0 -13 -2
c-5 -2 -25 -17 -33 -28c0 0 -1 -2 -3 -10l-3 -20c-1 -3 2 -12 12 -13c25 -3 99 -11 153 -17c53 -6 92 -38 79 -104l-4 -24c-5 -22 -15 -43 -31 -61c-11 -12 -36 -35 -54 -46c-23 -14 -50 -22 -75 -22h-108c-24 0 -51 11 -68 24c-14 11 -44 50 -49 74z" />
    <glyph glyph-name="t" unicode="t" horiz-adv-x="350" 
d="M232 337l-38 -199s-1 -5 0 -8c4 -11 22 -35 36 -35h68l-18 -95h-74c-25 0 -51 7 -68 21c-14 11 -33 38 -39 49c-9 19 -11 41 -7 63l40 204h-67l18 95h67l33 166h100l-33 -166h124l-18 -95h-124z" />
    <glyph glyph-name="u" unicode="u" horiz-adv-x="488" 
d="M414 0h-98l-4 25c-20 -13 -45 -29 -68 -29h-75c-25 0 -52 7 -69 21c-13 11 -33 37 -39 49c-10 19 -10 41 -6 61l59 305h100l-59 -310c-1 -5 -1 -5 0 -8c5 -10 10 -16 19 -22c2 -1 3 -1 6 -1h79c10 0 51 26 67 40l58 301h100l-66 -343z" />
    <glyph glyph-name="v" unicode="v" horiz-adv-x="437" 
d="M480 432l-231 -432h-106l-68 432h102l40 -291l152 291h111z" />
    <glyph glyph-name="w" unicode="w" horiz-adv-x="660" 
d="M709 432l-217 -432h-102l-29 271l-135 -271h-102l-49 432h102l26 -279l133 279h105l23 -279l136 279h109z" />
    <glyph glyph-name="x" unicode="x" horiz-adv-x="449" 
d="M118 0h-126l193 228l-104 204h113l62 -122l102 122h125l-180 -213l112 -219h-112l-71 137z" />
    <glyph glyph-name="y" unicode="y" horiz-adv-x="427" 
d="M480 432l-317 -594h-101l89 162h-9l-67 432h104l40 -294l154 294h107z" />
    <glyph glyph-name="z" unicode="z" horiz-adv-x="444" 
d="M379 0h-344l15 81l246 256h-204l18 95h342l-15 -82l-247 -255h207z" />
    <glyph glyph-name="braceleft" unicode="{" horiz-adv-x="351" 
d="M287 93l-20 -98h-73c-22 0 -45 8 -59 18c-19 12 -51 53 -59 71c-9 18 -9 38 -5 57l61 315c4 19 12 38 27 56c15 17 64 60 87 72c18 9 44 18 66 18h73l-20 -97h-63c-2 0 -4 -1 -4 -1c-14 -7 -49 -36 -62 -52c-2 -2 -3 -7 -4 -12l-61 -305c-2 -11 22 -34 33 -41
c1 -1 6 -1 7 -1h76z" />
    <glyph glyph-name="bar" unicode="|" horiz-adv-x="237" 
d="M119 -92h-98l147 759h98z" />
    <glyph glyph-name="braceright" unicode="}" horiz-adv-x="357" 
d="M129 504l20 98h73c22 0 45 -8 59 -18c19 -12 51 -53 59 -71c9 -18 9 -38 5 -57l-61 -315c-4 -19 -12 -38 -27 -56c-15 -17 -64 -60 -87 -72c-18 -9 -44 -18 -66 -18h-73l20 97h63c2 0 4 1 4 1c14 7 49 36 62 52c2 2 3 7 4 12l61 305c2 11 -22 34 -33 41c-1 1 -6 1 -7 1
h-76z" />
    <glyph glyph-name="asciitilde" unicode="~" horiz-adv-x="462" 
d="M429 220l-94 -29c-5 21 -16 27 -26 25l-116 -23c-56 -10 -106 17 -120 87l95 29c4 -21 15 -28 25 -26l116 22c56 10 106 -15 120 -85z" />
    <glyph glyph-name="DEL" horiz-adv-x="500" 
 />
    <glyph glyph-name="Adieresis" unicode="&#xc4;" horiz-adv-x="549" 
d="M515 0h-106l-20 127h-227l-68 -127h-118l325 598h122zM376 227l-35 236l-126 -236h161zM501 653h-97l20 103h97zM340 653h-97l20 103h97z" />
    <glyph glyph-name="Aring" unicode="&#xc5;" horiz-adv-x="549" 
d="M514 0h-106l-20 127h-227l-68 -127h-118l325 598h122zM375 227l-35 236l-126 -236h161zM493 736c-11 -58 -55 -99 -114 -99c-56 0 -104 49 -93 107c11 55 57 97 116 97c56 0 102 -50 91 -105zM435 740c5 24 -10 45 -36 45s-51 -21 -56 -45c-5 -26 12 -48 38 -48
s49 22 54 48z" />
    <glyph glyph-name="Ccedilla" unicode="&#xc7;" horiz-adv-x="546" 
d="M311 -73l-104 -125h-113l126 154zM490 116c-11 -18 -18 -27 -28 -38c-33 -35 -87 -83 -143 -83h-125c-22 0 -45 8 -59 18c-19 12 -51 53 -59 71c-9 18 -9 38 -5 57l61 315c4 19 12 38 27 56c15 17 64 60 87 72c18 9 44 18 66 18h125c56 0 91 -49 110 -83
c6 -11 9 -19 15 -35l-100 -28s-23 36 -36 45c-1 1 -3 1 -4 1h-120c-2 0 -4 -1 -4 -1c-14 -7 -47 -34 -60 -50c-2 -2 -3 -7 -4 -12l-60 -304c-2 -11 19 -32 30 -39c1 -1 6 -1 7 -1h118c1 0 3 0 5 1c23 10 54 48 54 48z" />
    <glyph glyph-name="Eacute" unicode="&#xc9;" horiz-adv-x="516" 
d="M420 0h-376l116 598h376l-20 -100h-270l-29 -151h251l-19 -100h-251l-29 -147h270zM384 632l-92 27l115 119h124z" />
    <glyph glyph-name="Ntilde" unicode="&#xd1;" horiz-adv-x="566" 
d="M447 0h-111l-129 398l-78 -398h-105l116 598h113l126 -403l79 403h105zM536 660l-78 -23c-5 21 -25 31 -35 28l-77 -21c-52 -16 -109 11 -124 81l84 21c5 -21 20 -28 30 -25l78 21c54 16 107 -11 122 -82z" />
    <glyph glyph-name="Odieresis" unicode="&#xd6;" horiz-adv-x="589" 
d="M345 -5h-151c-22 0 -45 8 -59 18c-19 12 -51 53 -59 71c-9 18 -9 38 -5 57l61 315c4 19 12 38 27 56c15 17 64 60 87 72c18 9 44 18 66 18h151c22 0 45 -8 59 -18c19 -12 51 -53 59 -71c9 -18 9 -38 5 -57l-61 -315c-4 -19 -12 -38 -27 -56c-15 -17 -64 -60 -87 -72
c-18 -9 -44 -18 -66 -18zM446 502h-144c-2 0 -4 -1 -4 -1c-14 -7 -47 -34 -60 -50c-2 -2 -3 -7 -4 -12l-60 -304c-2 -11 19 -32 30 -39c1 -1 6 -1 7 -1h144c2 0 4 1 4 1c14 7 47 34 60 50c2 2 3 7 4 12l60 304c2 11 -19 32 -30 39c-1 1 -6 1 -7 1zM528 652h-97l20 103h97z
M367 652h-97l20 103h97z" />
    <glyph glyph-name="Udieresis" unicode="&#xdc;" 
d="M474 598h105l-89 -457c-4 -19 -12 -38 -27 -56c-15 -17 -64 -60 -87 -72c-18 -9 -44 -18 -66 -18h-125c-22 0 -45 8 -59 18c-19 12 -51 53 -59 71c-9 18 -9 38 -5 57l89 457h105l-91 -463c-2 -11 19 -32 30 -39c1 -1 6 -1 7 -1h118c2 0 4 1 4 1c14 7 47 34 60 50
c2 2 3 7 4 12zM505 652h-97l20 103h97zM344 652h-97l20 103h97z" />
    <glyph glyph-name="aacute" unicode="&#xe1;" horiz-adv-x="482" 
d="M344 271l8 41s1 4 0 5c-3 7 -14 19 -20 23c-2 1 -4 2 -6 2h-92c-12 0 -38 -24 -46 -32l-92 29c15 24 62 63 80 74c21 13 52 24 76 24h86c25 0 52 -8 69 -22c13 -11 33 -35 39 -47c10 -19 9 -42 5 -62l-42 -218l-2 -88h-99l-7 22c-20 -13 -43 -27 -66 -27h-82
c-25 0 -51 8 -68 22c-13 11 -32 36 -38 47c-10 18 -10 39 -6 61l3 18c5 22 14 43 30 61c10 11 39 34 56 45c23 14 51 22 76 22h138zM317 131l10 51h-134c-3 0 -6 -1 -8 -2c-12 -7 -30 -23 -40 -35c0 0 -1 -2 -1 -3l-4 -23c0 -1 0 -2 1 -4c4 -9 13 -19 18 -23c0 0 2 -2 6 -2
h82c11 0 60 32 70 41zM320 488l-92 27l115 119h124z" />
    <glyph glyph-name="agrave" unicode="&#xe0;" horiz-adv-x="482" 
d="M344 271l8 41s1 4 0 5c-3 7 -14 19 -20 23c-2 1 -4 2 -6 2h-92c-12 0 -38 -24 -46 -32l-92 29c15 24 62 63 80 74c21 13 52 24 76 24h86c25 0 52 -8 69 -22c13 -11 33 -35 39 -47c10 -19 9 -42 5 -62l-42 -218l-2 -88h-99l-7 22c-20 -13 -43 -27 -66 -27h-82
c-25 0 -51 8 -68 22c-13 11 -32 36 -38 47c-10 18 -10 39 -6 61l3 18c5 22 14 43 30 61c10 11 39 34 56 45c23 14 51 22 76 22h138zM317 131l10 51h-134c-3 0 -6 -1 -8 -2c-12 -7 -30 -23 -40 -35c0 0 -1 -2 -1 -3l-4 -23c0 -1 0 -2 1 -4c4 -9 13 -19 18 -23c0 0 2 -2 6 -2
h82c11 0 60 32 70 41zM392 513l-88 -25l-89 146h108z" />
    <glyph glyph-name="acircumflex" unicode="&#xe2;" horiz-adv-x="482" 
d="M344 271l8 41s1 4 0 5c-3 7 -14 19 -20 23c-2 1 -4 2 -6 2h-92c-12 0 -38 -24 -46 -32l-92 29c15 24 62 63 80 74c21 13 52 24 76 24h86c25 0 52 -8 69 -22c13 -11 33 -35 39 -47c10 -19 9 -42 5 -62l-42 -218l-2 -88h-99l-7 22c-20 -13 -43 -27 -66 -27h-82
c-25 0 -51 8 -68 22c-13 11 -32 36 -38 47c-10 18 -10 39 -6 61l3 18c5 22 14 43 30 61c10 11 39 34 56 45c23 14 51 22 76 22h138zM317 131l10 51h-134c-3 0 -6 -1 -8 -2c-12 -7 -30 -23 -40 -35c0 0 -1 -2 -1 -3l-4 -23c0 -1 0 -2 1 -4c4 -9 13 -19 18 -23c0 0 2 -2 6 -2
h82c11 0 60 32 70 41zM274 493h-113l126 131h90l74 -131h-101l-28 52z" />
    <glyph glyph-name="adieresis" unicode="&#xe4;" horiz-adv-x="479" 
d="M344 271l8 41s1 4 0 5c-3 7 -14 19 -20 23c-2 1 -4 2 -6 2h-92c-12 0 -38 -24 -46 -32l-92 29c15 24 62 63 80 74c21 13 52 24 76 24h86c25 0 52 -8 69 -22c13 -11 33 -35 39 -47c10 -19 9 -42 5 -62l-42 -218l-2 -88h-99l-7 22c-20 -13 -43 -27 -66 -27h-82
c-25 0 -51 8 -68 22c-13 11 -32 36 -38 47c-10 18 -10 39 -6 61l3 18c5 22 14 43 30 61c10 11 39 34 56 45c23 14 51 22 76 22h138zM317 131l10 51h-134c-3 0 -6 -1 -8 -2c-12 -7 -30 -23 -40 -35c0 0 -1 -2 -1 -3l-4 -23c0 -1 0 -2 1 -4c4 -9 13 -19 18 -23c0 0 2 -2 6 -2
h82c11 0 60 32 70 41zM429 496h-97l20 103h97zM268 496h-97l20 103h97z" />
    <glyph glyph-name="atilde" unicode="&#xe3;" horiz-adv-x="482" 
d="M344 271l8 41s1 4 0 5c-3 7 -14 19 -20 23c-2 1 -4 2 -6 2h-92c-12 0 -38 -24 -46 -32l-92 29c15 24 62 63 80 74c21 13 52 24 76 24h86c25 0 52 -8 69 -22c13 -11 33 -35 39 -47c10 -19 9 -42 5 -62l-42 -218l-2 -88h-99l-7 22c-20 -13 -43 -27 -66 -27h-82
c-25 0 -51 8 -68 22c-13 11 -32 36 -38 47c-10 18 -10 39 -6 61l3 18c5 22 14 43 30 61c10 11 39 34 56 45c23 14 51 22 76 22h138zM317 131l10 51h-134c-3 0 -6 -1 -8 -2c-12 -7 -30 -23 -40 -35c0 0 -1 -2 -1 -3l-4 -23c0 -1 0 -2 1 -4c4 -9 13 -19 18 -23c0 0 2 -2 6 -2
h82c11 0 60 32 70 41zM481 520l-78 -23c-5 21 -25 31 -35 28l-77 -21c-52 -16 -109 11 -124 81l84 21c5 -21 20 -28 30 -25l78 21c54 16 107 -11 122 -82z" />
    <glyph glyph-name="aring" unicode="&#xe5;" horiz-adv-x="482" 
d="M344 271l8 41s1 4 0 5c-3 7 -14 19 -20 23c-2 1 -4 2 -6 2h-92c-12 0 -38 -24 -46 -32l-92 29c15 24 62 63 80 74c21 13 52 24 76 24h86c25 0 52 -8 69 -22c13 -11 33 -35 39 -47c10 -19 9 -42 5 -62l-42 -218l-2 -88h-99l-7 22c-20 -13 -43 -27 -66 -27h-82
c-25 0 -51 8 -68 22c-13 11 -32 36 -38 47c-10 18 -10 39 -6 61l3 18c5 22 14 43 30 61c10 11 39 34 56 45c23 14 51 22 76 22h138zM317 131l10 51h-134c-3 0 -6 -1 -8 -2c-12 -7 -30 -23 -40 -35c0 0 -1 -2 -1 -3l-4 -23c0 -1 0 -2 1 -4c4 -9 13 -19 18 -23c0 0 2 -2 6 -2
h82c11 0 60 32 70 41zM427 592c-11 -58 -55 -99 -114 -99c-56 0 -104 49 -93 107c11 55 57 97 116 97c56 0 102 -50 91 -105zM369 596c5 24 -10 45 -36 45s-51 -21 -56 -45c-5 -26 12 -48 38 -48s49 22 54 48z" />
    <glyph glyph-name="ccedilla" unicode="&#xe7;" horiz-adv-x="477" 
d="M281 -73l-104 -125h-113l126 154zM193 298l-35 -179s0 -3 1 -6c4 -9 13 -17 19 -21c0 0 4 -2 6 -2h101c10 0 35 20 42 27l4 4l92 -29c-14 -24 -60 -63 -78 -74c-22 -13 -52 -23 -76 -23h-96c-25 0 -52 7 -69 21c-13 11 -33 37 -39 49c-10 19 -10 41 -6 61l35 180
c4 20 12 42 30 61c10 12 40 37 57 48c23 14 52 22 77 22h92c24 0 51 -12 68 -25c13 -11 45 -50 50 -74l-93 -27l-2 4c-5 7 -22 27 -32 27h-93c-2 0 -7 -1 -9 -2c-14 -7 -35 -22 -43 -34c-2 -3 -3 -8 -3 -8z" />
    <glyph glyph-name="eacute" unicode="&#xe9;" horiz-adv-x="483" 
d="M436 168h-271l-9 -47v-5c6 -15 21 -26 28 -26h99c10 0 36 20 43 27l4 4l90 -29c-14 -24 -60 -63 -78 -74c-22 -13 -52 -23 -76 -23h-94c-25 0 -52 7 -69 21c-13 11 -33 37 -39 48c-10 18 -11 40 -7 62l35 180c4 22 14 43 31 61c10 11 40 37 57 48c23 14 52 22 77 22h92
c25 0 52 -8 69 -22c13 -11 33 -36 39 -48c10 -19 10 -41 6 -61zM353 257l11 54s1 5 0 6c-3 7 -15 20 -21 24c-2 1 -4 1 -6 1h-94c-10 0 -38 -21 -50 -36c-1 -1 -2 -6 -2 -6l-9 -43h171zM322 488l-92 27l115 119h124z" />
    <glyph glyph-name="egrave" unicode="&#xe8;" horiz-adv-x="483" 
d="M436 168h-271l-9 -47v-5c6 -15 21 -26 28 -26h99c10 0 36 20 43 27l4 4l90 -29c-14 -24 -60 -63 -78 -74c-22 -13 -52 -23 -76 -23h-94c-25 0 -52 7 -69 21c-13 11 -33 37 -39 48c-10 18 -11 40 -7 62l35 180c4 22 14 43 31 61c10 11 40 37 57 48c23 14 52 22 77 22h92
c25 0 52 -8 69 -22c13 -11 33 -36 39 -48c10 -19 10 -41 6 -61zM353 257l11 54s1 5 0 6c-3 7 -15 20 -21 24c-2 1 -4 1 -6 1h-94c-10 0 -38 -21 -50 -36c-1 -1 -2 -6 -2 -6l-9 -43h171zM392 513l-88 -25l-89 146h108z" />
    <glyph glyph-name="ecircumflex" unicode="&#xea;" horiz-adv-x="488" 
d="M436 168h-271l-9 -47v-5c6 -15 21 -26 28 -26h99c10 0 36 20 43 27l4 4l90 -29c-14 -24 -60 -63 -78 -74c-22 -13 -52 -23 -76 -23h-94c-25 0 -52 7 -69 21c-13 11 -33 37 -39 48c-10 18 -11 40 -7 62l35 180c4 22 14 43 31 61c10 11 40 37 57 48c23 14 52 22 77 22h92
c25 0 52 -8 69 -22c13 -11 33 -36 39 -48c10 -19 10 -41 6 -61zM353 257l11 54s1 5 0 6c-3 7 -15 20 -21 24c-2 1 -4 1 -6 1h-94c-10 0 -38 -21 -50 -36c-1 -1 -2 -6 -2 -6l-9 -43h171zM295 493h-113l126 131h90l74 -131h-101l-28 52z" />
    <glyph glyph-name="edieresis" unicode="&#xeb;" horiz-adv-x="481" 
d="M444 496h-97l20 103h97zM283 496h-97l20 103h97zM436 168h-271l-9 -47v-5c6 -15 21 -26 28 -26h99c10 0 36 20 43 27l4 4l90 -29c-14 -24 -60 -63 -78 -74c-22 -13 -52 -23 -76 -23h-94c-25 0 -52 7 -69 21c-13 11 -33 37 -39 48c-10 18 -11 40 -7 62l35 180
c4 22 14 43 31 61c10 11 40 37 57 48c23 14 52 22 77 22h92c25 0 52 -8 69 -22c13 -11 33 -36 39 -48c10 -19 10 -41 6 -61zM353 257l11 54s1 5 0 6c-3 7 -15 20 -21 24c-2 1 -4 1 -6 1h-94c-10 0 -38 -21 -50 -36c-1 -1 -2 -6 -2 -6l-9 -43h171z" />
    <glyph glyph-name="iacute" unicode="&#xed;" horiz-adv-x="221" 
d="M143 -1h-100l84 431h100zM235 487l-92 27l115 119h124z" />
    <glyph glyph-name="igrave" unicode="&#xec;" horiz-adv-x="221" 
d="M143 -1h-100l84 431h100zM228 513l-88 -25l-89 146h108z" />
    <glyph glyph-name="icircumflex" unicode="&#xee;" horiz-adv-x="221" 
d="M143 -1h-100l84 431h100zM155 493h-113l126 131h90l74 -131h-101l-28 52z" />
    <glyph glyph-name="idieresis" unicode="&#xef;" horiz-adv-x="221" 
d="M319 496h-97l20 103h97zM158 496h-97l20 103h97zM143 -1h-100l84 431h100z" />
    <glyph glyph-name="ntilde" unicode="&#xf1;" horiz-adv-x="495" 
d="M412 0h-100l60 312v6c-3 8 -14 19 -19 23c-1 1 -5 1 -8 1h-72c-19 0 -57 -31 -73 -45l-57 -297h-100l66 343l5 89h98l3 -23c21 13 45 28 68 28h74c25 0 52 -8 69 -22c13 -11 33 -36 39 -48c10 -19 10 -41 6 -61zM481 520l-78 -23c-5 21 -25 31 -35 28l-77 -21
c-52 -16 -109 11 -124 81l84 21c5 -21 20 -28 30 -25l78 21c54 16 107 -11 122 -82z" />
    <glyph glyph-name="oacute" unicode="&#xf3;" horiz-adv-x="484" 
d="M429 126c-4 -20 -11 -42 -29 -61c-10 -12 -40 -38 -57 -49c-23 -14 -52 -21 -77 -21h-94c-25 0 -51 7 -68 21c-13 11 -34 37 -40 49c-10 19 -9 41 -5 61l35 180c4 20 11 42 29 61c10 12 41 37 58 48c23 14 51 22 76 22h94c25 0 52 -8 69 -22c13 -11 33 -36 39 -48
c10 -19 9 -41 5 -61zM192 298l-35 -184c-2 -6 12 -18 20 -23c0 0 2 -1 6 -1h96c2 0 4 1 6 2c10 5 41 26 44 34l35 184c0 1 1 5 0 7c-3 7 -13 20 -19 24c-2 1 -3 1 -5 1h-96c-2 0 -3 0 -5 -1c-14 -7 -35 -25 -44 -37c-2 -2 -3 -6 -3 -6zM318 488l-92 27l115 119h124z" />
    <glyph glyph-name="ograve" unicode="&#xf2;" horiz-adv-x="484" 
d="M429 126c-4 -20 -11 -42 -29 -61c-10 -12 -40 -38 -57 -49c-23 -14 -52 -21 -77 -21h-94c-25 0 -51 7 -68 21c-13 11 -34 37 -40 49c-10 19 -9 41 -5 61l35 180c4 20 11 42 29 61c10 12 41 37 58 48c23 14 51 22 76 22h94c25 0 52 -8 69 -22c13 -11 33 -36 39 -48
c10 -19 9 -41 5 -61zM192 298l-35 -184c-2 -6 12 -18 20 -23c0 0 2 -1 6 -1h96c2 0 4 1 6 2c10 5 41 26 44 34l35 184c0 1 1 5 0 7c-3 7 -13 20 -19 24c-2 1 -3 1 -5 1h-96c-2 0 -3 0 -5 -1c-14 -7 -35 -25 -44 -37c-2 -2 -3 -6 -3 -6zM392 513l-88 -25l-89 146h108z" />
    <glyph glyph-name="ocircumflex" unicode="&#xf4;" horiz-adv-x="484" 
d="M429 126c-4 -20 -11 -42 -29 -61c-10 -12 -40 -38 -57 -49c-23 -14 -52 -21 -77 -21h-94c-25 0 -51 7 -68 21c-13 11 -34 37 -40 49c-10 19 -9 41 -5 61l35 180c4 20 11 42 29 61c10 12 41 37 58 48c23 14 51 22 76 22h94c25 0 52 -8 69 -22c13 -11 33 -36 39 -48
c10 -19 9 -41 5 -61zM192 298l-35 -184c-2 -6 12 -18 20 -23c0 0 2 -1 6 -1h96c2 0 4 1 6 2c10 5 41 26 44 34l35 184c0 1 1 5 0 7c-3 7 -13 20 -19 24c-2 1 -3 1 -5 1h-96c-2 0 -3 0 -5 -1c-14 -7 -35 -25 -44 -37c-2 -2 -3 -6 -3 -6zM285 493h-113l126 131h90l74 -131
h-101l-28 52z" />
    <glyph glyph-name="odieresis" unicode="&#xf6;" horiz-adv-x="484" 
d="M429 126c-4 -20 -11 -42 -29 -61c-10 -12 -40 -38 -57 -49c-23 -14 -52 -21 -77 -21h-94c-25 0 -51 7 -68 21c-13 11 -34 37 -40 49c-10 19 -9 41 -5 61l35 180c4 20 11 42 29 61c10 12 41 37 58 48c23 14 51 22 76 22h94c25 0 52 -8 69 -22c13 -11 33 -36 39 -48
c10 -19 9 -41 5 -61zM192 298l-35 -184c-2 -6 12 -18 20 -23c0 0 2 -1 6 -1h96c2 0 4 1 6 2c10 5 41 26 44 34l35 184c0 1 1 5 0 7c-3 7 -13 20 -19 24c-2 1 -3 1 -5 1h-96c-2 0 -3 0 -5 -1c-14 -7 -35 -25 -44 -37c-2 -2 -3 -6 -3 -6zM444 496h-97l20 103h97zM283 496h-97
l20 103h97z" />
    <glyph glyph-name="otilde" unicode="&#xf5;" horiz-adv-x="484" 
d="M429 126c-4 -20 -11 -42 -29 -61c-10 -12 -40 -38 -57 -49c-23 -14 -52 -21 -77 -21h-94c-25 0 -51 7 -68 21c-13 11 -34 37 -40 49c-10 19 -9 41 -5 61l35 180c4 20 11 42 29 61c10 12 41 37 58 48c23 14 51 22 76 22h94c25 0 52 -8 69 -22c13 -11 33 -36 39 -48
c10 -19 9 -41 5 -61zM192 298l-35 -184c-2 -6 12 -18 20 -23c0 0 2 -1 6 -1h96c2 0 4 1 6 2c10 5 41 26 44 34l35 184c0 1 1 5 0 7c-3 7 -13 20 -19 24c-2 1 -3 1 -5 1h-96c-2 0 -3 0 -5 -1c-14 -7 -35 -25 -44 -37c-2 -2 -3 -6 -3 -6zM482 520l-78 -23c-5 21 -25 31 -35 28
l-77 -21c-52 -16 -109 11 -124 81l84 21c5 -21 20 -28 30 -25l78 21c54 16 107 -11 122 -82z" />
    <glyph glyph-name="uacute" unicode="&#xfa;" horiz-adv-x="488" 
d="M414 0h-98l-4 25c-20 -13 -45 -29 -68 -29h-75c-25 0 -52 7 -69 21c-13 11 -33 37 -39 49c-10 19 -10 41 -6 61l59 305h100l-59 -310c-1 -5 -1 -5 0 -8c5 -10 10 -16 19 -22c2 -1 3 -1 6 -1h79c10 0 51 26 67 40l58 301h100l-66 -343zM314 488l-92 27l115 119h124z" />
    <glyph glyph-name="ugrave" unicode="&#xf9;" horiz-adv-x="488" 
d="M414 0h-98l-4 25c-20 -13 -45 -29 -68 -29h-75c-25 0 -52 7 -69 21c-13 11 -33 37 -39 49c-10 19 -10 41 -6 61l59 305h100l-59 -310c-1 -5 -1 -5 0 -8c5 -10 10 -16 19 -22c2 -1 3 -1 6 -1h79c10 0 51 26 67 40l58 301h100l-66 -343zM399 513l-88 -25l-89 146h108z" />
    <glyph glyph-name="ucircumflex" unicode="&#xfb;" horiz-adv-x="488" 
d="M414 0h-98l-4 25c-20 -13 -45 -29 -68 -29h-75c-25 0 -52 7 -69 21c-13 11 -33 37 -39 49c-10 19 -10 41 -6 61l59 305h100l-59 -310c-1 -5 -1 -5 0 -8c5 -10 10 -16 19 -22c2 -1 3 -1 6 -1h79c10 0 51 26 67 40l58 301h100l-66 -343zM278 493h-113l126 131h90l74 -131
h-101l-28 52z" />
    <glyph glyph-name="udieresis" unicode="&#xfc;" horiz-adv-x="488" 
d="M414 0h-98l-4 25c-20 -13 -45 -29 -68 -29h-75c-25 0 -52 7 -69 21c-13 11 -33 37 -39 49c-10 19 -10 41 -6 61l59 305h100l-59 -310c-1 -5 -1 -5 0 -8c5 -10 10 -16 19 -22c2 -1 3 -1 6 -1h79c10 0 51 26 67 40l58 301h100l-66 -343zM444 496h-97l20 103h97zM283 496
h-97l20 103h97z" />
    <glyph glyph-name="dagger" unicode="&#x2020;" horiz-adv-x="328" 
d="M351 337h-66l-44 -226h-100l44 226h-65l18 95h65l33 166h100l-33 -166h66z" />
    <glyph glyph-name="degree" unicode="&#xb0;" horiz-adv-x="353" 
d="M366 583c-11 -58 -61 -101 -117 -101s-102 49 -91 107c11 55 63 99 119 99s100 -50 89 -105zM308 586c5 24 -10 45 -36 45s-51 -21 -56 -45c-5 -26 12 -48 38 -48s49 22 54 48z" />
    <glyph glyph-name="cent" unicode="&#xa2;" horiz-adv-x="456" 
d="M161 -163l31 158h-19c-25 0 -52 7 -69 21c-13 11 -33 37 -39 49c-10 19 -10 41 -6 61l35 180c4 20 12 42 30 61c10 12 40 37 57 48c23 14 52 22 77 22h20l32 160h58l-32 -160h24c24 0 51 -12 68 -25c13 -11 45 -50 50 -74l-93 -27l-2 4c-5 7 -22 27 -32 27h-33l-50 -252
h27c10 0 35 20 42 27l4 4l92 -29c-14 -24 -60 -63 -78 -74c-22 -13 -52 -23 -76 -23h-29l-31 -158h-58zM193 298l-35 -179s0 -3 1 -6c4 -9 13 -17 19 -21c0 0 4 -2 6 -2h26l50 252h-12c-2 0 -7 -1 -9 -2c-14 -7 -35 -22 -43 -34c-2 -3 -3 -8 -3 -8z" />
    <glyph glyph-name="sterling" unicode="&#xa3;" horiz-adv-x="588" 
d="M447 154l85 -28c-5 -11 -21 -34 -32 -45c-31 -34 -86 -81 -142 -81h-282l34 175h-39l18 94h39l4 24h-39l19 94h39l11 57c3 18 9 38 26 56c15 17 62 59 85 71c18 9 44 18 65 18h143l-19 -100h-135c-3 0 -6 -1 -6 -1c-13 -7 -38 -27 -53 -45c0 0 -1 -1 -3 -10l-9 -46h210
l-19 -94h-210l-4 -24h210l-18 -94h-210l-15 -75h181c1 0 5 0 6 1c18 8 40 28 53 43c4 4 7 10 7 10z" />
    <glyph glyph-name="section" unicode="&#xa7;" horiz-adv-x="510" 
d="M216 163h-2c-25 0 -52 8 -69 22c-13 11 -33 36 -39 48c-10 19 -9 41 -5 61l3 16c7 32 11 42 29 61l17 19c-7 15 -19 35 -14 60l3 17c4 22 13 43 29 61c36 40 79 67 129 67h116c24 0 52 -10 68 -23c14 -11 45 -50 51 -74l-93 -26l-2 4c-4 8 -17 24 -27 24h-124
s-9 0 -13 -2c-5 -2 -25 -17 -33 -28c0 0 -1 -2 -3 -10l-1 -10c-1 -3 2 -12 12 -13l130 -7h2c25 0 52 -8 69 -22c13 -11 33 -36 39 -48c10 -19 8 -46 4 -66l-2 -11c-7 -32 -11 -42 -29 -61c-2 -3 -5 -7 -9 -11c14 -17 20 -41 14 -73l-3 -14c-5 -22 -15 -43 -31 -61
c-11 -12 -36 -35 -54 -46c-23 -14 -50 -22 -75 -22h-128c-24 0 -51 11 -68 24c-14 11 -44 50 -49 74l90 27l2 -4c5 -10 21 -25 31 -26h134c12 0 46 27 49 41l3 10c1 5 0 13 -11 14zM220 259c2 -1 3 -1 5 -1l98 -10l17 -1c2 0 4 1 6 2c10 5 41 26 44 34l3 20c0 1 1 5 0 7
c-3 7 -13 20 -19 24h-2l-3 1l-16 1l-20 2l-82 7h-1c-1 0 -1 -1 -2 -1c-10 -5 -41 -26 -44 -34l-3 -20c0 -1 -1 -5 0 -7c3 -7 13 -20 19 -24z" />
    <glyph glyph-name="bullet" unicode="&#x2022;" horiz-adv-x="443" 
d="M389 239c-5 -23 -17 -45 -34 -62c-13 -12 -42 -33 -54 -40c-19 -11 -40 -16 -61 -16h-25c-21 0 -40 5 -55 16c-10 7 -32 28 -41 41c-11 18 -12 40 -8 61l3 16c9 48 48 77 89 101c20 12 40 16 61 16h25c21 0 39 -4 55 -16c31 -24 57 -53 48 -101z" />
    <glyph glyph-name="paragraph" unicode="&#xb6;" horiz-adv-x="527" 
d="M468 0h-101l47 244h-37l-47 -244h-101l47 244h-48c-24 0 -50 7 -67 21c-12 10 -37 40 -44 53c-8 18 -10 39 -6 60l14 73c4 21 15 43 30 61c12 13 49 44 65 54c21 14 51 22 75 22h287zM433 343l28 145h-37l-28 -145h37zM229 450c0 0 -1 -2 -2 -6l-13 -67
c-1 -4 -1 -8 0 -10c0 0 16 -24 27 -24h54l28 145h-40c-2 0 -4 0 -6 -1c-12 -7 -38 -24 -48 -37z" />
    <glyph glyph-name="germandbls" unicode="&#xdf;" horiz-adv-x="556" 
d="M225 442l-73 -370l-21 -72h-101l26 89l70 361c3 18 12 40 28 58c15 16 61 59 85 72c18 9 45 18 67 18h59c25 0 49 -8 66 -22c14 -11 33 -37 39 -48c9 -19 11 -41 7 -63l-9 -49c-6 -27 -25 -46 -54 -70c-22 -18 -25 -20 -30 -31c-2 -3 -3 -10 -4 -13l-2 -17
c-1 -3 3 -11 13 -12c26 -3 27 -5 50 -7c53 -5 92 -32 79 -98l-8 -44c-5 -22 -15 -43 -31 -61c-11 -12 -36 -35 -54 -46c-23 -14 -50 -20 -75 -21h-98c-18 0 -37 7 -51 17c0 -1 55 83 55 83c9 -5 11 -4 16 -5h87c12 0 49 27 52 41l7 32c1 5 -1 13 -12 14c-29 2 -40 5 -56 7
c-51 7 -89 36 -76 100l7 35c5 25 14 44 43 67c8 7 27 20 40 35c0 0 4 4 5 12l7 38c1 4 0 8 0 8c-4 10 -17 23 -26 23h-59c-14 0 -53 -38 -65 -54c-2 -3 -3 -7 -3 -7z" />
    <glyph glyph-name="registered" unicode="&#xae;" horiz-adv-x="714" 
d="M71 149l59 308c4 17 11 39 27 57c16 17 63 59 86 71c18 10 44 17 65 17h302c21 0 43 -7 57 -17c19 -12 50 -54 58 -71c9 -18 10 -38 6 -57l-59 -308c-4 -17 -11 -39 -27 -57c-16 -17 -63 -59 -86 -71c-18 -10 -44 -17 -65 -17h-302c-21 0 -43 7 -57 17
c-19 12 -50 54 -58 71c-9 18 -10 38 -6 57zM573 156l61 308c1 7 -10 26 -28 39c-4 3 -8 4 -10 4h-296c-2 0 -5 0 -7 -1c-12 -6 -42 -31 -60 -49c-2 -2 -4 -6 -4 -7l-61 -308c-1 -7 10 -26 28 -39c4 -3 8 -4 10 -4h296c2 0 5 0 7 1c12 6 42 31 60 49c2 2 4 6 4 7zM517 283
c-8 -8 -25 -25 -40 -36l37 -116h-88l-28 93h-53l-18 -95h-89l65 336h148c22 0 43 -8 58 -20c12 -9 26 -30 31 -41c7 -16 8 -33 5 -51l-3 -16c-4 -19 -11 -37 -25 -54zM458 359c-4 10 -7 17 -15 23h-67l-15 -74h61c9 4 24 17 32 28z" />
    <glyph glyph-name="copyright" unicode="&#xa9;" horiz-adv-x="714" 
d="M335 251l18 97s1 3 3 6c6 9 27 30 37 31h6h50c1 0 4 0 5 -1c12 -8 15 -17 22 -27l76 19c-11 40 -45 89 -94 89h-47c-22 0 -47 0 -67 -13c-15 -9 -44 -33 -53 -44c-14 -16 -23 -36 -27 -55c-18 -92 -18 -92 -20 -104c-4 -19 -2 -38 6 -54c4 -11 24 -35 35 -44
c16 -13 38 -16 60 -16h47c61 0 99 51 132 92l-81 23c-12 -12 -18 -23 -33 -31c-2 -1 -5 -1 -6 -1h-47c-2 0 -3 0 -7 1c-5 1 -13 12 -16 20c-1 3 0 5 1 12zM71 149l59 308c4 17 11 39 27 57c16 17 63 59 86 71c18 10 44 17 65 17h302c21 0 43 -7 57 -17c19 -12 50 -54 58 -71
c9 -18 10 -38 6 -57l-59 -308c-4 -17 -11 -39 -27 -57c-16 -17 -63 -59 -86 -71c-18 -10 -44 -17 -65 -17h-302c-21 0 -43 7 -57 17c-19 12 -50 54 -58 71c-9 18 -10 38 -6 57zM573 156l61 308c1 7 -10 26 -28 39c-4 3 -8 4 -10 4h-296c-2 0 -5 0 -7 -1
c-12 -6 -42 -31 -60 -49c-2 -2 -4 -6 -4 -7l-61 -308c-1 -7 10 -26 28 -39c4 -3 8 -4 10 -4h296c2 0 5 0 7 1c12 6 42 31 60 49c2 2 4 6 4 7z" />
    <glyph glyph-name="trademark" unicode="&#x2122;" horiz-adv-x="628" 
d="M601 303h-91l26 129l-29 -38h-60l-12 40l-26 -131h-92l41 209h-50l-41 -209h-92l41 209h-73l17 86h310l27 -85l58 85h104z" />
    <glyph glyph-name="acute" unicode="&#xb4;" horiz-adv-x="371" 
d="M319 488l-92 27l115 119h124z" />
    <glyph glyph-name="dieresis" unicode="&#xa8;" horiz-adv-x="363" 
d="M429 496h-97l20 103h97zM268 496h-97l20 103h97z" />
    <glyph glyph-name="notequal" unicode="&#x2260;" horiz-adv-x="486" 
d="M481 452l-55 -76h64l-18 -93h-113l-43 -58h144l-18 -92h-193l-60 -82h-115l60 82h-66l18 92h115l43 58h-146l18 93h196l55 76h114z" />
    <glyph glyph-name="AE" unicode="&#xc6;" horiz-adv-x="719" 
d="M623 0h-346l24 127h-139l-68 -127h-118l325 598h438l-20 -100h-239l-29 -151h220l-19 -100h-220l-29 -147h239zM360 498l-145 -271h106l52 271h-13z" />
    <glyph glyph-name="Oslash" unicode="&#xd8;" horiz-adv-x="571" 
d="M345 -5h-151c-17 0 -35 5 -48 11l-23 -31h-68l49 67c-12 15 -24 32 -28 42c-9 18 -9 38 -5 57l61 315c4 19 12 38 27 56c15 17 64 60 87 72c18 9 44 18 66 18h151c17 0 34 -5 48 -12l24 33h68l-51 -68c13 -15 24 -32 29 -42c9 -18 9 -38 5 -57l-61 -315
c-4 -19 -12 -38 -27 -56c-15 -17 -64 -60 -87 -72c-18 -9 -44 -18 -66 -18zM234 439l-60 -303l271 366h-143c-2 0 -4 -1 -4 -1c-14 -7 -47 -34 -60 -50c-2 -2 -3 -7 -4 -12zM419 146c2 2 3 7 4 12l59 302l-270 -365h143c2 0 4 1 4 1c14 7 47 34 60 50z" />
    <glyph glyph-name="infinity" unicode="&#x221e;" horiz-adv-x="783" 
d="M729 243c-4 -20 -11 -42 -29 -61c-10 -12 -40 -38 -57 -49c-23 -14 -52 -21 -77 -21h-84c-25 0 -51 7 -68 21c-6 4 -12 11 -19 19c-9 -8 -18 -15 -25 -19c-23 -14 -52 -21 -77 -21h-84c-25 0 -51 7 -68 21c-13 11 -34 37 -40 49c-10 19 -9 41 -5 61l3 24
c4 20 11 42 29 61c10 12 41 37 58 48c23 14 51 22 76 22h84c25 0 52 -8 69 -22c5 -5 12 -11 18 -19c9 8 19 14 26 19c23 14 51 22 76 22h84c25 0 52 -8 69 -22c13 -11 33 -36 39 -48c10 -19 9 -41 5 -61zM460 269l-7 -48c-2 -6 12 -18 20 -23c0 0 2 -1 6 -1h110c2 0 4 1 6 2
c10 5 41 26 44 34l9 48c0 1 1 5 0 7c-3 7 -13 20 -19 24c-2 1 -3 1 -5 1h-112c-2 0 -3 0 -5 -1c-14 -7 -35 -25 -44 -37c-2 -2 -3 -6 -3 -6zM187 269l-7 -48c-2 -6 12 -18 20 -23c0 0 2 -1 6 -1h110c2 0 4 1 6 2c10 5 41 26 44 34l5 28l1 6l2 11l1 3c0 1 1 5 0 7
c-3 7 -13 20 -19 24c-2 1 -3 1 -5 1h-112c-2 0 -3 0 -5 -1c-14 -7 -35 -25 -44 -37c-2 -2 -3 -6 -3 -6z" />
    <glyph glyph-name="plusminus" unicode="&#xb1;" horiz-adv-x="514" 
d="M413 -94h-383l19 94h383zM470 196h-140l-27 -139h-101l27 139h-140l18 94h140l27 141h101l-27 -141h140z" />
    <glyph glyph-name="lessequal" unicode="&#x2264;" horiz-adv-x="468" 
d="M466 389l-256 -124l209 -125l-21 -104l-332 201l13 68l412 200z" />
    <glyph glyph-name="greaterequal" unicode="&#x2265;" horiz-adv-x="468" 
d="M63 152l256 124l-209 125l21 104l332 -201l-13 -68l-412 -200z" />
    <glyph glyph-name="yen" unicode="&#xa5;" horiz-adv-x="491" 
d="M615 598l-195 -242h83l-19 -94h-130l-5 -29h130l-18 -94h-130l-27 -139h-105l27 139h-135l18 94h135l5 29h-135l19 94h85l-96 242h111l87 -222l174 222h121z" />
    <glyph glyph-name="mu" unicode="&#xb5;" horiz-adv-x="488" 
d="M413 0h-99l-2 25c-20 -13 -45 -29 -68 -29h-75c-13 0 -29 7 -36 15l-35 -172h-99c52 275 55 282 115 593h100l-60 -310c4 -11 18 -23 27 -30c2 -1 3 -1 6 -1h72c10 0 51 26 67 40l58 301h100l-66 -343z" />
    <glyph glyph-name="partialdiff" unicode="&#x2202;" horiz-adv-x="487" 
d="M488 524c9 -18 11 -40 6 -61l-65 -337c-4 -20 -11 -42 -29 -61c-10 -12 -40 -38 -57 -49c-23 -14 -52 -21 -77 -21h-94c-25 0 -51 7 -68 21c-13 11 -34 37 -40 49c-10 19 -9 41 -5 61l35 180c4 20 11 42 29 61c10 12 41 37 58 48c23 14 51 22 76 22h75
c21 0 41 -16 55 -29l13 66c1 4 1 5 -1 8c0 0 -17 25 -27 25h-115c2 0 0 94 1 94h121c24 0 49 -8 65 -22c12 -10 38 -42 44 -55zM279 90c2 0 4 1 6 2c10 5 41 26 44 34l36 178c-10 15 -37 38 -49 38h-72c-2 0 -3 0 -5 -1c-14 -7 -35 -25 -44 -37c-2 -2 -3 -6 -3 -6l-35 -184
c-2 -6 12 -18 20 -23c0 0 2 -1 6 -1h96z" />
    <glyph glyph-name="summation" unicode="&#x2211;" horiz-adv-x="506" 
d="M402 308l-197 -208h252l-19 -100h-393l16 85l217 228l-136 198l17 87h394l-20 -100h-262z" />
    <glyph glyph-name="product" unicode="&#x220f;" horiz-adv-x="559" 
d="M459 0h-105l96 498h-203l-98 -498h-105l116 598h415z" />
    <glyph glyph-name="pi" unicode="&#x3c0;" horiz-adv-x="636" 
d="M171 337h-77l18 95h526l-18 -95h-79l-49 -252l-3 -85h-101c0 20 2 74 2 74l51 263h-169l-66 -337h-100z" />
    <glyph glyph-name="integral" unicode="&#x222b;" horiz-adv-x="335" 
d="M-52 -72h74c4 0 6 1 6 1c12 7 36 24 46 38c0 0 2 3 3 7l89 458l7 33c4 22 13 44 30 63c10 11 40 38 58 49c23 14 52 21 75 21h84l-19 -93h-74c-4 0 -6 -1 -6 -1c-12 -7 -36 -24 -46 -38c0 0 -2 -3 -3 -7l-89 -458h-1l-6 -33c-4 -22 -13 -44 -30 -63
c-10 -11 -40 -38 -58 -49c-23 -14 -52 -21 -75 -21h-84z" />
    <glyph glyph-name="ordfeminine" unicode="&#xaa;" horiz-adv-x="417" 
d="M195 275c-19 0 -40 6 -53 17c-10 8 -25 28 -30 37c-8 15 -7 32 -4 48l15 78l10 50c3 16 8 33 22 48c9 9 31 28 45 37c17 10 39 17 58 17h54c9 0 22 -5 33 -10l3 9h80l-50 -257l-2 -69h-83l-2 18c-21 -12 -43 -23 -53 -23h-43zM300 525h-47c-1 0 -4 0 -6 -1
c-9 -5 -25 -20 -31 -27c-1 -2 -2 -5 -2 -5l-23 -112c0 -1 -1 -3 0 -5c3 -6 10 -13 16 -17c2 -1 4 -1 5 -1h46c2 0 5 1 7 2c9 5 26 14 34 20c2 1 4 9 4 10l21 108c0 1 1 4 0 5c-4 6 -12 17 -19 22c-1 1 -4 1 -5 1z" />
    <glyph glyph-name="ordmasculine" unicode="&#xba;" horiz-adv-x="401" 
d="M123 455l10 50c3 16 8 33 22 48c9 9 31 28 45 37c17 10 39 17 58 17h64c19 0 40 -6 53 -17c10 -8 25 -28 30 -37c8 -15 7 -32 4 -48l-25 -128c-3 -16 -8 -33 -22 -48c-9 -9 -31 -28 -45 -37c-17 -10 -39 -17 -58 -17h-64c-19 0 -40 6 -53 17c-10 8 -25 28 -30 37
c-8 15 -7 32 -4 48zM214 492l-23 -112c0 -1 -1 -3 0 -5c3 -6 10 -13 16 -17c2 -1 4 -1 5 -1h52c1 0 4 0 6 1c9 5 25 20 31 27c1 2 2 5 2 5l23 112c0 1 1 3 0 5c-3 6 -10 13 -16 17c-2 1 -4 1 -5 1h-52c-1 0 -4 0 -6 -1c-9 -5 -25 -20 -31 -27c-1 -2 -2 -5 -2 -5z" />
    <glyph glyph-name="Omega" unicode="&#x2126;" horiz-adv-x="613" 
d="M233 439l-43 -221c-3 -15 68 -104 85 -120l-19 -98h-229l19 98h107l-1 1c-27 24 -50 52 -59 69c-8 18 -9 39 -6 58l45 230c4 19 12 38 27 56c15 17 64 60 87 72c18 9 44 18 66 18h181c22 0 45 -8 59 -18c19 -12 51 -53 59 -71c9 -18 9 -38 5 -57l-45 -230
c-3 -19 -12 -40 -28 -58c-15 -17 -50 -45 -85 -69l-2 -1h108l-19 -98h-229l19 98c23 16 132 125 135 140l43 224c2 11 -19 32 -30 39c-1 1 -6 1 -7 1h-175c-2 0 -4 -1 -4 -1c-14 -7 -47 -34 -60 -50c-2 -2 -3 -7 -4 -12z" />
    <glyph glyph-name="ae" unicode="&#xe6;" horiz-adv-x="740" 
d="M695 168h-271l-8 -44l-1 -5c-2 -8 21 -29 28 -29h99c10 0 36 20 43 27l4 4l90 -29c-14 -24 -60 -63 -78 -74c-22 -13 -52 -23 -76 -23h-94c-25 0 -52 7 -69 21c-7 6 -16 16 -24 26l-30 -20c-20 -14 -50 -27 -73 -27h-82c-25 0 -51 8 -68 22c-13 11 -32 36 -38 47
c-10 18 -10 39 -6 61l3 18c5 22 14 43 30 61c10 11 39 34 56 45c23 14 51 22 76 22h138l8 37c1 2 1 7 0 9c-4 7 -14 19 -20 23c-2 1 -4 2 -6 2h-92c-12 0 -38 -24 -46 -32l-92 29c15 24 62 63 80 74c21 13 52 24 76 24h86c25 0 52 -8 69 -22c4 -4 9 -8 13 -13l19 13
c23 14 52 22 77 22h92c25 0 52 -8 69 -22c13 -11 33 -36 39 -48c10 -19 10 -41 6 -61zM317 131l10 51h-134c-3 0 -6 -1 -8 -2c-12 -7 -30 -23 -40 -35c0 0 -1 -2 -1 -3l-4 -23c0 -1 0 -2 1 -4c4 -9 13 -19 18 -23c0 0 2 -2 6 -2h82c11 0 60 32 70 41zM612 257l11 54s1 5 0 6
c-3 7 -15 20 -21 24c-2 1 -4 1 -6 1h-94c-10 0 -38 -21 -50 -36c-1 -1 -2 -6 -2 -6l-9 -43h171z" />
    <glyph glyph-name="oslash" unicode="&#xf8;" horiz-adv-x="489" 
d="M486 462l-43 -58c11 -12 23 -28 28 -37c10 -19 9 -41 5 -61l-35 -180c-4 -20 -11 -42 -29 -61c-10 -12 -40 -38 -57 -49c-23 -14 -52 -21 -77 -21h-106c-12 0 -24 2 -35 5l-26 -35h-65l46 62c-11 12 -24 29 -28 38c-10 19 -9 41 -5 61l35 180c4 20 11 42 29 61
c10 12 41 37 58 48c23 14 51 22 76 22h106c11 0 22 -2 33 -5l22 30h68zM376 310c0 1 1 4 0 6l-171 -226h86c2 0 4 1 6 2c10 5 41 26 44 34zM192 298l-35 -184v-1l171 229h-84c-2 0 -3 0 -5 -1c-14 -7 -35 -25 -44 -37c-2 -2 -3 -6 -3 -6z" />
    <glyph glyph-name="questiondown" unicode="&#xbf;" horiz-adv-x="460" 
d="M78 206c9 50 51 88 93 107c17 8 85 31 89 52l14 74h105l-15 -78c-18 -88 -99 -111 -166 -141c-9 -4 -15 -11 -17 -20l-12 -66c-1 -4 -1 -8 0 -10c7 -14 14 -24 24 -24h113c2 0 6 1 9 3c15 9 39 29 51 45l5 7l99 -31c-11 -19 -20 -29 -31 -42c-32 -36 -86 -82 -143 -82
h-116c-24 0 -50 9 -66 23c-12 10 -37 40 -44 53c-8 18 -10 40 -6 61zM295 601h121l-22 -117h-121z" />
    <glyph glyph-name="exclamdown" unicode="&#xa1;" horiz-adv-x="261" 
d="M255 487h-113l22 111h113zM156 0h-103l83 432h103z" />
    <glyph glyph-name="logicalnot" unicode="&#xac;" horiz-adv-x="514" 
d="M515 290l-44 -233h-100l27 139h-316l18 94h416h-1z" />
    <glyph glyph-name="radical" unicode="&#x221a;" horiz-adv-x="675" 
d="M767 747l-474 -910h-106l-52 359h-105l18 94h175l53 -381l435 838h56z" />
    <glyph glyph-name="florin" unicode="&#x192;" horiz-adv-x="335" 
d="M-52 -72h74c4 0 6 1 6 1c12 7 36 24 46 38c0 0 2 3 3 7l70 363h-65l18 95h66l7 33c4 22 13 44 30 63c10 11 40 38 58 49c23 14 52 21 75 21h84l-19 -93h-74c-4 0 -6 -1 -6 -1c-12 -7 -36 -24 -46 -38c0 0 -2 -3 -3 -7l-5 -27h69l-18 -95h-70l-65 -336h-1l-6 -33
c-4 -22 -13 -44 -30 -63c-10 -11 -40 -38 -58 -49c-23 -14 -52 -21 -75 -21h-84z" />
    <glyph glyph-name="approxequal" unicode="&#x2248;" horiz-adv-x="486" 
d="M441 152l-92 -18c-5 21 -12 24 -21 22l-121 -12c-55 -10 -109 11 -124 81l93 18c5 -21 11 -24 20 -22l121 13c56 10 110 -12 124 -82zM469 301l-92 -18c-5 21 -12 24 -21 22l-121 -12c-55 -10 -109 11 -124 81l93 18c5 -21 11 -24 20 -22l121 13c56 10 110 -12 124 -82z
" />
    <glyph glyph-name="Delta" unicode="&#x2206;" horiz-adv-x="559" 
d="M515 0h-539l325 598h122zM392 100l-52 363l-193 -363h245z" />
    <glyph glyph-name="guillemotleft" unicode="&#xab;" horiz-adv-x="599" 
d="M543 109l-107 -28l-129 162l182 162l103 -32l-151 -135zM320 109l-107 -28l-129 162l182 162l103 -32l-151 -135z" />
    <glyph glyph-name="guillemotright" unicode="&#xbb;" horiz-adv-x="588" 
d="M119 377l107 28l129 -162l-182 -162l-103 32l151 135zM342 377l107 28l129 -162l-182 -162l-103 32l151 135z" />
    <glyph glyph-name="ellipsis" unicode="&#x2026;" horiz-adv-x="681" 
d="M576 0h-123l24 126h123zM395 0h-123l24 126h123zM214 0h-123l24 126h123z" />
    <glyph glyph-name="nbspace" unicode="&#xa0;" horiz-adv-x="200" 
 />
    <glyph glyph-name="Agrave" unicode="&#xc0;" horiz-adv-x="549" 
d="M515 0h-106l-20 127h-227l-68 -127h-118l325 598h122zM376 227l-35 236l-126 -236h161zM457 648l-88 -25l-89 146h108z" />
    <glyph glyph-name="Atilde" unicode="&#xc3;" horiz-adv-x="549" 
d="M515 0h-106l-20 127h-227l-68 -127h-118l325 598h122zM376 227l-35 236l-126 -236h161zM536 660l-78 -23c-5 21 -25 31 -35 28l-77 -21c-52 -16 -109 11 -124 81l84 21c5 -21 20 -28 30 -25l78 21c54 16 107 -11 122 -82z" />
    <glyph glyph-name="Otilde" unicode="&#xd5;" horiz-adv-x="579" 
d="M345 -5h-151c-22 0 -45 8 -59 18c-19 12 -51 53 -59 71c-9 18 -9 38 -5 57l61 315c4 19 12 38 27 56c15 17 64 60 87 72c18 9 44 18 66 18h151c22 0 45 -8 59 -18c19 -12 51 -53 59 -71c9 -18 9 -38 5 -57l-61 -315c-4 -19 -12 -38 -27 -56c-15 -17 -64 -60 -87 -72
c-18 -9 -44 -18 -66 -18zM446 502h-144c-2 0 -4 -1 -4 -1c-14 -7 -47 -34 -60 -50c-2 -2 -3 -7 -4 -12l-60 -304c-2 -11 19 -32 30 -39c1 -1 6 -1 7 -1h144c2 0 4 1 4 1c14 7 47 34 60 50c2 2 3 7 4 12l60 304c2 11 -19 32 -30 39c-1 1 -6 1 -7 1zM566 660l-78 -23
c-5 21 -25 31 -35 28l-77 -21c-52 -16 -109 11 -124 81l84 21c5 -21 20 -28 30 -25l78 21c54 16 107 -11 122 -82z" />
    <glyph glyph-name="OE" unicode="&#x152;" horiz-adv-x="847" 
d="M750 0h-362l1 7c-16 -7 -37 -12 -54 -12h-141c-22 0 -45 8 -59 18c-19 12 -51 53 -59 71c-9 18 -9 38 -5 57l61 315c4 19 12 38 27 56c15 17 64 60 87 72c18 9 44 18 66 18h141c17 0 36 -5 49 -12l2 8h362l-20 -100h-260l-29 -151h241l-19 -100h-241l-29 -147h260z
M436 502h-134c-2 0 -4 -1 -4 -1c-14 -7 -47 -34 -60 -50c-2 -2 -3 -7 -4 -12l-60 -304c-2 -11 19 -32 30 -39c1 -1 6 -1 7 -1h134c2 0 4 1 4 1c14 7 47 34 60 50c2 2 3 7 4 12l60 304c2 11 -19 32 -30 39c-1 1 -6 1 -7 1z" />
    <glyph glyph-name="oe" unicode="&#x153;" horiz-adv-x="782" 
d="M429 126c-1 -5 -2 -7 0 -12c6 -14 20 -24 27 -24h99c10 0 36 20 43 27l4 4l90 -29c-14 -24 -60 -63 -78 -74c-22 -13 -52 -23 -76 -23h-94c-25 0 -52 7 -69 21c-4 3 -9 8 -14 13c-6 -5 -13 -10 -18 -13c-23 -14 -52 -21 -77 -21h-94c-25 0 -51 7 -68 21
c-13 11 -34 37 -40 49c-10 19 -9 41 -5 61l35 180c4 20 11 42 29 61c10 12 41 37 58 48c23 14 51 22 76 22h94c25 0 52 -8 69 -22l13 -14c7 6 14 10 19 14c23 14 52 22 77 22h92c25 0 52 -8 69 -22c13 -11 33 -36 39 -48c10 -19 10 -41 6 -61l-27 -138h-271zM192 298
l-35 -184c-2 -6 12 -18 20 -23c0 0 2 -1 6 -1h96c2 0 4 1 6 2c9 4 38 23 43 32c0 1 1 1 1 2l35 184c0 1 1 5 0 7c-3 7 -13 20 -19 24c-2 1 -3 1 -5 1h-96c-2 0 -3 0 -5 -1c-14 -7 -35 -25 -44 -37c-2 -2 -3 -6 -3 -6zM625 257l11 54s1 5 0 6c-3 7 -15 20 -21 24
c-2 1 -4 1 -6 1h-94c-10 0 -38 -21 -50 -36c-1 -1 -2 -3 -2 -5l-9 -44h171z" />
    <glyph glyph-name="endash" unicode="&#x2013;" horiz-adv-x="465" 
d="M428 196h-355l18 94h355z" />
    <glyph glyph-name="emdash" unicode="&#x2014;" horiz-adv-x="542" 
d="M515 196h-442l18 93h442z" />
    <glyph glyph-name="quotedblleft" unicode="&#x201c;" horiz-adv-x="386" 
d="M79 474l105 160h112l-126 -190zM264 474l105 160h112l-126 -190z" />
    <glyph glyph-name="quotedblright" unicode="&#x201d;" horiz-adv-x="380" 
d="M471 610l-105 -160h-112l126 190zM286 610l-105 -160h-112l126 190z" />
    <glyph glyph-name="quoteleft" unicode="&#x2018;" horiz-adv-x="222" 
d="M291 610l-105 -160h-112l126 190z" />
    <glyph glyph-name="quoteright" unicode="&#x2019;" horiz-adv-x="222" 
d="M75 480l105 160h112l-126 -190z" />
    <glyph glyph-name="divide" unicode="&#xf7;" horiz-adv-x="470" 
d="M428 196h-355l18 95h355zM343 365h-123l25 126h123zM273 0h-123l24 126h123z" />
    <glyph glyph-name="lozenge" unicode="&#x25ca;" horiz-adv-x="714" 
d="M517 283c-8 -8 -25 -25 -40 -36c-19 -13 -51 -23 -84 -23h-48l-18 -95h-89l65 336h148c22 0 43 -8 58 -20c12 -9 26 -30 31 -41c7 -16 8 -33 5 -51l-3 -16c-4 -19 -11 -37 -25 -54zM466 358c-4 10 -10 18 -18 24h-72l-15 -74h67c9 4 27 21 35 32zM71 149l59 308
c4 17 11 39 27 57c16 17 63 59 86 71c18 10 44 17 65 17h302c21 0 43 -7 57 -17c19 -12 50 -54 58 -71c9 -18 10 -38 6 -57l-59 -308c-4 -17 -11 -39 -27 -57c-16 -17 -63 -59 -86 -71c-18 -10 -44 -17 -65 -17h-302c-21 0 -43 7 -57 17c-19 12 -50 54 -58 71
c-9 18 -10 38 -6 57zM573 156l61 308c1 7 -10 26 -28 39c-4 3 -8 4 -10 4h-296c-2 0 -5 0 -7 -1c-12 -6 -42 -31 -60 -49c-2 -2 -4 -6 -4 -7l-61 -308c-1 -7 10 -26 28 -39c4 -3 8 -4 10 -4h296c2 0 5 0 7 1c12 6 42 31 60 49c2 2 4 6 4 7z" />
    <glyph glyph-name="ydieresis" unicode="&#xff;" horiz-adv-x="427" 
d="M480 432l-317 -594h-101l89 162h-9l-67 432h104l40 -294l154 294h107zM417 496h-97l20 103h97zM256 496h-97l20 103h97z" />
    <glyph glyph-name="Ydieresis" unicode="&#x178;" horiz-adv-x="520" 
d="M598 598l-264 -337l-50 -261h-105l50 261l-130 337h109l89 -227l177 227h124zM487 652h-97l20 103h97zM326 652h-97l20 103h97z" />
    <glyph glyph-name="fraction" unicode="&#x2044;" horiz-adv-x="648" 
 />
    <glyph glyph-name="currency" unicode="&#xa4;" 
d="M504 293c-4 -20 -11 -42 -29 -61c-3 -4 -8 -9 -14 -14l29 -36l-76 -64l-39 48c-11 -3 -23 -4 -34 -4h-84c-9 0 -18 0 -27 2l-61 -50l-59 75l43 36c-2 2 -3 5 -4 7c-10 19 -9 41 -5 61l3 24c4 20 11 42 29 61c3 4 10 10 17 17l-29 37l76 64l41 -51c10 2 19 3 29 3h84
c8 0 17 -1 25 -3l62 52l59 -75l-43 -36l5 -8c10 -19 9 -41 5 -61zM235 319l-7 -48c-2 -6 12 -18 20 -23c0 0 2 -1 6 -1h110c2 0 4 1 6 2c10 5 41 26 44 34l9 48c0 1 1 5 0 7c-3 7 -13 20 -19 24c-2 1 -3 1 -5 1h-112c-2 0 -3 0 -5 -1c-14 -7 -35 -25 -44 -37
c-2 -2 -3 -6 -3 -6z" />
    <glyph glyph-name="guilsinglleft" unicode="&#x2039;" horiz-adv-x="376" 
d="M320 109l-107 -28l-129 162l182 162l103 -32l-151 -135z" />
    <glyph glyph-name="guilsinglright" unicode="&#x203a;" horiz-adv-x="365" 
d="M119 377l107 28l129 -162l-182 -162l-103 32l151 135z" />
    <glyph glyph-name="fi" unicode="&#xfb01;" horiz-adv-x="556" 
d="M405 508h-87c-1 0 -7 0 -11 -2c-11 -6 -38 -25 -42 -37c-1 -3 -1 -4 -8 -37h109l-18 -95h-109l-65 -337h-100l65 337h-67l18 95h67l8 38c4 21 12 43 30 62c10 11 39 37 57 48c23 14 53 22 78 22h94zM579 493h-107l21 107h107zM484 0h-100l83 432h100z" />
    <glyph glyph-name="fl" unicode="&#xfb02;" horiz-adv-x="570" 
d="M405 508h-87c-1 0 -7 0 -11 -2c-11 -6 -38 -25 -42 -37c-1 -3 -1 -4 -8 -37h109l-18 -95h-109l-65 -337h-100l65 337h-67l18 95h67l8 38c4 21 12 43 30 62c10 11 39 37 57 48c23 14 53 22 78 22h94zM497 0h-101v74l102 524h100l-100 -513z" />
    <glyph glyph-name="daggerdbl" unicode="&#x2021;" horiz-adv-x="328" 
d="M351 337h-66l-7 -36h66l-18 -95h-66l-40 -206h-100l40 206h-65l18 95h65l7 36h-65l18 95h65l33 166h100l-33 -166h66z" />
    <glyph glyph-name="periodcentered" unicode="&#xb7;" horiz-adv-x="286" 
d="M216 196h-122l19 100h122z" />
    <glyph glyph-name="quotesinglbase" unicode="&#x201a;" horiz-adv-x="200" 
d="M182 75l-105 -160h-111l125 190z" />
    <glyph glyph-name="quotedblbase" unicode="&#x201e;" horiz-adv-x="385" 
d="M367 75l-105 -160h-112l126 190zM182 75l-105 -160h-111l125 190z" />
    <glyph glyph-name="perthousand" unicode="&#x2030;" horiz-adv-x="1172" 
d="M843 169l10 50c3 16 8 33 22 48c9 9 31 28 45 37c17 10 39 17 58 17h64c19 0 40 -6 53 -17c10 -8 25 -28 30 -37c8 -15 7 -32 4 -48l-25 -128c-3 -16 -8 -33 -22 -48c-9 -9 -31 -28 -45 -37c-17 -10 -39 -17 -58 -17h-64c-19 0 -40 6 -53 17c-10 8 -25 28 -30 37
c-8 15 -7 32 -4 48zM733 598l-447 -599h-115l448 599h114zM934 206l-23 -112c0 -1 -1 -3 0 -5c3 -6 10 -13 16 -17c2 -1 4 -1 5 -1h52c1 0 4 0 6 1c9 5 25 20 31 27c1 2 2 5 2 5l23 112c0 1 1 3 0 5c-3 6 -10 13 -16 17c-2 1 -4 1 -5 1h-52c-1 0 -4 0 -6 -1
c-9 -5 -25 -20 -31 -27c-1 -2 -2 -5 -2 -5zM123 455l10 50c3 16 8 33 22 48c9 9 31 28 45 37c17 10 39 17 58 17h64c19 0 40 -6 53 -17c10 -8 25 -28 30 -37c8 -15 7 -32 4 -48l-25 -128c-3 -16 -8 -33 -22 -48c-9 -9 -31 -28 -45 -37c-17 -10 -39 -17 -58 -17h-64
c-19 0 -40 6 -53 17c-10 8 -25 28 -30 37c-8 15 -7 32 -4 48zM214 492l-23 -112c0 -1 -1 -3 0 -5c3 -6 10 -13 16 -17c2 -1 4 -1 5 -1h52c1 0 4 0 6 1c9 5 25 20 31 27c1 2 2 5 2 5l23 112c0 1 1 3 0 5c-3 6 -10 13 -16 17c-2 1 -4 1 -5 1h-52c-1 0 -4 0 -6 -1
c-9 -5 -25 -20 -31 -27c-1 -2 -2 -5 -2 -5zM507 169l10 50c3 16 8 33 22 48c9 9 31 28 45 37c17 10 39 17 58 17h64c19 0 40 -6 53 -17c10 -8 25 -28 30 -37c8 -15 7 -32 4 -48l-25 -128c-3 -16 -8 -33 -22 -48c-9 -9 -31 -28 -45 -37c-17 -10 -39 -17 -58 -17h-64
c-19 0 -40 6 -53 17c-10 8 -25 28 -30 37c-8 15 -7 32 -4 48zM598 206l-23 -112c0 -1 -1 -3 0 -5c3 -6 10 -13 16 -17c2 -1 4 -1 5 -1h52c1 0 4 0 6 1c9 5 25 20 31 27c1 2 2 5 2 5l23 112c0 1 1 3 0 5c-3 6 -10 13 -16 17c-2 1 -4 1 -5 1h-52c-1 0 -4 0 -6 -1
c-9 -5 -25 -20 -31 -27c-1 -2 -2 -5 -2 -5z" />
    <glyph glyph-name="Acircumflex" unicode="&#xc2;" horiz-adv-x="549" 
d="M515 0h-106l-20 127h-227l-68 -127h-118l325 598h122zM376 227l-35 236l-126 -236h161zM344 637h-113l126 131h90l74 -131h-101l-28 52z" />
    <glyph glyph-name="Ecircumflex" unicode="&#xca;" horiz-adv-x="516" 
d="M328 637h-113l126 131h90l74 -131h-101l-28 52zM420 0h-376l116 598h376l-20 -100h-270l-29 -151h251l-19 -100h-251l-29 -147h270z" />
    <glyph glyph-name="Aacute" unicode="&#xc1;" horiz-adv-x="549" 
d="M515 0h-106l-20 127h-227l-68 -127h-118l325 598h122zM376 227l-35 236l-126 -236h161zM414 632l-92 27l115 119h124z" />
    <glyph glyph-name="Edieresis" unicode="&#xcb;" horiz-adv-x="516" 
d="M420 0h-376l116 598h376l-20 -100h-270l-29 -151h251l-19 -100h-251l-29 -147h270zM494 652h-97l20 103h97zM333 652h-97l20 103h97z" />
    <glyph glyph-name="Egrave" unicode="&#xc8;" horiz-adv-x="516" 
d="M420 0h-376l116 598h376l-20 -100h-270l-29 -151h251l-19 -100h-251l-29 -147h270zM447 658l-88 -25l-89 146h108z" />
    <glyph glyph-name="Iacute" unicode="&#xcd;" horiz-adv-x="240" 
d="M151 0h-107l116 598h105zM258 632l-92 27l115 119h124z" />
    <glyph glyph-name="Icircumflex" unicode="&#xce;" horiz-adv-x="240" 
d="M151 0h-107l116 598h105zM187 637h-113l126 131h90l74 -131h-101l-28 52z" />
    <glyph glyph-name="Idieresis" unicode="&#xcf;" horiz-adv-x="240" 
d="M352 653h-97l20 103h97zM191 653h-97l20 103h97zM151 0h-107l116 598h105z" />
    <glyph glyph-name="Igrave" unicode="&#xcc;" horiz-adv-x="240" 
d="M151 0h-107l116 598h105zM269 657l-88 -25l-89 146h108z" />
    <glyph glyph-name="Oacute" unicode="&#xd3;" horiz-adv-x="589" 
d="M345 -5h-151c-22 0 -45 8 -59 18c-19 12 -51 53 -59 71c-9 18 -9 38 -5 57l61 315c4 19 12 38 27 56c15 17 64 60 87 72c18 9 44 18 66 18h151c22 0 45 -8 59 -18c19 -12 51 -53 59 -71c9 -18 9 -38 5 -57l-61 -315c-4 -19 -12 -38 -27 -56c-15 -17 -64 -60 -87 -72
c-18 -9 -44 -18 -66 -18zM446 502h-144c-2 0 -4 -1 -4 -1c-14 -7 -47 -34 -60 -50c-2 -2 -3 -7 -4 -12l-60 -304c-2 -11 19 -32 30 -39c1 -1 6 -1 7 -1h144c2 0 4 1 4 1c14 7 47 34 60 50c2 2 3 7 4 12l60 304c2 11 -19 32 -30 39c-1 1 -6 1 -7 1zM387 632l-92 27l115 119
h124z" />
    <glyph glyph-name="Ocircumflex" unicode="&#xd4;" horiz-adv-x="589" 
d="M345 -5h-151c-22 0 -45 8 -59 18c-19 12 -51 53 -59 71c-9 18 -9 38 -5 57l61 315c4 19 12 38 27 56c15 17 64 60 87 72c18 9 44 18 66 18h151c22 0 45 -8 59 -18c19 -12 51 -53 59 -71c9 -18 9 -38 5 -57l-61 -315c-4 -19 -12 -38 -27 -56c-15 -17 -64 -60 -87 -72
c-18 -9 -44 -18 -66 -18zM446 502h-144c-2 0 -4 -1 -4 -1c-14 -7 -47 -34 -60 -50c-2 -2 -3 -7 -4 -12l-60 -304c-2 -11 19 -32 30 -39c1 -1 6 -1 7 -1h144c2 0 4 1 4 1c14 7 47 34 60 50c2 2 3 7 4 12l60 304c2 11 -19 32 -30 39c-1 1 -6 1 -7 1zM370 637h-113l126 131h90
l74 -131h-101l-28 52z" />
    <glyph glyph-name="Ograve" unicode="&#xd2;" horiz-adv-x="587" 
d="M345 -5h-151c-22 0 -45 8 -59 18c-19 12 -51 53 -59 71c-9 18 -9 38 -5 57l61 315c4 19 12 38 27 56c15 17 64 60 87 72c18 9 44 18 66 18h151c22 0 45 -8 59 -18c19 -12 51 -53 59 -71c9 -18 9 -38 5 -57l-61 -315c-4 -19 -12 -38 -27 -56c-15 -17 -64 -60 -87 -72
c-18 -9 -44 -18 -66 -18zM446 502h-144c-2 0 -4 -1 -4 -1c-14 -7 -47 -34 -60 -50c-2 -2 -3 -7 -4 -12l-60 -304c-2 -11 19 -32 30 -39c1 -1 6 -1 7 -1h144c2 0 4 1 4 1c14 7 47 34 60 50c2 2 3 7 4 12l60 304c2 11 -19 32 -30 39c-1 1 -6 1 -7 1zM481 657l-88 -25l-89 146
h108z" />
    <glyph glyph-name="Uacute" unicode="&#xda;" 
d="M474 598h105l-89 -457c-4 -19 -12 -38 -27 -56c-15 -17 -64 -60 -87 -72c-18 -9 -44 -18 -66 -18h-125c-22 0 -45 8 -59 18c-19 12 -51 53 -59 71c-9 18 -9 38 -5 57l89 457h105l-91 -463c-2 -11 19 -32 30 -39c1 -1 6 -1 7 -1h118c2 0 4 1 4 1c14 7 47 34 60 50
c2 2 3 7 4 12zM377 632l-92 27l115 119h124z" />
    <glyph glyph-name="Ucircumflex" unicode="&#xdb;" 
d="M474 598h105l-89 -457c-4 -19 -12 -38 -27 -56c-15 -17 -64 -60 -87 -72c-18 -9 -44 -18 -66 -18h-125c-22 0 -45 8 -59 18c-19 12 -51 53 -59 71c-9 18 -9 38 -5 57l89 457h105l-91 -463c-2 -11 19 -32 30 -39c1 -1 6 -1 7 -1h118c2 0 4 1 4 1c14 7 47 34 60 50
c2 2 3 7 4 12zM346 637h-113l126 131h90l74 -131h-101l-28 52z" />
    <glyph glyph-name="Ugrave" unicode="&#xd9;" 
d="M474 598h105l-89 -457c-4 -19 -12 -38 -27 -56c-15 -17 -64 -60 -87 -72c-18 -9 -44 -18 -66 -18h-125c-22 0 -45 8 -59 18c-19 12 -51 53 -59 71c-9 18 -9 38 -5 57l89 457h105l-91 -463c-2 -11 19 -32 30 -39c1 -1 6 -1 7 -1h118c2 0 4 1 4 1c14 7 47 34 60 50
c2 2 3 7 4 12zM466 657l-88 -25l-89 146h108z" />
    <glyph glyph-name="dotlessi" unicode="&#x131;" horiz-adv-x="216" 
d="M143 -1h-100l84 431h100z" />
    <glyph glyph-name="circumflex" unicode="&#x2c6;" horiz-adv-x="424" 
d="M274 493h-113l126 131h90l74 -131h-101l-28 52z" />
    <glyph glyph-name="tilde" unicode="&#x2dc;" horiz-adv-x="462" 
d="M476 520l-78 -23c-5 21 -25 31 -35 28l-77 -21c-52 -16 -109 11 -124 81l84 21c5 -21 20 -28 30 -25l78 21c54 16 107 -11 122 -82z" />
    <glyph glyph-name="macron" unicode="&#xaf;" horiz-adv-x="355" 
d="M366 509h-227l18 89h227z" />
    <glyph glyph-name="breve" unicode="&#x2d8;" horiz-adv-x="356" 
d="M325 596h59c-11 -58 -64 -104 -123 -104c-53 0 -96 46 -85 104h57c-5 -26 7 -48 33 -48s54 22 59 48z" />
    <glyph glyph-name="dotaccent" unicode="&#x2d9;" horiz-adv-x="216" 
d="M244 494h-107l20 107h107z" />
    <glyph glyph-name="ring" unicode="&#x2da;" horiz-adv-x="492" 
d="M384 592c-11 -58 -55 -99 -114 -99c-56 0 -104 49 -93 107c11 55 57 97 116 97c56 0 102 -50 91 -105zM326 596c5 24 -10 45 -36 45s-51 -21 -56 -45c-5 -26 12 -48 38 -48s49 22 54 48z" />
    <glyph glyph-name="cedilla" unicode="&#xb8;" horiz-adv-x="406" 
d="M281 -73l-104 -125h-113l126 154z" />
    <glyph glyph-name="hungarumlaut" unicode="&#x2dd;" horiz-adv-x="371" 
d="M448 483l-64 22l115 119h94zM311 483l-64 22l115 119h94z" />
    <glyph glyph-name="ogonek" unicode="&#x2db;" horiz-adv-x="406" 
d="M154 -198l-56 125l103 29l66 -154h-113z" />
    <glyph glyph-name="caron" unicode="&#x2c7;" horiz-adv-x="424" 
d="M355 624h112l-124 -131h-94l-72 131h102l27 -57z" />
    <glyph glyph-name="NUL" horiz-adv-x="500" 
 />
    <glyph glyph-name="apple" unicode="&#xf8ff;" horiz-adv-x="500" 
 />
    <glyph glyph-name="Euro" unicode="&#x20ac;" horiz-adv-x="578" 
d="M506 116c-11 -18 -18 -27 -28 -38c-33 -35 -87 -83 -143 -83h-125c-22 0 -45 8 -59 18c-19 12 -51 53 -59 71c-9 18 -9 38 -5 57l9 49h-32l17 90h33l7 36h-33l18 91h32l10 49c4 19 12 38 27 56c15 17 64 60 87 72c18 9 44 18 66 18h125c56 0 91 -49 110 -83
c6 -11 9 -19 15 -35l-100 -28s-23 36 -36 45c-1 1 -3 1 -4 1h-120c-2 0 -4 -1 -4 -1c-14 -7 -47 -34 -60 -50c-2 -2 -3 -7 -4 -12l-6 -32h215l-18 -91h-215l-7 -36h215l-17 -90h-216l-11 -55c-2 -11 19 -32 30 -39c1 -1 6 -1 7 -1h118c1 0 3 0 5 1c23 10 54 48 54 48z" />
    <glyph glyph-name="Scaron" unicode="&#x160;" horiz-adv-x="571" 
d="M513 142c-3 -17 -10 -39 -27 -57c-15 -18 -64 -60 -87 -72c-18 -9 -44 -18 -65 -18h-159c-56 0 -92 48 -111 83c-6 11 -7 16 -12 31l98 31s15 -26 35 -44c0 0 2 -1 7 -1h150c4 0 6 1 6 1c17 8 60 45 61 53l12 57c2 9 -4 16 -9 17l-247 67c-49 14 -66 63 -57 109l11 56
c3 17 11 39 26 57c16 18 65 60 88 72c18 9 44 18 66 18h148c57 0 91 -49 110 -83c6 -11 9 -20 14 -35l-99 -27s-17 31 -35 44c0 0 -1 1 -6 1h-140c-4 0 -6 -1 -6 -1c-18 -8 -61 -46 -62 -54l-10 -48c-2 -9 3 -16 7 -17l249 -69c48 -14 65 -64 56 -109zM435 769h112
l-124 -131h-94l-72 131h102l27 -57z" />
    <glyph glyph-name="scaron" unicode="&#x161;" horiz-adv-x="469" 
d="M128 120l2 -4c5 -10 21 -25 31 -26h114c12 0 46 27 49 41l4 20c1 5 0 13 -11 14c-34 3 -104 10 -160 15c-52 4 -87 38 -74 102l5 27c4 22 13 43 29 61c36 40 79 67 129 67h96c24 0 52 -10 68 -23c14 -11 45 -50 51 -74l-93 -26l-2 4c-4 8 -17 24 -27 24h-104s-9 0 -13 -2
c-5 -2 -25 -17 -33 -28c0 0 -1 -2 -3 -10l-3 -20c-1 -3 2 -12 12 -13c25 -3 99 -11 153 -17c53 -6 92 -38 79 -104l-4 -24c-5 -22 -15 -43 -31 -61c-11 -12 -36 -35 -54 -46c-23 -14 -50 -22 -75 -22h-108c-24 0 -51 11 -68 24c-14 11 -44 50 -49 74zM367 624h112l-124 -131
h-94l-72 131h102l27 -57z" />
    <glyph glyph-name="thorn" unicode="&#xfe;" horiz-adv-x="491" 
d="M257 600l-37 -186c19 12 43 23 65 23h73c25 0 52 -8 69 -22c13 -11 33 -36 39 -48c10 -19 9 -41 5 -61l-35 -180c-4 -20 -11 -42 -29 -61c-10 -12 -40 -38 -57 -49c-23 -14 -52 -21 -77 -21h-73c-21 0 -40 11 -55 23l-35 -181h-100l148 763h99zM286 90c2 0 4 1 6 2
c10 5 41 26 44 34l35 184c0 1 1 5 0 7c-3 7 -13 20 -19 24c-2 1 -3 1 -5 1h-77c-11 0 -55 -30 -71 -45l-32 -171c10 -15 34 -36 46 -36h73z" />
    <glyph glyph-name="Thorn" unicode="&#xde;" horiz-adv-x="537" 
d="M518 256c-4 -22 -15 -43 -30 -61c-12 -13 -48 -43 -64 -53c-24 -15 -52 -22 -76 -22h-175l-24 -120h-106v-1v1l117 598h105l-23 -116h177c24 0 49 -8 66 -22c13 -10 37 -42 44 -55c8 -18 10 -40 6 -61zM415 265l18 87s1 4 0 7c-4 11 -14 22 -21 23h-188l-31 -162h166
c9 0 41 22 51 36c0 0 4 5 5 9z" />
    <glyph glyph-name="Sacute" unicode="&#x15a;" horiz-adv-x="571" 
d="M513 142c-3 -17 -10 -39 -27 -57c-15 -18 -64 -60 -87 -72c-18 -9 -44 -18 -65 -18h-159c-56 0 -92 48 -111 83c-6 11 -7 16 -12 31l98 31s15 -26 35 -44c0 0 2 -1 7 -1h150c4 0 6 1 6 1c17 8 60 45 61 53l12 57c2 9 -4 16 -9 17l-247 67c-49 14 -66 63 -57 109l11 56
c3 17 11 39 26 57c16 18 65 60 88 72c18 9 44 18 66 18h148c57 0 91 -49 110 -83c6 -11 9 -20 14 -35l-99 -27s-17 31 -35 44c0 0 -1 1 -6 1h-140c-4 0 -6 -1 -6 -1c-18 -8 -61 -46 -62 -54l-10 -48c-2 -9 3 -16 7 -17l249 -69c48 -14 65 -64 56 -109zM387 632l-92 27
l115 119h124z" />
    <glyph glyph-name="Tcaron" unicode="&#x164;" horiz-adv-x="509" 
d="M542 498h-161l-96 -498h-106l96 498h-162l20 100h429zM409 768h112l-124 -131h-94l-72 131h102l27 -57z" />
    <glyph glyph-name="Zacute" unicode="&#x179;" horiz-adv-x="491" 
d="M423 0h-394l16 85l340 413h-260l20 100h394l-17 -87l-336 -411h256zM365 632l-92 27l115 119h124z" />
    <glyph glyph-name="sacute" unicode="&#x15b;" horiz-adv-x="469" 
d="M128 120l2 -4c5 -10 21 -25 31 -26h114c12 0 46 27 49 41l4 20c1 5 0 13 -11 14c-34 3 -104 10 -160 15c-52 4 -87 38 -74 102l5 27c4 22 13 43 29 61c36 40 79 67 129 67h96c24 0 52 -10 68 -23c14 -11 45 -50 51 -74l-93 -26l-2 4c-4 8 -17 24 -27 24h-104s-9 0 -13 -2
c-5 -2 -25 -17 -33 -28c0 0 -1 -2 -3 -10l-3 -20c-1 -3 2 -12 12 -13c25 -3 99 -11 153 -17c53 -6 92 -38 79 -104l-4 -24c-5 -22 -15 -43 -31 -61c-11 -12 -36 -35 -54 -46c-23 -14 -50 -22 -75 -22h-108c-24 0 -51 11 -68 24c-14 11 -44 50 -49 74zM318 488l-92 27
l115 119h124z" />
    <glyph glyph-name="tcaron" unicode="&#x165;" horiz-adv-x="496" 
d="M575 500l-22 -68h-99l25 81l25 127h98zM232 337l-38 -199s-1 -5 0 -8c4 -11 22 -35 36 -35h68l-18 -95h-74c-25 0 -51 7 -68 21c-14 11 -33 38 -39 49c-9 19 -11 41 -7 63l40 204h-67l18 95h67l33 166h100l-33 -166h124l-18 -95h-124z" />
    <glyph glyph-name="zacute" unicode="&#x17a;" horiz-adv-x="444" 
d="M379 0h-344l15 81l246 256h-204l18 95h342l-15 -82l-247 -255h207zM319 488l-92 27l115 119h124z" />
    <glyph glyph-name="Aogonek" unicode="&#x104;" horiz-adv-x="549" 
d="M432 -198l-56 125l103 29l66 -154h-113zM515 0h-106l-20 127h-227l-68 -127h-118l325 598h122zM376 227l-35 236l-126 -236h161z" />
    <glyph glyph-name="Scommaaccent" unicode="&#x218;" horiz-adv-x="571" 
d="M335 -90l-104 -125h-113l126 154zM513 142c-3 -17 -10 -39 -27 -57c-15 -18 -64 -60 -87 -72c-18 -9 -44 -18 -65 -18h-159c-56 0 -92 48 -111 83c-6 11 -7 16 -12 31l98 31s15 -26 35 -44c0 0 2 -1 7 -1h150c4 0 6 1 6 1c17 8 60 45 61 53l12 57c2 9 -4 16 -9 17
l-247 67c-49 14 -66 63 -57 109l11 56c3 17 11 39 26 57c16 18 65 60 88 72c18 9 44 18 66 18h148c57 0 91 -49 110 -83c6 -11 9 -20 14 -35l-99 -27s-17 31 -35 44c0 0 -1 1 -6 1h-140c-4 0 -6 -1 -6 -1c-18 -8 -61 -46 -62 -54l-10 -48c-2 -9 3 -16 7 -17l249 -69
c48 -14 65 -64 56 -109z" />
    <glyph glyph-name="Zdotaccent" unicode="&#x17b;" horiz-adv-x="491" 
d="M423 0h-394l16 85l340 413h-260l20 100h394l-17 -87l-336 -411h256zM404 638h-107l20 107h107z" />
    <glyph glyph-name="aogonek" unicode="&#x105;" horiz-adv-x="482" 
d="M308 -198l-56 125l103 29l66 -154h-113zM344 271l8 41s1 4 0 5c-3 7 -14 19 -20 23c-2 1 -4 2 -6 2h-92c-12 0 -38 -24 -46 -32l-92 29c15 24 62 63 80 74c21 13 52 24 76 24h86c25 0 52 -8 69 -22c13 -11 33 -35 39 -47c10 -19 9 -42 5 -62l-42 -218l-2 -88h-99l-7 22
c-20 -13 -43 -27 -66 -27h-82c-25 0 -51 8 -68 22c-13 11 -32 36 -38 47c-10 18 -10 39 -6 61l3 18c5 22 14 43 30 61c10 11 39 34 56 45c23 14 51 22 76 22h138zM317 131l10 51h-134c-3 0 -6 -1 -8 -2c-12 -7 -30 -23 -40 -35c0 0 -1 -2 -1 -3l-4 -23c0 -1 0 -2 1 -4
c4 -9 13 -19 18 -23c0 0 2 -2 6 -2h82c11 0 60 32 70 41z" />
    <glyph glyph-name="scommaaccent" unicode="&#x219;" horiz-adv-x="469" 
d="M281 -73l-104 -125h-113l126 154zM128 120l2 -4c5 -10 21 -25 31 -26h114c12 0 46 27 49 41l4 20c1 5 0 13 -11 14c-34 3 -104 10 -160 15c-52 4 -87 38 -74 102l5 27c4 22 13 43 29 61c36 40 79 67 129 67h96c24 0 52 -10 68 -23c14 -11 45 -50 51 -74l-93 -26l-2 4
c-4 8 -17 24 -27 24h-104s-9 0 -13 -2c-5 -2 -25 -17 -33 -28c0 0 -1 -2 -3 -10l-3 -20c-1 -3 2 -12 12 -13c25 -3 99 -11 153 -17c53 -6 92 -38 79 -104l-4 -24c-5 -22 -15 -43 -31 -61c-11 -12 -36 -35 -54 -46c-23 -14 -50 -22 -75 -22h-108c-24 0 -51 11 -68 24
c-14 11 -44 50 -49 74z" />
    <glyph glyph-name="Lcaron" unicode="&#x13d;" horiz-adv-x="480" 
d="M433 500l-22 -68h-99l25 81l25 127h98zM414 0h-370l116 598h106l-97 -498h264z" />
    <glyph glyph-name="lcaron" unicode="&#x13e;" horiz-adv-x="326" 
d="M408 500l-22 -68h-99l25 81l25 127h98zM155 0h-101v74l102 524h100l-100 -513z" />
    <glyph glyph-name="zdotaccent" unicode="&#x17c;" horiz-adv-x="444" 
d="M379 0h-344l15 81l246 256h-204l18 95h342l-15 -82l-247 -255h207zM362 494h-107l20 107h107z" />
    <glyph glyph-name="Racute" unicode="&#x154;" horiz-adv-x="579" 
d="M540 372c-4 -22 -15 -43 -30 -61c-12 -13 -48 -43 -64 -53c-12 -8 -25 -13 -38 -17l91 -241h-110l-86 236h-108l-45 -236h-106l116 598h281c24 0 49 -8 66 -22c13 -10 37 -42 44 -55c8 -18 10 -40 6 -61zM437 381l18 87s1 4 0 7c-4 11 -14 22 -21 23h-188l-31 -162h166
c9 0 41 22 51 36c0 0 4 5 5 9zM376 632l-92 27l115 119h124z" />
    <glyph glyph-name="Abreve" unicode="&#x102;" horiz-adv-x="549" 
d="M515 0h-106l-20 127h-227l-68 -127h-118l325 598h122zM376 227l-35 236l-126 -236h161zM437 751h59c-11 -58 -64 -104 -123 -104c-53 0 -96 46 -85 104h57c-5 -26 7 -48 33 -48s54 22 59 48z" />
    <glyph glyph-name="Lacute" unicode="&#x139;" horiz-adv-x="480" 
d="M414 0h-370l116 598h106l-97 -498h264zM276 632l-92 27l115 119h124z" />
    <glyph glyph-name="Cacute" unicode="&#x106;" horiz-adv-x="553" 
d="M490 116c-11 -18 -18 -27 -28 -38c-33 -35 -87 -83 -143 -83h-125c-22 0 -45 8 -59 18c-19 12 -51 53 -59 71c-9 18 -9 38 -5 57l61 315c4 19 12 38 27 56c15 17 64 60 87 72c18 9 44 18 66 18h125c56 0 91 -49 110 -83c6 -11 9 -19 15 -35l-100 -28s-23 36 -36 45
c-1 1 -3 1 -4 1h-120c-2 0 -4 -1 -4 -1c-14 -7 -47 -34 -60 -50c-2 -2 -3 -7 -4 -12l-60 -304c-2 -11 19 -32 30 -39c1 -1 6 -1 7 -1h118c1 0 3 0 5 1c23 10 54 48 54 48zM392 632l-92 27l115 119h124z" />
    <glyph glyph-name="Ccaron" unicode="&#x10c;" horiz-adv-x="553" 
d="M490 116c-11 -18 -18 -27 -28 -38c-33 -35 -87 -83 -143 -83h-125c-22 0 -45 8 -59 18c-19 12 -51 53 -59 71c-9 18 -9 38 -5 57l61 315c4 19 12 38 27 56c15 17 64 60 87 72c18 9 44 18 66 18h125c56 0 91 -49 110 -83c6 -11 9 -19 15 -35l-100 -28s-23 36 -36 45
c-1 1 -3 1 -4 1h-120c-2 0 -4 -1 -4 -1c-14 -7 -47 -34 -60 -50c-2 -2 -3 -7 -4 -12l-60 -304c-2 -11 19 -32 30 -39c1 -1 6 -1 7 -1h118c1 0 3 0 5 1c23 10 54 48 54 48zM439 769h112l-124 -131h-94l-72 131h102l27 -57z" />
    <glyph glyph-name="Eogonek" unicode="&#x118;" horiz-adv-x="516" 
d="M420 0h-376l116 598h376l-20 -100h-270l-29 -151h251l-19 -100h-251l-29 -147h270zM285 -169l-56 125l103 29l66 -154h-113z" />
    <glyph glyph-name="Ecaron" unicode="&#x11a;" horiz-adv-x="516" 
d="M420 0h-376l116 598h376l-20 -100h-270l-29 -151h251l-19 -100h-251l-29 -147h270zM412 767h112l-124 -131h-94l-72 131h102l27 -57z" />
    <glyph glyph-name="Dcaron" unicode="&#x10e;" horiz-adv-x="563" 
d="M495 145c-4 -18 -11 -39 -26 -57c-16 -18 -64 -58 -88 -70c-18 -9 -42 -18 -63 -18h-274l116 598h274c19 0 43 -6 57 -17c20 -13 50 -56 58 -73c10 -18 9 -38 5 -57zM168 100h153c2 0 6 1 10 3c16 8 58 39 60 51l58 296c1 4 1 9 -1 14c-6 15 -20 28 -26 32
c-3 2 -8 2 -10 2h-167zM419 767h112l-124 -131h-94l-72 131h102l27 -57z" />
    <glyph glyph-name="Nacute" unicode="&#x143;" horiz-adv-x="567" 
d="M447 0h-111l-129 398l-78 -398h-105l116 598h113l126 -403l79 403h105zM375 632l-92 27l115 119h124z" />
    <glyph glyph-name="Ncaron" unicode="&#x147;" horiz-adv-x="567" 
d="M447 0h-111l-129 398l-78 -398h-105l116 598h113l126 -403l79 403h105zM432 767h112l-124 -131h-94l-72 131h102l27 -57z" />
    <glyph glyph-name="Ohungarumlaut" unicode="&#x150;" horiz-adv-x="589" 
d="M345 -5h-151c-22 0 -45 8 -59 18c-19 12 -51 53 -59 71c-9 18 -9 38 -5 57l61 315c4 19 12 38 27 56c15 17 64 60 87 72c18 9 44 18 66 18h151c22 0 45 -8 59 -18c19 -12 51 -53 59 -71c9 -18 9 -38 5 -57l-61 -315c-4 -19 -12 -38 -27 -56c-15 -17 -64 -60 -87 -72
c-18 -9 -44 -18 -66 -18zM446 502h-144c-2 0 -4 -1 -4 -1c-14 -7 -47 -34 -60 -50c-2 -2 -3 -7 -4 -12l-60 -304c-2 -11 19 -32 30 -39c1 -1 6 -1 7 -1h144c2 0 4 1 4 1c14 7 47 34 60 50c2 2 3 7 4 12l60 304c2 11 -19 32 -30 39c-1 1 -6 1 -7 1zM451 627l-64 22l115 119
h94zM314 627l-64 22l115 119h94z" />
    <glyph glyph-name="Rcaron" unicode="&#x158;" horiz-adv-x="579" 
d="M540 372c-4 -22 -15 -43 -30 -61c-12 -13 -48 -43 -64 -53c-12 -8 -25 -13 -38 -17l91 -241h-110l-86 236h-108l-45 -236h-106l116 598h281c24 0 49 -8 66 -22c13 -10 37 -42 44 -55c8 -18 10 -40 6 -61zM437 381l18 87s1 4 0 7c-4 11 -14 22 -21 23h-188l-31 -162h166
c9 0 41 22 51 36c0 0 4 5 5 9zM420 768h112l-124 -131h-94l-72 131h102l27 -57z" />
    <glyph glyph-name="Uring" unicode="&#x16e;" 
d="M474 598h105l-89 -457c-4 -19 -12 -38 -27 -56c-15 -17 -64 -60 -87 -72c-18 -9 -44 -18 -66 -18h-125c-22 0 -45 8 -59 18c-19 12 -51 53 -59 71c-9 18 -9 38 -5 57l89 457h105l-91 -463c-2 -11 19 -32 30 -39c1 -1 6 -1 7 -1h118c2 0 4 1 4 1c14 7 47 34 60 50
c2 2 3 7 4 12zM495 736c-11 -58 -55 -99 -114 -99c-56 0 -104 49 -93 107c11 55 57 97 116 97c56 0 102 -50 91 -105zM437 740c5 24 -10 45 -36 45s-51 -21 -56 -45c-5 -26 12 -48 38 -48s49 22 54 48z" />
    <glyph glyph-name="Uhungarumlaut" unicode="&#x170;" 
d="M474 598h105l-89 -457c-4 -19 -12 -38 -27 -56c-15 -17 -64 -60 -87 -72c-18 -9 -44 -18 -66 -18h-125c-22 0 -45 8 -59 18c-19 12 -51 53 -59 71c-9 18 -9 38 -5 57l89 457h105l-91 -463c-2 -11 19 -32 30 -39c1 -1 6 -1 7 -1h118c2 0 4 1 4 1c14 7 47 34 60 50
c2 2 3 7 4 12zM400 627l-64 22l115 119h94zM263 627l-64 22l115 119h94z" />
    <glyph glyph-name="Tcommaaccent" unicode="&#x162;" horiz-adv-x="509" 
d="M300 -73l-104 -125h-113l126 154zM542 498h-161l-96 -498h-106l96 498h-162l20 100h429z" />
    <glyph glyph-name="racute" unicode="&#x155;" horiz-adv-x="416" 
d="M461 338l-94 -27c0 1 -1 2 -2 4c-5 7 -19 28 -29 27h-64c-23 0 -58 -30 -73 -45l-58 -297h-100l66 343l6 89h98l3 -24c20 13 46 29 69 29h60c24 0 51 -12 68 -25c13 -11 45 -50 50 -74zM316 489l-92 27l115 119h124z" />
    <glyph glyph-name="abreve" unicode="&#x103;" horiz-adv-x="482" 
d="M344 271l8 41s1 4 0 5c-3 7 -14 19 -20 23c-2 1 -4 2 -6 2h-92c-12 0 -38 -24 -46 -32l-92 29c15 24 62 63 80 74c21 13 52 24 76 24h86c25 0 52 -8 69 -22c13 -11 33 -35 39 -47c10 -19 9 -42 5 -62l-42 -218l-2 -88h-99l-7 22c-20 -13 -43 -27 -66 -27h-82
c-25 0 -51 8 -68 22c-13 11 -32 36 -38 47c-10 18 -10 39 -6 61l3 18c5 22 14 43 30 61c10 11 39 34 56 45c23 14 51 22 76 22h138zM317 131l10 51h-134c-3 0 -6 -1 -8 -2c-12 -7 -30 -23 -40 -35c0 0 -1 -2 -1 -3l-4 -23c0 -1 0 -2 1 -4c4 -9 13 -19 18 -23c0 0 2 -2 6 -2
h82c11 0 60 32 70 41zM373 596h59c-11 -58 -64 -104 -123 -104c-53 0 -96 46 -85 104h57c-5 -26 7 -48 33 -48s54 22 59 48z" />
    <glyph glyph-name="lacute" unicode="&#x13a;" horiz-adv-x="230" 
d="M155 0h-101v74l102 524h100l-100 -513zM269 632l-92 27l115 119h124z" />
    <glyph glyph-name="cacute" unicode="&#x107;" horiz-adv-x="477" 
d="M193 298l-35 -179s0 -3 1 -6c4 -9 13 -17 19 -21c0 0 4 -2 6 -2h101c10 0 35 20 42 27l4 4l92 -29c-14 -24 -60 -63 -78 -74c-22 -13 -52 -23 -76 -23h-96c-25 0 -52 7 -69 21c-13 11 -33 37 -39 49c-10 19 -10 41 -6 61l35 180c4 20 12 42 30 61c10 12 40 37 57 48
c23 14 52 22 77 22h92c24 0 51 -12 68 -25c13 -11 45 -50 50 -74l-93 -27l-2 4c-5 7 -22 27 -32 27h-93c-2 0 -7 -1 -9 -2c-14 -7 -35 -22 -43 -34c-2 -3 -3 -8 -3 -8zM318 488l-92 27l115 119h124z" />
    <glyph glyph-name="ccaron" unicode="&#x10d;" horiz-adv-x="477" 
d="M193 298l-35 -179s0 -3 1 -6c4 -9 13 -17 19 -21c0 0 4 -2 6 -2h101c10 0 35 20 42 27l4 4l92 -29c-14 -24 -60 -63 -78 -74c-22 -13 -52 -23 -76 -23h-96c-25 0 -52 7 -69 21c-13 11 -33 37 -39 49c-10 19 -10 41 -6 61l35 180c4 20 12 42 30 61c10 12 40 37 57 48
c23 14 52 22 77 22h92c24 0 51 -12 68 -25c13 -11 45 -50 50 -74l-93 -27l-2 4c-5 7 -22 27 -32 27h-93c-2 0 -7 -1 -9 -2c-14 -7 -35 -22 -43 -34c-2 -3 -3 -8 -3 -8zM371 624h112l-124 -131h-94l-72 131h102l27 -57z" />
    <glyph glyph-name="eogonek" unicode="&#x119;" horiz-adv-x="481" 
d="M164 -198l-56 125l103 29l66 -154h-113zM436 168h-271l-9 -47v-5c6 -15 21 -26 28 -26h99c10 0 36 20 43 27l4 4l90 -29c-14 -24 -60 -63 -78 -74c-22 -13 -52 -23 -76 -23h-94c-25 0 -52 7 -69 21c-13 11 -33 37 -39 48c-10 18 -11 40 -7 62l35 180c4 22 14 43 31 61
c10 11 40 37 57 48c23 14 52 22 77 22h92c25 0 52 -8 69 -22c13 -11 33 -36 39 -48c10 -19 10 -41 6 -61zM353 257l11 54s1 5 0 6c-3 7 -15 20 -21 24c-2 1 -4 1 -6 1h-94c-10 0 -38 -21 -50 -36c-1 -1 -2 -6 -2 -6l-9 -43h171z" />
    <glyph glyph-name="ecaron" unicode="&#x11b;" horiz-adv-x="481" 
d="M436 168h-271l-9 -47v-5c6 -15 21 -26 28 -26h99c10 0 36 20 43 27l4 4l90 -29c-14 -24 -60 -63 -78 -74c-22 -13 -52 -23 -76 -23h-94c-25 0 -52 7 -69 21c-13 11 -33 37 -39 48c-10 18 -11 40 -7 62l35 180c4 22 14 43 31 61c10 11 40 37 57 48c23 14 52 22 77 22h92
c25 0 52 -8 69 -22c13 -11 33 -36 39 -48c10 -19 10 -41 6 -61zM353 257l11 54s1 5 0 6c-3 7 -15 20 -21 24c-2 1 -4 1 -6 1h-94c-10 0 -38 -21 -50 -36c-1 -1 -2 -6 -2 -6l-9 -43h171zM370 624h112l-124 -131h-94l-72 131h102l27 -57z" />
    <glyph glyph-name="dcaron" unicode="&#x10f;" horiz-adv-x="582" 
d="M672 500l-22 -68h-99l25 81l25 127h98zM414 0h-98l-2 22c-21 -14 -46 -27 -70 -27h-72c-25 0 -52 8 -68 22c-13 11 -33 37 -39 49c-9 19 -10 40 -6 62l35 177c4 22 13 44 30 62c10 11 39 38 57 49c23 14 51 21 76 21h72c21 0 40 -14 55 -26l36 187h100l-99 -509zM331 140
l31 164c-10 15 -37 38 -49 38h-68c-3 0 -5 0 -6 -1c-13 -7 -35 -25 -45 -37c0 0 -1 -2 -2 -5l-33 -176c-1 -4 0 -6 0 -6c3 -9 14 -20 19 -25c2 -2 4 -2 6 -2h70c11 0 61 35 77 50z" />
    <glyph glyph-name="dcroat" unicode="&#x111;" horiz-adv-x="495" 
d="M414 0h-98l-2 22c-21 -14 -46 -27 -70 -27h-72c-25 0 -52 8 -68 22c-13 11 -33 37 -39 49c-9 19 -10 40 -6 62l35 177c4 22 13 44 30 62c10 11 39 38 57 49c23 14 51 21 76 21h72c21 0 40 -14 55 -26l11 59h-132l19 90h130l8 38h100l-8 -38h32l-19 -90h-30l-74 -381z
M331 140l31 164c-10 15 -37 38 -49 38h-68c-3 0 -5 0 -6 -1c-13 -7 -35 -25 -45 -37c0 0 -1 -2 -2 -5l-33 -176c-1 -4 0 -6 0 -6c3 -9 14 -20 19 -25c2 -2 4 -2 6 -2h70c11 0 61 35 77 50z" />
    <glyph glyph-name="Dcroat" unicode="&#x110;" horiz-adv-x="583" 
d="M515 145c-4 -18 -11 -39 -26 -57c-16 -18 -64 -58 -88 -70c-18 -9 -42 -18 -63 -18h-274l49 252h-76l19 94h75l49 252h274c19 0 43 -6 57 -17c20 -13 50 -56 58 -73c10 -18 9 -38 5 -57zM188 100h153c2 0 6 1 10 3c16 8 58 39 60 51l58 296c1 4 1 9 -1 14
c-6 15 -20 28 -26 32c-3 2 -8 2 -10 2h-167l-30 -152h104l-19 -94h-103z" />
    <glyph glyph-name="nacute" unicode="&#x144;" horiz-adv-x="495" 
d="M412 0h-100l60 312v6c-3 8 -14 19 -19 23c-1 1 -5 1 -8 1h-72c-19 0 -57 -31 -73 -45l-57 -297h-100l66 343l5 89h98l3 -23c21 13 45 28 68 28h74c25 0 52 -8 69 -22c13 -11 33 -36 39 -48c10 -19 10 -41 6 -61zM319 488l-92 27l115 119h124z" />
    <glyph glyph-name="ncaron" unicode="&#x148;" horiz-adv-x="495" 
d="M412 0h-100l60 312v6c-3 8 -14 19 -19 23c-1 1 -5 1 -8 1h-72c-19 0 -57 -31 -73 -45l-57 -297h-100l66 343l5 89h98l3 -23c21 13 45 28 68 28h74c25 0 52 -8 69 -22c13 -11 33 -36 39 -48c10 -19 10 -41 6 -61zM378 624h112l-124 -131h-94l-72 131h102l27 -57z" />
    <glyph glyph-name="ohungarumlaut" unicode="&#x151;" horiz-adv-x="484" 
d="M429 126c-4 -20 -11 -42 -29 -61c-10 -12 -40 -38 -57 -49c-23 -14 -52 -21 -77 -21h-94c-25 0 -51 7 -68 21c-13 11 -34 37 -40 49c-10 19 -9 41 -5 61l35 180c4 20 11 42 29 61c10 12 41 37 58 48c23 14 51 22 76 22h94c25 0 52 -8 69 -22c13 -11 33 -36 39 -48
c10 -19 9 -41 5 -61zM192 298l-35 -184c-2 -6 12 -18 20 -23c0 0 2 -1 6 -1h96c2 0 4 1 6 2c10 5 41 26 44 34l35 184c0 1 1 5 0 7c-3 7 -13 20 -19 24c-2 1 -3 1 -5 1h-96c-2 0 -3 0 -5 -1c-14 -7 -35 -25 -44 -37c-2 -2 -3 -6 -3 -6zM382 483l-64 22l115 119h94zM245 483
l-64 22l115 119h94z" />
    <glyph glyph-name="rcaron" unicode="&#x159;" horiz-adv-x="416" 
d="M461 338l-94 -27c0 1 -1 2 -2 4c-5 7 -19 28 -29 27h-64c-23 0 -58 -30 -73 -45l-58 -297h-100l66 343l6 89h98l3 -24c20 13 46 29 69 29h60c24 0 51 -12 68 -25c13 -11 45 -50 50 -74zM364 624h112l-124 -131h-94l-72 131h102l27 -57z" />
    <glyph glyph-name="uring" unicode="&#x16f;" horiz-adv-x="488" 
d="M414 0h-98l-4 25c-20 -13 -45 -29 -68 -29h-75c-25 0 -52 7 -69 21c-13 11 -33 37 -39 49c-10 19 -10 41 -6 61l59 305h100l-59 -310c-1 -5 -1 -5 0 -8c5 -10 10 -16 19 -22c2 -1 3 -1 6 -1h79c10 0 51 26 67 40l58 301h100l-66 -343zM434 592c-11 -58 -55 -99 -114 -99
c-56 0 -104 49 -93 107c11 55 57 97 116 97c56 0 102 -50 91 -105zM376 596c5 24 -10 45 -36 45s-51 -21 -56 -45c-5 -26 12 -48 38 -48s49 22 54 48z" />
    <glyph glyph-name="uhungarumlaut" unicode="&#x171;" horiz-adv-x="488" 
d="M414 0h-98l-4 25c-20 -13 -45 -29 -68 -29h-75c-25 0 -52 7 -69 21c-13 11 -33 37 -39 49c-10 19 -10 41 -6 61l59 305h100l-59 -310c-1 -5 -1 -5 0 -8c5 -10 10 -16 19 -22c2 -1 3 -1 6 -1h79c10 0 51 26 67 40l58 301h100l-66 -343zM370 483l-64 22l115 119h94z
M233 483l-64 22l115 119h94z" />
    <glyph glyph-name="tcommaaccent" unicode="&#x163;" horiz-adv-x="356" 
d="M263 -73l-104 -125h-113l126 154zM232 337l-38 -199s-1 -5 0 -8c4 -11 22 -35 36 -35h68l-18 -95h-74c-25 0 -51 7 -68 21c-14 11 -33 38 -39 49c-9 19 -11 41 -7 63l40 204h-67l18 95h67l33 166h100l-33 -166h124l-18 -95h-124z" />
    <glyph glyph-name="Amacron" unicode="&#x100;" horiz-adv-x="549" 
d="M515 0h-106l-20 127h-227l-68 -127h-118l325 598h122zM376 227l-35 236l-126 -236h161zM489 664h-227l18 89h227z" />
    <glyph glyph-name="amacron" unicode="&#x101;" horiz-adv-x="482" 
d="M344 271l8 41s1 4 0 5c-3 7 -14 19 -20 23c-2 1 -4 2 -6 2h-92c-12 0 -38 -24 -46 -32l-92 29c15 24 62 63 80 74c21 13 52 24 76 24h86c25 0 52 -8 69 -22c13 -11 33 -35 39 -47c10 -19 9 -42 5 -62l-42 -218l-2 -88h-99l-7 22c-20 -13 -43 -27 -66 -27h-82
c-25 0 -51 8 -68 22c-13 11 -32 36 -38 47c-10 18 -10 39 -6 61l3 18c5 22 14 43 30 61c10 11 39 34 56 45c23 14 51 22 76 22h138zM317 131l10 51h-134c-3 0 -6 -1 -8 -2c-12 -7 -30 -23 -40 -35c0 0 -1 -2 -1 -3l-4 -23c0 -1 0 -2 1 -4c4 -9 13 -19 18 -23c0 0 2 -2 6 -2
h82c11 0 60 32 70 41zM425 509h-227l18 89h227z" />
    <glyph glyph-name="Ccircumflex" unicode="&#x108;" horiz-adv-x="553" 
d="M490 116c-11 -18 -18 -27 -28 -38c-33 -35 -87 -83 -143 -83h-125c-22 0 -45 8 -59 18c-19 12 -51 53 -59 71c-9 18 -9 38 -5 57l61 315c4 19 12 38 27 56c15 17 64 60 87 72c18 9 44 18 66 18h125c56 0 91 -49 110 -83c6 -11 9 -19 15 -35l-100 -28s-23 36 -36 45
c-1 1 -3 1 -4 1h-120c-2 0 -4 -1 -4 -1c-14 -7 -47 -34 -60 -50c-2 -2 -3 -7 -4 -12l-60 -304c-2 -11 19 -32 30 -39c1 -1 6 -1 7 -1h118c1 0 3 0 5 1c23 10 54 48 54 48zM355 637h-113l126 131h90l74 -131h-101l-28 52z" />
    <glyph glyph-name="ccircumflex" unicode="&#x109;" horiz-adv-x="477" 
d="M193 298l-35 -179s0 -3 1 -6c4 -9 13 -17 19 -21c0 0 4 -2 6 -2h101c10 0 35 20 42 27l4 4l92 -29c-14 -24 -60 -63 -78 -74c-22 -13 -52 -23 -76 -23h-96c-25 0 -52 7 -69 21c-13 11 -33 37 -39 49c-10 19 -10 41 -6 61l35 180c4 20 12 42 30 61c10 12 40 37 57 48
c23 14 52 22 77 22h92c24 0 51 -12 68 -25c13 -11 45 -50 50 -74l-93 -27l-2 4c-5 7 -22 27 -32 27h-93c-2 0 -7 -1 -9 -2c-14 -7 -35 -22 -43 -34c-2 -3 -3 -8 -3 -8zM292 493h-113l126 131h90l74 -131h-101l-28 52z" />
    <glyph glyph-name="Cdotaccent" unicode="&#x10a;" horiz-adv-x="553" 
d="M490 116c-11 -18 -18 -27 -28 -38c-33 -35 -87 -83 -143 -83h-125c-22 0 -45 8 -59 18c-19 12 -51 53 -59 71c-9 18 -9 38 -5 57l61 315c4 19 12 38 27 56c15 17 64 60 87 72c18 9 44 18 66 18h125c56 0 91 -49 110 -83c6 -11 9 -19 15 -35l-100 -28s-23 36 -36 45
c-1 1 -3 1 -4 1h-120c-2 0 -4 -1 -4 -1c-14 -7 -47 -34 -60 -50c-2 -2 -3 -7 -4 -12l-60 -304c-2 -11 19 -32 30 -39c1 -1 6 -1 7 -1h118c1 0 3 0 5 1c23 10 54 48 54 48zM437 644h-107l20 107h107z" />
    <glyph glyph-name="cdotaccent" unicode="&#x10b;" horiz-adv-x="477" 
d="M193 298l-35 -179s0 -3 1 -6c4 -9 13 -17 19 -21c0 0 4 -2 6 -2h101c10 0 35 20 42 27l4 4l92 -29c-14 -24 -60 -63 -78 -74c-22 -13 -52 -23 -76 -23h-96c-25 0 -52 7 -69 21c-13 11 -33 37 -39 49c-10 19 -10 41 -6 61l35 180c4 20 12 42 30 61c10 12 40 37 57 48
c23 14 52 22 77 22h92c24 0 51 -12 68 -25c13 -11 45 -50 50 -74l-93 -27l-2 4c-5 7 -22 27 -32 27h-93c-2 0 -7 -1 -9 -2c-14 -7 -35 -22 -43 -34c-2 -3 -3 -8 -3 -8zM372 494h-107l20 107h107z" />
    <glyph glyph-name="Emacron" unicode="&#x112;" horiz-adv-x="516" 
d="M420 0h-376l116 598h376l-20 -100h-270l-29 -151h251l-19 -100h-251l-29 -147h270zM476 659h-227l18 89h227z" />
    <glyph glyph-name="emacron" unicode="&#x113;" horiz-adv-x="481" 
d="M436 168h-271l-9 -47v-5c6 -15 21 -26 28 -26h99c10 0 36 20 43 27l4 4l90 -29c-14 -24 -60 -63 -78 -74c-22 -13 -52 -23 -76 -23h-94c-25 0 -52 7 -69 21c-13 11 -33 37 -39 48c-10 18 -11 40 -7 62l35 180c4 22 14 43 31 61c10 11 40 37 57 48c23 14 52 22 77 22h92
c25 0 52 -8 69 -22c13 -11 33 -36 39 -48c10 -19 10 -41 6 -61zM353 257l11 54s1 5 0 6c-3 7 -15 20 -21 24c-2 1 -4 1 -6 1h-94c-10 0 -38 -21 -50 -36c-1 -1 -2 -6 -2 -6l-9 -43h171zM434 509h-227l18 89h227z" />
    <glyph glyph-name="Ebreve" unicode="&#x114;" horiz-adv-x="516" 
d="M420 0h-376l116 598h376l-20 -100h-270l-29 -151h251l-19 -100h-251l-29 -147h270zM424 751h59c-11 -58 -64 -104 -123 -104c-53 0 -96 46 -85 104h57c-5 -26 7 -48 33 -48s54 22 59 48z" />
    <glyph glyph-name="ebreve" unicode="&#x115;" horiz-adv-x="481" 
d="M436 168h-271l-9 -47v-5c6 -15 21 -26 28 -26h99c10 0 36 20 43 27l4 4l90 -29c-14 -24 -60 -63 -78 -74c-22 -13 -52 -23 -76 -23h-94c-25 0 -52 7 -69 21c-13 11 -33 37 -39 48c-10 18 -11 40 -7 62l35 180c4 22 14 43 31 61c10 11 40 37 57 48c23 14 52 22 77 22h92
c25 0 52 -8 69 -22c13 -11 33 -36 39 -48c10 -19 10 -41 6 -61zM353 257l11 54s1 5 0 6c-3 7 -15 20 -21 24c-2 1 -4 1 -6 1h-94c-10 0 -38 -21 -50 -36c-1 -1 -2 -6 -2 -6l-9 -43h171zM378 596h59c-11 -58 -64 -104 -123 -104c-53 0 -96 46 -85 104h57c-5 -26 7 -48 33 -48
s54 22 59 48z" />
    <glyph glyph-name="Edotaccent" unicode="&#x116;" horiz-adv-x="516" 
d="M420 0h-376l116 598h376l-20 -100h-270l-29 -151h251l-19 -100h-251l-29 -147h270zM412 649h-107l20 107h107z" />
    <glyph glyph-name="edotaccent" unicode="&#x117;" horiz-adv-x="481" 
d="M436 168h-271l-9 -47v-5c6 -15 21 -26 28 -26h99c10 0 36 20 43 27l4 4l90 -29c-14 -24 -60 -63 -78 -74c-22 -13 -52 -23 -76 -23h-94c-25 0 -52 7 -69 21c-13 11 -33 37 -39 48c-10 18 -11 40 -7 62l35 180c4 22 14 43 31 61c10 11 40 37 57 48c23 14 52 22 77 22h92
c25 0 52 -8 69 -22c13 -11 33 -36 39 -48c10 -19 10 -41 6 -61zM353 257l11 54s1 5 0 6c-3 7 -15 20 -21 24c-2 1 -4 1 -6 1h-94c-10 0 -38 -21 -50 -36c-1 -1 -2 -6 -2 -6l-9 -43h171zM368 494h-107l20 107h107z" />
    <glyph glyph-name="Gcircumflex" unicode="&#x11c;" horiz-adv-x="598" 
d="M340 -5h-146c-22 0 -45 8 -59 18c-19 12 -51 53 -59 71c-9 18 -9 38 -5 57l61 315c4 19 12 38 27 56c15 17 64 60 87 72c18 9 44 18 66 18h139c56 0 91 -49 110 -83c6 -11 9 -19 15 -35l-100 -28s-23 36 -36 45c-1 1 -3 1 -4 1h-134c-2 0 -4 -1 -4 -1
c-14 -7 -47 -34 -60 -50c-2 -2 -3 -7 -4 -12l-60 -304c-2 -11 19 -32 30 -39c1 -1 6 -1 7 -1h139c3 0 5 1 5 1c16 8 58 41 61 53l18 93h-129l19 100h234l-39 -202s-6 -66 -8 -140h-103l-1 24c-16 -10 -44 -29 -67 -29zM359 637h-113l126 131h90l74 -131h-101l-28 52z" />
    <glyph glyph-name="gcircumflex" unicode="&#x11d;" horiz-adv-x="503" 
d="M172 -5c-25 0 -51 7 -68 21c-13 11 -34 37 -40 49c-10 19 -9 41 -5 61l35 180c4 20 11 42 29 61c10 12 41 37 58 48c23 14 51 22 76 22h79c24 0 46 -13 61 -27l8 22h98l-26 -90l-73 -378c-5 -21 -12 -44 -30 -63c-10 -12 -40 -37 -57 -48c-23 -14 -53 -22 -77 -22h-88
c-24 0 -51 11 -68 24c-14 11 -44 50 -49 74l92 27l2 -4c5 -7 22 -26 32 -26h90c4 0 7 1 10 3c10 6 35 24 40 31c3 4 3 5 4 9l9 51c-19 -12 -42 -25 -63 -25h-79zM262 90c0 0 5 0 7 1c20 9 53 35 69 50l31 160c-11 15 -33 41 -48 41h-77c-2 0 -3 0 -5 -1
c-14 -7 -35 -25 -44 -37c-2 -2 -3 -6 -3 -6l-35 -184c-2 -6 12 -18 20 -23c0 0 2 -1 6 -1h79zM301 493h-113l126 131h90l74 -131h-101l-28 52z" />
    <glyph glyph-name="Gbreve" unicode="&#x11e;" horiz-adv-x="598" 
d="M340 -5h-146c-22 0 -45 8 -59 18c-19 12 -51 53 -59 71c-9 18 -9 38 -5 57l61 315c4 19 12 38 27 56c15 17 64 60 87 72c18 9 44 18 66 18h139c56 0 91 -49 110 -83c6 -11 9 -19 15 -35l-100 -28s-23 36 -36 45c-1 1 -3 1 -4 1h-134c-2 0 -4 -1 -4 -1
c-14 -7 -47 -34 -60 -50c-2 -2 -3 -7 -4 -12l-60 -304c-2 -11 19 -32 30 -39c1 -1 6 -1 7 -1h139c3 0 5 1 5 1c16 8 58 41 61 53l18 93h-129l19 100h234l-39 -202s-6 -66 -8 -140h-103l-1 24c-16 -10 -44 -29 -67 -29zM452 746h59c-11 -58 -64 -104 -123 -104
c-53 0 -96 46 -85 104h57c-5 -26 7 -48 33 -48s54 22 59 48z" />
    <glyph glyph-name="gbreve" unicode="&#x11f;" horiz-adv-x="503" 
d="M172 -5c-25 0 -51 7 -68 21c-13 11 -34 37 -40 49c-10 19 -9 41 -5 61l35 180c4 20 11 42 29 61c10 12 41 37 58 48c23 14 51 22 76 22h79c24 0 46 -13 61 -27l8 22h98l-26 -90l-73 -378c-5 -21 -12 -44 -30 -63c-10 -12 -40 -37 -57 -48c-23 -14 -53 -22 -77 -22h-88
c-24 0 -51 11 -68 24c-14 11 -44 50 -49 74l92 27l2 -4c5 -7 22 -26 32 -26h90c4 0 7 1 10 3c10 6 35 24 40 31c3 4 3 5 4 9l9 51c-19 -12 -42 -25 -63 -25h-79zM262 90c0 0 5 0 7 1c20 9 53 35 69 50l31 160c-11 15 -33 41 -48 41h-77c-2 0 -3 0 -5 -1
c-14 -7 -35 -25 -44 -37c-2 -2 -3 -6 -3 -6l-35 -184c-2 -6 12 -18 20 -23c0 0 2 -1 6 -1h79zM383 596h59c-11 -58 -64 -104 -123 -104c-53 0 -96 46 -85 104h57c-5 -26 7 -48 33 -48s54 22 59 48z" />
    <glyph glyph-name="Gdotaccent" unicode="&#x120;" horiz-adv-x="598" 
d="M340 -5h-146c-22 0 -45 8 -59 18c-19 12 -51 53 -59 71c-9 18 -9 38 -5 57l61 315c4 19 12 38 27 56c15 17 64 60 87 72c18 9 44 18 66 18h139c56 0 91 -49 110 -83c6 -11 9 -19 15 -35l-100 -28s-23 36 -36 45c-1 1 -3 1 -4 1h-134c-2 0 -4 -1 -4 -1
c-14 -7 -47 -34 -60 -50c-2 -2 -3 -7 -4 -12l-60 -304c-2 -11 19 -32 30 -39c1 -1 6 -1 7 -1h139c3 0 5 1 5 1c16 8 58 41 61 53l18 93h-129l19 100h234l-39 -202s-6 -66 -8 -140h-103l-1 24c-16 -10 -44 -29 -67 -29zM442 649h-107l20 107h107z" />
    <glyph glyph-name="gdotaccent" unicode="&#x121;" horiz-adv-x="503" 
d="M172 -5c-25 0 -51 7 -68 21c-13 11 -34 37 -40 49c-10 19 -9 41 -5 61l35 180c4 20 11 42 29 61c10 12 41 37 58 48c23 14 51 22 76 22h79c24 0 46 -13 61 -27l8 22h98l-26 -90l-73 -378c-5 -21 -12 -44 -30 -63c-10 -12 -40 -37 -57 -48c-23 -14 -53 -22 -77 -22h-88
c-24 0 -51 11 -68 24c-14 11 -44 50 -49 74l92 27l2 -4c5 -7 22 -26 32 -26h90c4 0 7 1 10 3c10 6 35 24 40 31c3 4 3 5 4 9l9 51c-19 -12 -42 -25 -63 -25h-79zM262 90c0 0 5 0 7 1c20 9 53 35 69 50l31 160c-11 15 -33 41 -48 41h-77c-2 0 -3 0 -5 -1
c-14 -7 -35 -25 -44 -37c-2 -2 -3 -6 -3 -6l-35 -184c-2 -6 12 -18 20 -23c0 0 2 -1 6 -1h79zM378 494h-107l20 107h107z" />
    <glyph glyph-name="Gcommaaccent" unicode="&#x122;" horiz-adv-x="598" 
d="M339 -73l-104 -125h-113l126 154zM340 -5h-146c-22 0 -45 8 -59 18c-19 12 -51 53 -59 71c-9 18 -9 38 -5 57l61 315c4 19 12 38 27 56c15 17 64 60 87 72c18 9 44 18 66 18h139c56 0 91 -49 110 -83c6 -11 9 -19 15 -35l-100 -28s-23 36 -36 45c-1 1 -3 1 -4 1h-134
c-2 0 -4 -1 -4 -1c-14 -7 -47 -34 -60 -50c-2 -2 -3 -7 -4 -12l-60 -304c-2 -11 19 -32 30 -39c1 -1 6 -1 7 -1h139c3 0 5 1 5 1c16 8 58 41 61 53l18 93h-129l19 100h234l-39 -202s-6 -66 -8 -140h-103l-1 24c-16 -10 -44 -29 -67 -29z" />
    <glyph glyph-name="gcommaaccent" unicode="&#x123;" horiz-adv-x="503" 
d="M172 -5c-25 0 -51 7 -68 21c-13 11 -34 37 -40 49c-10 19 -9 41 -5 61l35 180c4 20 11 42 29 61c10 12 41 37 58 48c23 14 51 22 76 22h79c24 0 46 -13 61 -27l8 22h98l-26 -90l-73 -378c-5 -21 -12 -44 -30 -63c-10 -12 -40 -37 -57 -48c-23 -14 -53 -22 -77 -22h-88
c-24 0 -51 11 -68 24c-14 11 -44 50 -49 74l92 27l2 -4c5 -7 22 -26 32 -26h90c4 0 7 1 10 3c10 6 35 24 40 31c3 4 3 5 4 9l9 51c-19 -12 -42 -25 -63 -25h-79zM262 90c0 0 5 0 7 1c20 9 53 35 69 50l31 160c-11 15 -33 41 -48 41h-77c-2 0 -3 0 -5 -1
c-14 -7 -35 -25 -44 -37c-2 -2 -3 -6 -3 -6l-35 -184c-2 -6 12 -18 20 -23c0 0 2 -1 6 -1h79zM330 489l-92 27l115 119h124z" />
    <glyph glyph-name="Hcircumflex" unicode="&#x124;" horiz-adv-x="572" 
d="M472 0h-106l49 247h-217l-49 -247h-105l116 598h106l-50 -251h217l50 251h105zM354 637h-113l126 131h90l74 -131h-101l-28 52z" />
    <glyph glyph-name="hcircumflex" unicode="&#x125;" horiz-adv-x="485" 
d="M402 0h-100l60 312v6c-3 8 -14 19 -19 23c-1 1 -5 1 -8 1h-72c-19 0 -57 -31 -73 -45l-57 -297h-100l116 598h100l-35 -184c18 12 39 23 59 23h74c25 0 52 -8 69 -22c13 -11 33 -36 39 -48c10 -19 10 -41 6 -61zM315 637h-113l126 131h90l74 -131h-101l-28 52z" />
    <glyph glyph-name="Hbar" unicode="&#x126;" horiz-adv-x="572" 
d="M473 0h-105l48 247h-219l-48 -247h-105l91 471h-28l18 94h28l7 33h105l-7 -33h219l7 33h105l-7 -33h31l-18 -94h-31zM216 347h219l24 124h-219z" />
    <glyph glyph-name="hbar" unicode="&#x127;" horiz-adv-x="485" 
d="M402 0h-100l60 312v6c-3 8 -14 19 -19 23c-1 1 -5 1 -8 1h-72c-19 0 -57 -31 -73 -45l-57 -297h-100l92 476h-39l17 88h39l7 34h100l-7 -34h133l-17 -88h-132l-12 -62c18 12 39 23 59 23h74c25 0 52 -8 69 -22c13 -11 33 -36 39 -48c10 -19 10 -41 6 -61z" />
    <glyph glyph-name="Itilde" unicode="&#x128;" horiz-adv-x="249" 
d="M151 0h-107l116 598h105zM388 664l-78 -23c-5 21 -25 31 -35 28l-77 -21c-52 -16 -109 11 -124 81l84 21c5 -21 20 -28 30 -25l78 21c54 16 107 -11 122 -82z" />
    <glyph glyph-name="itilde" unicode="&#x129;" horiz-adv-x="216" 
d="M143 -1h-100l84 431h100zM356 520l-78 -23c-5 21 -25 31 -35 28l-77 -21c-52 -16 -109 11 -124 81l84 21c5 -21 20 -28 30 -25l78 21c54 16 107 -11 122 -82z" />
    <glyph glyph-name="Imacron" unicode="&#x12a;" horiz-adv-x="249" 
d="M151 0h-107l116 598h105zM337 664h-227l18 89h227z" />
    <glyph glyph-name="imacron" unicode="&#x12b;" horiz-adv-x="216" 
d="M143 -1h-100l84 431h100zM306 509h-227l18 89h227z" />
    <glyph glyph-name="Ibreve" unicode="&#x12c;" horiz-adv-x="249" 
d="M151 0h-107l116 598h105zM286 751h59c-11 -58 -64 -104 -123 -104c-53 0 -96 46 -85 104h57c-5 -26 7 -48 33 -48s54 22 59 48z" />
    <glyph glyph-name="ibreve" unicode="&#x12d;" horiz-adv-x="216" 
d="M143 -1h-100l84 431h100zM254 596h59c-11 -58 -64 -104 -123 -104c-53 0 -96 46 -85 104h57c-5 -26 7 -48 33 -48s54 22 59 48z" />
    <glyph glyph-name="Iogonek" unicode="&#x12e;" horiz-adv-x="249" 
d="M70 -198l-56 125l103 29l66 -154h-113zM151 0h-107l116 598h105z" />
    <glyph glyph-name="iogonek" unicode="&#x12f;" horiz-adv-x="216" 
d="M70 -198l-56 125l103 29l66 -154h-113zM239 493h-107l21 107h107zM144 0h-100l83 432h100z" />
    <glyph glyph-name="Idotaccent" unicode="&#x130;" horiz-adv-x="249" 
d="M151 0h-107l116 598h105zM275 649h-107l20 107h107z" />
    <glyph glyph-name="IJ" unicode="&#x132;" horiz-adv-x="725" 
d="M151 0h-107l116 598h105zM648 141c-4 -19 -13 -39 -28 -57c-15 -17 -62 -59 -85 -71c-19 -10 -44 -18 -65 -18h-74c-58 0 -92 47 -112 83c-3 4 -6 12 -13 38l99 25c6 -22 21 -39 32 -45c1 -1 10 -1 8 -1h66c7 -1 67 49 68 55l88 448h105z" />
    <glyph glyph-name="ij" unicode="&#x133;" horiz-adv-x="437" 
d="M143 -1h-100l84 431h100zM467 493h-107l21 107h107zM136 -72h74c4 0 6 1 6 1c12 7 36 24 46 38c0 0 2 3 3 7l89 458h100l-90 -464c-4 -22 -13 -44 -30 -63c-10 -11 -40 -38 -58 -49c-23 -14 -52 -21 -75 -21h-84zM243 494h-107l20 107h107z" />
    <glyph glyph-name="Jcircumflex" unicode="&#x134;" horiz-adv-x="472" 
d="M396 141c-4 -19 -13 -39 -28 -57c-15 -17 -62 -59 -85 -71c-19 -10 -44 -18 -65 -18h-74c-58 0 -92 47 -112 83c-3 4 -6 12 -13 38l99 25c6 -22 21 -39 32 -45c1 -1 10 -1 8 -1h66c7 -1 67 49 68 55l88 448h105zM413 637h-113l126 131h90l74 -131h-101l-28 52z" />
    <glyph glyph-name="jcircumflex" unicode="&#x135;" horiz-adv-x="225" 
d="M-75 -72h74c4 0 6 1 6 1c12 7 36 24 46 38c0 0 2 3 3 7l89 458h100l-90 -464c-4 -22 -13 -44 -30 -63c-10 -11 -40 -38 -58 -49c-23 -14 -52 -21 -75 -21h-84zM164 493h-113l126 131h90l74 -131h-101l-28 52z" />
    <glyph glyph-name="Kcommaaccent" unicode="&#x136;" horiz-adv-x="522" 
d="M291 -73l-104 -125h-113l126 154zM506 0h-119l-169 250h-21l-48 -250h-105l116 598h105l-49 -249h10c85 82 162 168 246 249h129l-297 -302c58 -91 145 -210 202 -296z" />
    <glyph glyph-name="kcommaaccent" unicode="&#x137;" horiz-adv-x="450" 
d="M277 -73l-104 -125h-113l126 154zM440 0h-123l-126 177h-21l-34 -177h-100l116 598h100l-64 -327h7c56 51 117 112 171 161h134l-226 -209z" />
    <glyph glyph-name="kgreenlandic" unicode="&#x138;" horiz-adv-x="450" 
d="M440 0h-123l-126 177h-21l-34 -177h-100l82 432h100l-30 -161h7c56 51 117 112 171 161h134l-1 -1l-17 -91l-81 1l-127 -118z" />
    <glyph glyph-name="Lcommaaccent" unicode="&#x13b;" horiz-adv-x="480" 
d="M281 -73l-104 -125h-113l126 154zM414 0h-370l116 598h106l-97 -498h264z" />
    <glyph glyph-name="lcommaaccent" unicode="&#x13c;" horiz-adv-x="230" 
d="M155 -73l-104 -125h-113l126 154zM155 0h-101v74l102 524h100l-100 -513z" />
    <glyph glyph-name="Ldot" unicode="&#x13f;" horiz-adv-x="480" 
d="M414 0h-370l116 598h106l-97 -498h264zM410 247h-107l20 107h107z" />
    <glyph glyph-name="ldot" unicode="&#x140;" horiz-adv-x="342" 
d="M155 0h-101v74l102 524h100l-100 -513zM359 249h-107l20 107h107z" />
    <glyph glyph-name="Ncommaaccent" unicode="&#x145;" horiz-adv-x="567" 
d="M309 -73l-104 -125h-113l126 154zM447 0h-111l-129 398l-78 -398h-105l116 598h113l126 -403l79 403h105z" />
    <glyph glyph-name="ncommaaccent" unicode="&#x146;" horiz-adv-x="495" 
d="M292 -73l-104 -125h-113l126 154zM412 0h-100l60 312v6c-3 8 -14 19 -19 23c-1 1 -5 1 -8 1h-72c-19 0 -57 -31 -73 -45l-57 -297h-100l66 343l5 89h98l3 -23c21 13 45 28 68 28h74c25 0 52 -8 69 -22c13 -11 33 -36 39 -48c10 -19 10 -41 6 -61z" />
    <glyph glyph-name="napostrophe" unicode="&#x149;" 
d="M172 500l-22 -68h-99l25 81l25 127h98zM472 0h-100l60 312v6c-3 8 -14 19 -19 23c-1 1 -5 1 -8 1h-72c-19 0 -57 -31 -73 -45l-57 -297h-100l66 343l5 89h98l3 -23c21 13 45 28 68 28h74c25 0 52 -8 69 -22c13 -11 33 -36 39 -48c10 -19 10 -41 6 -61z" />
    <glyph glyph-name="Eng" unicode="&#x14a;" horiz-adv-x="567" 
d="M233 -72h74c4 0 6 1 6 1c12 7 36 24 46 38c0 0 2 3 3 7l5 26h-11l-129 398l-78 -398h-105l116 598h113l126 -403l79 403h105l-116 -598l-6 -32c-4 -22 -13 -44 -30 -63c-10 -11 -40 -38 -58 -49c-23 -14 -52 -21 -75 -21h-84z" />
    <glyph glyph-name="eng" unicode="&#x14b;" horiz-adv-x="495" 
d="M178 -72h74c4 0 6 1 6 1c12 7 36 24 46 38c0 0 2 3 3 7l65 338v6c-3 8 -14 19 -19 23c-1 1 -5 1 -8 1h-72c-19 0 -57 -31 -73 -45l-57 -297h-100l66 343l5 89h98l3 -23c21 13 45 28 68 28h74c25 0 52 -8 69 -22c13 -11 33 -36 39 -48c10 -19 10 -41 6 -61l-59 -306
l-6 -32c-4 -22 -13 -44 -30 -63c-10 -11 -40 -38 -58 -49c-23 -14 -52 -21 -75 -21h-84z" />
    <glyph glyph-name="Omacron" unicode="&#x14c;" horiz-adv-x="589" 
d="M345 -5h-151c-22 0 -45 8 -59 18c-19 12 -51 53 -59 71c-9 18 -9 38 -5 57l61 315c4 19 12 38 27 56c15 17 64 60 87 72c18 9 44 18 66 18h151c22 0 45 -8 59 -18c19 -12 51 -53 59 -71c9 -18 9 -38 5 -57l-61 -315c-4 -19 -12 -38 -27 -56c-15 -17 -64 -60 -87 -72
c-18 -9 -44 -18 -66 -18zM446 502h-144c-2 0 -4 -1 -4 -1c-14 -7 -47 -34 -60 -50c-2 -2 -3 -7 -4 -12l-60 -304c-2 -11 19 -32 30 -39c1 -1 6 -1 7 -1h144c2 0 4 1 4 1c14 7 47 34 60 50c2 2 3 7 4 12l60 304c2 11 -19 32 -30 39c-1 1 -6 1 -7 1zM518 664h-227l18 89h227z
" />
    <glyph glyph-name="omacron" unicode="&#x14d;" horiz-adv-x="484" 
d="M429 126c-4 -20 -11 -42 -29 -61c-10 -12 -40 -38 -57 -49c-23 -14 -52 -21 -77 -21h-94c-25 0 -51 7 -68 21c-13 11 -34 37 -40 49c-10 19 -9 41 -5 61l35 180c4 20 11 42 29 61c10 12 41 37 58 48c23 14 51 22 76 22h94c25 0 52 -8 69 -22c13 -11 33 -36 39 -48
c10 -19 9 -41 5 -61zM192 298l-35 -184c-2 -6 12 -18 20 -23c0 0 2 -1 6 -1h96c2 0 4 1 6 2c10 5 41 26 44 34l35 184c0 1 1 5 0 7c-3 7 -13 20 -19 24c-2 1 -3 1 -5 1h-96c-2 0 -3 0 -5 -1c-14 -7 -35 -25 -44 -37c-2 -2 -3 -6 -3 -6zM433 509h-227l18 89h227z" />
    <glyph glyph-name="Obreve" unicode="&#x14e;" horiz-adv-x="589" 
d="M345 -5h-151c-22 0 -45 8 -59 18c-19 12 -51 53 -59 71c-9 18 -9 38 -5 57l61 315c4 19 12 38 27 56c15 17 64 60 87 72c18 9 44 18 66 18h151c22 0 45 -8 59 -18c19 -12 51 -53 59 -71c9 -18 9 -38 5 -57l-61 -315c-4 -19 -12 -38 -27 -56c-15 -17 -64 -60 -87 -72
c-18 -9 -44 -18 -66 -18zM446 502h-144c-2 0 -4 -1 -4 -1c-14 -7 -47 -34 -60 -50c-2 -2 -3 -7 -4 -12l-60 -304c-2 -11 19 -32 30 -39c1 -1 6 -1 7 -1h144c2 0 4 1 4 1c14 7 47 34 60 50c2 2 3 7 4 12l60 304c2 11 -19 32 -30 39c-1 1 -6 1 -7 1zM466 751h59
c-11 -58 -64 -104 -123 -104c-53 0 -96 46 -85 104h57c-5 -26 7 -48 33 -48s54 22 59 48z" />
    <glyph glyph-name="obreve" unicode="&#x14f;" horiz-adv-x="484" 
d="M429 126c-4 -20 -11 -42 -29 -61c-10 -12 -40 -38 -57 -49c-23 -14 -52 -21 -77 -21h-94c-25 0 -51 7 -68 21c-13 11 -34 37 -40 49c-10 19 -9 41 -5 61l35 180c4 20 11 42 29 61c10 12 41 37 58 48c23 14 51 22 76 22h94c25 0 52 -8 69 -22c13 -11 33 -36 39 -48
c10 -19 9 -41 5 -61zM192 298l-35 -184c-2 -6 12 -18 20 -23c0 0 2 -1 6 -1h96c2 0 4 1 6 2c10 5 41 26 44 34l35 184c0 1 1 5 0 7c-3 7 -13 20 -19 24c-2 1 -3 1 -5 1h-96c-2 0 -3 0 -5 -1c-14 -7 -35 -25 -44 -37c-2 -2 -3 -6 -3 -6zM380 594h59
c-11 -58 -64 -104 -123 -104c-53 0 -96 46 -85 104h57c-5 -26 7 -48 33 -48s54 22 59 48z" />
    <glyph glyph-name="Rcommaaccent" unicode="&#x156;" horiz-adv-x="579" 
d="M311 -73l-104 -125h-113l126 154zM540 372c-4 -22 -15 -43 -30 -61c-12 -13 -48 -43 -64 -53c-12 -8 -25 -13 -38 -17l91 -241h-110l-86 236h-108l-45 -236h-106l116 598h281c24 0 49 -8 66 -22c13 -10 37 -42 44 -55c8 -18 10 -40 6 -61zM437 381l18 87s1 4 0 7
c-4 11 -14 22 -21 23h-188l-31 -162h166c9 0 41 22 51 36c0 0 4 5 5 9z" />
    <glyph glyph-name="rcommaaccent" unicode="&#x157;" horiz-adv-x="416" 
d="M281 -73l-104 -125h-113l126 154zM461 338l-94 -27c0 1 -1 2 -2 4c-5 7 -19 28 -29 27h-64c-23 0 -58 -30 -73 -45l-58 -297h-100l66 343l6 89h98l3 -24c20 13 46 29 69 29h60c24 0 51 -12 68 -25c13 -11 45 -50 50 -74z" />
    <glyph glyph-name="Scircumflex" unicode="&#x15c;" horiz-adv-x="571" 
d="M513 142c-3 -17 -10 -39 -27 -57c-15 -18 -64 -60 -87 -72c-18 -9 -44 -18 -65 -18h-159c-56 0 -92 48 -111 83c-6 11 -7 16 -12 31l98 31s15 -26 35 -44c0 0 2 -1 7 -1h150c4 0 6 1 6 1c17 8 60 45 61 53l12 57c2 9 -4 16 -9 17l-247 67c-49 14 -66 63 -57 109l11 56
c3 17 11 39 26 57c16 18 65 60 88 72c18 9 44 18 66 18h148c57 0 91 -49 110 -83c6 -11 9 -20 14 -35l-99 -27s-17 31 -35 44c0 0 -1 1 -6 1h-140c-4 0 -6 -1 -6 -1c-18 -8 -61 -46 -62 -54l-10 -48c-2 -9 3 -16 7 -17l249 -69c48 -14 65 -64 56 -109zM355 637h-113l126 131
h90l74 -131h-101l-28 52z" />
    <glyph glyph-name="scircumflex" unicode="&#x15d;" horiz-adv-x="469" 
d="M128 120l2 -4c5 -10 21 -25 31 -26h114c12 0 46 27 49 41l4 20c1 5 0 13 -11 14c-34 3 -104 10 -160 15c-52 4 -87 38 -74 102l5 27c4 22 13 43 29 61c36 40 79 67 129 67h96c24 0 52 -10 68 -23c14 -11 45 -50 51 -74l-93 -26l-2 4c-4 8 -17 24 -27 24h-104s-9 0 -13 -2
c-5 -2 -25 -17 -33 -28c0 0 -1 -2 -3 -10l-3 -20c-1 -3 2 -12 12 -13c25 -3 99 -11 153 -17c53 -6 92 -38 79 -104l-4 -24c-5 -22 -15 -43 -31 -61c-11 -12 -36 -35 -54 -46c-23 -14 -50 -22 -75 -22h-108c-24 0 -51 11 -68 24c-14 11 -44 50 -49 74zM279 493h-113l126 131
h90l74 -131h-101l-28 52z" />
    <glyph glyph-name="Scedilla" unicode="&#x15e;" horiz-adv-x="571" 
d="M321 -73l-104 -125h-113l126 154zM513 142c-3 -17 -10 -39 -27 -57c-15 -18 -64 -60 -87 -72c-18 -9 -44 -18 -65 -18h-159c-56 0 -92 48 -111 83c-6 11 -7 16 -12 31l98 31s15 -26 35 -44c0 0 2 -1 7 -1h150c4 0 6 1 6 1c17 8 60 45 61 53l12 57c2 9 -4 16 -9 17
l-247 67c-49 14 -66 63 -57 109l11 56c3 17 11 39 26 57c16 18 65 60 88 72c18 9 44 18 66 18h148c57 0 91 -49 110 -83c6 -11 9 -20 14 -35l-99 -27s-17 31 -35 44c0 0 -1 1 -6 1h-140c-4 0 -6 -1 -6 -1c-18 -8 -61 -46 -62 -54l-10 -48c-2 -9 3 -16 7 -17l249 -69
c48 -14 65 -64 56 -109z" />
    <glyph glyph-name="scedilla" unicode="&#x15f;" horiz-adv-x="469" 
d="M281 -73l-104 -125h-113l126 154zM128 120l2 -4c5 -10 21 -25 31 -26h114c12 0 46 27 49 41l4 20c1 5 0 13 -11 14c-34 3 -104 10 -160 15c-52 4 -87 38 -74 102l5 27c4 22 13 43 29 61c36 40 79 67 129 67h96c24 0 52 -10 68 -23c14 -11 45 -50 51 -74l-93 -26l-2 4
c-4 8 -17 24 -27 24h-104s-9 0 -13 -2c-5 -2 -25 -17 -33 -28c0 0 -1 -2 -3 -10l-3 -20c-1 -3 2 -12 12 -13c25 -3 99 -11 153 -17c53 -6 92 -38 79 -104l-4 -24c-5 -22 -15 -43 -31 -61c-11 -12 -36 -35 -54 -46c-23 -14 -50 -22 -75 -22h-108c-24 0 -51 11 -68 24
c-14 11 -44 50 -49 74z" />
    <glyph glyph-name="Tbar" unicode="&#x166;" horiz-adv-x="509" 
d="M421 248h-89l-48 -248h-105l48 248h-97l18 95h97l30 156h-162l20 99h429l-20 -99h-161l-31 -156h89z" />
    <glyph glyph-name="tbar" unicode="&#x167;" horiz-adv-x="356" 
d="M232 337l-9 -45h123l-18 -95h-123l-11 -59s-1 -5 0 -8c4 -11 22 -35 36 -35h68l-18 -95h-74c-25 0 -51 7 -68 21c-14 11 -33 38 -39 49c-9 19 -11 41 -7 63l12 64h-67l18 95h68l9 45h-67l18 95h67l33 166h100l-33 -166h124l-18 -95h-124z" />
    <glyph glyph-name="Utilde" unicode="&#x168;" 
d="M474 598h105l-89 -457c-4 -19 -12 -38 -27 -56c-15 -17 -64 -60 -87 -72c-18 -9 -44 -18 -66 -18h-125c-22 0 -45 8 -59 18c-19 12 -51 53 -59 71c-9 18 -9 38 -5 57l89 457h105l-91 -463c-2 -11 19 -32 30 -39c1 -1 6 -1 7 -1h118c2 0 4 1 4 1c14 7 47 34 60 50
c2 2 3 7 4 12zM539 664l-78 -23c-5 21 -25 31 -35 28l-77 -21c-52 -16 -109 11 -124 81l84 21c5 -21 20 -28 30 -25l78 21c54 16 107 -11 122 -82z" />
    <glyph glyph-name="utilde" unicode="&#x169;" horiz-adv-x="488" 
d="M414 0h-98l-4 25c-20 -13 -45 -29 -68 -29h-75c-25 0 -52 7 -69 21c-13 11 -33 37 -39 49c-10 19 -10 41 -6 61l59 305h100l-59 -310c-1 -5 -1 -5 0 -8c5 -10 10 -16 19 -22c2 -1 3 -1 6 -1h79c10 0 51 26 67 40l58 301h100l-66 -343zM476 520l-78 -23
c-5 21 -25 31 -35 28l-77 -21c-52 -16 -109 11 -124 81l84 21c5 -21 20 -28 30 -25l78 21c54 16 107 -11 122 -82z" />
    <glyph glyph-name="Umacron" unicode="&#x16a;" 
d="M474 598h105l-89 -457c-4 -19 -12 -38 -27 -56c-15 -17 -64 -60 -87 -72c-18 -9 -44 -18 -66 -18h-125c-22 0 -45 8 -59 18c-19 12 -51 53 -59 71c-9 18 -9 38 -5 57l89 457h105l-91 -463c-2 -11 19 -32 30 -39c1 -1 6 -1 7 -1h118c2 0 4 1 4 1c14 7 47 34 60 50
c2 2 3 7 4 12zM489 664h-227l18 89h227z" />
    <glyph glyph-name="umacron" unicode="&#x16b;" horiz-adv-x="488" 
d="M414 0h-98l-4 25c-20 -13 -45 -29 -68 -29h-75c-25 0 -52 7 -69 21c-13 11 -33 37 -39 49c-10 19 -10 41 -6 61l59 305h100l-59 -310c-1 -5 -1 -5 0 -8c5 -10 10 -16 19 -22c2 -1 3 -1 6 -1h79c10 0 51 26 67 40l58 301h100l-66 -343zM430 509h-227l18 89h227z" />
    <glyph glyph-name="Ubreve" unicode="&#x16c;" 
d="M474 598h105l-89 -457c-4 -19 -12 -38 -27 -56c-15 -17 -64 -60 -87 -72c-18 -9 -44 -18 -66 -18h-125c-22 0 -45 8 -59 18c-19 12 -51 53 -59 71c-9 18 -9 38 -5 57l89 457h105l-91 -463c-2 -11 19 -32 30 -39c1 -1 6 -1 7 -1h118c2 0 4 1 4 1c14 7 47 34 60 50
c2 2 3 7 4 12zM440 751h59c-11 -58 -64 -104 -123 -104c-53 0 -96 46 -85 104h57c-5 -26 7 -48 33 -48s54 22 59 48z" />
    <glyph glyph-name="ubreve" unicode="&#x16d;" horiz-adv-x="488" 
d="M414 0h-98l-4 25c-20 -13 -45 -29 -68 -29h-75c-25 0 -52 7 -69 21c-13 11 -33 37 -39 49c-10 19 -10 41 -6 61l59 305h100l-59 -310c-1 -5 -1 -5 0 -8c5 -10 10 -16 19 -22c2 -1 3 -1 6 -1h79c10 0 51 26 67 40l58 301h100l-66 -343zM377 596h59
c-11 -58 -64 -104 -123 -104c-53 0 -96 46 -85 104h57c-5 -26 7 -48 33 -48s54 22 59 48z" />
    <glyph glyph-name="Uogonek" unicode="&#x172;" 
d="M198 -198l-56 125l103 29l66 -154h-113zM474 598h105l-89 -457c-4 -19 -12 -38 -27 -56c-15 -17 -64 -60 -87 -72c-18 -9 -44 -18 -66 -18h-125c-22 0 -45 8 -59 18c-19 12 -51 53 -59 71c-9 18 -9 38 -5 57l89 457h105l-91 -463c-2 -11 19 -32 30 -39c1 -1 6 -1 7 -1
h118c2 0 4 1 4 1c14 7 47 34 60 50c2 2 3 7 4 12z" />
    <glyph glyph-name="uogonek" unicode="&#x173;" horiz-adv-x="488" 
d="M164 -198l-56 125l103 29l66 -154h-113zM414 0h-98l-4 25c-20 -13 -45 -29 -68 -29h-75c-25 0 -52 7 -69 21c-13 11 -33 37 -39 49c-10 19 -10 41 -6 61l59 305h100l-59 -310c-1 -5 -1 -5 0 -8c5 -10 10 -16 19 -22c2 -1 3 -1 6 -1h79c10 0 51 26 67 40l58 301h100
l-66 -343z" />
    <glyph glyph-name="Wcircumflex" unicode="&#x174;" horiz-adv-x="738" 
d="M817 598l-254 -598h-119l-19 401l-174 -401h-120l-21 598h103l8 -420l181 420h112l17 -420l172 420h114zM441 637h-113l126 131h90l74 -131h-101l-28 52z" />
    <glyph glyph-name="wcircumflex" unicode="&#x175;" horiz-adv-x="670" 
d="M709 432l-217 -432h-102l-29 271l-135 -271h-102l-49 432h102l26 -279l133 279h105l23 -279l136 279h109zM378 493h-113l126 131h90l74 -131h-101l-28 52z" />
    <glyph glyph-name="Ycircumflex" unicode="&#x176;" horiz-adv-x="520" 
d="M598 598l-264 -337l-50 -261h-105l50 261l-130 337h109l89 -227l177 227h124zM324 637h-113l126 131h90l74 -131h-101l-28 52z" />
    <glyph glyph-name="ycircumflex" unicode="&#x177;" horiz-adv-x="430" 
d="M480 432l-317 -594h-101l89 162h-9l-67 432h104l40 -294l154 294h107zM256 493h-113l126 131h90l74 -131h-101l-28 52z" />
    <glyph glyph-name="longs" unicode="&#x17f;" horiz-adv-x="340" 
d="M405 508h-87c-1 0 -7 0 -11 -2c-11 -6 -38 -25 -42 -37c-1 -3 -1 -4 -91 -469h-100l65 337h-67l18 95h67l8 38c4 21 12 43 30 62c10 11 39 37 57 48c23 14 53 22 78 22h94z" />
    <glyph glyph-name="afii10017" unicode="&#x410;" horiz-adv-x="549" 
d="M515 0h-106l-20 127h-227l-68 -127h-118l325 598h122zM376 227l-35 236l-126 -236h161z" />
    <glyph glyph-name="afii10019" unicode="&#x412;" 
d="M493 136c-4 -21 -13 -42 -29 -60c-11 -13 -47 -44 -63 -54c-23 -14 -52 -22 -76 -22h-281l116 598h281c26 0 50 -9 67 -23c12 -10 36 -41 43 -54c9 -19 9 -42 5 -62l-15 -74c-10 -46 -39 -74 -62 -87c19 -23 37 -44 29 -86zM435 386c0 0 2 2 3 7l14 70c1 4 1 6 0 9
c-5 16 -18 26 -24 26h-182l-29 -151h170c9 0 38 24 48 39zM387 139c0 0 2 3 3 7l14 72c1 4 0 7 0 7c-5 16 -18 25 -24 25h-182l-29 -150h169c9 0 39 24 49 39z" />
    <glyph glyph-name="afii10022" unicode="&#x415;" horiz-adv-x="516" 
d="M420 0h-376l116 598h376l-20 -100h-270l-29 -151h251l-19 -100h-251l-29 -147h270z" />
    <glyph glyph-name="afii10018" unicode="&#x411;" 
d="M502 271c9 -19 10 -38 6 -60l-15 -75c-4 -21 -12 -41 -29 -60c-9 -11 -46 -44 -63 -54c-22 -14 -48 -22 -74 -22h-283l116 598h367l-20 -100h-262l-29 -151h178c25 0 50 -10 66 -22c13 -11 38 -43 42 -54zM387 139c0 0 2 3 3 7l13 67c1 4 1 8 0 12c-4 17 -19 25 -23 25
h-183l-29 -150h169c9 0 40 24 50 39z" />
    <glyph glyph-name="afii10020" unicode="&#x413;" horiz-adv-x="480" 
d="M160 598h370l-20 -100h-262l-99 -498h-105z" />
    <glyph glyph-name="afii10021" unicode="&#x414;" horiz-adv-x="592" 
d="M97 149l139 449h359l-97 -499h48l-55 -180h-107l25 81h-319l-16 -81h-104l34 180h31c7 -1 61 44 62 50zM312 498l-113 -361c-5 -17 -15 -27 -26 -38h220l77 399h-158z" />
    <glyph glyph-name="afii10026" unicode="&#x418;" horiz-adv-x="567" 
d="M163 0h-119l116 598h105l-78 -402l275 402h121l-116 -598h-105l77 397z" />
    <glyph glyph-name="afii10031" unicode="&#x41d;" horiz-adv-x="572" 
d="M472 0h-106l49 247h-217l-49 -247h-105l116 598h106l-50 -251h217l50 251h105z" />
    <glyph glyph-name="afii10029" unicode="&#x41b;" horiz-adv-x="607" 
d="M226 141c-4 -19 -13 -39 -28 -57c-15 -17 -62 -59 -85 -71c-19 -10 -44 -18 -65 -18h-72l19 99l62 1c7 -1 64 45 65 51l88 452h413l-116 -598h-105l96 497h-203z" />
    <glyph glyph-name="afii10025" unicode="&#x417;" horiz-adv-x="526" 
d="M207 253l19 99h133h1c9 0 36 21 46 36c2 3 3 8 3 8l14 72c1 3 0 7 0 7c-6 15 -15 25 -24 25h-125c-1 0 -2 0 -5 -1c-13 -6 -46 -28 -59 -52l-102 29c11 19 22 32 32 43c34 34 87 82 144 82h128c24 0 49 -8 66 -22c12 -10 37 -42 43 -55c9 -18 11 -40 6 -61l-14 -75
c-8 -41 -30 -63 -57 -85c-1 -1 -1 -1 -2 -1c8 -10 15 -20 19 -26c10 -22 11 -36 6 -62l-16 -81c-5 -21 -15 -43 -30 -61c-12 -13 -48 -45 -65 -55c-22 -14 -61 -22 -85 -22h-114c-57 0 -94 46 -114 82c-8 14 -13 32 -16 44l99 26l2 -6c7 -20 26 -38 37 -44c4 -2 8 -2 11 -2
h116c2 0 4 0 6 1c13 7 36 26 46 38c0 0 2 2 3 7l14 73c1 6 2 8 1 11c-4 13 -10 19 -17 25c-2 2 -6 3 -8 3h-142z" />
    <glyph glyph-name="afii10030" unicode="&#x41c;" horiz-adv-x="661" 
d="M561 0h-105l79 409l-170 -262h-69l-68 261l-79 -408h-105l116 598h113l82 -295l196 295h126z" />
    <glyph glyph-name="afii10032" unicode="&#x41e;" horiz-adv-x="589" 
d="M345 -5h-151c-22 0 -45 8 -59 18c-19 12 -51 53 -59 71c-9 18 -9 38 -5 57l61 315c4 19 12 38 27 56c15 17 64 60 87 72c18 9 44 18 66 18h151c22 0 45 -8 59 -18c19 -12 51 -53 59 -71c9 -18 9 -38 5 -57l-61 -315c-4 -19 -12 -38 -27 -56c-15 -17 -64 -60 -87 -72
c-18 -9 -44 -18 -66 -18zM446 502h-144c-2 0 -4 -1 -4 -1c-14 -7 -47 -34 -60 -50c-2 -2 -3 -7 -4 -12l-60 -304c-2 -11 19 -32 30 -39c1 -1 6 -1 7 -1h144c2 0 4 1 4 1c14 7 47 34 60 50c2 2 3 7 4 12l60 304c2 11 -19 32 -30 39c-1 1 -6 1 -7 1z" />
    <glyph glyph-name="afii10033" unicode="&#x41f;" horiz-adv-x="559" 
d="M459 0h-105l96 498h-201l-99 -498h-106l116 598h415z" />
    <glyph glyph-name="afii10034" unicode="&#x420;" horiz-adv-x="537" 
d="M540 372c-4 -22 -15 -43 -30 -61c-12 -13 -48 -43 -64 -53c-24 -15 -52 -22 -76 -22h-175l-45 -236h-106l116 598h281c24 0 49 -8 66 -22c13 -10 37 -42 44 -55c8 -18 10 -40 6 -61zM437 381l18 87s1 4 0 7c-4 11 -14 22 -21 23h-5h-183l-31 -162h166c9 0 41 22 51 36
c0 0 4 5 5 9z" />
    <glyph glyph-name="afii10028" unicode="&#x41a;" horiz-adv-x="532" 
d="M506 0h-119l-159 250h-31l-48 -250h-105l116 598h105l-49 -249h20c85 82 152 168 236 249h129l-287 -302c58 -91 135 -210 192 -296z" />
    <glyph glyph-name="afii10024" unicode="&#x416;" horiz-adv-x="817" 
d="M791 0h-119l-159 250h-31l-48 -250h-105l48 249h-19c-85 -82 -152 -168 -236 -249h-129l287 302c-58 91 -135 210 -192 296h119l159 -250h30l49 250h105l-49 -249h20c85 82 152 168 236 249h129l-287 -302c58 -91 135 -210 192 -296z" />
    <glyph glyph-name="afii10035" unicode="&#x421;" horiz-adv-x="553" 
d="M490 116c-11 -18 -18 -27 -28 -38c-33 -35 -87 -83 -143 -83h-125c-22 0 -45 8 -59 18c-19 12 -51 53 -59 71c-9 18 -9 38 -5 57l61 315c4 19 12 38 27 56c15 17 64 60 87 72c18 9 44 18 66 18h125c56 0 91 -49 110 -83c6 -11 9 -19 15 -35l-100 -28s-23 36 -36 45
c-1 1 -3 1 -4 1h-120c-2 0 -4 -1 -4 -1c-14 -7 -47 -34 -60 -50c-2 -2 -3 -7 -4 -12l-60 -304c-2 -11 19 -32 30 -39c1 -1 6 -1 7 -1h118c1 0 3 0 5 1c23 10 54 48 54 48z" />
    <glyph glyph-name="afii10036" unicode="&#x422;" horiz-adv-x="499" 
d="M537 498h-161l-96 -498h-106l96 498h-162l20 100h429z" />
    <glyph glyph-name="afii10037" unicode="&#x423;" horiz-adv-x="525" 
d="M590 598l-363 -598h-108l93 159h-15l-91 439h106l65 -329l199 329h114z" />
    <glyph glyph-name="afii10039" unicode="&#x425;" horiz-adv-x="532" 
d="M116 0h-125l250 312l-123 286h110l85 -200l158 200h125l-239 -298l130 -300h-111l-91 213z" />
    <glyph glyph-name="afii10049" unicode="&#x42f;" horiz-adv-x="553" 
d="M118 0h-124l190 244c-12 2 -27 9 -34 15c-12 10 -36 40 -43 53c-8 18 -10 39 -6 61l17 87c4 21 14 43 30 61c11 13 48 45 63 55c23 14 53 22 77 22h281l-116 -598h-106l47 237h-96zM222 451l-17 -82c-1 -4 -1 -9 1 -12c8 -13 19 -20 22 -20h185l31 161h-169h-5
c-12 -1 -36 -26 -46 -40c-1 -1 -2 -7 -2 -7z" />
    <glyph glyph-name="afii10027" unicode="&#x419;" horiz-adv-x="567" 
d="M452 762h59c-11 -58 -64 -104 -123 -104c-53 0 -96 46 -85 104h57c-5 -26 7 -48 33 -48s54 22 59 48zM163 0h-119l116 598h105l-78 -402l275 402h121l-116 -598h-105l77 397z" />
    <glyph glyph-name="afii10040" unicode="&#x426;" horiz-adv-x="572" 
d="M478 99h48l-56 -178h-107l26 79h-345l116 598h107l-99 -499h205l94 499h108z" />
    <glyph glyph-name="afii10042" unicode="&#x428;" horiz-adv-x="661" 
d="M160 598h105l-97 -499h102l97 499h104l-97 -499h101l97 499h105l-116 -598h-517z" />
    <glyph glyph-name="afii10043" unicode="&#x429;" horiz-adv-x="674" 
d="M160 598h105l-97 -499h102l97 499h104l-97 -499h101l97 499h105l-97 -499h48l-56 -178h-107l26 79h-447z" />
    <glyph glyph-name="afii10047" unicode="&#x42d;" horiz-adv-x="526" 
d="M107 481c11 18 18 27 28 38c33 35 87 83 143 83h125c22 0 45 -8 59 -18c19 -12 51 -53 59 -71c9 -18 9 -38 5 -57l-61 -315c-4 -19 -12 -38 -27 -56c-15 -17 -64 -60 -87 -72c-18 -9 -44 -18 -66 -18h-125c-56 0 -91 49 -110 83c-6 11 -9 19 -15 35l100 28s23 -36 36 -45
c1 -1 3 -1 4 -1h120c2 0 4 1 4 1c14 7 47 34 60 50c2 2 3 7 4 12l18 95h-177l19 99h178l22 110c2 11 -19 32 -30 39c-1 1 -6 1 -7 1h-118c-1 0 -3 0 -5 -1c-23 -10 -54 -48 -54 -48z" />
    <glyph glyph-name="afii10046" unicode="&#x42c;" 
d="M502 271c9 -19 10 -38 6 -60l-15 -75c-4 -21 -12 -41 -29 -60c-9 -11 -46 -44 -63 -54c-22 -14 -48 -22 -74 -22h-283l116 598h106l-50 -251h178c25 0 50 -10 66 -22c13 -11 38 -43 42 -54zM387 139c0 0 2 3 3 7l13 67c1 4 1 8 0 12c-4 17 -19 25 -23 25h-183l-29 -150
h169c9 0 40 24 50 39z" />
    <glyph glyph-name="afii10044" unicode="&#x42a;" horiz-adv-x="585" 
d="M532 271c9 -19 10 -38 6 -60l-15 -75c-4 -21 -12 -41 -29 -60c-9 -11 -46 -44 -63 -54c-22 -14 -48 -22 -74 -22h-283l96 498h-92l20 100h198l-50 -251h178c25 0 50 -10 66 -22c13 -11 38 -43 42 -54zM417 139c0 0 2 3 3 7l13 67c1 4 1 8 0 12c-4 17 -19 25 -23 25h-183
l-29 -150h169c9 0 40 24 50 39z" />
    <glyph glyph-name="afii10045" unicode="&#x42b;" horiz-adv-x="771" 
d="M671 0h-105l116 598h105zM502 271c9 -19 10 -38 6 -60l-15 -75c-4 -21 -12 -41 -29 -60c-9 -11 -46 -44 -63 -54c-22 -14 -48 -22 -74 -22h-283l116 598h106l-50 -251h178c25 0 50 -10 66 -22c13 -11 38 -43 42 -54zM387 139c0 0 2 3 3 7l13 67c1 4 1 8 0 12
c-4 17 -19 25 -23 25h-183l-29 -150h169c9 0 40 24 50 39z" />
    <glyph glyph-name="afii10048" unicode="&#x42e;" horiz-adv-x="785" 
d="M542 -5h-151c-22 0 -45 8 -59 18c-19 12 -51 53 -59 71c-9 18 -9 38 -5 57l20 106h-91l-48 -247h-105l116 598h105l-49 -251h92l21 109c4 19 12 38 27 56c15 17 64 60 87 72c18 9 44 18 66 18h151c22 0 45 -8 59 -18c19 -12 51 -53 59 -71c9 -18 9 -38 5 -57l-61 -315
c-4 -19 -12 -38 -27 -56c-15 -17 -64 -60 -87 -72c-18 -9 -44 -18 -66 -18zM643 502h-144c-2 0 -4 -1 -4 -1c-14 -7 -47 -34 -60 -50c-2 -2 -3 -7 -4 -12l-60 -304c-2 -11 19 -32 30 -39c1 -1 6 -1 7 -1h144c2 0 4 1 4 1c14 7 47 34 60 50c2 2 3 7 4 12l60 304
c2 11 -19 32 -30 39c-1 1 -6 1 -7 1z" />
    <glyph glyph-name="afii10041" unicode="&#x427;" horiz-adv-x="550" 
d="M450 0h-105l48 247h-172c-22 0 -45 8 -59 18c-19 12 -50 55 -59 72c-8 18 -9 38 -5 57l40 204h105l-40 -204c-1 -4 -1 -6 0 -9c6 -19 19 -30 28 -36c3 -2 6 -2 8 -2h173l49 251h105z" />
    <glyph glyph-name="afii10038" unicode="&#x424;" horiz-adv-x="619" 
d="M445 671l-14 -69h62c22 0 45 -8 59 -18c19 -12 51 -53 59 -71c9 -18 9 -38 5 -57l-61 -315c-4 -19 -12 -38 -27 -56c-15 -17 -64 -60 -87 -72c-18 -9 -44 -18 -66 -18h-62l-15 -78h-58l15 78h-61c-22 0 -45 8 -59 18c-19 12 -51 53 -59 71c-9 18 -9 38 -5 57l61 315
c4 19 12 38 27 56c15 17 64 60 87 72c18 9 44 18 66 18h61l14 69h58zM476 502h-64l-80 -407h53c2 0 4 1 4 1c14 7 47 34 60 50c2 2 3 7 4 12l60 304c2 11 -19 32 -30 39c-1 1 -6 1 -7 1zM204 96c1 -1 6 -1 7 -1h63l80 407h-52c-2 0 -4 -1 -4 -1c-14 -7 -47 -34 -60 -50
c-2 -2 -3 -7 -4 -12l-60 -304c-2 -11 19 -32 30 -39z" />
    <glyph glyph-name="afii10055" unicode="&#x406;" horiz-adv-x="249" 
d="M151 0h-107l116 598h105z" />
    <glyph glyph-name="afii10050" unicode="&#x490;" horiz-adv-x="491" 
d="M521 498h-274l-98 -498h-105l116 598h278l16 85h103z" />
    <glyph glyph-name="afii10070" unicode="&#x435;" horiz-adv-x="481" 
d="M436 168h-271l-9 -47v-5c6 -15 21 -26 28 -26h99c10 0 36 20 43 27l4 4l90 -29c-14 -24 -60 -63 -78 -74c-22 -13 -52 -23 -76 -23h-94c-25 0 -52 7 -69 21c-13 11 -33 37 -39 48c-10 18 -11 40 -7 62l35 180c4 22 14 43 31 61c10 11 40 37 57 48c23 14 52 22 77 22h92
c25 0 52 -8 69 -22c13 -11 33 -36 39 -48c10 -19 10 -41 6 -61zM353 257l11 54s1 5 0 6c-3 7 -15 20 -21 24c-2 1 -4 1 -6 1h-94c-10 0 -38 -21 -50 -36c-1 -1 -2 -6 -2 -6l-9 -43h171z" />
    <glyph glyph-name="afii10065" unicode="&#x430;" horiz-adv-x="479" 
d="M344 271l8 41s1 4 0 5c-3 7 -14 19 -20 23c-2 1 -4 2 -6 2h-92c-12 0 -38 -24 -46 -32l-92 29c15 24 62 63 80 74c21 13 52 24 76 24h86c25 0 52 -8 69 -22c13 -11 33 -35 39 -47c10 -19 9 -42 5 -62l-42 -218l-2 -88h-99l-7 22c-20 -13 -43 -27 -66 -27h-82
c-25 0 -51 8 -68 22c-13 11 -32 36 -38 47c-10 18 -10 39 -6 61l3 18c5 22 14 43 30 61c10 11 39 34 56 45c23 14 51 22 76 22h138zM317 131l10 51h-134c-3 0 -6 -1 -8 -2c-12 -7 -30 -23 -40 -35c0 0 -1 -2 -1 -3l-4 -23c0 -1 0 -2 1 -4c4 -9 13 -19 18 -23c0 0 2 -2 6 -2
h82c11 0 60 32 70 41z" />
    <glyph glyph-name="afii10082" unicode="&#x440;" horiz-adv-x="491" 
d="M215 410c21 14 46 27 70 27h73c25 0 52 -8 69 -22c13 -11 33 -36 39 -48c10 -19 9 -41 5 -61l-35 -180c-4 -20 -11 -42 -29 -61c-10 -12 -40 -38 -57 -49c-23 -14 -52 -21 -77 -21h-73c-21 0 -40 11 -55 23l-35 -181h-100l98 506l8 89h99v-22zM286 90c2 0 4 1 6 2
c10 5 41 26 44 34l35 184c0 1 1 5 0 7c-3 7 -13 20 -19 24c-2 1 -3 1 -5 1h-77c-11 0 -55 -30 -71 -45l-32 -171c10 -15 34 -36 46 -36h73z" />
    <glyph glyph-name="afii10083" unicode="&#x441;" horiz-adv-x="469" 
d="M193 298l-35 -179s0 -3 1 -6c4 -9 13 -17 19 -21c0 0 4 -2 6 -2h101c10 0 35 20 42 27l4 4l92 -29c-14 -24 -60 -63 -78 -74c-22 -13 -52 -23 -76 -23h-96c-25 0 -52 7 -69 21c-13 11 -33 37 -39 49c-10 19 -10 41 -6 61l35 180c4 20 12 42 30 61c10 12 40 37 57 48
c23 14 52 22 77 22h92c24 0 51 -12 68 -25c13 -11 45 -50 50 -74l-93 -27l-2 4c-5 7 -22 27 -32 27h-93c-2 0 -7 -1 -9 -2c-14 -7 -35 -22 -43 -34c-2 -3 -3 -8 -3 -8z" />
    <glyph glyph-name="afii10085" unicode="&#x443;" horiz-adv-x="427" 
d="M480 432l-317 -594h-101l89 162h-9l-67 432h104l40 -294l154 294h107z" />
    <glyph glyph-name="afii10086" unicode="&#x444;" horiz-adv-x="500" 
d="M374 599l-32 -162h25c25 0 52 -8 69 -22c13 -11 33 -36 39 -48c10 -19 9 -41 5 -61l-35 -180c-4 -20 -11 -42 -29 -61c-10 -12 -40 -38 -57 -49c-23 -14 -52 -21 -77 -21h-26l-30 -158h-58l30 158h-26c-25 0 -51 7 -68 21c-13 11 -34 37 -40 49c-10 19 -9 41 -5 61
l35 180c4 20 11 42 29 61c10 12 41 37 58 48c23 14 51 22 76 22h27l32 162h58zM192 298l-35 -184c-2 -6 12 -18 20 -23c0 0 2 -1 6 -1h34l49 252h-22c-2 0 -3 0 -5 -1c-14 -7 -35 -25 -44 -37c-2 -2 -3 -6 -3 -6zM356 342h-32l-49 -252h20c2 0 4 1 6 2c10 5 41 26 44 34
l35 184c0 1 1 5 0 7c-3 7 -13 20 -19 24c-2 1 -3 1 -5 1z" />
    <glyph glyph-name="afii10087" unicode="&#x445;" horiz-adv-x="449" 
d="M118 0h-126l193 228l-104 204h113l62 -122l102 122h125l-180 -213l112 -219h-112l-71 137z" />
    <glyph glyph-name="afii10079" unicode="&#x43d;" horiz-adv-x="495" 
d="M394 432h101l-83 -432h-101l33 179h-165l-35 -179h-101l83 432h102l-31 -158h166z" />
    <glyph glyph-name="afii10080" unicode="&#x43e;" horiz-adv-x="484" 
d="M429 126c-4 -20 -11 -42 -29 -61c-10 -12 -40 -38 -57 -49c-23 -14 -52 -21 -77 -21h-94c-25 0 -51 7 -68 21c-13 11 -34 37 -40 49c-10 19 -9 41 -5 61l35 180c4 20 11 42 29 61c10 12 41 37 58 48c23 14 51 22 76 22h94c25 0 52 -8 69 -22c13 -11 33 -36 39 -48
c10 -19 9 -41 5 -61zM192 298l-35 -184c-2 -6 12 -18 20 -23c0 0 2 -1 6 -1h96c2 0 4 1 6 2c10 5 41 26 44 34l35 184c0 1 1 5 0 7c-3 7 -13 20 -19 24c-2 1 -3 1 -5 1h-96c-2 0 -3 0 -5 -1c-14 -7 -35 -25 -44 -37c-2 -2 -3 -6 -3 -6z" />
    <glyph glyph-name="afii10081" unicode="&#x43f;" horiz-adv-x="495" 
d="M126 432h369l-83 -432h-101l64 337h-165l-66 -337h-101z" />
    <glyph glyph-name="afii10077" unicode="&#x43b;" horiz-adv-x="526" 
d="M7 84h40c4 0 6 1 6 1c12 7 34 24 44 38c0 0 1 3 2 5l58 304h369l-83 -432h-101l65 337h-167l-42 -215c-4 -22 -13 -44 -30 -63c-10 -11 -41 -38 -60 -49c-22 -14 -51 -21 -75 -21h-44z" />
    <glyph glyph-name="afii10068" unicode="&#x433;" horiz-adv-x="398" 
d="M126 432h300l-18 -95h-198l-66 -337h-101z" />
    <glyph glyph-name="afii10074" unicode="&#x438;" horiz-adv-x="508" 
d="M401 432h107l-83 -432h-100l51 266l-230 -266h-103l83 432h100l-50 -262z" />
    <glyph glyph-name="afii10102" unicode="&#x455;" horiz-adv-x="469" 
d="M128 120l2 -4c5 -10 21 -25 31 -26h114c12 0 46 27 49 41l4 20c1 5 0 13 -11 14c-34 3 -104 10 -160 15c-52 4 -87 38 -74 102l5 27c4 22 13 43 29 61c36 40 79 67 129 67h96c24 0 52 -10 68 -23c14 -11 45 -50 51 -74l-93 -26l-2 4c-4 8 -17 24 -27 24h-104s-9 0 -13 -2
c-5 -2 -25 -17 -33 -28c0 0 -1 -2 -3 -10l-3 -20c-1 -3 2 -12 12 -13c25 -3 99 -11 153 -17c53 -6 92 -38 79 -104l-4 -24c-5 -22 -15 -43 -31 -61c-11 -12 -36 -35 -54 -46c-23 -14 -50 -22 -75 -22h-108c-24 0 -51 11 -68 24c-14 11 -44 50 -49 74z" />
    <glyph glyph-name="afii10103" unicode="&#x456;" horiz-adv-x="230" 
d="M239 493h-107l21 107h107zM144 0h-100l83 432h100z" />
    <glyph glyph-name="afii10057" unicode="&#x408;" horiz-adv-x="472" 
d="M396 141c-4 -19 -13 -39 -28 -57c-15 -17 -62 -59 -85 -71c-19 -10 -44 -18 -65 -18h-74c-58 0 -92 47 -112 83c-3 4 -6 12 -13 38l99 25c6 -22 21 -39 32 -45c1 -1 10 -1 8 -1h66c7 -1 67 49 68 55l88 448h105z" />
    <glyph glyph-name="afii10052" unicode="&#x403;" horiz-adv-x="480" 
d="M399 654l-92 27l115 119h124zM160 598h370l-20 -100h-262l-99 -498h-105z" />
    <glyph glyph-name="afii10100" unicode="&#x453;" horiz-adv-x="416" 
d="M335 488l-92 27l115 119h124zM126 432h300l-18 -95h-198l-66 -337h-101z" />
    <glyph glyph-name="afii10075" unicode="&#x439;" horiz-adv-x="508" 
d="M397 596h59c-11 -58 -64 -104 -123 -104c-53 0 -96 46 -85 104h57c-5 -26 7 -48 33 -48s54 22 59 48zM401 432h107l-83 -432h-100l51 266l-230 -266h-103l83 432h100l-50 -262z" />
    <glyph glyph-name="afii10078" unicode="&#x43c;" horiz-adv-x="538" 
d="M429 432h109l-83 -432h-100l46 240c-34 -45 -70 -100 -100 -142h-65l-46 146l-47 -244h-100l83 432h101l64 -194c44 63 96 134 138 194z" />
    <glyph glyph-name="afii10076" unicode="&#x43a;" horiz-adv-x="495" 
d="M465 0h-123l-126 177h-40l-34 -177h-100l84 432h100l-32 -161h26c56 51 117 112 171 161h134l-226 -209z" />
    <glyph glyph-name="afii10056" unicode="&#x407;" horiz-adv-x="249" 
d="M350 653h-97l20 103h97zM189 653h-97l20 103h97zM151 0h-107l116 598h105z" />
    <glyph glyph-name="afii10104" unicode="&#x457;" horiz-adv-x="231" 
d="M317 495h-97l20 103h97zM156 495h-97l20 103h97zM143 -1h-100l84 431h100z" />
    <glyph glyph-name="afii10066" unicode="&#x431;" horiz-adv-x="487" 
d="M213 403c0 0 41 34 64 34h74c25 0 52 -8 69 -22c13 -11 33 -36 39 -48c10 -19 9 -41 5 -61l-35 -180c-4 -20 -11 -42 -29 -61c-10 -12 -40 -38 -57 -49c-23 -14 -52 -21 -77 -21h-94c-25 0 -51 7 -68 21c-13 11 -34 37 -40 49c-10 19 -9 41 -5 61l65 337
c5 21 15 43 30 61c12 13 50 45 66 55c22 14 49 22 73 22h123c1 0 -39 -93 -37 -93h-102c-10 0 -48 -36 -48 -36c-3 -3 -4 -7 -5 -11zM192 295l-35 -181c-2 -6 12 -18 20 -23c0 0 2 -1 6 -1h96c2 0 4 1 6 2c10 5 41 26 44 34l35 184c0 1 1 5 0 7c-3 7 -13 20 -19 24
c-2 1 -3 1 -5 1h-74c-1 0 -11 1 -17 -3c0 0 -45 -27 -57 -44z" />
    <glyph glyph-name="afii10023" unicode="&#x401;" horiz-adv-x="516" 
d="M493 653h-97l20 103h97zM332 653h-97l20 103h97zM420 0h-376l116 598h376l-20 -100h-270l-29 -151h251l-19 -100h-251l-29 -147h270z" />
    <glyph glyph-name="afii10071" unicode="&#x451;" horiz-adv-x="481" 
d="M440 495h-97l20 103h97zM279 495h-97l20 103h97zM436 168h-271l-9 -47v-5c6 -15 21 -26 28 -26h99c10 0 36 20 43 27l4 4l90 -29c-14 -24 -60 -63 -78 -74c-22 -13 -52 -23 -76 -23h-94c-25 0 -52 7 -69 21c-13 11 -33 37 -39 48c-10 18 -11 40 -7 62l35 180
c4 22 14 43 31 61c10 11 40 37 57 48c23 14 52 22 77 22h92c25 0 52 -8 69 -22c13 -11 33 -36 39 -48c10 -19 10 -41 6 -61zM353 257l11 54s1 5 0 6c-3 7 -15 20 -21 24c-2 1 -4 1 -6 1h-94c-10 0 -38 -21 -50 -36c-1 -1 -2 -6 -2 -6l-9 -43h171z" />
    <glyph glyph-name="afii10067" unicode="&#x432;" horiz-adv-x="473" 
d="M427 236c-5 -6 -12 -13 -20 -19c5 -6 11 -14 14 -20c8 -19 10 -37 5 -60l-3 -17c-5 -21 -13 -39 -29 -58c-11 -12 -34 -34 -51 -45c-20 -13 -49 -21 -73 -21h-228l85 439h228c24 -1 50 -9 65 -23c12 -11 29 -34 34 -44c9 -18 9 -39 5 -61l-3 -14c-5 -22 -13 -40 -29 -57z
M342 342h-135l-16 -80h130h2h1c11 7 27 21 36 33l4 21c-4 11 -9 20 -18 25c-2 1 -3 1 -4 1zM325 123l7 23c-3 10 -13 21 -19 24c-2 1 -4 1 -5 1h-134l-16 -83h125c11 7 33 22 42 35z" />
    <glyph glyph-name="afii10097" unicode="&#x44f;" horiz-adv-x="478" 
d="M5 0l142 178c-5 1 -14 8 -17 10c-14 12 -28 34 -33 45c-9 18 -10 38 -6 60l4 17c5 20 13 39 28 57c9 12 35 36 52 46c21 13 49 22 73 22h231l-84 -435h-99l32 167h-74s-129 -167 -130 -167h-119zM193 309c-4 -18 -5 -26 -5 -27c4 -12 9 -18 17 -23h141l16 83h-131
c-11 -6 -30 -21 -38 -33z" />
    <glyph glyph-name="afii10072" unicode="&#x436;" horiz-adv-x="765" 
d="M736 0h-123l-126 177h-40l-34 -177h-100l31 161h-25c-56 -51 -117 -112 -171 -161h-134l226 209l-166 223h123l126 -177h39l36 177h98l-32 -161h27c56 51 117 112 171 161h134l-226 -209z" />
    <glyph glyph-name="afii10073" unicode="&#x437;" horiz-adv-x="460" 
d="M443 291c-5 -21 -15 -39 -29 -55c-4 -5 -14 -13 -22 -19c5 -6 12 -14 15 -20c8 -18 11 -37 6 -60l-2 -11c-4 -22 -15 -44 -31 -62c-10 -11 -40 -37 -57 -48c-23 -14 -52 -21 -77 -21h-94c-24 0 -52 10 -68 23c-14 11 -44 50 -50 74l91 28s1 -3 2 -4c5 -7 22 -26 32 -26
h103c9 0 29 16 44 31c2 2 5 5 6 9l3 14c-4 11 -10 20 -18 26c-1 1 -4 1 -5 1h-105l17 90h104c11 7 28 21 36 33l2 13c1 4 0 7 -1 10c-5 15 -19 23 -26 23h-103c-10 0 -35 -19 -42 -26c-2 -1 -4 -4 -4 -4l-88 28c15 24 60 63 79 74c21 13 52 23 76 23h94c25 0 52 -7 69 -21
c13 -11 33 -37 39 -48c9 -18 11 -40 7 -62z" />
    <glyph glyph-name="afii10095" unicode="&#x44d;" horiz-adv-x="474" 
d="M316 134l7 37h-132l17 90h132l11 52s0 3 -1 6c-4 9 -13 17 -19 21c0 0 -4 2 -6 2h-101c-10 0 -35 -20 -42 -27l-4 -4l-92 29c14 24 60 63 78 74c22 13 52 23 76 23h96c25 0 52 -7 69 -21c13 -11 33 -37 39 -49c10 -19 10 -41 6 -61l-35 -180c-4 -20 -12 -42 -30 -61
c-10 -12 -40 -37 -57 -48c-23 -14 -52 -22 -77 -22h-92c-24 0 -51 12 -68 25c-13 11 -45 50 -50 74l93 27l2 -4c5 -7 22 -27 32 -27h93c2 0 7 1 9 2c14 7 35 22 43 34c2 3 3 8 3 8z" />
    <glyph glyph-name="afii10069" unicode="&#x434;" horiz-adv-x="526" 
d="M446 93h51l-54 -170h-97l23 77h-267l-15 -77h-97l32 170c11 0 34 0 40 3c9 4 27 21 36 33c2 2 3 4 5 8l98 295h310zM204 131c-3 -9 -20 -32 -26 -38h170l47 246h-121z" />
    <glyph glyph-name="afii10084" unicode="&#x442;" horiz-adv-x="433" 
d="M443 337h-132l-67 -337h-100l65 337h-134l18 95h368z" />
    <glyph glyph-name="afii10088" unicode="&#x446;" horiz-adv-x="510" 
d="M430 93h51l-54 -170h-97l23 77h-310l83 432h102l-67 -337h168l67 337h100z" />
    <glyph glyph-name="afii10090" unicode="&#x448;" horiz-adv-x="582" 
d="M582 432l-83 -432h-455l83 432h98l-65 -339h79l65 339h98l-65 -339h82l65 339h98z" />
    <glyph glyph-name="afii10091" unicode="&#x449;" horiz-adv-x="598" 
d="M518 93h51l-54 -170h-97l23 77h-397l83 432h98l-65 -339h79l65 339h98l-65 -339h82l65 339h98l-66 -341z" />
    <glyph glyph-name="afii10089" unicode="&#x447;" horiz-adv-x="474" 
d="M205 432l-26 -134c-1 -4 0 -6 1 -9c4 -11 13 -21 18 -25c0 0 3 -3 7 -3h135l35 171h98l-83 -432h-99l31 168h-131c-24 0 -49 7 -66 21c-14 11 -33 38 -39 49c-10 19 -10 41 -6 63l25 131h100z" />
    <glyph glyph-name="afii10101" unicode="&#x454;" horiz-adv-x="476" 
d="M193 298l-8 -37h133l-17 -90h-133l-10 -52s0 -3 1 -6c4 -9 13 -17 19 -21c0 0 4 -2 6 -2h101c10 0 35 20 42 27l4 4l92 -29c-14 -24 -60 -63 -78 -74c-22 -13 -52 -23 -76 -23h-96c-25 0 -52 7 -69 21c-13 11 -33 37 -39 49c-10 19 -10 41 -6 61l35 180c4 20 12 42 30 61
c10 12 40 37 57 48c23 14 52 22 77 22h92c24 0 51 -12 68 -25c13 -11 45 -50 50 -74l-93 -27l-2 4c-5 7 -22 27 -32 27h-93c-2 0 -7 -1 -9 -2c-14 -7 -35 -22 -43 -34c-2 -3 -3 -8 -3 -8z" />
    <glyph glyph-name="afii10053" unicode="&#x404;" 
d="M490 116c-11 -18 -18 -27 -28 -38c-33 -35 -87 -83 -143 -83h-125c-22 0 -45 8 -59 18c-19 12 -51 53 -59 71c-9 18 -9 38 -5 57l61 315c4 19 12 38 27 56c15 17 64 60 87 72c18 9 44 18 66 18h125c56 0 91 -49 110 -83c6 -11 9 -19 15 -35l-100 -28s-23 36 -36 45
c-1 1 -3 1 -4 1h-120c-2 0 -4 -1 -4 -1c-14 -7 -47 -34 -60 -50c-2 -2 -3 -7 -4 -12l-17 -87h178l-19 -99h-179l-23 -118c-2 -11 19 -32 30 -39c1 -1 6 -1 7 -1h118c1 0 3 0 5 1c23 10 54 48 54 48z" />
    <glyph glyph-name="afii10061" unicode="&#x40c;" horiz-adv-x="522" 
d="M506 0h-119l-169 250h-21l-48 -250h-105l116 598h105l-49 -249h10c85 82 162 168 246 249h129l-297 -302c58 -91 145 -210 202 -296zM420 654l-92 27l115 119h124z" />
    <glyph glyph-name="afii10109" unicode="&#x45c;" horiz-adv-x="495" 
d="M375 488l-92 27l115 119h124zM465 0h-123l-126 177h-40l-34 -177h-100l84 432h100l-32 -161h26c56 51 117 112 171 161h134l-226 -209z" />
    <glyph glyph-name="afii10094" unicode="&#x44c;" horiz-adv-x="491" 
d="M225 432l-29 -159h138c25 0 50 -8 67 -22c13 -11 32 -36 38 -47c10 -18 11 -39 6 -61l-3 -18c-4 -22 -14 -43 -30 -61c-10 -11 -39 -36 -56 -47c-23 -14 -51 -22 -76 -22h-238l84 437h99zM177 179l-18 -89h134c2 0 6 2 6 2c13 7 32 21 41 33c0 0 2 2 3 6l3 15
c1 5 0 6 -1 8c-6 11 -10 16 -18 23c-1 1 -5 2 -8 2h-142z" />
    <glyph glyph-name="afii10092" unicode="&#x44a;" horiz-adv-x="516" 
d="M250 432l-29 -159h138c25 0 50 -8 67 -22c13 -11 32 -36 38 -47c10 -18 11 -39 6 -61l-3 -18c-4 -22 -14 -43 -30 -61c-10 -11 -39 -36 -56 -47c-23 -14 -51 -22 -76 -22h-238l66 343h-77l18 94h176zM202 179l-18 -89h134c2 0 6 2 6 2c13 7 32 21 41 33c0 0 2 2 3 6l3 15
c1 5 0 6 -1 8c-6 11 -10 16 -18 23c-1 1 -5 2 -8 2h-142z" />
    <glyph glyph-name="afii10093" unicode="&#x44b;" horiz-adv-x="668" 
d="M585 0h-100l83 432h100zM225 432l-29 -159h138c25 0 50 -8 67 -22c13 -11 32 -36 38 -47c10 -18 11 -39 6 -61l-3 -18c-4 -22 -14 -43 -30 -61c-10 -11 -39 -36 -56 -47c-23 -14 -51 -22 -76 -22h-238l84 437h99zM177 179l-18 -89h134c2 0 6 2 6 2c13 7 32 21 41 33
c0 0 2 2 3 6l3 15c1 5 0 6 -1 8c-6 11 -10 16 -18 23c-1 1 -5 2 -8 2h-142z" />
    <glyph glyph-name="afii10054" unicode="&#x405;" horiz-adv-x="571" 
d="M513 142c-3 -17 -10 -39 -27 -57c-15 -18 -64 -60 -87 -72c-18 -9 -44 -18 -65 -18h-159c-56 0 -92 48 -111 83c-6 11 -7 16 -12 31l98 31s15 -26 35 -44c0 0 2 -1 7 -1h150c4 0 6 1 6 1c17 8 60 45 61 53l12 57c2 9 -4 16 -9 17l-247 67c-49 14 -66 63 -57 109l11 56
c3 17 11 39 26 57c16 18 65 60 88 72c18 9 44 18 66 18h148c57 0 91 -49 110 -83c6 -11 9 -20 14 -35l-99 -27s-17 31 -35 44c0 0 -1 1 -6 1h-140c-4 0 -6 -1 -6 -1c-18 -8 -61 -46 -62 -54l-10 -48c-2 -9 3 -16 7 -17l249 -69c48 -14 65 -64 56 -109z" />
    <glyph glyph-name="afii10105" unicode="&#x458;" horiz-adv-x="246" 
d="M256 493h-107l21 107h107zM-75 -72h74c4 0 6 1 6 1c12 7 36 24 46 38c0 0 2 3 3 7l89 458h100l-90 -464c-4 -22 -13 -44 -30 -63c-10 -11 -40 -38 -58 -49c-23 -14 -52 -21 -75 -21h-84z" />
    <glyph glyph-name="afii10096" unicode="&#x44e;" horiz-adv-x="665" 
d="M609 126c-4 -20 -11 -42 -29 -61c-10 -12 -40 -38 -57 -49c-23 -14 -52 -21 -77 -21h-94c-25 0 -51 7 -68 21c-13 11 -34 37 -40 49c-10 19 -9 41 -5 61l10 53h-72l-34 -179h-100l83 432h100l-30 -158h72l6 32c4 20 11 42 29 61c10 12 41 37 58 48c23 14 51 22 76 22h94
c25 0 52 -8 69 -22c13 -11 33 -36 39 -48c10 -19 9 -41 5 -61zM372 298l-35 -184c-2 -6 12 -18 20 -23c0 0 2 -1 6 -1h96c2 0 4 1 6 2c10 5 41 26 44 34l35 184c0 1 1 5 0 7c-3 7 -13 20 -19 24c-2 1 -3 1 -5 1h-96c-2 0 -3 0 -5 -1c-14 -7 -35 -25 -44 -37
c-2 -2 -3 -6 -3 -6z" />
    <glyph glyph-name="afii10098" unicode="&#x491;" horiz-adv-x="411" 
d="M410 341h-1l-1 -4h-198l-67 -337h-100l83 432h202l17 83h99z" />
    <glyph glyph-name="afii10058" unicode="&#x409;" horiz-adv-x="903" 
d="M850 271c9 -19 10 -38 6 -60l-15 -75c-4 -21 -12 -41 -29 -60c-9 -11 -46 -44 -63 -54c-22 -14 -48 -22 -74 -22h-273l96 497h-203l-69 -356c-4 -19 -13 -39 -28 -57c-15 -17 -62 -59 -85 -71c-19 -10 -44 -18 -65 -18h-72l19 99l62 1c7 -1 64 45 65 51l88 452h414
l-50 -251h168c25 0 50 -10 66 -22c13 -11 38 -43 42 -54zM735 139c0 0 2 3 3 7l13 67c1 4 1 8 0 12c-4 17 -19 25 -23 25h-173l-29 -150h159c9 0 40 24 50 39z" />
    <glyph glyph-name="afii10059" unicode="&#x40a;" horiz-adv-x="878" 
d="M820 271c9 -19 10 -38 6 -60l-15 -75c-4 -21 -12 -41 -29 -60c-9 -11 -46 -44 -63 -54c-22 -14 -48 -22 -74 -22h-279l45 227l4 20h-217l-49 -247h-105l116 598h106l-50 -251h217l50 251h106l-50 -251h173c25 0 50 -10 66 -22c13 -11 38 -43 42 -54zM705 139c0 0 2 3 3 7
l13 67c1 4 1 8 0 12c-4 17 -19 25 -23 25h-178l-29 -150h164c9 0 40 24 50 39z" />
    <glyph glyph-name="afii10106" unicode="&#x459;" horiz-adv-x="791" 
d="M7 84h40c4 0 6 1 6 1c12 7 34 24 44 38c0 0 1 3 2 5l58 304h369l-31 -159h138c25 0 50 -8 67 -22c13 -11 32 -36 38 -47c10 -18 11 -39 6 -61l-3 -18c-4 -22 -14 -43 -30 -61c-10 -11 -39 -36 -56 -47c-23 -14 -51 -22 -76 -22h-238l65 342h-166l-42 -215
c-4 -22 -13 -44 -30 -63c-10 -11 -41 -38 -60 -49c-22 -14 -51 -21 -75 -21h-44zM618 179h-141l-17 -89h132c2 0 6 2 6 2c13 7 32 21 41 33c0 0 2 2 3 6l3 15c1 5 0 6 -1 8c-6 11 -10 16 -18 23c-1 1 -5 2 -8 2z" />
    <glyph glyph-name="afii10107" unicode="&#x45a;" horiz-adv-x="760" 
d="M394 432h101l-31 -159h138c25 0 50 -8 67 -22c13 -11 32 -36 38 -47c10 -18 11 -39 6 -61l-3 -18c-4 -22 -14 -43 -30 -61c-10 -11 -39 -36 -56 -47c-23 -14 -51 -22 -76 -22h-238l2 10l32 174h-165l-35 -179h-101l83 432h102l-31 -158h166zM587 179h-141l-17 -89h132
c2 0 6 2 6 2c13 7 32 21 41 33c0 0 2 2 3 6l3 15c1 5 0 6 -1 8c-6 11 -10 16 -18 23c-1 1 -5 2 -8 2z" />
    <glyph glyph-name="afii10060" unicode="&#x40b;" horiz-adv-x="607" 
d="M424 0l59 309c1 4 0 6 0 6c-4 12 -10 19 -19 25c-3 2 -5 2 -8 2h-74c-13 0 -54 -29 -69 -44l-57 -298h-105l96 498h-134l20 100h373l-20 -100h-134l-16 -84c19 11 41 23 62 23h72c24 0 52 -8 68 -22c14 -11 33 -38 39 -49c9 -19 10 -39 6 -61l-59 -305h-100z" />
    <glyph glyph-name="afii10108" unicode="&#x45b;" horiz-adv-x="485" 
d="M402 0h-100l60 312v6c-3 8 -14 19 -19 23c-1 1 -5 1 -8 1h-72c-19 0 -57 -31 -73 -45l-57 -297h-100l92 476h-39l17 88h39l7 34h100l-7 -34h133l-17 -88h-132l-12 -62c18 12 39 23 59 23h74c25 0 52 -8 69 -22c13 -11 33 -36 39 -48c10 -19 10 -41 6 -61z" />
    <glyph glyph-name="afii10051" unicode="&#x402;" horiz-adv-x="607" 
d="M450 136l33 173c1 4 0 6 0 6c-4 12 -10 19 -19 25c-3 2 -5 2 -8 2h-74c-13 0 -54 -29 -69 -44l-57 -298h-105l96 498h-134l20 100h373l-20 -100h-134l-16 -84c19 11 41 23 62 23h72c24 0 52 -8 68 -22c14 -11 33 -38 39 -49c9 -19 10 -39 6 -61l-35 -177
c-4 -22 -13 -44 -30 -63c-10 -11 -40 -38 -58 -49c-23 -14 -51 -21 -75 -21h-84l18 95h77c4 0 6 1 6 1c13 7 34 23 44 37c0 0 3 4 4 8z" />
    <glyph glyph-name="afii10099" unicode="&#x452;" horiz-adv-x="485" 
d="M461 306l-66 -338c-5 -22 -13 -44 -30 -63c-10 -11 -40 -38 -58 -49c-23 -14 -52 -21 -76 -21h-84l19 95h78c4 0 6 1 6 1c12 7 35 24 45 38c0 0 2 3 3 8l64 335v6c-3 8 -14 19 -19 23c-1 1 -5 1 -8 1h-72c-19 0 -57 -31 -73 -45l-57 -297h-100l92 476h-39l17 88h39l7 34
h100l-7 -34h133l-17 -88h-132l-12 -62c18 12 39 23 59 23h74c25 0 52 -8 69 -22c13 -11 33 -36 39 -48c10 -19 10 -41 6 -61z" />
    <glyph glyph-name="afii10062" unicode="&#x40e;" horiz-adv-x="520" 
d="M424 762h59c-11 -58 -64 -104 -123 -104c-53 0 -96 46 -85 104h57c-5 -26 7 -48 33 -48s54 22 59 48zM590 598l-363 -598h-108l93 159h-15l-91 439h106l65 -329l199 329h114z" />
    <glyph glyph-name="afii10110" unicode="&#x45e;" horiz-adv-x="430" 
d="M480 432l-317 -594h-101l89 162h-9l-67 432h104l40 -294l154 294h107zM351 596h59c-11 -58 -64 -104 -123 -104c-53 0 -96 46 -85 104h57c-5 -26 7 -48 33 -48s54 22 59 48z" />
    <glyph glyph-name="afii10193" unicode="&#x45f;" horiz-adv-x="495" 
d="M259 -94h-100l21 94h-137l83 432h100l-65 -337h169l65 337h100l-83 -432h-134z" />
    <glyph glyph-name="afii10145" unicode="&#x40f;" horiz-adv-x="559" 
d="M281 -94h-99l20 94h-158l116 598h106l-98 -498h204l98 498h105l-116 -598h-159z" />
    <glyph glyph-name="afii61352" unicode="&#x2116;" horiz-adv-x="887" 
d="M467 0h-111l-129 398l-78 -398h-105l116 598h113l126 -403l79 403h105zM630 455l10 50c3 16 8 33 22 48c9 9 31 28 45 37c17 10 39 17 58 17h64c19 0 40 -6 53 -17c10 -8 25 -28 30 -37c8 -15 7 -32 4 -48l-25 -128c-3 -16 -8 -33 -22 -48c-9 -9 -31 -28 -45 -37
c-17 -10 -39 -17 -58 -17h-64c-19 0 -40 6 -53 17c-10 8 -25 28 -30 37c-8 15 -7 32 -4 48zM721 492l-23 -112c0 -1 -1 -3 0 -5c3 -6 10 -13 16 -17c2 -1 4 -1 5 -1h52c1 0 4 0 6 1c9 5 25 20 31 27c1 2 2 5 2 5l23 112c0 1 1 3 0 5c-3 6 -10 13 -16 17c-2 1 -4 1 -5 1h-52
c-1 0 -4 0 -6 -1c-9 -5 -25 -20 -31 -27c-1 -2 -2 -5 -2 -5z" />
    </font>
</defs>
</svg>
